<svg xmlns="http://www.w3.org/2000/svg" width="288.169" height="277.266" viewBox="0 0 288.169 277.266">
  <path id="Path_83" data-name="Path 83" d="M219.973.891a152.977,152.977,0,0,1-16.94-4.673A51.86,51.86,0,0,1,189.6-10.4l3.115-14.8h98.912L288.51-10.4a102.482,102.482,0,0,1-13.435,6.231A111.932,111.932,0,0,1,258.135.891l-141.748,246.5-38.942,4.673L30.326.891A106.626,106.626,0,0,1,14.944-3.977,44.67,44.67,0,0,1,3.456-10.4L6.571-25.2H135.079l-3.115,14.8A116.629,116.629,0,0,1,116-3.977,172.417,172.417,0,0,1,97.7.891l22.2,153.431,1.168,36.605h.779l16.356-37.384Z" transform="translate(-3.456 25.2)" fill="#f98070"/>
</svg>
