<svg xmlns="http://www.w3.org/2000/svg" width="16.378" height="16.379" viewBox="0 0 16.378 16.379">
  <path id="drag-racing" d="M18.209,10.6l-2.34,2.34a.585.585,0,0,1-.827-.827l1.341-1.341H10.775v5.608l1.341-1.341a.585.585,0,0,1,.827.827l-2.34,2.34a.586.586,0,0,1-.828,0l-2.34-2.34a.585.585,0,0,1,.827-.827l1.342,1.341V10.775H4l1.341,1.341a.585.585,0,0,1-.827.827L2.172,10.6a.588.588,0,0,1,0-.828l2.34-2.34a.585.585,0,1,1,.827.827L4,9.605H9.605V4L8.264,5.339a.585.585,0,0,1-.827-.827l2.34-2.34a.588.588,0,0,1,.828,0l2.34,2.34a.585.585,0,0,1-.828.827L10.775,4V9.605h5.608L15.042,8.264a.585.585,0,0,1,.827-.827l2.34,2.34A.587.587,0,0,1,18.209,10.6Z" transform="translate(-2.002 -2.002)" fill="#c0c0c2"/>
</svg>
