<svg height="512" viewBox="0 0 24 24" width="512" xmlns="http://www.w3.org/2000/svg"><g id="image" fill="#E8E8EB" fill-rule="nonzero"><path id="Rectangle" d="m8 7c-.55228475 0-1 .44771525-1 1v11c0 .5522847.44771525 1 1 1h11c.5522847 0 1-.4477153 1-1v-11c0-.55228475-.4477153-1-1-1zm0-2h11c1.6568542 0 3 1.34314575 3 3v11c0 1.6568542-1.3431458 3-3 3h-11c-1.65685425 0-3-1.3431458-3-3v-11c0-1.65685425 1.34314575-3 3-3z"/><path id="Path" d="m4 6h-2v-1c0-1.65685425 1.34314575-3 3-3h11c1.6568542 0 3 1.34314575 3 3v11c0 1.6568542-1.3431458 3-3 3h-1v-2h1c.5522847 0 1-.4477153 1-1v-11c0-.55228475-.4477153-1-1-1h-11c-.55228475 0-1 .44771525-1 1z" transform="matrix(-1 0 0 1 21 0)"/><path id="Path-11" d="m9.83205029 17.5547002c-.30635245.4595287-.9272218.5837026-1.38675049.2773501-.45952868-.3063525-.58370255-.9272218-.27735009-1.3867505l1.99999999-3c.3500416-.5250624 1.0929399-.5986238 1.5391571-.1524066l3 3c.3905243.3905243.3905243 1.0236893 0 1.4142136s-1.0236893.3905243-1.4142136 0l-2.1374684-2.1374684z"/><path id="Path-11-Copy" d="m13.7071068 16.7071068c-.3905243.3905243-1.0236893.3905243-1.4142136 0s-.3905243-1.0236893 0-1.4142136l2-2c.3905243-.3905243 1.0236893-.3905243 1.4142136 0l3 3c.3905243.3905243.3905243 1.0236893 0 1.4142136s-1.0236893.3905243-1.4142136 0l-2.2928932-2.2928932z"/><circle id="Oval" cx="17" cy="10" r="1"/></g></svg>