<svg xmlns="http://www.w3.org/2000/svg" xmlns:xlink="http://www.w3.org/1999/xlink" width="47" height="48" viewBox="0 0 47 48">
  <defs>
    <filter id="Rectangle_691" x="0" y="0" width="47" height="48" filterUnits="userSpaceOnUse">
      <feOffset dy="3" input="SourceAlpha"/>
      <feGaussianBlur stdDeviation="3" result="blur"/>
      <feFlood flood-color="#f6852a" flood-opacity="0.345"/>
      <feComposite operator="in" in2="blur"/>
      <feComposite in="SourceGraphic"/>
    </filter>
    <radialGradient id="radial-gradient" cx="0.133" cy="1.005" r="1.305" gradientTransform="translate(0)" gradientUnits="objectBoundingBox">
      <stop offset="0.09" stop-color="#fa8f21"/>
      <stop offset="0.78" stop-color="#d82d7e"/>
    </radialGradient>
    <radialGradient id="radial-gradient-2" cx="0.606" cy="1.05" r="1.029" gradientTransform="translate(0)" gradientUnits="objectBoundingBox">
      <stop offset="0.64" stop-color="#8c3aaa" stop-opacity="0"/>
      <stop offset="1" stop-color="#8c3aaa"/>
    </radialGradient>
  </defs>
  <g id="Group_156" data-name="Group 156" transform="translate(-364 -1337)">
    <g transform="matrix(1, 0, 0, 1, 364, 1337)" filter="url(#Rectangle_691)">
      <rect id="Rectangle_691-2" data-name="Rectangle 691" width="29" height="30" rx="8" transform="translate(9 6)" fill="#fff"/>
    </g>
    <g id="instagram-2016" transform="translate(372 1343)">
      <path id="Path_90" data-name="Path 90" d="M10.334,15.5A5.166,5.166,0,1,1,15.5,20.667,5.166,5.166,0,0,1,10.334,15.5m-2.793,0A7.959,7.959,0,1,0,15.5,7.541,7.959,7.959,0,0,0,7.541,15.5M21.914,7.225a1.86,1.86,0,1,0,1.861-1.859h0a1.861,1.861,0,0,0-1.86,1.859M9.238,28.117a8.567,8.567,0,0,1-2.878-.533,4.817,4.817,0,0,1-1.783-1.159,4.782,4.782,0,0,1-1.159-1.782,8.559,8.559,0,0,1-.533-2.878c-.075-1.634-.09-2.125-.09-6.264s.016-4.629.09-6.264a8.623,8.623,0,0,1,.533-2.878A4.817,4.817,0,0,1,4.577,4.575,4.777,4.777,0,0,1,6.36,3.416a8.559,8.559,0,0,1,2.878-.533c1.634-.075,2.125-.09,6.262-.09s4.629.016,6.264.09a8.623,8.623,0,0,1,2.878.533,4.8,4.8,0,0,1,1.783,1.159,4.8,4.8,0,0,1,1.159,1.783,8.559,8.559,0,0,1,.533,2.878c.075,1.635.09,2.125.09,6.264s-.015,4.629-.09,6.264a8.6,8.6,0,0,1-.533,2.878,5.132,5.132,0,0,1-2.942,2.941,8.559,8.559,0,0,1-2.878.533c-1.634.075-2.125.09-6.264.09s-4.629-.015-6.262-.09M9.11.094a11.366,11.366,0,0,0-3.762.72A7.6,7.6,0,0,0,2.6,2.6,7.573,7.573,0,0,0,.814,5.347,11.369,11.369,0,0,0,.094,9.11C.017,10.762,0,11.291,0,15.5s.017,4.738.094,6.39a11.368,11.368,0,0,0,.72,3.762A7.577,7.577,0,0,0,2.6,28.4a7.621,7.621,0,0,0,2.746,1.788,11.376,11.376,0,0,0,3.762.72c1.654.075,2.181.094,6.39.094s4.738-.017,6.39-.094a11.368,11.368,0,0,0,3.762-.72,7.925,7.925,0,0,0,4.534-4.534,11.337,11.337,0,0,0,.72-3.762c.075-1.654.093-2.181.093-6.39s-.017-4.738-.093-6.39a11.365,11.365,0,0,0-.72-3.762A7.622,7.622,0,0,0,28.4,2.6,7.584,7.584,0,0,0,25.654.814a11.351,11.351,0,0,0-3.762-.72C20.239.019,19.711,0,15.5,0S10.763.017,9.11.094" fill="url(#radial-gradient)"/>
      <path id="Path_91" data-name="Path 91" d="M10.334,15.5A5.166,5.166,0,1,1,15.5,20.667,5.166,5.166,0,0,1,10.334,15.5m-2.793,0A7.959,7.959,0,1,0,15.5,7.541,7.959,7.959,0,0,0,7.541,15.5M21.914,7.225a1.86,1.86,0,1,0,1.861-1.859h0a1.861,1.861,0,0,0-1.86,1.859M9.238,28.117a8.567,8.567,0,0,1-2.878-.533,4.817,4.817,0,0,1-1.783-1.159,4.782,4.782,0,0,1-1.159-1.782,8.559,8.559,0,0,1-.533-2.878c-.075-1.634-.09-2.125-.09-6.264s.016-4.629.09-6.264a8.623,8.623,0,0,1,.533-2.878A4.817,4.817,0,0,1,4.577,4.575,4.777,4.777,0,0,1,6.36,3.416a8.559,8.559,0,0,1,2.878-.533c1.634-.075,2.125-.09,6.262-.09s4.629.016,6.264.09a8.623,8.623,0,0,1,2.878.533,4.8,4.8,0,0,1,1.783,1.159,4.8,4.8,0,0,1,1.159,1.783,8.559,8.559,0,0,1,.533,2.878c.075,1.635.09,2.125.09,6.264s-.015,4.629-.09,6.264a8.6,8.6,0,0,1-.533,2.878,5.132,5.132,0,0,1-2.942,2.941,8.559,8.559,0,0,1-2.878.533c-1.634.075-2.125.09-6.264.09s-4.629-.015-6.262-.09M9.11.094a11.366,11.366,0,0,0-3.762.72A7.6,7.6,0,0,0,2.6,2.6,7.573,7.573,0,0,0,.814,5.347,11.369,11.369,0,0,0,.094,9.11C.017,10.762,0,11.291,0,15.5s.017,4.738.094,6.39a11.368,11.368,0,0,0,.72,3.762A7.577,7.577,0,0,0,2.6,28.4a7.621,7.621,0,0,0,2.746,1.788,11.376,11.376,0,0,0,3.762.72c1.654.075,2.181.094,6.39.094s4.738-.017,6.39-.094a11.368,11.368,0,0,0,3.762-.72,7.925,7.925,0,0,0,4.534-4.534,11.337,11.337,0,0,0,.72-3.762c.075-1.654.093-2.181.093-6.39s-.017-4.738-.093-6.39a11.365,11.365,0,0,0-.72-3.762A7.622,7.622,0,0,0,28.4,2.6,7.584,7.584,0,0,0,25.654.814a11.351,11.351,0,0,0-3.762-.72C20.239.019,19.711,0,15.5,0S10.763.017,9.11.094" fill="url(#radial-gradient-2)"/>
    </g>
  </g>
</svg>
