<svg xmlns="http://www.w3.org/2000/svg" width="330" height="151.73" viewBox="0 0 330 151.73">
  <g id="Group_27" data-name="Group 27" transform="translate(-779.318 -746.47)">
    <g id="Group_24" data-name="Group 24" transform="translate(836.352 747.095)">
      <path id="Path_46" data-name="Path 46" d="M853.54,769.024a25.2,25.2,0,0,1-8.2-19.19c0-.988.048-1.954.14-2.9a27.437,27.437,0,0,0-15.633,7.4,26.55,26.55,0,0,0,0,38.38,28.931,28.931,0,0,0,39.271,0,24.915,24.915,0,0,0,8.064-16.29,31.564,31.564,0,0,1-4,.279A27.723,27.723,0,0,1,853.54,769.024Z" transform="translate(-821.643 -746.934)" fill="#fbbe1f"/>
    </g>
    <path id="Path_47" data-name="Path 47" d="M827.986,752.675v41.8a5.994,5.994,0,0,1-11.989,0V778.988H793.733v15.491a5.994,5.994,0,0,1-11.989,0v-41.8a5.995,5.995,0,0,1,11.989,0V768.4H816V752.675a5.995,5.995,0,0,1,11.989,0Z" transform="translate(0.843 0.1)" fill="#075CA5"/>
    <path id="Path_48" data-name="Path 48" d="M939.195,752.363a9.23,9.23,0,0,1-.623,3.037l-13.624,40.09c-1.245,3.58-3.815,4.982-6.383,4.982a6.567,6.567,0,0,1-6.461-4.982l-9.652-29.505L893.5,795.491a6.513,6.513,0,0,1-6.383,4.982c-2.568,0-5.216-1.323-6.461-4.982l-13.7-39.313a9.242,9.242,0,0,1-.7-3.347,6.063,6.063,0,0,1,11.834-1.868c3.659,11.132,6.383,20.084,9.263,30.827l9.5-30.206c1.09-3.424,3.5-4.826,6.072-4.826,2.647,0,4.982,1.4,6.072,4.826l9.809,30.361c2.8-10.821,5.606-20.552,8.953-31.062a5.613,5.613,0,0,1,5.6-4.125A5.5,5.5,0,0,1,939.195,752.363Z" transform="translate(30.212 0.1)" fill="#075CA5"/>
    <path id="Path_49" data-name="Path 49" d="M977.318,752.342a5.121,5.121,0,0,1-5.138,5.292H960.5v36.744a5.994,5.994,0,1,1-11.988,0V757.634h-11.6a5.294,5.294,0,0,1,0-10.586H972.18A5.122,5.122,0,0,1,977.318,752.342Z" transform="translate(52.957 0.201)" fill="#075CA5"/>
    <path id="Path_50" data-name="Path 50" d="M966.59,773.716c0-16.036,12.3-27.246,27.557-27.246,15.18,0,27.48,11.21,27.48,27.246,0,16.114-12.3,27.246-27.48,27.246C978.889,800.961,966.59,789.829,966.59,773.716Zm42.58,0c0-10.353-6.928-16.5-15.024-16.5s-15.1,6.15-15.1,16.5,7.006,16.5,15.1,16.5S1009.17,784.07,1009.17,773.716Z" transform="translate(65.082 0)" fill="#075CA5"/>
    <path id="Path_51" data-name="Path 51" d="M784.812,873.493c-3.319-2.175-5.494-4.692-5.494-8.585a7.65,7.65,0,0,1,7.9-7.669c2.633,0,4.692,1.261,6.753,2.633,3.319,2.06,7.1,4.235,13.276,4.235s10.186-3.09,10.186-7.325c0-5.378-6.867-6.98-14.076-9.726-13.5-5.15-21.174-11.331-21.174-23.807,0-13.618,9.613-23.462,26.668-23.462,8.582,0,13.618,1.488,17.052,3.32,3.433,1.715,6.067,4.463,6.067,8.01,0,4.006-2.748,7.785-6.867,7.785a16.17,16.17,0,0,1-5.952-1.489,28.563,28.563,0,0,0-10.186-2.175c-6.065,0-9.5,2.975-9.5,6.751,0,5.61,6.638,7.441,14.649,10.416,10.53,3.892,20.486,9.271,20.486,23.349,0,15.564-12.245,23.917-28.041,23.917A42.272,42.272,0,0,1,784.812,873.493Z" transform="translate(0 18.529)" fill="#075CA5"/>
    <path id="Path_52" data-name="Path 52" d="M876.864,870.828a7.743,7.743,0,0,1-7.9,7.781H837.951a8.578,8.578,0,0,1-8.7-8.812V808.91a8.813,8.813,0,0,1,17.624,0v54.134h22.09A7.674,7.674,0,0,1,876.864,870.828Z" transform="translate(17.354 18.677)" fill="#075CA5"/>
    <path id="Path_53" data-name="Path 53" d="M922.9,870.564a7.769,7.769,0,0,1-7.9,7.9H880.438a8.432,8.432,0,0,1-8.469-8.7V809.45a8.53,8.53,0,0,1,8.469-8.813h33.3a7.77,7.77,0,0,1,7.9,7.9,7.583,7.583,0,0,1-7.9,7.666H889.595v15.793H910.31a7.328,7.328,0,1,1,0,14.649H889.595V862.9H915A7.581,7.581,0,0,1,922.9,870.564Z" transform="translate(32.199 18.824)" fill="#075CA5"/>
    <path id="Path_54" data-name="Path 54" d="M969.606,870.564a7.769,7.769,0,0,1-7.9,7.9H927.145a8.432,8.432,0,0,1-8.469-8.7V809.45a8.53,8.53,0,0,1,8.469-8.813h33.3a7.77,7.77,0,0,1,7.9,7.9,7.583,7.583,0,0,1-7.9,7.666H936.3v15.793h20.715a7.328,7.328,0,1,1,0,14.649H936.3V862.9h25.409A7.581,7.581,0,0,1,969.606,870.564Z" transform="translate(48.431 18.824)" fill="#075CA5"/>
    <path id="Path_55" data-name="Path 55" d="M1021.463,827.532c0,13.276-9.041,26.781-28.5,26.781h-9.958v16.022a8.812,8.812,0,1,1-17.624,0V809.45a8.7,8.7,0,0,1,8.584-8.813h19C1012.422,800.637,1021.463,814.258,1021.463,827.532Z" transform="translate(64.663 18.824)" fill="#075CA5"/>
    <g id="Group_25" data-name="Group 25" transform="translate(1043.142 838.61)">
      <path id="Path_56" data-name="Path 56" d="M1004.113,825.367a1.727,1.727,0,0,1-2.372-.563l-2.494-4.047a19.436,19.436,0,0,1-4.255,1.531l.973,4.79a1.72,1.72,0,0,1-1.346,2.031,1.669,1.669,0,0,1-.344.036,1.723,1.723,0,0,1-1.686-1.381l-1-4.94c-.678.055-1.374.094-2.116.094-.437,0-.852-.015-1.267-.03l-.99,4.875a1.723,1.723,0,0,1-1.686,1.381,1.7,1.7,0,0,1-.345-.036,1.72,1.72,0,0,1-1.345-2.031l.911-4.482a25.559,25.559,0,0,1-4.262-.969l-2.112,4.323a1.725,1.725,0,0,1-1.551.969,1.7,1.7,0,0,1-.753-.177,1.722,1.722,0,0,1-.792-2.3l2.025-4.144a10.028,10.028,0,0,1-1.6-1.034,1.723,1.723,0,0,1,2.233-2.624c.085.069,3.6,2.836,11.533,2.836,7.847,0,11.18-3.846,11.318-4.01a1.723,1.723,0,0,1,2.663,2.188,9.754,9.754,0,0,1-1.3,1.242l2.528,4.1A1.724,1.724,0,0,1,1004.113,825.367Z" transform="translate(-975.102 -814.847)" fill="#fff"/>
    </g>
    <g id="Group_26" data-name="Group 26" transform="translate(1078.065 787.782)">
      <path id="Path_57" data-name="Path 57" d="M1015.273,801.54l-5.984,5.23a1.08,1.08,0,0,1-.753.313.908.908,0,0,1-.651-.329,1.705,1.705,0,0,1-.336-.8l-1.808-8.758-1.965,1.719a1.585,1.585,0,0,1-1.209.416,1.706,1.706,0,0,1-1.546-1.788,1.6,1.6,0,0,1,.563-1.135l5.157-4.5a1.067,1.067,0,0,1,.75-.311.905.905,0,0,1,.652.326,1.715,1.715,0,0,1,.334.8l1.746,8.809,2.857-2.494a1.592,1.592,0,0,1,1.2-.408,1.729,1.729,0,0,1,1.577,1.781A1.6,1.6,0,0,1,1015.273,801.54Z" transform="translate(-1001.018 -772.101)" fill="#075CA5"/>
      <path id="Path_58" data-name="Path 58" d="M1022.314,793.443l-5.072,6.119a1.074,1.074,0,0,1-.693.428.9.9,0,0,1-.694-.22,1.692,1.692,0,0,1-.459-.737l-3.186-8.357-1.666,2.013a1.588,1.588,0,0,1-1.126.6,1.714,1.714,0,0,1-1.811-1.52,1.584,1.584,0,0,1,.375-1.206l4.37-5.274a1.052,1.052,0,0,1,.691-.423.878.878,0,0,1,.7.214,1.7,1.7,0,0,1,.459.74l3.133,8.419,2.422-2.924a1.6,1.6,0,0,1,1.117-.594,1.634,1.634,0,0,1,1.228.4,1.6,1.6,0,0,1,.217,2.322Z" transform="translate(-998.731 -774.439)" fill="#075CA5"/>
      <path id="Path_59" data-name="Path 59" d="M1027.878,783.673l-3.715,7.027a1.067,1.067,0,0,1-.592.559.893.893,0,0,1-.724-.071,1.669,1.669,0,0,1-.6-.628l-4.826-7.53-1.221,2.312a1.575,1.575,0,0,1-.977.821,1.613,1.613,0,0,1-1.253-.132,1.63,1.63,0,0,1-.833-.985,1.585,1.585,0,0,1,.12-1.257l3.2-6.056a1.09,1.09,0,0,1,.59-.561.906.906,0,0,1,.725.073,1.713,1.713,0,0,1,.6.628l4.786,7.6,1.773-3.357a1.592,1.592,0,0,1,.972-.808,1.633,1.633,0,0,1,1.283.132,1.6,1.6,0,0,1,.69,2.232Z" transform="translate(-996.833 -777.128)" fill="#075CA5"/>
    </g>
  </g>
</svg>
