<svg xmlns="http://www.w3.org/2000/svg" width="29.574" height="29.574" viewBox="0 0 29.574 29.574">
  <g id="Group_158" data-name="Group 158" transform="translate(27 -11)">
    <path id="Icon_awesome-twitter-square" data-name="Icon awesome-twitter-square" d="M26.406,2.25H3.169A3.169,3.169,0,0,0,0,5.419V28.656a3.169,3.169,0,0,0,3.169,3.169H26.406a3.169,3.169,0,0,0,3.169-3.169V5.419A3.169,3.169,0,0,0,26.406,2.25ZM23.177,12.733c.013.185.013.376.013.561A12.234,12.234,0,0,1,10.872,25.612a12.261,12.261,0,0,1-6.648-1.941,9.121,9.121,0,0,0,1.043.053,8.68,8.68,0,0,0,5.374-1.848,4.335,4.335,0,0,1-4.047-3,4.666,4.666,0,0,0,1.954-.079,4.33,4.33,0,0,1-3.466-4.251v-.053a4.327,4.327,0,0,0,1.954.548,4.32,4.32,0,0,1-1.928-3.6A4.275,4.275,0,0,1,5.7,9.247a12.293,12.293,0,0,0,8.925,4.529,4.339,4.339,0,0,1,7.387-3.954,8.484,8.484,0,0,0,2.746-1.043,4.318,4.318,0,0,1-1.9,2.383,8.616,8.616,0,0,0,2.5-.673A9.113,9.113,0,0,1,23.177,12.733Z" transform="translate(-27 8.75)" fill="#29a4d9"/>
  </g>
</svg>
