<svg xmlns="http://www.w3.org/2000/svg" width="273.979" height="37.542" viewBox="0 0 273.979 37.542">
  <g id="logo-white" transform="translate(-1.068 -0.476)">
    <path id="Path_957" data-name="Path 957" d="M11.632.481c.118-.118,2.356,1.579,4.76,4.359.66.754,1.131,1.367,1.508,1.885.66.872,1.673,2.239,2.78,4.029a39.662,39.662,0,0,1,2,3.511,21.449,21.449,0,0,1,2,5.49,13.62,13.62,0,0,1-.024,6.386,12.491,12.491,0,0,1-5.043,7.163A12.663,12.663,0,0,1,14.6,35.143a11.5,11.5,0,0,1-3.464.024,11.676,11.676,0,0,1-5.09-2.191,11.746,11.746,0,0,1-3.77-4.289A11.572,11.572,0,0,1,1.17,24.964a12.875,12.875,0,0,1,0-3.228,12.234,12.234,0,0,1,1.155-3.77,13.9,13.9,0,0,1,2.333-3.181c.542-.613.589-.566,2.262-2.168a34.1,34.1,0,0,0,2.757-2.78,10.166,10.166,0,0,0,1.885-3.37,13.041,13.041,0,0,0,.377-4.006,7.977,7.977,0,0,0-.165-1.367C11.75,1.047,11.75.976,11.7.788S11.632.481,11.632.481Z" fill="#c9c9c9"/>
    <path id="Path_958" data-name="Path 958" d="M29.475,58.689A12.042,12.042,0,0,0,26.623,61.3a11.4,11.4,0,0,0-.9,1.131,26.3,26.3,0,0,0-1.673,2.427,21.453,21.453,0,0,0-1.2,2.1,12.843,12.843,0,0,0-1.2,3.3,8.222,8.222,0,0,0,0,3.841,7.146,7.146,0,0,0,6.056,5.42,6.541,6.541,0,0,0,2.074,0,7.708,7.708,0,0,0,5.325-3.888,7.51,7.51,0,0,0,.66-2.239,7.215,7.215,0,0,0,0-1.932,7.365,7.365,0,0,0-.683-2.262,8.324,8.324,0,0,0-1.39-1.909c-.33-.377-.353-.33-1.367-1.3a16.172,16.172,0,0,1-1.649-1.673,6.3,6.3,0,0,1-1.131-2.026,7.912,7.912,0,0,1-.236-2.4,5.343,5.343,0,0,1,.094-.825c0-.024.024-.071.047-.189A.652.652,0,0,1,29.475,58.689Z" transform="translate(-15.557 -44.494)" fill="#ebebeb"/>
    <g id="Group_759" data-name="Group 759" transform="translate(35.784 1.777)">
      <path id="Path_959" data-name="Path 959" d="M154.338,51.846c.189,2.451,1.885,3.864,4.831,3.864a12.475,12.475,0,0,0,5.985-1.767l.589,4.689a16.431,16.431,0,0,1-7.116,1.508c-6.221,0-10.227-3.464-10.227-9.567,0-5.985,4.1-9.873,9.92-9.873,5.184,0,8.035,3.11,8.035,7.682a13.751,13.751,0,0,1-.4,3.228l-11.617.189v.047Zm6.362-3.134v-.353c0-2.168-.9-3.511-2.8-3.511-2.1,0-3.346,1.814-3.535,3.888Z" transform="translate(-148.4 -32.523)" fill="#fff"/>
      <path id="Path_960" data-name="Path 960" d="M251.047,59.421V48.582c0-2.191-.99-2.922-2.592-2.922a5.038,5.038,0,0,0-3.3,1.367V59.374H239.1V41.419l6.056-.754v2.993a8.41,8.41,0,0,1,6.126-3.157c3.652,0,5.82,2.4,5.82,6.291V59.374h-6.056Z" transform="translate(-217.728 -32.371)" fill="#fff"/>
      <path id="Path_961" data-name="Path 961" d="M335.138,51.846c.189,2.451,1.885,3.864,4.831,3.864a12.475,12.475,0,0,0,5.985-1.767l.589,4.689a16.431,16.431,0,0,1-7.116,1.508c-6.221,0-10.227-3.464-10.227-9.567,0-5.985,4.1-9.873,9.92-9.873,5.184,0,8.035,3.11,8.035,7.682a13.752,13.752,0,0,1-.4,3.228l-11.617.189v.047Zm6.386-3.134v-.353c0-2.168-.9-3.511-2.8-3.511-2.1,0-3.346,1.814-3.535,3.888Z" transform="translate(-286.597 -32.523)" fill="#fff"/>
      <path id="Path_962" data-name="Path 962" d="M425.956,59.5H419.9v-18l6.056-.754v2.686a4.9,4.9,0,0,1,4.406-2.828,6.586,6.586,0,0,1,3.04.754L432.177,46.7a5.1,5.1,0,0,0-2.286-.542c-1.508,0-2.828.754-3.935,2.686Z" transform="translate(-355.925 -32.447)" fill="#fff"/>
      <path id="Path_963" data-name="Path 963" d="M490.243,68.057a17,17,0,0,1-7.8-1.862l1.532-4.689a13.875,13.875,0,0,0,5.938,1.626c2.474,0,4.171-.943,4.171-4.218v-1.3a6.375,6.375,0,0,1-5,2.215c-4.406,0-7.988-3.417-7.988-9.331s4.218-9.8,9.143-9.8a12.822,12.822,0,0,1,4.477.872l5.42-.778V57.831C500.163,65.041,496.817,68.057,490.243,68.057Zm3.864-22.079a5,5,0,0,0-2.8-.778c-2.592,0-4.124,2.05-4.124,5,0,3.063,1.6,4.948,3.864,4.948a4.1,4.1,0,0,0,3.063-1.3Z" transform="translate(-402.704 -32.524)" fill="#fff"/>
      <path id="Path_964" data-name="Path 964" d="M582.15,60.613l-.9,2.4c-1.885,5.349-4.171,6.975-8.035,6.975a12.656,12.656,0,0,1-5.42-1.178l1.814-4.595a6.721,6.721,0,0,0,2.828.825c1.3,0,1.885-.471,2.592-2.239l.518-1.414L568.389,43.2h6.5l3.888,12.041L582.315,43.2h6.456Z" transform="translate(-468.975 -34.434)" fill="#fff"/>
      <path id="Path_965" data-name="Path 965" d="M679.976,33.051V21.387c0-3.157-1.249-4.571-3.864-4.571a8.1,8.1,0,0,0-5.585,2.568V33.027H668.1V6.518L670.527,6V17.381a9.226,9.226,0,0,1,6.244-2.875c3.511,0,5.632,2.239,5.632,6.174V33.027l-2.427.024Z" transform="translate(-545.641 -6)" fill="#fff"/>
      <path id="Path_966" data-name="Path 966" d="M749.874,51.826c.071,4.053,2.521,6.975,6.292,6.975a9.623,9.623,0,0,0,5.231-1.508l.471,2.239a11.059,11.059,0,0,1-5.773,1.532c-5.184,0-8.695-3.888-8.695-9.378,0-5.655,3.629-9.685,8.506-9.685,3.982,0,6.574,2.592,6.574,6.645a11.142,11.142,0,0,1-.4,2.875l-12.206.071v.236Zm10.156-2.168a4.3,4.3,0,0,0,.047-.778c0-2.757-1.484-4.642-4.336-4.642-3.228,0-5.3,2.474-5.7,5.467Z" transform="translate(-606.255 -33.517)" fill="#fff"/>
      <path id="Path_967" data-name="Path 967" d="M830.9,33.051V6.518L833.327,6V33.027H830.9Z" transform="translate(-670.08 -6)" fill="#fff"/>
      <path id="Path_968" data-name="Path 968" d="M873.058,41.912c4.878,0,8.059,3.864,8.059,9.331,0,5.585-3.7,9.614-8.883,9.614a11.788,11.788,0,0,1-4.406-.943v9.614H865.4V42.218l2.427-.518v2.4A7.712,7.712,0,0,1,873.058,41.912ZM867.8,57.228a7.551,7.551,0,0,0,4.524,1.414c3.864,0,6.244-3.11,6.244-7.352,0-4.171-2.286-7.116-5.938-7.116a7.276,7.276,0,0,0-4.831,2Z" transform="translate(-696.45 -33.288)" fill="#fff"/>
      <path id="Path_969" data-name="Path 969" d="M951.3,33.051V6.518L953.727,6V33.027H951.3Z" transform="translate(-762.109 -6)" fill="#fff"/>
      <path id="Path_970" data-name="Path 970" d="M985.649,15.235A1.651,1.651,0,0,1,984,13.42a1.651,1.651,0,1,1,3.3,0A1.627,1.627,0,0,1,985.649,15.235Zm-1.2,22.173V19.382l2.427-.518V37.408Z" transform="translate(-787.104 -10.357)" fill="#fff"/>
      <path id="Path_971" data-name="Path 971" d="M1032.476,60.644V48.981c0-3.158-1.249-4.571-3.982-4.571a8.057,8.057,0,0,0-5.467,2.568V60.621H1020.6v-18l2.427-.518v2.945a9.318,9.318,0,0,1,6.15-2.945c3.629,0,5.75,2.239,5.75,6.174V60.621h-2.451Z" transform="translate(-815.08 -33.594)" fill="#fff"/>
      <path id="Path_972" data-name="Path 972" d="M1102.3,51.826c.071,4.053,2.521,6.975,6.292,6.975a9.623,9.623,0,0,0,5.231-1.508l.471,2.239a11.084,11.084,0,0,1-5.8,1.532c-5.184,0-8.695-3.888-8.695-9.378,0-5.655,3.629-9.685,8.506-9.685,3.982,0,6.574,2.592,6.574,6.645a11.14,11.14,0,0,1-.4,2.875l-12.206.071.024.236Zm10.156-2.168a4.31,4.31,0,0,0,.047-.778c0-2.757-1.484-4.642-4.336-4.642-3.228,0-5.325,2.474-5.7,5.467Z" transform="translate(-875.617 -33.517)" fill="#fff"/>
    </g>
  </g>
</svg>
