<svg xmlns="http://www.w3.org/2000/svg" width="300" height="82.174"><defs><linearGradient id="a" x1=".39" y1=".33" x2=".966" y2=".959" gradientUnits="objectBoundingBox"><stop offset="0" stop-color="#075ca5"/><stop offset="1" stop-color="#719dc6"/></linearGradient></defs><path data-name="Union 28" d="M213.2 80.567c-11.776-.685-23.584-1.593-35-2.472h-.009c-12.811-.986-26.059-2.006-39.311-2.712-7.72-.407-15.6-.717-23.41-.921a919.1 919.1 0 00-23.508-.306c-7.786 0-15.666.1-23.42.3s-15.569.507-23.23.909-15.377.91-22.894 1.51A799.346 799.346 0 000 78.985V.542A913.376 913.376 0 0131.551 0C49.884 0 68.473.541 86.8 1.607c11.776.685 23.584 1.593 35 2.472h.009c12.811.986 26.059 2.006 39.311 2.712 7.72.407 15.6.717 23.41.921 7.781.2 15.69.306 23.508.306 7.786 0 15.666-.1 23.42-.3s15.569-.507 23.23-.909 15.377-.91 22.894-1.51c7.547-.6 15.088-1.311 22.413-2.108v78.441a910.87 910.87 0 01-31.551.542c-18.329 0-36.918-.541-55.244-1.607zM0 14.666z" fill="url(#a)"/></svg>