<svg xmlns="http://www.w3.org/2000/svg" width="330" height="151.73"><g data-name="Group 27"><g data-name="Group 24"><path data-name="Path 46" d="M88.931 22.715a25.2 25.2 0 01-8.2-19.19c0-.988.048-1.954.14-2.9a27.437 27.437 0 00-15.633 7.4 26.55 26.55 0 000 38.38 28.931 28.931 0 0039.271 0 24.915 24.915 0 008.064-16.29 31.564 31.564 0 01-4 .279 27.723 27.723 0 01-19.642-7.679z" fill="#fbbe1f"/></g><path data-name="Path 47" d="M49.511 6.305v41.8a5.995 5.995 0 01-11.989 0V32.618H15.258v15.491a5.995 5.995 0 01-11.989 0v-41.8a5.995 5.995 0 0111.989 0V22.03h22.267V6.305a5.995 5.995 0 0111.989 0z" fill="#fff"/><path data-name="Path 48" d="M190.089 5.993a9.23 9.23 0 01-.623 3.037l-13.624 40.09c-1.245 3.58-3.815 4.982-6.383 4.982a6.567 6.567 0 01-6.461-4.982l-9.652-29.505-8.952 29.506a6.513 6.513 0 01-6.383 4.982c-2.568 0-5.216-1.323-6.461-4.982l-13.7-39.313a9.242 9.242 0 01-.7-3.347 6.063 6.063 0 0111.834-1.868c3.659 11.132 6.383 20.084 9.263 30.827l9.5-30.206c1.09-3.424 3.5-4.826 6.072-4.826 2.647 0 4.982 1.4 6.072 4.826l9.809 30.361a569.528 569.528 0 018.953-31.062 5.613 5.613 0 015.6-4.125 5.5 5.5 0 015.836 5.605z" fill="#fff"/><path data-name="Path 49" d="M250.957 6.073a5.121 5.121 0 01-5.138 5.292h-11.68v36.744a5.994 5.994 0 11-11.988 0V11.365h-11.6a5.294 5.294 0 010-10.586h35.268a5.122 5.122 0 015.138 5.294z" fill="#fff"/><path data-name="Path 50" d="M252.354 27.246C252.354 11.21 264.654 0 279.911 0c15.18 0 27.48 11.21 27.48 27.246 0 16.114-12.3 27.246-27.48 27.246-15.258-.001-27.557-11.133-27.557-27.246zm42.58 0c0-10.353-6.928-16.5-15.024-16.5s-15.1 6.15-15.1 16.5 7.006 16.5 15.1 16.5 15.024-6.146 15.024-16.5z" fill="#fff"/><path data-name="Path 51" d="M5.494 145.552C2.175 143.377 0 140.86 0 136.967a7.65 7.65 0 017.9-7.669c2.633 0 4.692 1.261 6.753 2.633 3.319 2.06 7.1 4.235 13.276 4.235s10.186-3.09 10.186-7.325c0-5.378-6.867-6.98-14.076-9.726-13.5-5.15-21.174-11.331-21.174-23.807 0-13.618 9.613-23.462 26.668-23.462 8.582 0 13.618 1.488 17.052 3.32 3.433 1.715 6.067 4.463 6.067 8.01 0 4.006-2.748 7.785-6.867 7.785a16.17 16.17 0 01-5.952-1.489 28.563 28.563 0 00-10.186-2.175c-6.065 0-9.5 2.975-9.5 6.751 0 5.61 6.638 7.441 14.649 10.416 10.53 3.892 20.486 9.271 20.486 23.349 0 15.564-12.245 23.917-28.041 23.917a42.272 42.272 0 01-21.747-6.178z" fill="#fff"/><path data-name="Path 52" d="M114.9 143.035a7.743 7.743 0 01-7.9 7.781H75.987a8.578 8.578 0 01-8.7-8.812V81.117a8.813 8.813 0 0117.624 0v54.134h22.09a7.674 7.674 0 017.899 7.784z" fill="#fff"/><path data-name="Path 53" d="M175.781 142.918a7.769 7.769 0 01-7.9 7.9h-34.562a8.432 8.432 0 01-8.469-8.7V81.804a8.53 8.53 0 018.469-8.813h33.3a7.77 7.77 0 017.9 7.9 7.583 7.583 0 01-7.9 7.666h-24.143v15.793h20.715a7.328 7.328 0 110 14.649h-20.715v16.255h25.405a7.581 7.581 0 017.9 7.664z" fill="#fff"/><path data-name="Path 54" d="M238.719 142.918a7.769 7.769 0 01-7.9 7.9h-34.561a8.432 8.432 0 01-8.469-8.7V81.804a8.53 8.53 0 018.469-8.813h33.3a7.77 7.77 0 017.9 7.9 7.583 7.583 0 01-7.9 7.666h-24.145v15.793h20.715a7.328 7.328 0 110 14.649h-20.715v16.255h25.409a7.581 7.581 0 017.897 7.664z" fill="#fff"/><path data-name="Path 55" d="M306.808 99.886c0 13.276-9.041 26.781-28.5 26.781h-9.958v16.022a8.812 8.812 0 11-17.624 0V81.804a8.7 8.7 0 018.584-8.813h19c19.457 0 28.498 13.621 28.498 26.895z" fill="#fff"/><g data-name="Group 25"><path data-name="Path 56" d="M292.835 102.66a1.727 1.727 0 01-2.372-.563l-2.494-4.047a19.436 19.436 0 01-4.255 1.531l.973 4.79a1.72 1.72 0 01-1.346 2.031 1.669 1.669 0 01-.344.036 1.723 1.723 0 01-1.686-1.381l-1-4.94c-.678.055-1.374.094-2.116.094-.437 0-.852-.015-1.267-.03l-.99 4.875a1.723 1.723 0 01-1.686 1.381 1.7 1.7 0 01-.345-.036 1.72 1.72 0 01-1.345-2.031l.911-4.482a25.559 25.559 0 01-4.262-.969l-2.112 4.323a1.725 1.725 0 01-1.551.969 1.7 1.7 0 01-.753-.177 1.722 1.722 0 01-.792-2.3l2.025-4.144a10.028 10.028 0 01-1.6-1.034 1.723 1.723 0 012.233-2.624c.085.069 3.6 2.836 11.533 2.836 7.847 0 11.18-3.846 11.318-4.01a1.723 1.723 0 012.663 2.188 9.754 9.754 0 01-1.3 1.242l2.528 4.1a1.724 1.724 0 01-.568 2.372z" fill="#1a1533"/></g><g data-name="Group 26" fill="#fff"><path data-name="Path 57" d="M313.002 70.751l-5.984 5.23a1.08 1.08 0 01-.753.313.908.908 0 01-.651-.329 1.705 1.705 0 01-.336-.8l-1.808-8.758-1.965 1.719a1.585 1.585 0 01-1.209.416 1.706 1.706 0 01-1.546-1.788 1.6 1.6 0 01.563-1.135l5.157-4.5a1.067 1.067 0 01.75-.311.905.905 0 01.652.326 1.715 1.715 0 01.334.8l1.746 8.809 2.857-2.494a1.592 1.592 0 011.2-.408 1.729 1.729 0 011.577 1.781 1.6 1.6 0 01-.584 1.129z"/><path data-name="Path 58" d="M322.33 60.316l-5.072 6.119a1.074 1.074 0 01-.693.428.9.9 0 01-.694-.22 1.692 1.692 0 01-.459-.737l-3.186-8.357-1.666 2.013a1.588 1.588 0 01-1.126.6 1.714 1.714 0 01-1.811-1.52 1.584 1.584 0 01.375-1.206l4.37-5.274a1.052 1.052 0 01.691-.423.878.878 0 01.7.214 1.7 1.7 0 01.459.74l3.133 8.419 2.422-2.924a1.6 1.6 0 011.117-.594 1.634 1.634 0 011.228.4 1.6 1.6 0 01.217 2.322z"/><path data-name="Path 59" d="M329.792 47.857l-3.715 7.027a1.067 1.067 0 01-.592.559.893.893 0 01-.724-.071 1.669 1.669 0 01-.6-.628l-4.826-7.53-1.221 2.312a1.575 1.575 0 01-.977.821 1.613 1.613 0 01-1.253-.132 1.63 1.63 0 01-.833-.985 1.585 1.585 0 01.12-1.257l3.2-6.056a1.09 1.09 0 01.59-.561.906.906 0 01.725.073 1.713 1.713 0 01.6.628l4.786 7.6 1.773-3.357a1.592 1.592 0 01.972-.808 1.633 1.633 0 011.283.132 1.6 1.6 0 01.69 2.232z"/></g></g></svg>