<svg xmlns="http://www.w3.org/2000/svg" width="210.383" height="20"><g data-name="Group 14"><g data-name="Group 11"><path data-name="Path 15" d="M31.228 8.281a9.189 9.189 0 01-2.99-7q0-.54.051-1.057a10 10 0 00-5.7 2.7 9.679 9.679 0 000 13.992 10.547 10.547 0 0014.317 0 9.083 9.083 0 002.94-5.939 11.507 11.507 0 01-1.46.1 10.106 10.106 0 01-7.158-2.796z" fill="#fbbe1f"/></g><path data-name="Path 16" d="M16.856 2.299v15.24a2.186 2.186 0 01-4.371 0v-5.647H4.369v5.647a2.186 2.186 0 01-4.371 0V2.299a2.186 2.186 0 014.371 0v5.732h8.116V2.299a2.186 2.186 0 014.371 0z" fill="#fff"/><path data-name="Path 17" d="M68.107 2.183a3.367 3.367 0 01-.227 1.107l-4.967 14.615a2.419 2.419 0 01-2.327 1.816 2.394 2.394 0 01-2.356-1.816L54.711 7.148l-3.264 10.757a2.374 2.374 0 01-2.327 1.816 2.416 2.416 0 01-2.356-1.816l-5-14.332a3.37 3.37 0 01-.255-1.22 2.21 2.21 0 014.314-.681C47.157 5.73 48.15 8.994 49.2 12.91l3.463-11.012a2.272 2.272 0 014.427 0l3.576 11.068A208.74 208.74 0 0163.93 1.642a2.046 2.046 0 012.043-1.5 2 2 0 012.134 2.041z" fill="#fff"/><path data-name="Path 18" d="M94.227 2.214a1.867 1.867 0 01-1.873 1.929h-4.257v13.4a2.185 2.185 0 11-4.37 0v-13.4h-4.23a1.93 1.93 0 010-3.859h12.856a1.867 1.867 0 011.874 1.93z" fill="#fff"/><path data-name="Path 19" d="M94.737 9.93a10.033 10.033 0 1110.046 9.933A9.758 9.758 0 0194.737 9.93zm15.523 0c0-3.774-2.526-6.016-5.477-6.016s-5.505 2.242-5.505 6.016 2.554 6.017 5.505 6.017 5.477-2.24 5.477-6.017z" fill="#fff"/><path data-name="Path 20" d="M125.367 18.463a2.486 2.486 0 01-1.366-2.135 1.9 1.9 0 011.964-1.907 3 3 0 011.679.655 5.745 5.745 0 003.3 1.053c1.537 0 2.533-.768 2.533-1.822 0-1.338-1.708-1.736-3.5-2.419-3.358-1.281-5.265-2.818-5.265-5.92 0-3.387 2.39-5.835 6.631-5.835a8.756 8.756 0 014.24.826 2.353 2.353 0 011.509 1.992 1.824 1.824 0 01-1.708 1.936 4.013 4.013 0 01-1.48-.37 7.109 7.109 0 00-2.533-.541c-1.509 0-2.362.74-2.362 1.679 0 1.395 1.651 1.851 3.643 2.59 2.618.967 5.094 2.305 5.094 5.806 0 3.871-3.045 5.948-6.973 5.948a10.515 10.515 0 01-5.406-1.536z" fill="#fff"/><path data-name="Path 21" d="M152.574 17.837a1.925 1.925 0 01-1.964 1.935h-7.713a2.133 2.133 0 01-2.163-2.191V2.444a2.192 2.192 0 014.383 0v13.462h5.493a1.909 1.909 0 011.964 1.931z" fill="#fff"/><path data-name="Path 22" d="M167.713 17.808a1.932 1.932 0 01-1.964 1.964h-8.6a2.1 2.1 0 01-2.106-2.163v-15a2.121 2.121 0 012.106-2.191h8.282a1.932 1.932 0 011.964 1.964 1.886 1.886 0 01-1.964 1.907h-6.005v3.927h5.151a1.822 1.822 0 110 3.643h-5.151v4.042h6.318a1.885 1.885 0 011.969 1.907z" fill="#fff"/><path data-name="Path 23" d="M183.365 17.808a1.931 1.931 0 01-1.964 1.964h-8.6a2.1 2.1 0 01-2.106-2.163v-15a2.121 2.121 0 012.106-2.191h8.282a1.932 1.932 0 011.964 1.964 1.886 1.886 0 01-1.964 1.907h-6.004v3.927h5.152a1.822 1.822 0 110 3.643h-5.152v4.042h6.319a1.885 1.885 0 011.967 1.907z" fill="#fff"/><g data-name="Group 12"><path data-name="Path 24" d="M193.211.419h-4.724a2.162 2.162 0 00-2.135 2.191v15.141a2.192 2.192 0 104.383 0v-3.985h2.476c4.838 0 7.086-3.358 7.086-6.659S198.05.419 193.211.419zm3.612 7.378a.429.429 0 01-.589-.14l-.62-1.007a4.82 4.82 0 01-1.058.381l.242 1.191a.427.427 0 01-.334.505.422.422 0 01-.085.009.429.429 0 01-.42-.343l-.25-1.229a6.28 6.28 0 01-.526.024c-.109 0-.212 0-.315-.007l-.246 1.212a.429.429 0 11-.84-.17l.227-1.115a6.333 6.333 0 01-1.06-.241l-.525 1.075a.429.429 0 11-.77-.376l.5-1.03a2.483 2.483 0 01-.4-.257.429.429 0 01.555-.653 4.773 4.773 0 002.868.705 3.679 3.679 0 002.814-1 .429.429 0 01.662.544 2.427 2.427 0 01-.324.309l.629 1.02a.429.429 0 01-.135.592z" fill="#fff"/></g><g data-name="Group 13" fill="#fff"><path data-name="Path 25" d="M205.929 8.649l-1.568 1.37a.282.282 0 01-.2.082.237.237 0 01-.171-.086.448.448 0 01-.088-.21l-.474-2.295-.515.451a.416.416 0 01-.317.109.448.448 0 01-.4-.469.416.416 0 01.147-.3l1.351-1.18a.28.28 0 01.2-.082.239.239 0 01.171.085.454.454 0 01.087.211l.457 2.308.749-.653a.415.415 0 01.314-.107.432.432 0 01.26.763z"/><path data-name="Path 26" d="M208.372 5.915l-1.329 1.6a.281.281 0 01-.182.112.232.232 0 01-.181-.057.434.434 0 01-.12-.193l-.835-2.19-.437.527a.414.414 0 01-.3.158.449.449 0 01-.475-.4.42.42 0 01.1-.316l1.145-1.382a.277.277 0 01.181-.111.23.23 0 01.182.056.444.444 0 01.121.194l.821 2.206.634-.766a.42.42 0 01.293-.155.427.427 0 01.321.1.418.418 0 01.057.609z"/><path data-name="Path 27" d="M210.328 2.651l-.973 1.841a.279.279 0 01-.155.146.235.235 0 01-.189-.019.442.442 0 01-.158-.165l-1.264-1.973-.32.606a.412.412 0 01-.256.215.447.447 0 01-.546-.293.415.415 0 01.031-.33l.838-1.586a.282.282 0 01.155-.147.238.238 0 01.19.019.446.446 0 01.158.165l1.254 1.991.465-.879a.416.416 0 01.255-.212.425.425 0 01.336.034.42.42 0 01.18.585z"/></g></g></svg>