<svg xmlns="http://www.w3.org/2000/svg" width="165.293" height="76"><g data-name="Group 46"><g data-name="Group 24"><path data-name="Path 46" d="M44.545 11.379a12.625 12.625 0 01-4.108-9.612c0-.495.024-.979.07-1.452a13.743 13.743 0 00-7.83 3.709 13.3 13.3 0 000 19.224 14.491 14.491 0 0019.67 0 12.48 12.48 0 004.039-8.16 15.8 15.8 0 01-2.005.14 13.886 13.886 0 01-9.836-3.849z" fill="#fbbe1f"/></g><path data-name="Path 47" d="M24.799 3.158v20.939a3.002 3.002 0 01-6.005 0v-7.761H7.642v7.759a3.002 3.002 0 01-6.005 0V3.158a3.002 3.002 0 016.005 0v7.878h11.151V3.16a3.002 3.002 0 016.005 0z" fill="#075ca5"/><path data-name="Path 48" d="M95.213 3.002a4.623 4.623 0 01-.312 1.521l-6.824 20.081a3.324 3.324 0 01-3.2 2.5 3.289 3.289 0 01-3.236-2.5L76.806 9.825l-4.481 14.779a3.262 3.262 0 01-3.2 2.5 3.319 3.319 0 01-3.236-2.5L59.025 4.913a4.63 4.63 0 01-.351-1.677 3.037 3.037 0 015.927-.935c1.833 5.576 3.2 10.06 4.64 15.441l4.757-15.13a3.122 3.122 0 016.083 0l4.913 15.207a283.4 283.4 0 014.484-15.558A2.811 2.811 0 0192.285.195a2.754 2.754 0 012.928 2.807z" fill="#075ca5"/><path data-name="Path 49" d="M125.701 3.042a2.565 2.565 0 01-2.574 2.651h-5.849v18.4a3 3 0 11-6 0v-18.4h-5.81a2.652 2.652 0 010-5.3h17.664a2.565 2.565 0 012.569 2.649z" fill="#075ca5"/><path data-name="Path 50" d="M126.401 13.647a13.784 13.784 0 1113.8 13.647c-7.64 0-13.8-5.576-13.8-13.647zm21.328 0c0-5.186-3.47-8.266-7.525-8.266s-7.564 3.081-7.564 8.266 3.509 8.267 7.564 8.267 7.525-3.084 7.525-8.267z" fill="#075ca5"/><path data-name="Path 51" d="M2.752 72.905C1.09 71.816 0 70.555 0 68.605a3.832 3.832 0 013.955-3.841 6.041 6.041 0 013.382 1.319 11.573 11.573 0 006.65 2.121c3.1 0 5.1-1.548 5.1-3.669 0-2.694-3.44-3.5-7.051-4.872C5.272 57.083 1.43 53.987 1.43 47.738c0-6.821 4.815-11.752 13.357-11.752 4.3 0 6.821.745 8.541 1.663 1.72.859 3.039 2.235 3.039 4.012a3.673 3.673 0 01-3.44 3.9 8.1 8.1 0 01-2.981-.746 14.308 14.308 0 00-5.1-1.089c-3.038 0-4.758 1.49-4.758 3.382 0 2.81 3.325 3.727 7.338 5.217 5.274 1.949 10.261 4.644 10.261 11.7 0 7.8-6.133 11.98-14.045 11.98a21.173 21.173 0 01-10.89-3.1z" fill="#075ca5"/><path data-name="Path 52" d="M56.549 71.645a3.878 3.878 0 01-3.955 3.9H37.059a4.3 4.3 0 01-4.357-4.414v-30.5a4.414 4.414 0 018.828 0v27.115h11.065a3.844 3.844 0 013.954 3.899z" fill="#075ca5"/><path data-name="Path 53" d="M87.044 71.586a3.891 3.891 0 01-3.955 3.955H65.776a4.224 4.224 0 01-4.242-4.357v-30.21a4.273 4.273 0 014.242-4.414h16.682a3.892 3.892 0 013.956 3.956 3.8 3.8 0 01-3.956 3.84H70.365v7.911h10.376a3.67 3.67 0 110 7.338H70.365v8.141h12.726a3.8 3.8 0 013.953 3.84z" fill="#075ca5"/><path data-name="Path 54" d="M118.569 71.586a3.891 3.891 0 01-3.955 3.955H97.301a4.224 4.224 0 01-4.242-4.357v-30.21a4.273 4.273 0 014.242-4.414h16.682a3.892 3.892 0 013.956 3.956 3.8 3.8 0 01-3.956 3.84h-12.1v7.911h10.38a3.67 3.67 0 110 7.338h-10.38v8.141h12.727a3.8 3.8 0 013.959 3.84z" fill="#075ca5"/><path data-name="Path 55" d="M152.674 50.032c0 6.65-4.528 13.414-14.273 13.414h-4.988v8.025a4.414 4.414 0 11-8.828 0v-30.5a4.355 4.355 0 014.3-4.414h9.516c9.745.003 14.273 6.826 14.273 13.475z" fill="#075ca5"/><g data-name="Group 25"><path data-name="Path 56" d="M146.677 51.421a.865.865 0 01-1.188-.282l-1.249-2.027a9.738 9.738 0 01-2.132.767l.487 2.4a.862.862 0 01-.674 1.017.833.833 0 01-.172.018.863.863 0 01-.844-.692l-.5-2.474a12.749 12.749 0 01-1.694.032l-.5 2.442a.863.863 0 01-.844.692.845.845 0 01-.173-.018.861.861 0 01-.674-1.017l.456-2.245a12.8 12.8 0 01-2.135-.485l-1.058 2.165a.864.864 0 01-.777.485.852.852 0 01-.377-.089.863.863 0 01-.4-1.154l1.014-2.076a5.022 5.022 0 01-.8-.518.863.863 0 011.118-1.314c.043.034 1.8 1.421 5.777 1.421 3.93 0 5.6-1.926 5.669-2.009a.865.865 0 011.334 1.1 4.883 4.883 0 01-.652.622l1.266 2.054a.864.864 0 01-.278 1.185z" fill="#fff"/></g><g data-name="Group 26" fill="#fff"><path data-name="Path 57" d="M156.778 35.438l-3 2.619a.54.54 0 01-.377.157.454.454 0 01-.326-.165.854.854 0 01-.168-.4l-.906-4.387-.984.861a.794.794 0 01-.605.209.855.855 0 01-.774-.9.8.8 0 01.282-.568l2.583-2.256a.534.534 0 01.376-.156.454.454 0 01.327.163.858.858 0 01.167.4l.875 4.412 1.431-1.249a.8.8 0 01.6-.2.866.866 0 01.79.892.8.8 0 01-.291.568z"/><path data-name="Path 58" d="M161.45 30.211l-2.541 3.065a.538.538 0 01-.347.215.448.448 0 01-.348-.11.848.848 0 01-.23-.369l-1.6-4.186-.834 1.008a.8.8 0 01-.564.3.858.858 0 01-.907-.761.793.793 0 01.188-.6l2.189-2.642a.527.527 0 01.346-.212.439.439 0 01.348.107.848.848 0 01.23.371l1.569 4.217 1.213-1.465a.8.8 0 01.56-.3.818.818 0 01.615.2.8.8 0 01.109 1.163z"/><path data-name="Path 59" d="M165.188 23.971l-1.861 3.52a.535.535 0 01-.3.28.447.447 0 01-.363-.036.837.837 0 01-.3-.314l-2.417-3.772-.612 1.158a.789.789 0 01-.489.411.857.857 0 01-1.045-.56.794.794 0 01.06-.63l1.6-3.033a.546.546 0 01.3-.281.454.454 0 01.363.036.859.859 0 01.3.315l2.4 3.807.888-1.681a.8.8 0 01.487-.4.818.818 0 01.643.066.8.8 0 01.346 1.118z"/></g></g></svg>