<svg xmlns="http://www.w3.org/2000/svg" width="34" height="34"><g data-name="Group 35" transform="translate(-609 -2656)"><rect data-name="Rectangle 155" width="34" height="34" rx="17" transform="translate(609 2656)" fill="#fbbe1f" opacity=".5"/><path data-name="Icon awesome-twitter" d="M633.041 2669.536c.01.143.01.286.01.43a9.337 9.337 0 01-9.4 9.4 9.338 9.338 0 01-5.076-1.482 6.836 6.836 0 00.8.041 6.618 6.618 0 004.1-1.412 3.31 3.31 0 01-3.09-2.292 4.167 4.167 0 00.624.051 3.5 3.5 0 00.87-.113 3.3 3.3 0 01-2.649-3.242v-.041a3.328 3.328 0 001.493.416 3.309 3.309 0 01-1.023-4.42 9.393 9.393 0 006.814 3.462 3.73 3.73 0 01-.082-.757 3.308 3.308 0 015.719-2.261 6.506 6.506 0 002.1-.8 3.3 3.3 0 01-1.456 1.823 6.624 6.624 0 001.9-.511 7.1 7.1 0 01-1.657 1.708z" fill="#073f73"/></g></svg>