<svg xmlns="http://www.w3.org/2000/svg" width="34" height="34"><g data-name="Group 36" transform="translate(-564 -2657)"><rect data-name="Rectangle 156" width="34" height="34" rx="17" transform="translate(564 2657)" fill="#fbbe1f" opacity=".5"/><path data-name="Icon awesome-linkedin-in" d="M577.361 2678.81h-2.604v-8.385h2.6zm-1.3-9.529a1.515 1.515 0 111.505-1.522 1.521 1.521 0 01-1.508 1.522zm11.046 9.529h-2.6v-4.082c0-.973-.02-2.22-1.354-2.22-1.354 0-1.561 1.057-1.561 2.15v4.152h-2.6v-8.385h2.5v1.144h.036a2.736 2.736 0 012.462-1.354c2.635 0 3.12 1.735 3.12 3.989v4.606z" fill="#073f73"/></g></svg>