<svg xmlns="http://www.w3.org/2000/svg" width="1920" height="94.284"><path d="M1920 0H0v73.785c46.883-5.119 95.145-9.678 143.446-13.549a5389.607 5389.607 0 01146.523-9.708C339 47.946 389.02 45.98 438.64 44.685s100.061-1.953 149.891-1.953c50.035 0 100.653.662 150.452 1.967a5631.13 5631.13 0 01149.823 5.919c84.811 4.543 169.6 11.1 251.589 17.437h.056c73.084 5.65 148.656 11.493 224.021 15.894 117.299 6.86 236.267 10.336 353.601 10.336 67.827 0 135.765-1.174 201.927-3.487v-90.8z" fill="#fff"/></svg>