<?xml version="1.0" standalone="no"?>
<!DOCTYPE svg PUBLIC "-//W3C//DTD SVG 20010904//EN"
 "http://www.w3.org/TR/2001/REC-SVG-20010904/DTD/svg10.dtd">
<svg version="1.0" xmlns="http://www.w3.org/2000/svg"
 width="640.000000pt" height="640.000000pt" viewBox="0 0 640.000000 640.000000"
 preserveAspectRatio="xMidYMid meet">
<metadata>
Created by potrace 1.11, written by Peter Selinger 2001-2013
</metadata>
<g transform="translate(0.000000,640.000000) scale(0.100000,-0.100000)"
fill="#000000" stroke="none">
<path d="M2655 6269 c-22 -4 -62 -11 -90 -14 -27 -4 -53 -9 -56 -11 -3 -2 -19
-6 -35 -8 -109 -20 -390 -103 -489 -145 -185 -77 -429 -196 -479 -234 -6 -4
-54 -35 -106 -69 -81 -52 -244 -170 -260 -187 -3 -3 -34 -30 -70 -60 -87 -73
-271 -258 -348 -351 -34 -41 -71 -85 -82 -97 -11 -12 -20 -26 -20 -31 0 -5
-10 -20 -23 -33 -80 -83 -273 -420 -352 -614 -20 -49 -43 -104 -51 -122 -8
-17 -14 -37 -14 -45 0 -8 -4 -18 -9 -23 -6 -6 -12 -21 -14 -35 -2 -14 -7 -34
-11 -45 -22 -57 -45 -137 -53 -179 -2 -11 -10 -45 -17 -75 -17 -70 -29 -128
-32 -161 -1 -14 -3 -25 -4 -25 -1 0 -3 -11 -5 -25 -1 -14 -6 -45 -9 -70 -16
-110 -20 -178 -20 -380 -1 -192 6 -338 18 -410 4 -23 9 -51 22 -135 3 -16 16
-79 30 -140 14 -60 27 -118 29 -129 10 -44 69 -222 76 -231 5 -5 9 -18 9 -30
0 -12 4 -25 9 -30 4 -6 20 -40 34 -76 27 -69 137 -300 146 -309 3 -3 17 -25
30 -50 69 -129 260 -392 378 -521 94 -103 202 -205 293 -279 30 -25 57 -47 60
-51 3 -3 26 -20 53 -39 26 -18 47 -37 47 -41 0 -4 9 -11 20 -14 11 -3 26 -12
32 -18 20 -19 215 -140 308 -192 84 -46 285 -145 295 -145 3 0 25 -9 49 -21
25 -11 51 -21 58 -23 7 -1 18 -4 23 -7 10 -6 85 -33 95 -34 3 0 10 -3 15 -6 6
-4 24 -10 40 -14 45 -12 45 -12 48 -15 1 -1 9 -3 17 -5 8 -2 29 -8 47 -13 17
-6 34 -8 37 -4 3 3 6 -1 6 -8 0 -7 3 -11 6 -7 3 3 17 2 29 -3 24 -9 232 -54
295 -64 19 -3 51 -8 70 -11 233 -36 675 -41 875 -10 17 2 48 7 70 9 41 6 64
10 150 26 28 5 61 12 75 14 14 3 36 8 50 11 14 3 34 8 45 10 11 3 52 14 90 26
39 11 77 22 85 23 8 1 22 5 30 8 8 4 47 17 85 29 179 57 458 186 620 286 11 7
39 22 63 34 23 13 42 26 42 31 0 4 6 8 14 8 8 0 16 3 18 8 2 4 36 29 77 56 40
27 78 54 85 60 6 6 36 30 67 53 31 23 63 49 73 58 9 10 36 33 59 52 115 95
263 249 382 399 48 60 93 117 101 127 8 9 14 20 14 23 0 4 16 28 35 54 19 26
35 52 35 58 0 6 4 12 8 14 15 6 134 227 183 342 17 39 37 85 44 101 54 123
145 447 160 565 4 30 8 57 10 60 3 5 12 73 20 148 l4 43 -57 -6 c-31 -3 -84
-8 -117 -12 -86 -8 -547 -8 -630 1 -182 19 -268 33 -440 71 -92 21 -100 23
-100 25 0 1 -7 3 -15 5 -8 2 -24 6 -35 9 -11 2 -49 14 -85 26 -36 12 -69 23
-75 24 -5 2 -17 6 -25 9 -8 4 -42 16 -75 28 -138 49 -483 218 -493 242 -2 4
-8 7 -13 7 -6 0 -37 18 -70 40 -33 22 -64 40 -69 40 -5 0 -10 3 -12 8 -1 4
-25 23 -53 42 -55 38 -53 37 -111 82 -23 18 -58 47 -79 63 -114 89 -372 345
-455 451 -8 10 -31 39 -51 64 -20 25 -70 95 -110 156 -70 104 -81 122 -111
177 -7 12 -15 24 -19 27 -6 6 -107 212 -137 280 -18 42 -63 161 -82 220 -15
46 -19 60 -19 63 0 1 -9 27 -19 57 -11 30 -19 57 -19 60 0 3 -5 28 -11 55 -24
103 -56 283 -68 380 -8 69 -11 551 -4 640 5 59 4 60 -20 61 -14 0 -43 -3 -65
-7z"/>
</g>
</svg>
