<svg xmlns="http://www.w3.org/2000/svg" width="1920.43" height="57.553" viewBox="0 0 1920.43 57.553">
  <path id="Path_66" data-name="Path 66" d="M1920,513.858c-46.883,5.119-95.145,9.678-143.446,13.549-48.11,3.856-97.408,7.122-146.523,9.708-49.031,2.582-99.051,4.543-148.671,5.843s-100.061,1.953-149.891,1.953c-50.035,0-100.653-.662-150.452-1.967-50.01-1.311-100.418-3.3-149.823-5.919-84.811-4.543-169.6-11.1-251.589-17.437h-.056c-73.083-5.65-148.656-11.493-224.021-15.894-117.3-6.861-236.267-10.336-353.6-10.336-67.827,0-135.766,1.173-201.927,3.486" transform="translate(0.105 -490.358)" fill="none" stroke="#3fb9d4" stroke-miterlimit="10" stroke-width="6"/>
</svg>
