<svg xmlns="http://www.w3.org/2000/svg" xmlns:xlink="http://www.w3.org/1999/xlink" width="300" height="202.038" viewBox="0 0 300 202.038">
  <defs>
    <linearGradient id="linear-gradient" x1="0.39" y1="0.33" x2="0.966" y2="0.959" gradientUnits="objectBoundingBox">
      <stop offset="0" stop-color="#075ca5"/>
      <stop offset="1" stop-color="#719dc6"/>
    </linearGradient>
  </defs>
  <path id="Union_28" data-name="Union 28" d="M2328.2,197.431c-11.775-.685-23.583-1.593-35-2.472h-.009c-12.812-.986-26.06-2.005-39.311-2.712-7.719-.408-15.6-.717-23.41-.921-7.781-.2-15.69-.307-23.508-.307-7.786,0-15.665.1-23.42.3s-15.569.508-23.23.909-15.377.91-22.894,1.51c-7.547.6-15.088,1.311-22.414,2.107V7a10,10,0,0,1,10-10h280a10,10,0,0,1,10,10V198.5c-10.338.36-20.954.542-31.551.542C2365.115,199.038,2346.526,198.5,2328.2,197.431Z" transform="translate(-2115 3)" fill="url(#linear-gradient)"/>
</svg>
