<svg xmlns="http://www.w3.org/2000/svg" xmlns:xlink="http://www.w3.org/1999/xlink" width="300" height="82.174" viewBox="0 0 300 82.174">
  <defs>
    <linearGradient id="linear-gradient" x1="0.39" y1="0.33" x2="0.966" y2="0.959" gradientUnits="objectBoundingBox">
      <stop offset="0" stop-color="#075ca5"/>
      <stop offset="1" stop-color="#719dc6"/>
    </linearGradient>
  </defs>
  <path id="Union_28" data-name="Union 28" d="M213.2,80.567c-11.776-.685-23.584-1.593-35-2.472h-.009c-12.811-.986-26.059-2.006-39.311-2.712-7.72-.407-15.6-.717-23.41-.921-7.781-.2-15.69-.306-23.508-.306-7.786,0-15.666.1-23.42.3s-15.569.507-23.23.909-15.377.91-22.894,1.51C14.866,77.48,7.325,78.189,0,78.985V.542C10.338.183,20.953,0,31.551,0,49.884,0,68.473.541,86.8,1.607c11.776.685,23.584,1.593,35,2.472h.009c12.811.986,26.059,2.006,39.311,2.712,7.72.407,15.6.717,23.41.921,7.781.2,15.69.306,23.508.306,7.786,0,15.666-.1,23.42-.3s15.569-.507,23.23-.909,15.377-.91,22.894-1.51c7.547-.6,15.088-1.311,22.413-2.108V81.632c-10.338.36-20.953.542-31.551.542C250.115,82.174,231.526,81.633,213.2,80.567ZM0,14.666H0Z" fill="url(#linear-gradient)"/>
</svg>
