<svg xmlns="http://www.w3.org/2000/svg" width="165.293" height="76" viewBox="0 0 165.293 76">
  <g id="Group_46" data-name="Group 46" transform="translate(-779.318 -746.47)">
    <g id="Group_24" data-name="Group 24" transform="translate(807.886 746.783)">
      <path id="Path_46" data-name="Path 46" d="M837.62,758a12.625,12.625,0,0,1-4.108-9.612c0-.495.024-.979.07-1.452a13.743,13.743,0,0,0-7.83,3.709,13.3,13.3,0,0,0,0,19.224,14.491,14.491,0,0,0,19.67,0,12.48,12.48,0,0,0,4.039-8.16,15.8,15.8,0,0,1-2.005.14A13.886,13.886,0,0,1,837.62,758Z" transform="translate(-821.643 -746.934)" fill="#fbbe1f"/>
    </g>
    <path id="Path_47" data-name="Path 47" d="M804.906,749.722v20.939a3,3,0,0,1-6.005,0V762.9H787.749v7.759a3,3,0,0,1-6.005,0V749.722a3,3,0,0,1,6.005,0V757.6H798.9v-7.876a3,3,0,0,1,6.005,0Z" transform="translate(-0.789 -0.094)" fill="#075ca5"/>
    <path id="Path_48" data-name="Path 48" d="M902.788,749.566a4.623,4.623,0,0,1-.312,1.521l-6.824,20.081a3.324,3.324,0,0,1-3.2,2.5,3.289,3.289,0,0,1-3.236-2.5l-4.835-14.779L879.9,771.168a3.262,3.262,0,0,1-3.2,2.5,3.319,3.319,0,0,1-3.236-2.5L866.6,751.477a4.63,4.63,0,0,1-.351-1.677,3.037,3.037,0,0,1,5.927-.935c1.833,5.576,3.2,10.06,4.64,15.441l4.757-15.13a3.122,3.122,0,0,1,6.083,0l4.913,15.207c1.4-5.42,2.808-10.294,4.484-15.558a2.811,2.811,0,0,1,2.807-2.066A2.754,2.754,0,0,1,902.788,749.566Z" transform="translate(-28.257 -0.094)" fill="#075ca5"/>
    <path id="Path_49" data-name="Path 49" d="M954.549,749.7a2.565,2.565,0,0,1-2.574,2.651h-5.849v18.4a3,3,0,1,1-6,0v-18.4h-5.81a2.652,2.652,0,0,1,0-5.3h17.664A2.565,2.565,0,0,1,954.549,749.7Z" transform="translate(-49.53 -0.188)" fill="#075ca5"/>
    <path id="Path_50" data-name="Path 50" d="M966.59,760.117a13.784,13.784,0,1,1,13.8,13.647C972.75,773.764,966.59,768.188,966.59,760.117Zm21.328,0c0-5.186-3.47-8.266-7.525-8.266s-7.564,3.081-7.564,8.266,3.509,8.267,7.564,8.267S987.918,765.3,987.918,760.117Z" transform="translate(-60.871 0)" fill="#075ca5"/>
    <path id="Path_51" data-name="Path 51" d="M782.07,836.705c-1.662-1.089-2.752-2.35-2.752-4.3a3.832,3.832,0,0,1,3.955-3.841,6.041,6.041,0,0,1,3.382,1.319,11.573,11.573,0,0,0,6.65,2.121c3.1,0,5.1-1.548,5.1-3.669,0-2.694-3.44-3.5-7.051-4.872-6.764-2.58-10.606-5.676-10.606-11.925,0-6.821,4.815-11.752,13.357-11.752,4.3,0,6.821.745,8.541,1.663,1.72.859,3.039,2.235,3.039,4.012a3.673,3.673,0,0,1-3.44,3.9,8.1,8.1,0,0,1-2.981-.746,14.308,14.308,0,0,0-5.1-1.089c-3.038,0-4.758,1.49-4.758,3.382,0,2.81,3.325,3.727,7.338,5.217,5.274,1.949,10.261,4.644,10.261,11.7,0,7.8-6.133,11.98-14.045,11.98A21.173,21.173,0,0,1,782.07,836.705Z" transform="translate(0 -17.33)" fill="#075ca5"/>
    <path id="Path_52" data-name="Path 52" d="M853.1,835.583a3.878,3.878,0,0,1-3.955,3.9H833.61a4.3,4.3,0,0,1-4.357-4.414v-30.5a4.414,4.414,0,0,1,8.828,0v27.115h11.065A3.844,3.844,0,0,1,853.1,835.583Z" transform="translate(-17.233 -17.468)" fill="#075ca5"/>
    <path id="Path_53" data-name="Path 53" d="M897.479,835.663a3.891,3.891,0,0,1-3.955,3.955H876.211a4.224,4.224,0,0,1-4.242-4.357v-30.21a4.273,4.273,0,0,1,4.242-4.414h16.682a3.892,3.892,0,0,1,3.956,3.956,3.8,3.8,0,0,1-3.956,3.84H880.8v7.911h10.376a3.67,3.67,0,1,1,0,7.338H880.8v8.141h12.726A3.8,3.8,0,0,1,897.479,835.663Z" transform="translate(-31.117 -17.607)" fill="#075ca5"/>
    <path id="Path_54" data-name="Path 54" d="M944.186,835.663a3.891,3.891,0,0,1-3.955,3.955H922.918a4.224,4.224,0,0,1-4.242-4.357v-30.21a4.273,4.273,0,0,1,4.242-4.414H939.6a3.892,3.892,0,0,1,3.956,3.956,3.8,3.8,0,0,1-3.956,3.84H927.5v7.911H937.88a3.67,3.67,0,1,1,0,7.338H927.5v8.141h12.727A3.8,3.8,0,0,1,944.186,835.663Z" transform="translate(-46.299 -17.607)" fill="#075ca5"/>
    <path id="Path_55" data-name="Path 55" d="M993.473,814.109c0,6.65-4.528,13.414-14.273,13.414h-4.988v8.025a4.414,4.414,0,1,1-8.828,0v-30.5a4.355,4.355,0,0,1,4.3-4.414H979.2C988.945,800.637,993.473,807.46,993.473,814.109Z" transform="translate(-61.481 -17.607)" fill="#075ca5"/>
    <g id="Group_25" data-name="Group 25" transform="translate(911.464 792.622)">
      <path id="Path_56" data-name="Path 56" d="M989.633,820.116a.865.865,0,0,1-1.188-.282l-1.249-2.027a9.738,9.738,0,0,1-2.132.767l.487,2.4a.862.862,0,0,1-.674,1.017.833.833,0,0,1-.172.018.863.863,0,0,1-.844-.692l-.5-2.474c-.339.028-.688.047-1.06.047-.219,0-.427-.007-.634-.015l-.5,2.442a.863.863,0,0,1-.844.692.845.845,0,0,1-.173-.018.861.861,0,0,1-.674-1.017l.456-2.245a12.8,12.8,0,0,1-2.135-.485l-1.058,2.165a.864.864,0,0,1-.777.485.852.852,0,0,1-.377-.089.863.863,0,0,1-.4-1.154l1.014-2.076a5.022,5.022,0,0,1-.8-.518.863.863,0,0,1,1.118-1.314c.043.034,1.8,1.421,5.777,1.421,3.93,0,5.6-1.926,5.669-2.009a.863.863,0,0,1,1.334,1.1,4.883,4.883,0,0,1-.652.622l1.266,2.054A.864.864,0,0,1,989.633,820.116Z" transform="translate(-975.102 -814.847)" fill="#fff"/>
    </g>
    <g id="Group_26" data-name="Group 26" transform="translate(928.956 767.163)">
      <path id="Path_57" data-name="Path 57" d="M1008.158,796.574l-3,2.619a.54.54,0,0,1-.377.157.454.454,0,0,1-.326-.165.854.854,0,0,1-.168-.4l-.906-4.387-.984.861a.794.794,0,0,1-.605.209.855.855,0,0,1-.774-.9.8.8,0,0,1,.282-.568l2.583-2.256a.534.534,0,0,1,.376-.156.454.454,0,0,1,.327.163.858.858,0,0,1,.167.4l.875,4.412,1.431-1.249a.8.8,0,0,1,.6-.2.866.866,0,0,1,.79.892A.8.8,0,0,1,1008.158,796.574Z" transform="translate(-1001.018 -781.829)" fill="#fff"/>
      <path id="Path_58" data-name="Path 58" d="M1014.969,789.16l-2.541,3.065a.538.538,0,0,1-.347.215.448.448,0,0,1-.348-.11.848.848,0,0,1-.23-.369l-1.6-4.186-.834,1.008a.8.8,0,0,1-.564.3.858.858,0,0,1-.907-.761.793.793,0,0,1,.188-.6l2.189-2.642a.527.527,0,0,1,.346-.212.439.439,0,0,1,.348.107.848.848,0,0,1,.23.371l1.569,4.217,1.213-1.465a.8.8,0,0,1,.56-.3.818.818,0,0,1,.615.2.8.8,0,0,1,.109,1.163Z" transform="translate(-1003.157 -779.642)" fill="#fff"/>
      <path id="Path_59" data-name="Path 59" d="M1020.482,780.406l-1.861,3.52a.535.535,0,0,1-.3.28.447.447,0,0,1-.363-.036.837.837,0,0,1-.3-.314l-2.417-3.772-.612,1.158a.789.789,0,0,1-.489.411.857.857,0,0,1-1.045-.56.794.794,0,0,1,.06-.63l1.6-3.033a.546.546,0,0,1,.3-.281.454.454,0,0,1,.363.036.859.859,0,0,1,.3.315l2.4,3.807.888-1.681a.8.8,0,0,1,.487-.4.818.818,0,0,1,.643.066.8.8,0,0,1,.346,1.118Z" transform="translate(-1004.932 -777.128)" fill="#fff"/>
    </g>
  </g>
</svg>
