<svg xmlns="http://www.w3.org/2000/svg" width="210.383" height="20" viewBox="0 0 210.383 20">
  <g id="Group_14" data-name="Group 14" transform="translate(-1085.744 -587.47)">
    <g id="Group_11" data-name="Group 11" transform="translate(1105.344 587.698)">
      <path id="Path_15" data-name="Path 15" d="M1137.271,595.987a9.189,9.189,0,0,1-2.99-7q0-.54.051-1.057a10,10,0,0,0-5.7,2.7,9.679,9.679,0,0,0,0,13.992,10.547,10.547,0,0,0,14.317,0,9.083,9.083,0,0,0,2.94-5.939,11.507,11.507,0,0,1-1.46.1A10.106,10.106,0,0,1,1137.271,595.987Z" transform="translate(-1125.643 -587.934)" fill="#fbbe1f"/>
    </g>
    <path id="Path_16" data-name="Path 16" d="M1102.6,589.916v15.24a2.185,2.185,0,0,1-4.371,0v-5.647h-8.116v5.647a2.185,2.185,0,0,1-4.371,0v-15.24a2.186,2.186,0,0,1,4.371,0v5.732h8.116v-5.732a2.186,2.186,0,0,1,4.371,0Z" transform="translate(0 -0.147)" fill="#fff"/>
    <path id="Path_17" data-name="Path 17" d="M1196.844,589.8a3.367,3.367,0,0,1-.227,1.107l-4.967,14.615a2.419,2.419,0,0,1-2.327,1.816,2.394,2.394,0,0,1-2.356-1.816l-3.519-10.757-3.264,10.757a2.374,2.374,0,0,1-2.327,1.816,2.416,2.416,0,0,1-2.356-1.816l-5-14.332a3.37,3.37,0,0,1-.255-1.22,2.21,2.21,0,0,1,4.314-.681c1.334,4.058,2.327,7.322,3.377,11.238l3.463-11.012a2.272,2.272,0,0,1,4.427,0l3.576,11.068c1.022-3.945,2.044-7.493,3.264-11.324a2.046,2.046,0,0,1,2.043-1.5A2,2,0,0,1,1196.844,589.8Z" transform="translate(-42.993 -0.147)" fill="#fff"/>
    <path id="Path_18" data-name="Path 18" d="M1260.33,589.978a1.867,1.867,0,0,1-1.873,1.929H1254.2v13.4a2.185,2.185,0,1,1-4.37,0v-13.4H1245.6a1.93,1.93,0,0,1,0-3.859h12.856A1.867,1.867,0,0,1,1260.33,589.978Z" transform="translate(-80.359 -0.294)" fill="#fff"/>
    <path id="Path_19" data-name="Path 19" d="M1278.59,597.4a10.033,10.033,0,1,1,10.046,9.933A9.758,9.758,0,0,1,1278.59,597.4Zm15.523,0c0-3.774-2.526-6.016-5.477-6.016s-5.505,2.242-5.505,6.016,2.554,6.017,5.505,6.017S1294.113,601.177,1294.113,597.4Z" transform="translate(-98.109)" fill="#fff"/>
    <path id="Path_20" data-name="Path 20" d="M1339.526,606.072a2.486,2.486,0,0,1-1.366-2.135,1.9,1.9,0,0,1,1.964-1.907,3,3,0,0,1,1.679.655,5.745,5.745,0,0,0,3.3,1.053c1.537,0,2.533-.768,2.533-1.822,0-1.338-1.708-1.736-3.5-2.419-3.358-1.281-5.265-2.818-5.265-5.92,0-3.387,2.39-5.835,6.631-5.835a8.756,8.756,0,0,1,4.24.826,2.353,2.353,0,0,1,1.509,1.992,1.824,1.824,0,0,1-1.708,1.936,4.013,4.013,0,0,1-1.48-.37,7.109,7.109,0,0,0-2.533-.541c-1.509,0-2.362.74-2.362,1.679,0,1.395,1.651,1.851,3.643,2.59,2.618.967,5.094,2.305,5.094,5.806,0,3.871-3.045,5.948-6.973,5.948A10.515,10.515,0,0,1,1339.526,606.072Z" transform="translate(-128.415 -0.139)" fill="#fff"/>
    <path id="Path_21" data-name="Path 21" d="M1384.063,605.593a1.925,1.925,0,0,1-1.964,1.935h-7.713a2.133,2.133,0,0,1-2.163-2.191V590.2a2.192,2.192,0,0,1,4.383,0v13.462h5.493A1.909,1.909,0,0,1,1384.063,605.593Z" transform="translate(-145.745 -0.286)" fill="#fff"/>
    <path id="Path_22" data-name="Path 22" d="M1414.026,605.712a1.932,1.932,0,0,1-1.964,1.964h-8.6a2.1,2.1,0,0,1-2.106-2.163v-15a2.121,2.121,0,0,1,2.106-2.191h8.282a1.932,1.932,0,0,1,1.964,1.964,1.886,1.886,0,0,1-1.964,1.907h-6.005v3.927h5.151a1.822,1.822,0,1,1,0,3.643h-5.151v4.042h6.318A1.885,1.885,0,0,1,1414.026,605.712Z" transform="translate(-160.569 -0.434)" fill="#fff"/>
    <path id="Path_23" data-name="Path 23" d="M1445.886,605.712a1.931,1.931,0,0,1-1.964,1.964h-8.6a2.1,2.1,0,0,1-2.106-2.163v-15a2.121,2.121,0,0,1,2.106-2.191h8.282a1.932,1.932,0,0,1,1.964,1.964,1.886,1.886,0,0,1-1.964,1.907H1437.6v3.927h5.152a1.822,1.822,0,1,1,0,3.643H1437.6v4.042h6.319A1.885,1.885,0,0,1,1445.886,605.712Z" transform="translate(-176.777 -0.434)" fill="#fff"/>
    <g id="Group_12" data-name="Group 12" transform="translate(1272.096 587.889)">
      <path id="Path_24" data-name="Path 24" d="M1471.941,588.323h-4.724a2.162,2.162,0,0,0-2.135,2.191v15.141a2.192,2.192,0,1,0,4.383,0v-3.985h2.476c4.838,0,7.086-3.358,7.086-6.659S1476.78,588.323,1471.941,588.323Zm3.612,7.378a.429.429,0,0,1-.589-.14l-.62-1.007a4.82,4.82,0,0,1-1.058.381l.242,1.191a.427.427,0,0,1-.334.505.422.422,0,0,1-.085.009.429.429,0,0,1-.42-.343l-.25-1.229c-.168.014-.342.024-.526.024-.109,0-.212,0-.315-.007l-.246,1.212a.428.428,0,1,1-.84-.17l.227-1.115a6.333,6.333,0,0,1-1.06-.241l-.525,1.075a.429.429,0,1,1-.77-.376l.5-1.03a2.483,2.483,0,0,1-.4-.257.429.429,0,0,1,.555-.653,4.773,4.773,0,0,0,2.868.705,3.679,3.679,0,0,0,2.814-1,.429.429,0,0,1,.662.544,2.427,2.427,0,0,1-.324.309l.629,1.02A.429.429,0,0,1,1475.553,595.7Z" transform="translate(-1465.082 -588.323)" fill="#fff"/>
    </g>
    <g id="Group_13" data-name="Group 13" transform="translate(1287.938 588.406)">
      <path id="Path_25" data-name="Path 25" d="M1501.067,602.376l-1.568,1.37a.282.282,0,0,1-.2.082.237.237,0,0,1-.171-.086.448.448,0,0,1-.088-.21l-.474-2.295-.515.451a.416.416,0,0,1-.317.109.448.448,0,0,1-.4-.469.416.416,0,0,1,.147-.3l1.351-1.18a.28.28,0,0,1,.2-.082.239.239,0,0,1,.171.085.454.454,0,0,1,.087.211l.457,2.308.749-.653a.415.415,0,0,1,.314-.107.432.432,0,0,1,.26.763Z" transform="translate(-1497.332 -594.663)" fill="#fff"/>
      <path id="Path_26" data-name="Path 26" d="M1505.916,597.182l-1.329,1.6a.281.281,0,0,1-.182.112.232.232,0,0,1-.181-.057.434.434,0,0,1-.12-.193l-.835-2.19-.437.527a.414.414,0,0,1-.3.158.449.449,0,0,1-.475-.4.42.42,0,0,1,.1-.316l1.145-1.382a.277.277,0,0,1,.181-.111.23.23,0,0,1,.182.056.444.444,0,0,1,.121.194l.821,2.206.634-.766a.42.42,0,0,1,.293-.155.427.427,0,0,1,.321.1.418.418,0,0,1,.057.609Z" transform="translate(-1499.738 -592.203)" fill="#fff"/>
      <path id="Path_27" data-name="Path 27" d="M1509.868,591.09l-.973,1.841a.279.279,0,0,1-.155.146.235.235,0,0,1-.189-.019.442.442,0,0,1-.158-.165l-1.264-1.973-.32.606a.412.412,0,0,1-.256.215.447.447,0,0,1-.546-.293.415.415,0,0,1,.031-.33l.838-1.586a.282.282,0,0,1,.155-.147.238.238,0,0,1,.19.019.446.446,0,0,1,.158.165l1.254,1.991.465-.879a.416.416,0,0,1,.255-.212.425.425,0,0,1,.336.034.42.42,0,0,1,.18.585Z" transform="translate(-1501.734 -589.375)" fill="#fff"/>
    </g>
  </g>
</svg>
