<svg xmlns="http://www.w3.org/2000/svg" width="34" height="34" viewBox="0 0 34 34">
  <g id="Group_35" data-name="Group 35" transform="translate(-609 -2656)">
    <rect id="Rectangle_155" data-name="Rectangle 155" width="34" height="34" rx="17" transform="translate(609 2656)" fill="#fbbe1f" opacity="0.5"/>
    <path id="Icon_awesome-twitter" data-name="Icon awesome-twitter" d="M14.466,6.644c.01.143.01.286.01.43a9.337,9.337,0,0,1-9.4,9.4A9.338,9.338,0,0,1,0,14.992a6.836,6.836,0,0,0,.8.041,6.618,6.618,0,0,0,4.1-1.412,3.31,3.31,0,0,1-3.09-2.292,4.167,4.167,0,0,0,.624.051,3.5,3.5,0,0,0,.87-.113A3.3,3.3,0,0,1,.655,8.025V7.984A3.328,3.328,0,0,0,2.148,8.4a3.309,3.309,0,0,1-1.023-4.42A9.393,9.393,0,0,0,7.939,7.442a3.73,3.73,0,0,1-.082-.757,3.308,3.308,0,0,1,5.719-2.261,6.506,6.506,0,0,0,2.1-.8A3.3,3.3,0,0,1,14.22,5.447a6.624,6.624,0,0,0,1.9-.511,7.1,7.1,0,0,1-1.657,1.708Z" transform="translate(618.575 2662.892)" fill="#073f73"/>
  </g>
</svg>
