<svg xmlns="http://www.w3.org/2000/svg" width="34" height="34" viewBox="0 0 34 34">
  <g id="Group_36" data-name="Group 36" transform="translate(-564 -2657)">
    <rect id="Rectangle_156" data-name="Rectangle 156" width="34" height="34" rx="17" transform="translate(564 2657)" fill="#fbbe1f" opacity="0.5"/>
    <path id="Icon_awesome-linkedin-in" data-name="Icon awesome-linkedin-in" d="M2.811,12.56H.207V4.175h2.6Zm-1.3-9.529A1.515,1.515,0,1,1,3.016,1.509,1.521,1.521,0,0,1,1.508,3.031ZM12.557,12.56h-2.6V8.478c0-.973-.02-2.22-1.354-2.22-1.354,0-1.561,1.057-1.561,2.15V12.56h-2.6V4.175h2.5V5.319h.036A2.736,2.736,0,0,1,9.44,3.965c2.635,0,3.12,1.735,3.12,3.989V12.56Z" transform="translate(574.55 2666.25)" fill="#073f73"/>
  </g>
</svg>
