<svg xmlns="http://www.w3.org/2000/svg" width="33" height="33" viewBox="0 0 33 33">
  <g id="Group_34" data-name="Group 34" transform="translate(-642 -5491)">
    <rect id="Rectangle_88" data-name="Rectangle 88" width="33" height="33" rx="16.5" transform="translate(642 5491)" fill="#fbbe1f" opacity="0.5"/>
    <g id="Icon_feather-share-2" data-name="Icon feather-share-2" transform="translate(645.5 5496)">
      <path id="Path_39" data-name="Path 39" d="M27.5,5.5A2.5,2.5,0,1,1,25,3a2.5,2.5,0,0,1,2.5,2.5Z" transform="translate(-8 0)" fill="none" stroke="#073f73" stroke-linecap="round" stroke-linejoin="round" stroke-width="2"/>
      <path id="Path_40" data-name="Path 40" d="M9.5,16A2.5,2.5,0,1,1,7,13.5,2.5,2.5,0,0,1,9.5,16Z" transform="translate(0 -4.667)" fill="none" stroke="#073f73" stroke-linecap="round" stroke-linejoin="round" stroke-width="2"/>
      <path id="Path_41" data-name="Path 41" d="M27.5,26.5A2.5,2.5,0,1,1,25,24,2.5,2.5,0,0,1,27.5,26.5Z" transform="translate(-8 -9.333)" fill="none" stroke="#073f73" stroke-linecap="round" stroke-linejoin="round" stroke-width="2"/>
      <path id="Path_42" data-name="Path 42" d="M12.885,20.265l5.692,3.317" transform="translate(-3.727 -7.673)" fill="none" stroke="#073f73" stroke-linecap="round" stroke-linejoin="round" stroke-width="2"/>
      <path id="Path_43" data-name="Path 43" d="M18.568,9.765l-5.683,3.317" transform="translate(-3.727 -3.007)" fill="none" stroke="#073f73" stroke-linecap="round" stroke-linejoin="round" stroke-width="2"/>
    </g>
  </g>
</svg>
