<svg xmlns="http://www.w3.org/2000/svg" xmlns:xlink="http://www.w3.org/1999/xlink" width="1920" height="94.284" viewBox="0 0 1920 94.284">
  <path d="M0,94.284H1920V20.5c-46.883,5.119-95.145,9.678-143.446,13.549-48.11,3.856-97.408,7.122-146.523,9.708C1581,46.339,1530.98,48.3,1481.36,49.6s-100.061,1.953-149.891,1.953c-50.035,0-100.653-.662-150.452-1.967-50.01-1.311-100.418-3.3-149.823-5.919-84.811-4.543-169.6-11.1-251.589-17.437l-.056,0c-73.083-5.65-148.656-11.493-224.021-15.894C438.229,3.475,319.261,0,201.927,0,134.1,0,66.161,1.173,0,3.486v90.8Z" fill="red"/>
</svg>
