<svg xmlns="http://www.w3.org/2000/svg" viewBox="0 0 136.19 48.79"><defs><style>.cls-1{fill:#fff;}</style></defs><g id="Layer_2" data-name="Layer 2"><g id="Layer_1-2" data-name="Layer 1"><path class="cls-1" d="M19.13,37l-.1.4-3.5,11.1c-.1.2.2.4.4.2l7.8-11.2.5-.7a35.93,35.93,0,0,1-4.7.3A.76.76,0,0,0,19.13,37Z"/><path class="cls-1" d="M28.33,30.6l6.2-8.9c.1-.2,0-.5-.2-.5h-9.9L30.53.3c0-.3-.2-.4-.4-.2L11.63,27.5c-.1.2,0,.5.2.5h10l-.7,2.8h0c.8,0,1.5.1,2.3.1C25.13,30.9,26.83,30.7,28.33,30.6Z"/><path class="cls-1" d="M40.43,29a42.59,42.59,0,0,1-17,3.5,42.9,42.9,0,0,1-9.1-1C.13,28.1,4.13,21.3,6.23,19.7c0,0-6.7,3.1-6.2,8.5s11.7,6.5,11.7,6.5a65.23,65.23,0,0,0,7.7.6A35.93,35.93,0,0,0,40.43,29Z"/><path class="cls-1" d="M51.81,33.48V15.3H55.1V30.72h8v2.76Z"/><path class="cls-1" d="M69.74,33.76a5.64,5.64,0,0,1-2.33-.47,3.73,3.73,0,0,1-1.63-1.38,4,4,0,0,1-.6-2.25,3.78,3.78,0,0,1,.43-1.91,3.28,3.28,0,0,1,1.16-1.21,6,6,0,0,1,1.66-.69,14.79,14.79,0,0,1,1.92-.34c.8-.08,1.45-.16,2-.23A2.8,2.8,0,0,0,73.39,25a.78.78,0,0,0,.34-.68v-.06a2,2,0,0,0-.6-1.55,2.39,2.39,0,0,0-1.71-.55,3.07,3.07,0,0,0-1.87.51,2.57,2.57,0,0,0-.93,1.22l-3-.43a5,5,0,0,1,1.17-2.08,5.17,5.17,0,0,1,2-1.26,7.77,7.77,0,0,1,2.61-.42,8.67,8.67,0,0,1,2,.23,5.5,5.5,0,0,1,1.79.76,3.91,3.91,0,0,1,1.3,1.43,4.71,4.71,0,0,1,.49,2.27v9.12H73.85V31.61h-.1a4,4,0,0,1-2.15,1.85A5.26,5.26,0,0,1,69.74,33.76Zm.84-2.36A3.41,3.41,0,0,0,72.25,31a2.86,2.86,0,0,0,1.1-1,2.64,2.64,0,0,0,.39-1.4V27a1.54,1.54,0,0,1-.51.23,7,7,0,0,1-.81.18c-.29.06-.59.1-.88.14l-.75.11A5.8,5.8,0,0,0,69.5,28a2,2,0,0,0-.89.62A1.72,1.72,0,0,0,68.93,31,2.82,2.82,0,0,0,70.58,31.4Z"/><path class="cls-1" d="M86.13,33.75a6.53,6.53,0,0,1-3.5-.9,5.88,5.88,0,0,1-2.25-2.48,8.13,8.13,0,0,1-.78-3.65,8,8,0,0,1,.8-3.67,6,6,0,0,1,2.25-2.49,6.57,6.57,0,0,1,3.46-.89,6.76,6.76,0,0,1,3,.61A5,5,0,0,1,92,24.57H88.9A3,3,0,0,0,88,22.92a2.61,2.61,0,0,0-1.86-.66,2.91,2.91,0,0,0-1.73.53,3.37,3.37,0,0,0-1.16,1.51,6.05,6.05,0,0,0-.42,2.37,6.35,6.35,0,0,0,.41,2.39,3.43,3.43,0,0,0,1.15,1.53,3.11,3.11,0,0,0,3,.27,2.49,2.49,0,0,0,.95-.79,3,3,0,0,0,.52-1.25H92a5.23,5.23,0,0,1-.85,2.56,4.87,4.87,0,0,1-2,1.74A6.61,6.61,0,0,1,86.13,33.75Z"/><path class="cls-1" d="M103.31,27.75v-7.9h3.21V33.48h-3.11V31.06h-.15a4,4,0,0,1-1.51,1.87,4.4,4.4,0,0,1-2.59.73,4.58,4.58,0,0,1-2.36-.6,4,4,0,0,1-1.6-1.75,6,6,0,0,1-.58-2.78V19.85h3.21V28a2.91,2.91,0,0,0,.71,2.06,2.45,2.45,0,0,0,1.87.77,2.94,2.94,0,0,0,1.37-.35,2.85,2.85,0,0,0,1.1-1A3.19,3.19,0,0,0,103.31,27.75Z"/><path class="cls-1" d="M113,25.49v8h-3.21V19.85h3.07v2.31h.16a3.87,3.87,0,0,1,1.5-1.82,4.69,4.69,0,0,1,2.56-.67,4.91,4.91,0,0,1,2.47.6A4.18,4.18,0,0,1,121.22,22a6,6,0,0,1,.57,2.78v8.68h-3.21V25.3a3.05,3.05,0,0,0-.71-2.14,2.49,2.49,0,0,0-2-.77,2.92,2.92,0,0,0-1.49.37,2.43,2.43,0,0,0-1,1.06A3.46,3.46,0,0,0,113,25.49Z"/><path class="cls-1" d="M129,33.76a5.64,5.64,0,0,1-2.33-.47A3.73,3.73,0,0,1,125,31.91a4,4,0,0,1-.6-2.25,3.78,3.78,0,0,1,.43-1.91A3.28,3.28,0,0,1,126,26.54a6.17,6.17,0,0,1,1.66-.69,14.65,14.65,0,0,1,1.93-.34c.79-.08,1.44-.16,1.94-.23a2.8,2.8,0,0,0,1.09-.31.78.78,0,0,0,.34-.68v-.06a2,2,0,0,0-.6-1.55,2.39,2.39,0,0,0-1.71-.55,3.07,3.07,0,0,0-1.87.51,2.57,2.57,0,0,0-.93,1.22l-3-.43a4.86,4.86,0,0,1,1.18-2.08,5.13,5.13,0,0,1,2-1.26,7.77,7.77,0,0,1,2.61-.42,8.67,8.67,0,0,1,2,.23,5.5,5.5,0,0,1,1.79.76,3.91,3.91,0,0,1,1.3,1.43,4.71,4.71,0,0,1,.49,2.27v9.12H133.1V31.61H133a3.86,3.86,0,0,1-2.15,1.85A5.26,5.26,0,0,1,129,33.76Zm.84-2.36a3.47,3.47,0,0,0,1.68-.39,2.9,2.9,0,0,0,1.09-1,2.64,2.64,0,0,0,.39-1.4V27a1.54,1.54,0,0,1-.51.23,7,7,0,0,1-.81.18c-.29.06-.59.1-.87.14l-.76.11a5.8,5.8,0,0,0-1.29.32,2.1,2.1,0,0,0-.89.62,1.72,1.72,0,0,0,.32,2.36A2.82,2.82,0,0,0,129.83,31.4Z"/></g></g></svg>