<svg xmlns="http://www.w3.org/2000/svg" viewBox="0 0 135.93 48.79"><g id="Layer_2" data-name="Layer 2"><g id="Layer_1-2" data-name="Layer 1"><path d="M51.55,34V15.79h3.29V31.21h8V34Z"/><path d="M69.48,34.24a5.64,5.64,0,0,1-2.33-.46,3.73,3.73,0,0,1-1.63-1.38,4.05,4.05,0,0,1-.6-2.26,3.89,3.89,0,0,1,.42-1.91A3.48,3.48,0,0,1,66.51,27a5.73,5.73,0,0,1,1.66-.68A13.27,13.27,0,0,1,70.09,26c.8-.09,1.45-.16,2-.23a3,3,0,0,0,1.09-.32.77.77,0,0,0,.34-.68v-.05a2,2,0,0,0-.6-1.56,2.46,2.46,0,0,0-1.71-.55,3,3,0,0,0-1.87.52,2.55,2.55,0,0,0-.93,1.21l-3-.42a4.83,4.83,0,0,1,1.17-2.08,5.17,5.17,0,0,1,2-1.26,7.52,7.52,0,0,1,2.61-.43,8.67,8.67,0,0,1,2,.23,5.83,5.83,0,0,1,1.79.76,3.94,3.94,0,0,1,1.3,1.44,4.67,4.67,0,0,1,.49,2.26V34H73.59V32.09h-.11a3.53,3.53,0,0,1-.82,1.06,3.74,3.74,0,0,1-1.32.79A5.26,5.26,0,0,1,69.48,34.24Zm.84-2.36A3.41,3.41,0,0,0,72,31.49a2.72,2.72,0,0,0,1.1-1,2.63,2.63,0,0,0,.39-1.39V27.47a1.54,1.54,0,0,1-.51.23c-.24.07-.51.13-.81.19l-.88.14-.75.1a6.4,6.4,0,0,0-1.29.32,2.22,2.22,0,0,0-.9.62,1.58,1.58,0,0,0-.32,1,1.53,1.53,0,0,0,.64,1.34A2.87,2.87,0,0,0,70.32,31.88Z"/><path d="M85.87,34.23a6.62,6.62,0,0,1-3.5-.89,5.93,5.93,0,0,1-2.25-2.48,8.21,8.21,0,0,1-.78-3.66,8.12,8.12,0,0,1,.79-3.67,6,6,0,0,1,2.26-2.48,6.49,6.49,0,0,1,3.46-.9,6.83,6.83,0,0,1,2.94.61,5.08,5.08,0,0,1,2,1.72,5,5,0,0,1,.87,2.57H88.64a3,3,0,0,0-.88-1.64,2.61,2.61,0,0,0-1.86-.66,3,3,0,0,0-1.74.52A3.46,3.46,0,0,0,83,24.79a6,6,0,0,0-.42,2.36A6.32,6.32,0,0,0,83,29.54a3.46,3.46,0,0,0,1.15,1.54,3.14,3.14,0,0,0,3,.26,2.56,2.56,0,0,0,1-.78,3.15,3.15,0,0,0,.52-1.25h3.07a5.41,5.41,0,0,1-.85,2.56,5,5,0,0,1-2,1.74A6.75,6.75,0,0,1,85.87,34.23Z"/><path d="M103.05,28.23v-7.9h3.21V34h-3.11V31.54H103a4.07,4.07,0,0,1-1.51,1.88,4.46,4.46,0,0,1-2.59.72,4.67,4.67,0,0,1-2.36-.59,4.14,4.14,0,0,1-1.61-1.75A6.25,6.25,0,0,1,94.36,29V20.33h3.21v8.19a2.93,2.93,0,0,0,.71,2.06,2.42,2.42,0,0,0,1.86.76,3,3,0,0,0,1.38-.35,2.78,2.78,0,0,0,1.1-1A3.29,3.29,0,0,0,103.05,28.23Z"/><path d="M112.78,26v8h-3.22V20.33h3.08v2.32h.16a3.83,3.83,0,0,1,1.5-1.82,4.58,4.58,0,0,1,2.56-.68,4.84,4.84,0,0,1,2.47.61A4.07,4.07,0,0,1,121,22.51a5.91,5.91,0,0,1,.57,2.77V34h-3.21V25.78a3.07,3.07,0,0,0-.71-2.14,2.52,2.52,0,0,0-2-.77,2.92,2.92,0,0,0-1.49.37,2.49,2.49,0,0,0-1,1.06A3.48,3.48,0,0,0,112.78,26Z"/><path d="M128.73,34.24a5.64,5.64,0,0,1-2.33-.46,3.73,3.73,0,0,1-1.63-1.38,4.05,4.05,0,0,1-.6-2.26,3.78,3.78,0,0,1,.43-1.91A3.36,3.36,0,0,1,125.76,27a5.73,5.73,0,0,1,1.66-.68,13.27,13.27,0,0,1,1.92-.34c.8-.09,1.45-.16,1.95-.23a3,3,0,0,0,1.09-.32.77.77,0,0,0,.34-.68v-.05a2,2,0,0,0-.6-1.56,2.44,2.44,0,0,0-1.71-.55,3,3,0,0,0-1.87.52,2.55,2.55,0,0,0-.93,1.21l-3-.42a4.83,4.83,0,0,1,1.17-2.08,5.17,5.17,0,0,1,2-1.26,7.52,7.52,0,0,1,2.61-.43,8.67,8.67,0,0,1,2,.23,5.72,5.72,0,0,1,1.79.76,3.94,3.94,0,0,1,1.3,1.44,4.67,4.67,0,0,1,.49,2.26V34h-3.09V32.09h-.1a4,4,0,0,1-2.15,1.85A5.26,5.26,0,0,1,128.73,34.24Zm.84-2.36a3.41,3.41,0,0,0,1.67-.39,2.72,2.72,0,0,0,1.1-1,2.63,2.63,0,0,0,.39-1.39V27.47a1.54,1.54,0,0,1-.51.23c-.24.07-.51.13-.81.19l-.88.14-.75.1a6.4,6.4,0,0,0-1.29.32,2.12,2.12,0,0,0-.89.62,1.72,1.72,0,0,0,.32,2.36A2.82,2.82,0,0,0,129.57,31.88Z"/><path d="M19.13,37l-.1.4-3.5,11.1c-.1.2.2.4.4.2l7.8-11.2.5-.7a35.93,35.93,0,0,1-4.7.3A.76.76,0,0,0,19.13,37Z"/><path d="M28.33,30.6l6.2-8.9c.1-.2,0-.5-.2-.5h-9.9L30.53.3c0-.3-.2-.4-.4-.2L11.63,27.5c-.1.2,0,.5.2.5h10l-.7,2.8h0c.8,0,1.5.1,2.3.1C25.13,30.9,26.83,30.7,28.33,30.6Z"/><path d="M40.43,29a42.59,42.59,0,0,1-17,3.5,42.9,42.9,0,0,1-9.1-1C.13,28.1,4.13,21.3,6.23,19.7c0,0-6.7,3.1-6.2,8.5s11.7,6.5,11.7,6.5a65.23,65.23,0,0,0,7.7.6A35.93,35.93,0,0,0,40.43,29Z"/></g></g></svg>