<svg xmlns="http://www.w3.org/2000/svg" width="190" height="42.113" viewBox="0 0 190 42.113">
  <g id="Layer_2_1_" transform="translate(0 0.02)">
    <g id="Layer_1-2" transform="translate(0 -0.02)">
      <path id="Path_87" data-name="Path 87" d="M46.31,52.9H45.1v7.38h4.96v-.6H46.31Z" transform="translate(-17.819 -20.888)" fill="#fff"/>
      <path id="Path_88" data-name="Path 88" d="M57.89,52.7a3.466,3.466,0,0,0-3.69,3.811,3.692,3.692,0,1,0,7.38,0A3.466,3.466,0,0,0,57.89,52.7Zm0,.484c1.573,0,2.359,1.089,2.359,3.327s-.786,3.327-2.359,3.327-2.359-1.089-2.359-3.327S56.317,53.184,57.89,53.184Z" transform="translate(-21.414 -20.809)" fill="#fff"/>
      <path id="Path_89" data-name="Path 89" d="M74.923,58.465l-4.113-5.5-.06-.06H69.6v7.38h.665l-.06-6.049,4.537,5.989.06.06h.786V52.9h-.665Z" transform="translate(-27.499 -20.888)" fill="#fff"/>
      <path id="Path_90" data-name="Path 90" d="M86,52.9H83.4v7.38H86c2.48,0,3.932-1.331,3.932-3.69S88.542,52.9,86,52.9Zm0,6.775H84.61V53.5H86c1.815,0,2.6.968,2.6,3.085s-.786,3.085-2.6,3.085Z" transform="translate(-32.951 -20.888)" fill="#fff"/>
      <path id="Path_91" data-name="Path 91" d="M100.29,52.7a3.466,3.466,0,0,0-3.69,3.811,3.5,3.5,0,0,0,3.69,3.811,3.541,3.541,0,0,0,3.75-3.811A3.511,3.511,0,0,0,100.29,52.7Zm0,.484c1.573,0,2.359,1.089,2.359,3.327s-.786,3.327-2.359,3.327-2.359-1.089-2.359-3.327S98.717,53.184,100.29,53.184Z" transform="translate(-38.166 -20.809)" fill="#fff"/>
      <path id="Path_92" data-name="Path 92" d="M117.384,58.465l-4.174-5.5V52.9H112v7.38h.665l-.06-6.049,4.6,5.989v.06h.786V52.9h-.665Z" transform="translate(-44.251 -20.888)" fill="#fff"/>
      <rect id="Rectangle_95" data-name="Rectangle 95" width="0.605" height="11.191" transform="translate(80.331 30.923)" fill="#fff"/>
      <path id="Path_93" data-name="Path 93" d="M152.059,52.9l-2.964,5.928-2.9-5.928h-1.331l-.061,7.38h.665V54.352l2.9,5.928h.786L152,54.412l.06,5.868h1.21l-.06-7.38Z" transform="translate(-57.21 -20.888)" fill="#fff"/>
      <path id="Path_94" data-name="Path 94" d="M165.374,52.9h-1.089L161.2,60.28h.726l.907-2.3h3.206l.907,2.3h1.27l-2.843-7.259Zm-2.3,4.537,1.391-3.448,1.331,3.448Z" transform="translate(-63.69 -20.888)" fill="#fff"/>
      <path id="Path_95" data-name="Path 95" d="M180.684,58.465l-4.174-5.5-.061-.06H175.3v7.38h.665l-.06-6.049,4.6,6.049h.786V52.9h-.665Z" transform="translate(-69.261 -20.888)" fill="#fff"/>
      <path id="Path_96" data-name="Path 96" d="M194.626,58.568a2.9,2.9,0,0,1-2.42,1.21q-2.541,0-2.541-3.266c0-2.178.847-3.266,2.48-3.266a3.282,3.282,0,0,1,2.178.847l.121.121.3-.484-.06-.06a4.029,4.029,0,0,0-2.541-.968,3.638,3.638,0,0,0-3.75,3.932,3.52,3.52,0,0,0,3.266,3.75h.484a3.358,3.358,0,0,0,2.964-1.391l.061-.06-.363-.484Z" transform="translate(-74.432 -20.809)" fill="#fff"/>
      <path id="Path_97" data-name="Path 97" d="M206.779,56.287H203.21V52.9H202v7.38h1.21V56.953h3.569V60.28h1.21V52.9h-1.21Z" transform="translate(-79.81 -20.888)" fill="#fff"/>
      <path id="Path_98" data-name="Path 98" d="M217.11,56.832h3.206v-.544H217.11V53.5h3.508v-.6H215.9v7.38h5.021v-.6H217.11Z" transform="translate(-85.301 -20.888)" fill="#fff"/>
      <path id="Path_99" data-name="Path 99" d="M229.266,56.022c-.907-.363-1.815-.665-1.815-1.633,0-.726.544-1.21,1.452-1.21a3.044,3.044,0,0,1,1.754.726l.181.181.181-.544-.061-.06a2.815,2.815,0,0,0-2.117-.786c-1.573,0-2.6.847-2.6,2.117s1.149,1.815,2.238,2.178c.907.363,1.694.665,1.694,1.452s-.6,1.331-1.633,1.331a2.709,2.709,0,0,1-2.057-.907l-.121-.181-.363.484.061.06a3.063,3.063,0,0,0,2.48,1.089c1.694,0,2.843-.907,2.843-2.3S230.295,56.385,229.266,56.022Z" transform="translate(-89.292 -20.804)" fill="#fff"/>
      <path id="Path_100" data-name="Path 100" d="M236.4,53.5h2.42V60.28h1.21V53.5h2.42v-.6H236.4Z" transform="translate(-93.401 -20.888)" fill="#fff"/>
      <path id="Path_101" data-name="Path 101" d="M250.01,56.832h3.206v-.544H250.01V53.5h3.508v-.6H248.8v7.38h5.021v-.6H250.01Z" transform="translate(-98.3 -20.888)" fill="#fff"/>
      <path id="Path_102" data-name="Path 102" d="M263.287,57.316A2.216,2.216,0,0,0,264.8,55.2c0-1.391-1.089-2.3-2.9-2.3h-2v7.38h1.149V57.558h1.028l2,2.722h1.452Zm-2.3-3.811h.786c1.149,0,1.633.484,1.633,1.694,0,1.452-.6,1.754-1.512,1.754h-.907Z" transform="translate(-102.686 -20.888)" fill="#fff"/>
      <path id="Path_103" data-name="Path 103" d="M0,2.133H10.888c-3.206,5.2-7.2,12.461-8.408,18.208l-.06.242H4.355l.06-.181C5.565,14.413,9.255,6.428,12.28,1.649l.06-.06V.5H0Z" transform="translate(0 -0.185)" fill="#fff"/>
      <path id="Path_104" data-name="Path 104" d="M23.9,2.133H34.788c-3.206,5.2-7.2,12.461-8.408,18.208l-.06.3h1.875l.06-.181C29.4,14.473,33.095,6.489,36.119,1.71l.06-.06V.5H23.9Z" transform="translate(-9.443 -0.185)" fill="#fff"/>
      <path id="Path_105" data-name="Path 105" d="M69.854.5H63.2V20.583h6.654c6.593,0,10.4-3.629,10.4-9.981S76.326.5,69.854.5Zm0,19.175h-4.9V1.407h4.9c5.565,0,8.348,3.145,8.348,9.195S75.419,19.675,69.854,19.675Z" transform="translate(-24.97 -0.185)" fill="#fff"/>
      <rect id="Rectangle_96" data-name="Rectangle 96" width="1.754" height="20.083" transform="translate(59.462 0.315)" fill="#fff"/>
      <path id="Path_106" data-name="Path 106" d="M122.39,20.583h1.936L116.22.5h-1.633L106.3,20.583h1.028l2.722-6.593h9.678Zm-3.024-7.5h-8.953L114.89,2.073Z" transform="translate(-41.999 -0.185)" fill="#fff"/>
      <path id="Path_107" data-name="Path 107" d="M142.228,2.738,151.3,20.583h1.149L161.4,2.8l.121,17.784h1.754L163.158.5h-1.694L152.33,18.526,143.257.621,143.2.5h-1.875L141.2,20.583h.968Z" transform="translate(-55.788 -0.185)" fill="#fff"/>
      <path id="Path_108" data-name="Path 108" d="M194.5,0c-6.049,0-9.8,3.992-9.8,10.4s3.75,10.344,9.8,10.344,9.86-3.932,9.86-10.344S200.548,0,194.5,0Zm0,.786c4.96,0,7.864,3.508,7.864,9.618s-2.783,9.557-7.864,9.557-7.864-3.387-7.864-9.5S189.418.786,194.5.786Z" transform="translate(-72.974 0.012)" fill="#fff"/>
      <path id="Path_109" data-name="Path 109" d="M238.86,17.982,225.854.5H224.1V20.583h1.028L225.068,2.5,238.5,20.522l.121.06h1.21V.5H238.8Z" transform="translate(-88.541 -0.185)" fill="#fff"/>
      <path id="Path_110" data-name="Path 110" d="M265.854.5H259.2V20.583h6.654c6.593,0,10.4-3.629,10.4-9.981S272.387.5,265.854.5Zm0,19.175h-4.9V1.407h4.9c5.565,0,8.408,3.085,8.408,9.195S271.419,19.675,265.854,19.675Z" transform="translate(-102.409 -0.185)" fill="#fff"/>
      <path id="Path_111" data-name="Path 111" d="M298.945,9.55c-2.843-.907-5.565-1.694-5.565-4.718,0-2.541,1.875-4.053,5.021-4.053a7.715,7.715,0,0,1,5.142,2l.242.242.363-.786-.121-.121A7.6,7.6,0,0,0,298.34-.008c-4.174,0-6.714,2.057-6.714,5.444,0,3.69,3.146,4.658,6.23,5.626,2.722.847,5.323,1.633,5.323,4.355s-2.117,4.476-5.444,4.476a7.879,7.879,0,0,1-6.049-2.6l-.181-.242-.6.786.06.121c.06.121,2,2.9,6.835,2.9,4.295,0,7.138-2.359,7.138-5.868S301.909,10.457,298.945,9.55Z" transform="translate(-114.934 0.02)" fill="#fff"/>
    </g>
  </g>
</svg>
