<svg xmlns="http://www.w3.org/2000/svg" width="190" height="37.542" viewBox="0 0 190 37.542">
  <g id="Group_651" data-name="Group 651" transform="translate(-1624.145 1155.642)">
    <path id="Path_136" data-name="Path 136" d="M1624.145-1151.305h5.67v12.936h17.411v-12.776h5.565v34.825h-5.483v-16.793h-17.459v16.95h-5.7Z" transform="translate(0 -3.157)" fill="#fff"/>
    <path id="Path_137" data-name="Path 137" d="M2077.9-1116.234v-34.65c.118-.1.153-.152.188-.152,5.38-.023,10.765-.3,16.128.379,7.08.9,12.057,5.995,13.156,13.587a22.847,22.847,0,0,1-.635,9.9,14.537,14.537,0,0,1-13.182,10.773c-5.09.354-10.215.222-15.324.3C2078.155-1116.1,2078.074-1116.163,2077.9-1116.234Zm5.608-4.821c3.06-.1,5.956-.052,8.821-.324a9.606,9.606,0,0,0,8.776-7.438,17.02,17.02,0,0,0,.019-9.459c-1.187-4.1-3.77-6.926-8.168-7.43-3.036-.348-6.129-.208-9.2-.277-.07,0-.143.1-.252.176Z" transform="translate(-330.339 -3.299)" fill="#fff"/>
    <path id="Path_138" data-name="Path 138" d="M1907.117-1155.642l26.017,25.061v-23.7h5.189v36.18c-8.733-8.551-17.592-16.594-26.073-25.252v23.87h-5.133Z" transform="translate(-206.005)" fill="#fff"/>
    <path id="Path_139" data-name="Path 139" d="M1804.75-1137.139v4.9h-13.7v11.422h13.69v4.96h-19.391v-34.813H1804.7v4.652h-13.686v8.881Z" transform="translate(-117.355 -3.618)" fill="#fff"/>
    <path id="Path_140" data-name="Path 140" d="M2232.134-1115.943h-5.451c-.03-.533-.078-1.012-.079-1.49-.006-4.189-.046-8.378.022-12.566a6.1,6.1,0,0,0-1.031-3.531c-3.381-5.328-6.7-10.694-10.04-16.049-.231-.372-.433-.762-.713-1.256h5.871l8.78,14.244,9.093-14.259h5.59c-.285.5-.5.905-.746,1.294q-5.335,8.387-10.688,16.761a3.736,3.736,0,0,0-.621,2.148c.026,4.369.013,8.738.013,13.107Z" transform="translate(-430.031 -3.489)" fill="#fff"/>
  </g>
</svg>
