<svg id="Group_406" data-name="Group 406" xmlns="http://www.w3.org/2000/svg" xmlns:xlink="http://www.w3.org/1999/xlink" width="130.1" height="62" viewBox="0 0 130.1 62">
  <defs>
    <clipPath id="clip-path">
      <rect id="Rectangle_398" data-name="Rectangle 398" width="130.1" height="62" fill="#fff"/>
    </clipPath>
  </defs>
  <g id="Group_405" data-name="Group 405" clip-path="url(#clip-path)">
    <path id="Path_379" data-name="Path 379" d="M124.906,0l4.8,49.99C88.087,54,46.469,58.075,4.844,61.977L0,12.016,124.906,0M104.46,23.476,102.976,8.06l-4.962.481L99,18.811l-.077.015c-1.275-3.218-2.5-6.458-3.744-9.687a.369.369,0,0,0-.467-.289c-2.814.291-5.593.526-8.413.821L87.78,25.083l5.038-.484L91.767,13.656c1.489,3.359,2.632,6.907,4,10.334a.369.369,0,0,0,.468.287c2.764-.287,5.447-.521,8.229-.8M63.025,27.438c3.886-.458,7.952-.282,11.652-1.687,4.283-1.67,4.371-7.227,2.833-10.889-2.64-5.987-10.9-2.841-15.967-2.809l1.481,15.385M18.828,23.9a3.83,3.83,0,0,0-.116-7.306,5.8,5.8,0,0,0-2.137-.2c-3.442.331-6.881.617-10.32.989l1.483,15.4c4.055-.516,8.189-.433,12.148-1.49,3.964-1.3,3.043-7.249-1.058-7.393m8.406,30.3L26.017,41.559c-2.269.19-4.516.434-6.781.64-.2.019-.355.05-.389.318-.288,2.211-.571,4.333-.894,6.554-.756-2.044-1.425-4.1-2.139-6.154-.091-.269-.2-.373-.5-.342q-3.253.332-6.509.625c-.27.025-.24.175-.222.353.43,4.107.763,8.208,1.2,12.316l4.07-.392L13.047,46c1.187,2.9,2.1,5.967,3.19,8.924.083.238.19.324.44.292,1.244-.137,2.442-.236,3.706-.368l1.474-9.724.053.007,1.015,9.475,4.309-.415m5.093-39.334c.187,2.436.469,4.861.68,7.3.015,1.622,1.071,4.5-1.344,4.766-1.62.24-2.115-1.235-2.132-2.549-.3-3.064-.586-6.085-.891-9.156l-5.889.567c.308,3.327.593,6.642.975,9.958.415,5.791,7.764,6.221,12.008,4.244a5.572,5.572,0,0,0,3.171-6c-.3-3.234-.594-6.43-.927-9.668l-5.651.543m68.252,32.273c-1.8-4.008-3.709-7.965-5.541-11.96a.339.339,0,0,0-.418-.223q-3,.3-6,.572a.391.391,0,0,0-.418.342c-.994,4.071-1.975,8.145-2.994,12.209l-.047-.007L84,35.974l-4.8.463,1.216,12.64,9.525-.916.507-2.8c1.231-.175,2.461-.23,3.694-.376a.321.321,0,0,1,.4.238c.277.712.583,1.412.858,2.124a.348.348,0,0,0,.435.257c.691-.08,1.385-.137,2.078-.205.873-.086,1.746-.174,2.67-.267M119.19,10.805c-.024-1.314-.248-2.657-.335-3.98-.018-.2-.148-.2-.288-.205-4.472-.281-10.2-.281-12.85,4-2.624,4.387-.252,10.748,4.838,11.913a16.763,16.763,0,0,0,10-.9c.364-.112.3-.383.271-.686-.222-2.228-.408-4.432-.656-6.661l-5.08.491.391,4.109c-3.506,1.022-5.246-2.159-4.672-5.242.784-3.755,5.438-3.661,8.378-2.835m-39.156,38.3c-.44-1.269-.787-2.467-1.245-3.712a2.972,2.972,0,0,0-2.442-1.849,3.389,3.389,0,0,0-1.215-6.636c-3.067.166-6.147.463-9.195.833l1.215,12.608,4.8-.464-.4-4.258c.875.042,1.984-.434,2.477.48a22.11,22.11,0,0,1,.9,3.184c.055.228.14.314.4.28,1.584-.176,3.094-.295,4.709-.465M54.372,23.739l-1.052-10.9-5.9.568L48.9,28.823l13.069-1.258-.437-4.514-7.165.688m-10.8,28.877c-1.792-4.021-3.716-7.986-5.547-11.991a.3.3,0,0,0-.368-.2q-2.929.3-5.859.569c-.556.052-.486-.045-.631.547-1.029,4.2-2.059,8.348-3.079,12.559,1.548-.136,3.025-.293,4.562-.431A.322.322,0,0,0,33,53.349c.109-.71.272-1.411.366-2.123.044-.333.189-.428.494-.453q1.655-.135,3.306-.309a.306.306,0,0,1,.378.233c.272.689.573,1.367.83,2.062a.417.417,0,0,0,.529.32c.668-.084,1.339-.134,2.009-.2l2.666-.264m21.242-14.8L54.058,38.854l1.215,12.608c3.471-.241,6.934-.659,10.4-.967.49-.047.49-.035.435-.508-.068-.86-.163-1.691-.248-2.589l-6.283.6-.164-1.8,5.882-.571-.291-3-5.89.561-.161-1.7c1.951-.232,3.906-.382,5.861-.578.216-.02.3-.072.271-.31-.1-.946-.16-1.8-.272-2.775m47.6,4.528c.005,1.008.192,2.03.255,3.041.019.21.155.218.308.238a15.315,15.315,0,0,0,8.3-.829c3.147-1.054,3.213-6.154-.133-6.95-1.329-.378-2.75-.439-4.1-.733-1.144-.42-.009-1.321.691-1.413a11.869,11.869,0,0,1,4.583.115l-.308-3.194c-2.889-.318-6.177-.41-8.707,1.234-2.483,1.659-1.881,6.1,1.177,6.633,1.293.3,2.647.367,3.933.693.869.433.124,1.224-.542,1.33a11.652,11.652,0,0,1-5.462-.165M53.075,38.96c-4.325.379-8.636.841-12.96,1.229-.2.019-.277.078-.252.3.119,1.169.2,2.281.339,3.464l4.138-.389c.3,2.891.556,5.729.828,8.615.02.215.087.289.321.264,1.545-.16,3.03-.277,4.59-.451l-.853-8.9,4.209-.414-.358-3.716M78.85,10.382,80.335,25.8l5.848-.564L84.7,9.82l-5.848.562M47.052,29,45.567,13.585l-5.848.562L41.2,29.563,47.052,29m57.466,5.028c-1.537.055-3.043.289-4.575.4-.242.022-.265.13-.245.337.42,4.114.76,8.223,1.2,12.338,3.5-.346,6.941-.671,10.436-1,.207-.019.278-.085.255-.3-.123-1.161-.216-2.281-.351-3.45l-5.856.561-.86-8.894" fill="#fff"/>
    <path id="Path_380" data-name="Path 380" d="M1553.6,804.992a11.614,11.614,0,0,1,.22-1.308,2.718,2.718,0,0,1,1.972-1.992,4.488,4.488,0,0,1,2.528.008,2.734,2.734,0,0,1,1.957,2.011,4.889,4.889,0,0,1,0,2.635,2.91,2.91,0,0,1-2.756,2.174,6.043,6.043,0,0,1-1.528-.1,2.931,2.931,0,0,1-2.325-2.778c-.017-.216-.024-.432-.036-.647l-.033-.006m5,0a2.966,2.966,0,0,0-.349-1.461,1.382,1.382,0,0,0-2.382-.052,2.973,2.973,0,0,0,.009,3.093,1.359,1.359,0,0,0,2.384-.083,3.073,3.073,0,0,0,.338-1.5" transform="translate(-1447.076 -746.555)" fill="#fff"/>
    <path id="Path_381" data-name="Path 381" d="M1812.87,803.267c-.461.579-.87,1.093-1.278,1.608s-.805,1.019-1.228,1.555l2.686,3.612c-.146.013-.241.028-.337.028-.536,0-1.073-.008-1.609.006a.52.52,0,0,1-.505-.261c-.562-.845-1.142-1.677-1.717-2.514-.056-.081-.118-.158-.231-.31-.013.184-.028.289-.028.395,0,.787-.01,1.574,0,2.361,0,.26-.084.337-.336.329-.477-.016-.954,0-1.451,0v-6.782h1.778v2.653l.067.02a2.4,2.4,0,0,0,.169-.185c.563-.761,1.129-1.52,1.683-2.287a.487.487,0,0,1,.454-.227c.593.013,1.186,0,1.879,0" transform="translate(-1682.95 -748.184)" fill="#fff"/>
    <path id="Path_382" data-name="Path 382" d="M1705.343,803.541h1.726v.378c0,1.164-.01,2.328.007,3.492a3.578,3.578,0,0,0,.147.974,1.1,1.1,0,0,0,2.089-.03,3.7,3.7,0,0,0,.124-.942c.014-1.152.005-2.3.006-3.457,0-.134.011-.268.018-.415h1.784v.363q0,1.917,0,3.834a2.5,2.5,0,0,1-2.6,2.684,4.583,4.583,0,0,1-1.787-.209,2.131,2.131,0,0,1-1.52-1.964c-.069-1.537-.024-3.079-.025-4.619,0-.02.016-.041.037-.088" transform="translate(-1588.365 -748.443)" fill="#fff"/>
    <path id="Path_383" data-name="Path 383" d="M1467.8,802.047l-.132,1.379c-.442-.127-.869-.282-1.31-.369a2.134,2.134,0,0,0-2.3.979,2.384,2.384,0,0,0,.175,2.607,2.238,2.238,0,0,0,2.034.747c.481-.043.954-.173,1.462-.269.029.432.059.87.09,1.34a5.632,5.632,0,0,1-4.418-.365,3.187,3.187,0,0,1-1.479-3.265,3.314,3.314,0,0,1,3.283-3.1,6.744,6.744,0,0,1,2.6.318" transform="translate(-1361.661 -746.734)" fill="#fff"/>
    <rect id="Rectangle_397" data-name="Rectangle 397" width="1.597" height="1.523" transform="translate(114.28 60.332)" fill="#fff"/>
    <path id="Path_384" data-name="Path 384" d="M1425.753,881.133v-1.573c.487,0,.962-.007,1.437.01.055,0,.147.134.15.208.016.375.017.751,0,1.125,0,.079-.11.217-.174.22-.463.019-.927.01-1.412.01" transform="translate(-1327.993 -819.249)" fill="#fff"/>
    <path id="Path_385" data-name="Path 385" d="M989.5,227.791l-.775-8.054c.787-.014,1.549-.08,2.3-.026a1.832,1.832,0,0,1,1.457,1.071,4.872,4.872,0,0,1,.554,2,24.67,24.67,0,0,1,.118,2.526,2.184,2.184,0,0,1-1.9,2.255c-.566.117-1.148.154-1.755.232" transform="translate(-920.933 -204.627)" fill="#fff"/>
    <path id="Path_386" data-name="Path 386" d="M184.285,380.368l-.308-3.2a13.171,13.171,0,0,1,2.67-.14,1.329,1.329,0,0,1,1.135,1.048,1.422,1.422,0,0,1-.476,1.6,1.493,1.493,0,0,1-.628.33c-.781.142-1.569.239-2.393.359" transform="translate(-171.362 -351.143)" fill="#fff"/>
    <path id="Path_387" data-name="Path 387" d="M175.322,288.766c.859-.028,1.676-.1,2.488-.068A1.379,1.379,0,0,1,179.042,290a1.33,1.33,0,0,1-.913,1.471,3.552,3.552,0,0,1-.763.176c-.564.069-1.131.113-1.747.172l-.3-3.057" transform="translate(-163.301 -268.895)" fill="#fff"/>
    <path id="Path_388" data-name="Path 388" d="M1325.56,558.246l1.684,3.728-2.691.258.942-3.981.065-.005" transform="translate(-1233.732 -519.969)" fill="#fff"/>
    <path id="Path_389" data-name="Path 389" d="M1032.7,583.577c.753-.039,1.446-.108,2.138-.1a1.316,1.316,0,0,1,.26,2.55,17.526,17.526,0,0,1-1.931.234.287.287,0,0,1-.222-.171c-.091-.812-.162-1.626-.245-2.513" transform="translate(-961.888 -543.47)" fill="#fff"/>
    <path id="Path_390" data-name="Path 390" d="M496.044,641.769l-2.689.258.938-3.984.06-.015,1.691,3.742" transform="translate(-459.527 -594.279)" fill="#fff"/>
  </g>
</svg>
