<svg xmlns="http://www.w3.org/2000/svg" width="117.026" height="34.424" viewBox="0 0 117.026 34.424">
  <g id="Group_720" data-name="Group 720" transform="translate(-552 -951)">
    <path id="Path_913" data-name="Path 913" d="M4.67-17.455,8.889-4.193h.162l4.227-13.261h4.091L11.352,0H6.6L.571-17.455ZM23.872.256A6.941,6.941,0,0,1,20.4-.567,5.563,5.563,0,0,1,18.162-2.9a7.692,7.692,0,0,1-.784-3.584,7.653,7.653,0,0,1,.784-3.545,5.787,5.787,0,0,1,2.212-2.378,6.419,6.419,0,0,1,3.354-.852,6.928,6.928,0,0,1,2.416.413,5.446,5.446,0,0,1,1.96,1.24,5.649,5.649,0,0,1,1.308,2.075,8.289,8.289,0,0,1,.469,2.919v1H18.827v-2.25h7.636a2.781,2.781,0,0,0-.341-1.389,2.481,2.481,0,0,0-.942-.95,2.748,2.748,0,0,0-1.393-.345,2.8,2.8,0,0,0-1.462.379,2.72,2.72,0,0,0-.993,1.014,2.889,2.889,0,0,0-.366,1.411v2.139a3.641,3.641,0,0,0,.362,1.679,2.593,2.593,0,0,0,1.027,1.091,3.1,3.1,0,0,0,1.577.384,3.434,3.434,0,0,0,1.108-.17,2.3,2.3,0,0,0,.861-.511,2.223,2.223,0,0,0,.545-.835L29.8-3.75A4.577,4.577,0,0,1,28.76-1.641a5.245,5.245,0,0,1-2.028,1.4A7.623,7.623,0,0,1,23.872.256ZM32.25,0V-13.091h3.52v2.284h.136a3.4,3.4,0,0,1,1.2-1.845,3.173,3.173,0,0,1,1.943-.626,5.492,5.492,0,0,1,.588.034,4.141,4.141,0,0,1,.554.094v3.222a4.743,4.743,0,0,0-.707-.136,6.355,6.355,0,0,0-.827-.06,2.909,2.909,0,0,0-1.428.345,2.565,2.565,0,0,0-.989.959,2.731,2.731,0,0,0-.362,1.415V0Zm9.878,0V-17.455h3.631v6.563h.111a4.813,4.813,0,0,1,.695-1.078,3.656,3.656,0,0,1,1.193-.92,4.067,4.067,0,0,1,1.837-.371,4.941,4.941,0,0,1,2.642.746,5.209,5.209,0,0,1,1.935,2.241,8.572,8.572,0,0,1,.724,3.746,8.694,8.694,0,0,1-.7,3.695A5.251,5.251,0,0,1,52.283-.558a4.9,4.9,0,0,1-2.7.771,4.166,4.166,0,0,1-1.794-.349,3.677,3.677,0,0,1-1.206-.882A4.385,4.385,0,0,1,45.869-2.1h-.162V0Zm3.554-6.545a5.827,5.827,0,0,0,.324,2.037,3,3,0,0,0,.938,1.351,2.342,2.342,0,0,0,1.491.482,2.328,2.328,0,0,0,1.5-.49,3.024,3.024,0,0,0,.933-1.364,5.85,5.85,0,0,0,.32-2.016,5.784,5.784,0,0,0-.315-1.994,2.971,2.971,0,0,0-.929-1.347,2.355,2.355,0,0,0-1.509-.486,2.38,2.38,0,0,0-1.5.469,2.926,2.926,0,0,0-.933,1.33A5.755,5.755,0,0,0,45.682-6.545ZM57.307,0V-13.091h3.631V0Zm1.832-14.778a1.964,1.964,0,0,1-1.389-.541,1.716,1.716,0,0,1-.58-1.3,1.707,1.707,0,0,1,.58-1.291,1.954,1.954,0,0,1,1.381-.541,1.96,1.96,0,0,1,1.393.541,1.713,1.713,0,0,1,.575,1.291,1.722,1.722,0,0,1-.575,1.3A1.949,1.949,0,0,1,59.139-14.778Zm15.588,5.42-3.324.2a1.748,1.748,0,0,0-.366-.771,2.012,2.012,0,0,0-.737-.554,2.593,2.593,0,0,0-1.087-.209,2.685,2.685,0,0,0-1.423.354,1.067,1.067,0,0,0-.58.942,1.009,1.009,0,0,0,.375.793,2.976,2.976,0,0,0,1.287.52l2.369.477a5.874,5.874,0,0,1,2.847,1.261,2.969,2.969,0,0,1,.938,2.284A3.579,3.579,0,0,1,74.271-1.8,4.926,4.926,0,0,1,72.209-.286,7.83,7.83,0,0,1,69.2.256,7.044,7.044,0,0,1,65.058-.831a4.2,4.2,0,0,1-1.8-2.962l3.571-.187a1.819,1.819,0,0,0,.784,1.206,2.826,2.826,0,0,0,1.594.413,2.835,2.835,0,0,0,1.538-.371,1.125,1.125,0,0,0,.592-.959,1.014,1.014,0,0,0-.418-.814,3.042,3.042,0,0,0-1.261-.49l-2.267-.452a5.4,5.4,0,0,1-2.851-1.33,3.291,3.291,0,0,1-.933-2.412,3.512,3.512,0,0,1,.686-2.173,4.354,4.354,0,0,1,1.935-1.406,7.928,7.928,0,0,1,2.928-.494,6.477,6.477,0,0,1,3.908,1.048A4.053,4.053,0,0,1,74.727-9.358Z" transform="translate(594 977.452)" fill="#fff"/>
    <path id="Path_83" data-name="Path 83" d="M30.338-21.961a18.992,18.992,0,0,1-2.1-.58,6.439,6.439,0,0,1-1.668-.822l.387-1.838H39.235l-.387,1.838a12.724,12.724,0,0,1-1.668.774,13.9,13.9,0,0,1-2.1.628l-17.6,30.6-4.835.58L6.792-21.961a13.238,13.238,0,0,1-1.91-.6,5.546,5.546,0,0,1-1.426-.8L3.843-25.2H19.8l-.387,1.838a14.48,14.48,0,0,1-1.982.8,21.407,21.407,0,0,1-2.272.6l2.756,19.05.145,4.545h.1l2.031-4.642Z" transform="translate(548.544 976.2)" fill="#fff"/>
  </g>
</svg>
