<svg xmlns="http://www.w3.org/2000/svg" width="180" height="35.566" viewBox="0 0 180 35.566">
  <g id="Group_541" data-name="Group 541" transform="translate(-1624.145 1155.642)">
    <path id="Path_136" data-name="Path 136" d="M1624.145-1151.305h5.372v12.255h16.495v-12.1h5.272v32.992h-5.194v-15.909h-16.54v16.058h-5.4Z" transform="translate(0 -3.219)" fill="#fff"/>
    <path id="Path_137" data-name="Path 137" d="M2077.9-1118.069V-1150.9c.112-.093.145-.144.178-.144,5.1-.022,10.2-.283,15.279.359,6.708.848,11.422,5.679,12.463,12.872a21.647,21.647,0,0,1-.6,9.376,13.773,13.773,0,0,1-12.489,10.206c-4.822.335-9.677.21-14.517.285C2078.142-1117.942,2078.065-1118,2077.9-1118.069Zm5.313-4.568c2.9-.1,5.642-.049,8.357-.307a9.1,9.1,0,0,0,8.314-7.047,16.123,16.123,0,0,0,.018-8.961c-1.124-3.886-3.572-6.562-7.739-7.039-2.876-.33-5.806-.2-8.712-.262-.067,0-.136.092-.239.167Z" transform="translate(-336.835 -3.363)" fill="#fff"/>
    <path id="Path_138" data-name="Path 138" d="M1907.117-1155.642l24.648,23.742v-22.451h4.916v34.275c-8.274-8.1-16.667-15.721-24.7-23.923v22.614h-4.863Z" transform="translate(-210.056)" fill="#fff"/>
    <path id="Path_139" data-name="Path 139" d="M1803.729-1137.851v4.641h-12.981v10.821h12.969v4.7h-18.37v-32.981h18.333v4.407h-12.966v8.414Z" transform="translate(-119.663 -3.689)" fill="#fff"/>
    <path id="Path_140" data-name="Path 140" d="M2231.224-1117.78h-5.164c-.028-.505-.074-.958-.075-1.411-.005-3.968-.044-7.937.021-11.9a5.777,5.777,0,0,0-.977-3.345c-3.2-5.048-6.349-10.131-9.511-15.2-.219-.352-.41-.721-.675-1.19h5.562l8.318,13.494,8.614-13.509h5.3c-.27.47-.473.858-.707,1.226q-5.054,7.945-10.126,15.879a3.54,3.54,0,0,0-.588,2.035c.025,4.139.012,8.278.012,12.417Z" transform="translate(-438.487 -3.558)" fill="#fff"/>
  </g>
</svg>
