<svg id="judo_grey" data-name="judo grey" xmlns="http://www.w3.org/2000/svg" width="60.895" height="38.8" viewBox="0 0 60.895 38.8">
  <g id="Group_10" data-name="Group 10" transform="translate(2.463 0)">
    <path id="Path_160" data-name="Path 160" d="M10.506,18.153A2.653,2.653,0,1,1,7.853,15.5,2.661,2.661,0,0,1,10.506,18.153Z" transform="translate(-5.2 -7.541)" fill="#1d1d1b"/>
    <path id="Path_161" data-name="Path 161" d="M10.506,6.153A2.653,2.653,0,1,1,7.853,3.5,2.661,2.661,0,0,1,10.506,6.153Z" transform="translate(-5.2 -3.5)" fill="#1d1d1b"/>
    <path id="Path_162" data-name="Path 162" d="M17.206,12.153A2.653,2.653,0,1,1,14.553,9.5,2.661,2.661,0,0,1,17.206,12.153Z" transform="translate(-7.456 -5.521)" fill="#1d1d1b"/>
  </g>
  <g id="Group_11" data-name="Group 11" transform="translate(0 7.959)">
    <path id="Path_163" data-name="Path 163" d="M20.046,28.256v8.821c0,1.724.6,3.383,3.383,3.383s3.383-1.658,3.383-3.383V28.256a2.056,2.056,0,1,1,4.112,0v8.821c0,3.714-1.393,7.1-7.428,7.1-6.1,0-7.495-3.383-7.495-7.1V28.256A2.066,2.066,0,0,1,18.056,26.2,2.01,2.01,0,0,1,20.046,28.256Z" transform="translate(-6.374 -19.103)" fill="#1d1d1b"/>
    <path id="Path_164" data-name="Path 164" d="M53.206,23.857v-6.3a2.056,2.056,0,0,1,4.112,0V32.943c0,5.041-3.25,7.561-7.826,7.561-5.107,0-8.092-2.918-8.092-9.086s2.918-9.087,7.694-9.087A6.552,6.552,0,0,1,53.206,23.857Zm0,3.913a5.148,5.148,0,0,0-3.714-1.923c-2.587,0-4.046,1.857-4.046,5.638,0,3.714,1.459,5.571,4.046,5.571,2.189,0,3.714-1.459,3.714-4.046Z" transform="translate(-14.928 -15.5)" fill="#1d1d1b"/>
    <path id="Path_165" data-name="Path 165" d="M76.591,43.973c-5.107,0-8.291-2.918-8.291-9.086S71.484,25.8,76.591,25.8s8.291,2.918,8.291,9.086C84.881,41.121,81.7,43.973,76.591,43.973Zm0-14.658c-2.719,0-4.178,1.857-4.178,5.638,0,3.714,1.459,5.571,4.178,5.571s4.178-1.857,4.178-5.571C80.769,31.172,79.31,29.315,76.591,29.315Z" transform="translate(-23.987 -18.969)" fill="#1d1d1b"/>
    <path id="Path_166" data-name="Path 166" d="M3.485,49.944a1.935,1.935,0,0,1-1.857-1.26,2.029,2.029,0,0,1,1.128-2.653c1.791-.73,1.857-1.592,1.857-6.765V28.256a2.056,2.056,0,1,1,4.112,0v11.01c0,4.908,0,8.755-4.377,10.546A4.563,4.563,0,0,1,3.485,49.944Z" transform="translate(-1.487 -19.103)" fill="#1d1d1b"/>
  </g>
</svg>
