<svg id="Group_348" data-name="Group 348" xmlns="http://www.w3.org/2000/svg" width="135.316" height="35" viewBox="0 0 135.316 35">
  <path id="Path_137" data-name="Path 137" d="M945.586,423.459a10.935,10.935,0,0,0,2.042-.151,1.854,1.854,0,0,1,2.1,1.651,1.884,1.884,0,0,1-1.562,2.03,12.815,12.815,0,0,1-3.48.178,14.415,14.415,0,0,1-5.091-1.357,8.36,8.36,0,0,1-2.537-1.8c-.209-.224-.289-.22-.51,0a16,16,0,0,1-2.015,1.652,7.908,7.908,0,0,1-4.14,1.46,8.38,8.38,0,0,1-4.013-.707,6.819,6.819,0,0,1-2.549-2c-.041-.051-.081-.1-.122-.156-.2-.248-.308-.254-.515-.023-.157.175-.309.354-.468.527a13.164,13.164,0,0,1-2.9,2.487,6.311,6.311,0,0,1-2.287.838,5.154,5.154,0,0,1-5.785-3.532c-.03-.089-.049-.182-.085-.268a.225.225,0,0,0-.363-.124,8.28,8.28,0,0,1-.785.412,3.647,3.647,0,0,1-1.4.39,4.679,4.679,0,0,1-4.366-1.966,10.488,10.488,0,0,1-1.3-2.4,14.529,14.529,0,0,1-.588-1.673,2.93,2.93,0,0,0-.288-.733.407.407,0,0,0-.559-.227,2.741,2.741,0,0,0-.989.526,8.087,8.087,0,0,0-1.489,1.649,27.753,27.753,0,0,0-2.062,3.428,29.785,29.785,0,0,1-2.017,3.357,1.856,1.856,0,0,1-1.351.824,1.56,1.56,0,0,1-1.729-1.462,7.421,7.421,0,0,1,.088-1.038c.025-.271.067-.541.09-.812.025-.3-.114-.4-.391-.27-.341.158-.673.335-1.019.482a18.823,18.823,0,0,1-4.016,1.308,9.146,9.146,0,0,1-4.492-.146,6.644,6.644,0,0,1-4.7-5.151,7.888,7.888,0,0,1,.346-4.463,8.01,8.01,0,0,1,.559-1.323,11.985,11.985,0,0,1,1.253-1.866,8.564,8.564,0,0,1,1.892-1.664,7.526,7.526,0,0,1,2.624-1.037,7.784,7.784,0,0,1,2.749-.07,5.1,5.1,0,0,1,2.991,1.45,4.856,4.856,0,0,1,1.188,2.275,1.9,1.9,0,0,1-.46,1.817,1.586,1.586,0,0,1-1.111.559,2.141,2.141,0,0,1-.909-.077,1.8,1.8,0,0,1-.961-.846,3.2,3.2,0,0,1-.272-.765.793.793,0,0,0-.546-.572,3.562,3.562,0,0,0-2.538.1,4.611,4.611,0,0,0-2.41,2.18A6.154,6.154,0,0,0,881.64,418a4.1,4.1,0,0,0,.111,2.431,2.878,2.878,0,0,0,2.082,1.821,6.362,6.362,0,0,0,3.2-.07,12.907,12.907,0,0,0,2.121-.731,20.344,20.344,0,0,0,3-1.61,9.622,9.622,0,0,0,1.05-.805c.127-.112.3-.16.38-.343a1.223,1.223,0,0,0,.1-.342,5.778,5.778,0,0,1,.243-1.138,3.309,3.309,0,0,0,.09-.544c.047-.287.116-.57.181-.85.109-.468.216-.937.328-1.4.164-.684.32-1.369.512-2.046.181-.636.327-1.281.5-1.918q.246-.888.525-1.768c.327-1.037.622-2.087,1.005-3.1a48.461,48.461,0,0,1,3.363-7.513c.324-.552.686-1.078,1.034-1.614a9.519,9.519,0,0,1,1.517-1.8,5.518,5.518,0,0,1,2.089-1.3,3.578,3.578,0,0,1,2.289-.036,2.909,2.909,0,0,1,1.654,1.393,4.953,4.953,0,0,1,.556,2.095,11.949,11.949,0,0,1-.234,2.97,22.734,22.734,0,0,1-1.526,4.536q-.889,2.146-1.951,4.21a49.9,49.9,0,0,1-2.678,4.651c-.134.2-.262.408-.392.613-.14.221-.081.372.178.419a3.554,3.554,0,0,1,1.479.629,3.791,3.791,0,0,1,.843.88,9.757,9.757,0,0,1,1.075,2.113,22.08,22.08,0,0,0,1.071,2.52,3.169,3.169,0,0,0,.415.562.987.987,0,0,0,1.381.1A4.586,4.586,0,0,0,910.2,420a10.618,10.618,0,0,0,.943-1.6q.432-.9.78-1.846c.218-.588.365-1.2.559-1.79a1.881,1.881,0,0,1,3.663.674,4.56,4.56,0,0,1-.212.922c-.115.441-.282.867-.38,1.313a16.723,16.723,0,0,0-.478,4.441,5.024,5.024,0,0,0,.172,1.083,2.575,2.575,0,0,0,.185.472,1.193,1.193,0,0,0,1,.685,2.4,2.4,0,0,0,1.364-.263A6.08,6.08,0,0,0,919.255,423a18.453,18.453,0,0,0,1.788-2.031c.23-.3.457-.6.689-.891a.411.411,0,0,0,.085-.364,22.088,22.088,0,0,1-.27-5.7c.082-1.192.264-2.37.452-3.549.111-.693.264-1.374.441-2.049.152-.58.368-1.143.567-1.709.188-.534.412-1.054.624-1.578.241-.6.531-1.174.789-1.764a11.942,11.942,0,0,1,.646-1.258,16.885,16.885,0,0,1,2.912-3.95,6.023,6.023,0,0,1,2.149-1.367,3.615,3.615,0,0,1,2.083-.109,2.973,2.973,0,0,1,2.165,2.17,7.4,7.4,0,0,1,.254,2.818,26.27,26.27,0,0,1-2.253,8.339,38.1,38.1,0,0,1-4.007,7.109c-.365.516-.745,1.023-1.084,1.556-.384.6-.8,1.182-1.2,1.767a.39.39,0,0,0-.045.442c.129.261.254.524.406.774a3.492,3.492,0,0,0,2.518,1.678,4.814,4.814,0,0,0,3.915-1.017,12.951,12.951,0,0,0,1.966-1.936.37.37,0,0,0,.076-.388,16.68,16.68,0,0,1-.687-5.4,21.8,21.8,0,0,1,.456-3.858,35.757,35.757,0,0,1,1.868-5.973,25.364,25.364,0,0,1,2.347-4.615,11.516,11.516,0,0,1,2.11-2.487,4.979,4.979,0,0,1,2.142-1.144,3.007,3.007,0,0,1,3.636,1.956,5.85,5.85,0,0,1,.334,1.509,14.176,14.176,0,0,1-.144,3.484,34.9,34.9,0,0,1-3.138,9.87,41.691,41.691,0,0,1-2.789,4.8c-.517.8-1.038,1.59-1.586,2.365-.192.272-.185.338,0,.627a4.159,4.159,0,0,0,1.517,1.3,7.41,7.41,0,0,0,2.439.843A11.072,11.072,0,0,0,945.586,423.459Zm-7.621-8.93c0,.066,0,.132,0,.2s-.014.131-.013.2c0,.122.012.243.013.365,0,.2.281.248.384.127a1.289,1.289,0,0,0,.1-.135,31.778,31.778,0,0,0,1.7-2.883,32.826,32.826,0,0,0,2.653-7.14,24.882,24.882,0,0,0,.586-3.116c.037-.336.054-.674.076-1.012.009-.135,0-.269-.153-.33s-.244.051-.334.145c-.071.075-.138.154-.2.233a19.237,19.237,0,0,0-2.671,4.667,14.993,14.993,0,0,0-.78,2.17c-.119.434-.277.858-.411,1.288A19.973,19.973,0,0,0,937.966,414.529Zm-12.682-.222c-.006.063-.014.157-.023.25s-.016.179.089.21.129-.054.171-.115c.185-.269.373-.536.555-.807a31.925,31.925,0,0,0,2.7-4.925,33.356,33.356,0,0,0,1.34-3.582,21.732,21.732,0,0,0,.738-3.174,7.494,7.494,0,0,0,.093-1.178.249.249,0,0,0-.138-.255.235.235,0,0,0-.279.074c-.054.052-.108.1-.159.16a9.46,9.46,0,0,0-1.006,1.286,27.266,27.266,0,0,0-2.3,4.385A22.7,22.7,0,0,0,925.284,414.307Zm-19.441-16.574a.245.245,0,0,0-.136-.281.239.239,0,0,0-.28.076c-.045.048-.092.094-.136.143a8.8,8.8,0,0,0-.625.763,23.1,23.1,0,0,0-2.341,4.172,63.047,63.047,0,0,0-3.188,9.052,1.389,1.389,0,0,0-.039.164.221.221,0,0,0,.4.179c.046-.059.085-.124.127-.186a51.246,51.246,0,0,0,2.66-4.5,54.719,54.719,0,0,0,2.956-6.6A11.475,11.475,0,0,0,905.843,397.733Z" transform="translate(-819.75 -393.148)" fill="#1d1d1b"/>
  <path id="Path_138" data-name="Path 138" d="M519.921,503.514a9.645,9.645,0,0,1,5.322-1.289,5.647,5.647,0,0,1,2.393.614,4.1,4.1,0,0,1,1.926,2.13,6.964,6.964,0,0,1,.49,2.71q.007,4.342,0,8.685a1.5,1.5,0,0,1-.034.392.605.605,0,0,1-.6.525,1.314,1.314,0,0,1-.169.008h-2.821a1.655,1.655,0,0,1-.253-.017.568.568,0,0,1-.518-.513,2.752,2.752,0,0,1-.03-.478q0-3.891,0-7.783a4.941,4.941,0,0,0-.129-1.342,1.632,1.632,0,0,0-1.5-1.281,4.576,4.576,0,0,0-1.622.114,7.079,7.079,0,0,0-2.264.976.406.406,0,0,0-.2.391q.009,4.469,0,8.939a3.277,3.277,0,0,1-.011.366.636.636,0,0,1-.6.61,2.721,2.721,0,0,1-.366.017q-1.27,0-2.539,0h-.085c-.586-.012-.811-.239-.812-.833q0-8.953,0-17.906c0-.14,0-.281.006-.421a.729.729,0,0,1,.523-.535,7.564,7.564,0,0,1,1.055-.165c.586-.083,1.174-.153,1.762-.224a1.028,1.028,0,0,1,.474.019.846.846,0,0,1,.585.774,2.8,2.8,0,0,1,.005.31q0,2.453,0,4.906Z" transform="translate(-500.105 -484.953)" fill="#1d1d1b"/>
  <path id="Path_139" data-name="Path 139" d="M667.059,556.791c-.11-.006-.169.063-.239.1a8.885,8.885,0,0,1-5.456,1.245,3.778,3.778,0,0,1-.665-.073,6.777,6.777,0,0,1-.984-.272,4.624,4.624,0,0,1-1.489-.989,4.417,4.417,0,0,1-1.016-1.705,7.666,7.666,0,0,1-.294-1.686c-.025-.271-.024-.545-.025-.817q0-4.173,0-8.346c0-.141.013-.281.02-.422a.667.667,0,0,1,.547-.63,1.621,1.621,0,0,1,.5-.074c.79,0,1.58,0,2.37,0a1.171,1.171,0,0,1,.2.013.818.818,0,0,1,.765.728,1.992,1.992,0,0,1,.018.365q0,3.863,0,7.726a5.808,5.808,0,0,0,.1,1.177,1.553,1.553,0,0,0,1.429,1.343,4.6,4.6,0,0,0,2.355-.337,7.244,7.244,0,0,0,1.473-.77.4.4,0,0,0,.2-.382q-.008-4.314-.007-8.628c0-.16.005-.319.011-.479a.681.681,0,0,1,.516-.681,1.69,1.69,0,0,1,.523-.077q1.185,0,2.37,0a1.254,1.254,0,0,1,.308.03.839.839,0,0,1,.682.864c0,.056,0,.113,0,.169q0,6.217,0,12.434a1.785,1.785,0,0,1-.073.638.756.756,0,0,1-.7.543c-.836.043-1.673.032-2.51.009a.884.884,0,0,1-.9-.893C667.069,556.877,667.063,556.834,667.059,556.791Z" transform="translate(-624.856 -525.486)" fill="#1d1d1b"/>
  <path id="Path_140" data-name="Path 140" d="M392.623,540.127a11.845,11.845,0,0,1,4.328.769,3.93,3.93,0,0,1,.384.174.582.582,0,0,1,.33.654,2.277,2.277,0,0,1-.046.249q-.213.8-.431,1.6a1.336,1.336,0,0,1-.113.287.578.578,0,0,1-.714.3c-.189-.055-.37-.135-.556-.2a7.867,7.867,0,0,0-2.838-.523,4.776,4.776,0,0,0-1.251.184,3.384,3.384,0,0,0-2.412,2.425,6.227,6.227,0,0,0,.055,3.774,3.334,3.334,0,0,0,2.987,2.419,7.778,7.778,0,0,0,3.439-.429c.222-.076.442-.158.668-.222a.566.566,0,0,1,.733.31,9.293,9.293,0,0,1,.617,1.983.61.61,0,0,1-.258.592,1.576,1.576,0,0,1-.372.2,11.365,11.365,0,0,1-4.024.879,11.066,11.066,0,0,1-3.683-.389,6.506,6.506,0,0,1-4.1-3.289,7.371,7.371,0,0,1-.732-2.3,9.388,9.388,0,0,1,.175-3.941,7.012,7.012,0,0,1,5.115-5.135A9.84,9.84,0,0,1,392.623,540.127Z" transform="translate(-384.502 -522.841)" fill="#1d1d1b"/>
  <path id="Path_141" data-name="Path 141" d="M801.745,541.3a4,4,0,0,1,1.739-1.164,4.943,4.943,0,0,1,2.766-.2c.508.119.685.363.6.885q-.177,1.055-.354,2.11a.894.894,0,0,1-.26.514.49.49,0,0,1-.39.147c-.15-.009-.3-.025-.448-.048a3.872,3.872,0,0,0-3.29,1.052.379.379,0,0,0-.137.318c.007.5,0,1,0,1.494q0,3.679,0,7.358a1.824,1.824,0,0,1-.029.42.849.849,0,0,1-.8.711,3.662,3.662,0,0,1-.366.013h-2c-.188,0-.375-.021-.562-.032a.727.727,0,0,1-.623-.631,4.248,4.248,0,0,1-.028-.478q0-6.216,0-12.433a1.223,1.223,0,0,1,.145-.775.715.715,0,0,1,.362-.267,1.907,1.907,0,0,1,.638-.084c.639,0,1.279,0,1.918,0a1.565,1.565,0,0,1,.526.064.763.763,0,0,1,.594.774C801.747,541.113,801.745,541.177,801.745,541.3Z" transform="translate(-748.982 -522.571)" fill="#1d1d1b"/>
  <path id="Path_142" data-name="Path 142" d="M1186.563,519.876a1.911,1.911,0,0,1,.533-1.42,1.947,1.947,0,0,1,2.774-.076,1.687,1.687,0,0,1,.194,2.144,1.928,1.928,0,0,1-2.053,1,1.681,1.681,0,0,1-.857-.278,1.234,1.234,0,0,1-.555-.948C1186.592,520.156,1186.576,520.016,1186.563,519.876Z" transform="translate(-1092.235 -503.171)" fill="#1d1d1b"/>
  <path id="Path_143" data-name="Path 143" d="M1511.157,432.181c-.038.5-.077,1.006-.116,1.513a2.166,2.166,0,0,1-.468.016c.063-.894.125-1.763.187-2.623a.287.287,0,0,1,.071-.028c.4-.014.4-.013.542.348.174.435.346.871.523,1.305a.439.439,0,0,0,.128.23.414.414,0,0,0,.1-.188c.208-.512.413-1.026.619-1.54.027-.068.035-.156.134-.156a1,1,0,0,1,.363.017c.052.02.044.1.048.153q.034.421.063.843c.037.533.072,1.067.109,1.615a1.356,1.356,0,0,1-.463.021c-.039-.514-.078-1.021-.119-1.539-.107.042-.112.123-.138.188-.165.4-.332.8-.49,1.2a.209.209,0,0,1-.219.166.222.222,0,0,1-.244-.172c-.145-.376-.3-.748-.454-1.121-.035-.084-.075-.166-.112-.249Z" transform="translate(-1378.139 -426.593)" fill="#1d1d1b"/>
  <path id="Path_144" data-name="Path 144" d="M1491.493,433.707v-.735c0-.432,0-.864,0-1.3,0-.133-.035-.183-.174-.178-.242.01-.485,0-.73,0a1.313,1.313,0,0,1-.015-.4c.073-.057.151-.032.221-.032q.958,0,1.916,0c.06,0,.152-.033.17.05a.6.6,0,0,1-.012.357c-.019.045-.084.028-.13.028-.2,0-.395.009-.591,0-.141-.008-.173.05-.172.18q.008.873,0,1.746c0,.312.075.294-.3.3C1491.624,433.721,1491.569,433.713,1491.493,433.707Z" transform="translate(-1360.487 -426.601)" fill="#1d1d1b"/>
</svg>
