<svg id="judo_grey" data-name="judo grey" xmlns="http://www.w3.org/2000/svg" width="98" height="62.442" viewBox="0 0 98 62.442">
  <g id="Group_10" data-name="Group 10" transform="translate(3.963 0)">
    <path id="Path_160" data-name="Path 160" d="M13.739,19.77A4.27,4.27,0,1,1,9.47,15.5,4.282,4.282,0,0,1,13.739,19.77Z" transform="translate(-5.2 -2.691)" fill="#fff"/>
    <path id="Path_161" data-name="Path 161" d="M13.739,7.77A4.27,4.27,0,1,1,9.47,3.5,4.282,4.282,0,0,1,13.739,7.77Z" transform="translate(-5.2 -3.5)" fill="#fff"/>
    <path id="Path_162" data-name="Path 162" d="M20.439,13.77A4.27,4.27,0,1,1,16.17,9.5,4.282,4.282,0,0,1,20.439,13.77Z" transform="translate(-4.749 -3.096)" fill="#fff"/>
  </g>
  <g id="Group_11" data-name="Group 11" transform="translate(0 12.809)">
    <path id="Path_163" data-name="Path 163" d="M22.511,29.509v14.2c0,2.775.961,5.444,5.444,5.444S33.4,46.48,33.4,43.705v-14.2a3.309,3.309,0,1,1,6.618,0v14.2c0,5.977-2.241,11.421-11.955,11.421C18.242,55.126,16,49.683,16,43.705v-14.2A3.326,3.326,0,0,1,19.309,26.2,3.236,3.236,0,0,1,22.511,29.509Z" transform="translate(-0.509 -14.779)" fill="#fff"/>
    <path id="Path_164" data-name="Path 164" d="M60.4,28.949V18.809a3.309,3.309,0,0,1,6.618,0V43.572c0,8.112-5.23,12.168-12.6,12.168-8.219,0-13.022-4.7-13.022-14.623s4.7-14.623,12.382-14.623A10.545,10.545,0,0,1,60.4,28.949Zm0,6.3a8.285,8.285,0,0,0-5.977-3.1c-4.163,0-6.511,2.989-6.511,9.073,0,5.977,2.348,8.966,6.511,8.966,3.522,0,5.977-2.348,5.977-6.511Z" transform="translate(1.203 -15.5)" fill="#fff"/>
    <path id="Path_165" data-name="Path 165" d="M81.642,55.046c-8.219,0-13.342-4.7-13.342-14.623S73.423,25.8,81.642,25.8s13.342,4.7,13.342,14.623C94.985,50.457,89.861,55.046,81.642,55.046Zm0-23.589c-4.376,0-6.725,2.989-6.725,9.073,0,5.977,2.348,8.966,6.725,8.966s6.725-2.989,6.725-8.966C88.367,34.446,86.019,31.457,81.642,31.457Z" transform="translate(3.015 -14.806)" fill="#fff"/>
    <path id="Path_166" data-name="Path 166" d="M4.7,64.413a3.113,3.113,0,0,1-2.989-2.028,3.265,3.265,0,0,1,1.815-4.27c2.882-1.174,2.989-2.562,2.989-10.887V29.509a3.309,3.309,0,1,1,6.618,0V47.228c0,7.9,0,14.09-7.045,16.971A7.344,7.344,0,0,1,4.7,64.413Z" transform="translate(-1.487 -14.779)" fill="#fff"/>
  </g>
</svg>
