<svg xmlns="http://www.w3.org/2000/svg" width="128" height="62.555" viewBox="0 0 128 62.555">
  <g id="Group_402" data-name="Group 402" transform="translate(-747.286 -80.119)">
    <g id="Group_344" data-name="Group 344" transform="translate(747.286 117.447)">
      <path id="Path_300" data-name="Path 300" d="M1205.868,118.855l3.045-.266a6.721,6.721,0,0,0,1.007,3,5.488,5.488,0,0,0,2.454,1.9,9.292,9.292,0,0,0,3.744.724,8.967,8.967,0,0,0,3.262-.549,4.521,4.521,0,0,0,2.1-1.506,3.5,3.5,0,0,0,.691-2.088,3.175,3.175,0,0,0-.666-2,4.932,4.932,0,0,0-2.2-1.439,43.069,43.069,0,0,0-4.343-1.19,22.2,22.2,0,0,1-4.709-1.523,6.593,6.593,0,0,1-2.6-2.271,5.563,5.563,0,0,1-.857-3.037,6.2,6.2,0,0,1,1.048-3.453,6.492,6.492,0,0,1,3.062-2.438,11.618,11.618,0,0,1,4.477-.832,12.236,12.236,0,0,1,4.784.873,6.9,6.9,0,0,1,3.187,2.571,7.387,7.387,0,0,1,1.2,3.844l-3.095.233a5,5,0,0,0-1.689-3.494,6.576,6.576,0,0,0-4.252-1.181,6.822,6.822,0,0,0-4.268,1.073,3.218,3.218,0,0,0-1.34,2.588,2.772,2.772,0,0,0,.949,2.163q.932.849,4.867,1.739a32.229,32.229,0,0,1,5.4,1.556,7.4,7.4,0,0,1,3.145,2.488,6.066,6.066,0,0,1,1.015,3.469,6.634,6.634,0,0,1-1.115,3.669,7.339,7.339,0,0,1-3.2,2.679,11.162,11.162,0,0,1-4.7.957,14.037,14.037,0,0,1-5.55-.965,7.774,7.774,0,0,1-3.511-2.9A8.229,8.229,0,0,1,1205.868,118.855Z" transform="translate(-1205.868 -101.882)" fill="#fff"/>
      <path id="Path_301" data-name="Path 301" d="M1280.057,134.39q0-4.909,2.729-7.272a8.223,8.223,0,0,1,5.558-1.964,7.93,7.93,0,0,1,5.957,2.388,9.086,9.086,0,0,1,2.313,6.6,11.688,11.688,0,0,1-1.023,5.366,7.238,7.238,0,0,1-2.978,3.037,8.673,8.673,0,0,1-4.268,1.082,7.943,7.943,0,0,1-6-2.379Q1280.057,138.867,1280.057,134.39Zm3.078,0a7.525,7.525,0,0,0,1.481,5.083,4.931,4.931,0,0,0,7.438-.008,7.7,7.7,0,0,0,1.481-5.175,7.3,7.3,0,0,0-1.489-4.967,4.938,4.938,0,0,0-7.43-.008A7.493,7.493,0,0,0,1283.135,134.39Z" transform="translate(-1258.574 -118.416)" fill="#fff"/>
      <path id="Path_302" data-name="Path 302" d="M1346.318,127.713V103.318h3v24.395Z" transform="translate(-1305.648 -102.902)" fill="#fff"/>
      <path id="Path_303" data-name="Path 303" d="M1369.045,106.763v-3.445h3v3.445Zm0,20.95V110.041h3v17.672Z" transform="translate(-1321.794 -102.902)" fill="#fff"/>
      <path id="Path_304" data-name="Path 304" d="M1401.337,136.753l2.945.383a7.641,7.641,0,0,1-2.471,4.767,7.2,7.2,0,0,1-4.884,1.722,7.586,7.586,0,0,1-5.832-2.371q-2.206-2.371-2.205-6.8a12.3,12.3,0,0,1,.949-5.009,6.614,6.614,0,0,1,2.887-3.22,8.567,8.567,0,0,1,4.219-1.073,7.334,7.334,0,0,1,4.709,1.456,6.678,6.678,0,0,1,2.346,4.135l-2.912.449a4.842,4.842,0,0,0-1.473-2.679,3.811,3.811,0,0,0-2.554-.9,4.648,4.648,0,0,0-3.677,1.623q-1.414,1.622-1.415,5.133,0,3.561,1.365,5.175a4.439,4.439,0,0,0,3.561,1.614,4.2,4.2,0,0,0,2.945-1.082A5.368,5.368,0,0,0,1401.337,136.753Z" transform="translate(-1335.893 -118.416)" fill="#fff"/>
      <path id="Path_305" data-name="Path 305" d="M1449.07,106.763v-3.445h3v3.445Zm0,20.95V110.041h3v17.672Z" transform="translate(-1378.647 -102.902)" fill="#fff"/>
      <path id="Path_306" data-name="Path 306" d="M1474.2,126.381l.432,2.646a11.1,11.1,0,0,1-2.262.266,5.127,5.127,0,0,1-2.529-.516,2.888,2.888,0,0,1-1.265-1.356,10.713,10.713,0,0,1-.366-3.536V113.718h-2.2v-2.33h2.2v-4.377l2.979-1.8v6.174h3.012v2.33h-3.012v10.334a5.216,5.216,0,0,0,.158,1.647,1.247,1.247,0,0,0,.516.583,1.992,1.992,0,0,0,1.023.216A9.749,9.749,0,0,0,1474.2,126.381Z" transform="translate(-1390.682 -104.25)" fill="#fff"/>
      <path id="Path_307" data-name="Path 307" d="M1496.547,134.39q0-4.909,2.729-7.272a8.224,8.224,0,0,1,5.558-1.964,7.93,7.93,0,0,1,5.957,2.388,9.086,9.086,0,0,1,2.313,6.6,11.7,11.7,0,0,1-1.023,5.366,7.245,7.245,0,0,1-2.979,3.037,8.673,8.673,0,0,1-4.268,1.082,7.943,7.943,0,0,1-6-2.379Q1496.547,138.867,1496.547,134.39Zm3.078,0a7.527,7.527,0,0,0,1.481,5.083,4.93,4.93,0,0,0,7.438-.008,7.7,7.7,0,0,0,1.481-5.175,7.3,7.3,0,0,0-1.489-4.967,4.939,4.939,0,0,0-7.43-.008A7.494,7.494,0,0,0,1499.625,134.39Z" transform="translate(-1412.376 -118.416)" fill="#fff"/>
      <path id="Path_308" data-name="Path 308" d="M1562.922,143.226V125.555h2.7v2.679a7.308,7.308,0,0,1,1.9-2.479,3.326,3.326,0,0,1,1.922-.6,5.852,5.852,0,0,1,3.079.965l-1.032,2.779a4.286,4.286,0,0,0-2.2-.649,2.851,2.851,0,0,0-1.764.591,3.2,3.2,0,0,0-1.115,1.639,11.675,11.675,0,0,0-.5,3.494v9.252Z" transform="translate(-1459.531 -118.416)" fill="#fff"/>
      <path id="Path_309" data-name="Path 309" d="M1596.279,137.952l2.962-.466a4.137,4.137,0,0,0,1.389,2.729,4.841,4.841,0,0,0,3.187.949,4.68,4.68,0,0,0,3.062-.84,2.512,2.512,0,0,0,1-1.972,1.82,1.82,0,0,0-.882-1.6,13.014,13.014,0,0,0-3.062-1.015,27.906,27.906,0,0,1-4.568-1.439,4.36,4.36,0,0,1-2.588-4.052,4.549,4.549,0,0,1,.541-2.188,4.843,4.843,0,0,1,1.473-1.673,6.184,6.184,0,0,1,1.905-.874,9.058,9.058,0,0,1,2.588-.358,10.226,10.226,0,0,1,3.653.6,4.968,4.968,0,0,1,2.321,1.622,6.346,6.346,0,0,1,1.032,2.737l-2.928.4a3.2,3.2,0,0,0-1.157-2.13,4.231,4.231,0,0,0-2.7-.766,4.894,4.894,0,0,0-2.945.682,1.986,1.986,0,0,0-.882,1.6,1.653,1.653,0,0,0,.366,1.048,2.633,2.633,0,0,0,1.148.8q.45.167,2.646.766a36.864,36.864,0,0,1,4.434,1.389,4.5,4.5,0,0,1,1.972,1.572,4.391,4.391,0,0,1,.716,2.563,5.031,5.031,0,0,1-.873,2.821,5.653,5.653,0,0,1-2.521,2.047,9.178,9.178,0,0,1-3.727.724,8.3,8.3,0,0,1-5.25-1.431A6.652,6.652,0,0,1,1596.279,137.952Z" transform="translate(-1483.229 -118.416)" fill="#fff"/>
    </g>
    <g id="Group_345" data-name="Group 345" transform="translate(748.3 80.119)">
      <path id="Path_310" data-name="Path 310" d="M753.651,110.676c.307-1.211.709-2.4,1.1-3.586,1.325-3.975,2.667-7.945,4-11.918.248-.741.475-1.49.711-2.235a.809.809,0,0,1,.416.55c1.114,5.689,2.242,11.374,3.315,17.071a1.4,1.4,0,0,0,.627,1.09h5.088a1.524,1.524,0,0,0,.745-1.018q2.451-8.15,4.926-16.293c.472-1.55.993-3.084,1.491-4.626l.287-.036c.4.9.823,1.8,1.19,2.717q3.6,8.971,7.164,17.955a2.109,2.109,0,0,0,1.094,1.3h10.132l.318-.036c-.541-1.085-.934-1.954-1.4-2.785-2.616-4.71-5.26-9.4-7.871-14.118q-3.849-6.948-7.644-13.926a.975.975,0,0,0-1.392-.557c-1.175.42-2.424.651-3.561,1.148a2.858,2.858,0,0,0-1.41,1.4c-1.439,3.669-2.763,7.383-4.15,11.073-.569,1.514-1.2,3-1.807,4.5l-.386.022-4.968-13.13c-1.749.3-3.148.607-3.851,2.458-2.442,6.427-5.025,12.8-7.562,19.191-.6,1.513-1.232,3.015-1.948,4.758h4.662A1.342,1.342,0,0,0,753.651,110.676Z" transform="translate(-748.311 -80.119)" fill="#fff"/>
      <path id="Path_311" data-name="Path 311" d="M991.954,129.882a5.231,5.231,0,0,1,5.5-5.4c2.779.136,4.38,1.98,4.381,5.315,0,3.784,0,7.568,0,11.431h3.429c-.131-1.619-.322-3.088-.353-4.56-.056-2.65-.012-5.3-.017-7.954-.01-5.429-5.014-8.555-9.837-6.11a34.057,34.057,0,0,0-3.031,1.96c.057-.557.1-1.01.161-1.57H988.8v18.236h3.142C991.938,137.331,991.892,133.605,991.954,129.882Z" transform="translate(-919.16 -109.705)" fill="#fff"/>
      <path id="Path_312" data-name="Path 312" d="M1131.578,110c.136-6.017.192-12.035.311-18.052.033-1.68.183-3.358.266-5.037.032-.638-.116-1.179-.91-1.186-1.1-.01-2.193,0-3.277,0v29.9h3.205C1131.318,113.7,1131.536,111.854,1131.578,110Z" transform="translate(-1018.033 -84.099)" fill="#fff"/>
      <path id="Path_313" data-name="Path 313" d="M938.24,141.035c.022-.117.044-.235.066-.352l-1.4-.885c0-3.835.026-7.645-.008-11.454-.03-3.307-2.853-6.555-5.805-6.763a10.507,10.507,0,0,0-7.066,1.994c-1.124.8-1.211,1.777-1.229,3.222.489-.361.777-.558,1.048-.777a10.106,10.106,0,0,1,1.786-1.445c3.615-1.726,7.461-1.823,8.047,3.373a84.767,84.767,0,0,1-.007,11.546c-.017.687-.139,1.4.571,1.557.053.012.107.021.161.032h3.611C938.09,141.066,938.166,141.053,938.24,141.035Z" transform="translate(-872.274 -109.553)" fill="#fff"/>
      <path id="Path_314" data-name="Path 314" d="M1155.642,141.557l-9.092-10.289c2.4-2.225,4.689-4.326,6.957-6.446.611-.571,1.171-1.2,1.883-1.93a4.708,4.708,0,0,0-5.35,1.478c-2.094,2.3-4.411,4.394-6.658,6.55-.565.542-.627.952-.082,1.572,2.373,2.7,4.686,5.455,7.055,8.16a4.027,4.027,0,0,0,1.789,1.19h2.727A5.933,5.933,0,0,0,1155.642,141.557Z" transform="translate(-1028.656 -110.313)" fill="#fff"/>
      <path id="Path_315" data-name="Path 315" d="M925.779,161.377a9.593,9.593,0,0,1-3.646-4.683,3.659,3.659,0,0,1,.767-3.872,3.4,3.4,0,0,1,3.753-.667c.835.28,1.628.685,2.44,1.033l.268-.224a5.065,5.065,0,0,0-.762-1.157,5.878,5.878,0,0,0-4.018-1.319c-2.459,0-4.558.785-5.837,3.01a5.91,5.91,0,0,0,.156,6.181c.452.787,1.188,1.8,1.943,1.945.036.007.072.01.108.016H925.7Z" transform="translate(-868.823 -130.11)" fill="#fff"/>
    </g>
    <path id="Path_316" data-name="Path 316" d="M1075.24,141.035l.067-.352-1.4-.885c0-3.835.026-7.645-.008-11.454-.03-3.307-2.853-6.555-5.805-6.763a10.507,10.507,0,0,0-7.066,1.994c-1.124.8-1.21,1.777-1.229,3.222.489-.361.777-.558,1.048-.777a10.113,10.113,0,0,1,1.785-1.445c3.615-1.726,7.462-1.823,8.047,3.373a84.826,84.826,0,0,1-.007,11.546c-.017.687-.139,1.4.571,1.557.054.012.107.021.161.032h3.611C1075.09,141.066,1075.166,141.053,1075.24,141.035Z" transform="translate(-221.303 -29.435)" fill="#fff"/>
    <path id="Path_317" data-name="Path 317" d="M1062.779,161.377a9.594,9.594,0,0,1-3.646-4.683,3.659,3.659,0,0,1,.767-3.872,3.4,3.4,0,0,1,3.752-.667c.835.28,1.628.685,2.44,1.033l.268-.224a5.074,5.074,0,0,0-.763-1.157,5.878,5.878,0,0,0-4.018-1.319c-2.459,0-4.557.785-5.837,3.01a5.911,5.911,0,0,0,.156,6.181c.452.787,1.189,1.8,1.943,1.945.036.007.072.01.108.016h4.746Z" transform="translate(-217.853 -49.991)" fill="#fff"/>
  </g>
</svg>
