<svg xmlns="http://www.w3.org/2000/svg" width="261.99" height="49.194" viewBox="0 0 261.99 49.194">
  <g id="Group_701" data-name="Group 701" transform="translate(-261.7 -405.4)">
    <g id="Group_700" data-name="Group 700" transform="translate(261.7 405.4)">
      <g id="Group_699" data-name="Group 699" transform="translate(38.992 1.703)">
        <path id="Path_925" data-name="Path 925" d="M484.856,493.239c.568,3.938,3.883,6.575,8.15,6.575a7.166,7.166,0,0,0,5.971-2.8,1.247,1.247,0,0,1,.934-.458h8.15a1.212,1.212,0,0,1,1.081,1.758c-3.48,6.5-9.377,10.274-16.117,10.274A18.414,18.414,0,0,1,474.6,490.163c0-10.018,8.022-18.663,18.223-18.663,10.4,0,18.351,8.2,18.351,18.974a12.587,12.587,0,0,1-.091,1.7,1.19,1.19,0,0,1-1.19,1.044H484.856Zm15.915-7.014a8.21,8.21,0,0,0-15.787,0Z" transform="translate(-474.6 -461.097)" fill="#1d1d1b"/>
        <path id="Path_926" data-name="Path 926" d="M717.343,461.054a1.219,1.219,0,0,1-1.209-1.209V457.3h-.128c-1.923,3.15-5.366,4.835-10.219,4.89a17.356,17.356,0,0,1-17.124-13.846c-2.509-12.582,5.091-23.241,16.739-23.241a13.525,13.525,0,0,1,10.22,4.139V415.909a1.22,1.22,0,0,1,1.209-1.209h7.985a1.22,1.22,0,0,1,1.209,1.209v43.936a1.22,1.22,0,0,1-1.209,1.209Zm-1.154-17.527a8.8,8.8,0,0,0-17.6,0c0,5.256,3.7,8.956,8.7,8.956A8.72,8.72,0,0,0,716.189,443.527Z" transform="translate(-649.066 -414.7)" fill="#1d1d1b"/>
        <path id="Path_927" data-name="Path 927" d="M943.843,461.054a1.219,1.219,0,0,1-1.209-1.209V457.3h-.128c-1.923,3.15-5.366,4.835-10.219,4.89a17.356,17.356,0,0,1-17.124-13.846c-2.509-12.582,5.091-23.241,16.74-23.241a13.525,13.525,0,0,1,10.219,4.139V415.909a1.22,1.22,0,0,1,1.209-1.209h7.985a1.22,1.22,0,0,1,1.209,1.209v43.936a1.219,1.219,0,0,1-1.209,1.209Zm-1.154-17.527a8.8,8.8,0,0,0-17.6,0c0,5.256,3.7,8.956,8.7,8.956A8.72,8.72,0,0,0,942.689,443.527Z" transform="translate(-834.084 -414.7)" fill="#1d1d1b"/>
        <path id="Path_928" data-name="Path 928" d="M1150.6,511.552V479.209a1.22,1.22,0,0,1,1.209-1.209h7.985a1.219,1.219,0,0,1,1.209,1.209v32.343a1.219,1.219,0,0,1-1.209,1.209h-7.985A1.2,1.2,0,0,1,1150.6,511.552Z" transform="translate(-1026.794 -466.407)" fill="#1d1d1b"/>
        <path id="Path_929" data-name="Path 929" d="M1257.962,486.015a1.229,1.229,0,0,1-1.081-.659,7.968,7.968,0,0,0-7.436-4.231c-4.762,0-8.022,3.938-8.022,8.828,0,5.073,3.443,8.828,8.26,8.828a7.868,7.868,0,0,0,7.179-4.011,1.263,1.263,0,0,1,1.062-.623h8.278a1.215,1.215,0,0,1,1.154,1.593,18.642,18.642,0,1,1-18.168-24.34c8.589,0,15.7,5.091,18.131,13.04a1.211,1.211,0,0,1-1.172,1.557h-8.187Z" transform="translate(-1092.435 -461.016)" fill="#1d1d1b"/>
        <path id="Path_930" data-name="Path 930" d="M1463.836,508.859c-10.586,0-18.736-7.839-18.736-18.479,0-10.769,8.333-18.479,18.736-18.479,10.457,0,18.736,7.839,18.736,18.351C1482.553,501.148,1474.293,508.859,1463.836,508.859Zm8.333-18.479a8.565,8.565,0,0,0-8.388-8.773c-4.578,0-8.26,4.011-8.26,8.773a8.335,8.335,0,1,0,16.648,0Z" transform="translate(-1267.358 -461.424)" fill="#1d1d1b"/>
      </g>
      <path id="Path_931" data-name="Path 931" d="M288.183,445.267c7.143-1.245,11.52-7.271,11.52-14.6,0-6.575-3.516-12.033-8.516-14.285-2.436-1.062-6.135-1.685-10.97-1.685H262.927a1.227,1.227,0,0,0-1.227,1.227v43.918a1.227,1.227,0,0,0,1.227,1.227h8.9a1.227,1.227,0,0,0,1.227-1.227V425.1h7.857c4.45,0,7.454,2.253,7.454,6.264,0,4.45-2.875,6.648-7.582,6.648h-3.04a1.227,1.227,0,0,0-1.227,1.227v6.465a1.263,1.263,0,0,0,.22.714l10.128,14.139a1.24,1.24,0,0,0,.989.513h10.366a1.215,1.215,0,0,0,.952-1.978Z" transform="translate(-261.7 -412.997)" fill="#1d1d1b"/>
      <circle id="Ellipse_2864" data-name="Ellipse 2864" cx="5.201" cy="5.201" r="5.201" transform="translate(162.798)" fill="#1d1d1b"/>
    </g>
  </g>
</svg>
