<svg xmlns="http://www.w3.org/2000/svg" width="350.185" height="76.917" viewBox="0 0 350.185 76.917">
  <g id="Group_536" data-name="Group 536" transform="translate(-682 -2728.255)">
    <g id="Group_535" data-name="Group 535" transform="translate(682 2728.255)">
      <path id="Path_335" data-name="Path 335" d="M4423.268,2721a1.44,1.44,0,0,1,.279.5c0,.017,0,.035.01.051.315-.071.635-.135.954-.186a18.612,18.612,0,0,1,3.314-.238c0-.006,0-.012,0-.018a1.4,1.4,0,0,1,.038-.224,11.5,11.5,0,0,1,3.268-8.4,22.365,22.365,0,0,0-7.914-2.555C4425.38,2712.635,4426.018,2717.981,4423.268,2721Z" transform="translate(-4372.564 -2706.603)" fill="#1d1d1b" opacity="0.5"/>
      <path id="Path_336" data-name="Path 336" d="M4312.021,2896.979c6.05,2.435,13.881,2.465,18.946-.009a14.113,14.113,0,0,1-1.547-4.394C4326.656,2895.55,4320.337,2897.379,4312.021,2896.979Z" transform="translate(-4298.317 -2828.55)" fill="#1d1d1b" opacity="0.5"/>
      <path id="Path_337" data-name="Path 337" d="M4556.044,2825.033a.332.332,0,0,1,.008.042,26.742,26.742,0,0,1,.306,2.859,12.135,12.135,0,0,1-.4,3.953,12.508,12.508,0,0,0,9.717-2.59,12.842,12.842,0,0,0,5.516-10.576c-.385-9.406-6.5-13.476-8.424-14.526a9.627,9.627,0,0,1-2.367,2.211C4563.476,2809.057,4569.331,2821.988,4556.044,2825.033Z" transform="translate(-4461.196 -2769.537)" fill="#1d1d1b" opacity="0.5"/>
      <path id="Path_338" data-name="Path 338" d="M4500.87,2850.069c-3.114,1.587-6.926.89-10.05-.267a1.361,1.361,0,0,1,.119.4,14.8,14.8,0,0,1-1.133,8.53,20.3,20.3,0,0,0,11.786-.764c2.43-.9,5.619-2.665,7.022-5.946a9.293,9.293,0,0,0,.694-4.2,23.886,23.886,0,0,0-.271-2.558c-1.214-7.651-5.729-10.435-7.091-11.1a4.155,4.155,0,0,0-.377-.178,1.435,1.435,0,0,1-.413-.235,10.993,10.993,0,0,1-3.208.657C4505.774,2839.2,4507.012,2846.939,4500.87,2850.069Z" transform="translate(-4417.026 -2789.269)" fill="#1d1d1b" opacity="0.5"/>
      <path id="Path_339" data-name="Path 339" d="M4507.469,2774.193a4,4,0,0,0,1.066.452,1.44,1.44,0,0,1-.271,2.842c2.318,3.8,1.952,9.148-3.578,10.074a15.057,15.057,0,0,0,1.913.3,8.13,8.13,0,0,0,4.534-.928c.029-.018.056-.034.087-.051a10.388,10.388,0,0,0,5.627-8.329,11.586,11.586,0,0,0-3.8-9.755,1.417,1.417,0,0,1-.347-.419l-5.784,5.459C4507.092,2773.966,4507.276,2774.084,4507.469,2774.193Z" transform="translate(-4426.961 -2745.624)" fill="#1d1d1b" opacity="0.5"/>
      <path id="Path_340" data-name="Path 340" d="M4390.151,2884.716c-11.012.961-15.687-3.488-17.564-6.491a11.288,11.288,0,0,0,2,5.346c2.791,3.816,8.554,5.812,17.143,5.934,5.551.095,13.3-.322,16.533-4.718,1.444-1.949,1.964-4.647,1.547-8.025a1.438,1.438,0,0,1,.906-1.514,29.168,29.168,0,0,1-4.107-2.255S4404,2883.508,4390.151,2884.716Z" transform="translate(-4338.757 -2815.473)" fill="#1d1d1b" opacity="0.5"/>
      <path id="Path_341" data-name="Path 341" d="M4373.772,2732.047a16.473,16.473,0,0,0-.27-12.269,13.155,13.155,0,0,0-9.52-7.544,21.949,21.949,0,0,0-10.1-10.262,22.622,22.622,0,0,0-22.188,1.833,25.242,25.242,0,0,0-12.271-3.625c-6.153-.16-12.182,2.131-15.681,5.964a8.558,8.558,0,0,0-2.514,5.094c-11.529,2.139-15.725,8.069-17.2,11.451a11.93,11.93,0,0,0-.795,7.743c-3.865.743-7.325,3.651-9.643,8.181-3.31,6.468-4.46,17.164.837,25.358a17.462,17.462,0,0,0,6.111,5.636,28.232,28.232,0,0,0,13.788,3.438,22.536,22.536,0,0,0,10.754-2.383c3.538,3.948,9.794,6.013,18.633,6.139.4.005.8.009,1.216.009,6.062,0,13.016-.72,16.937-5a16.268,16.268,0,0,0,6.014.97,24.879,24.879,0,0,0,8.471-1.49,14.954,14.954,0,0,0,8.085-6.344,12.615,12.615,0,0,0,3.028.358,16.08,16.08,0,0,0,9.52-3.351,15.711,15.711,0,0,0,6.672-13C4383.214,2738.213,4376.237,2733.413,4373.772,2732.047Zm-96.924,30.36c-4.678-7.235-3.638-16.727-.693-22.482,2.1-4.09,5.2-6.553,8.528-6.784,1.894,2.2,4.989,3.387,9.234,3.514h.042a1.441,1.441,0,1,0,.042-2.881c-3.686-.115-6.288-1.157-7.517-3.016-.819-1.251-1.105-3.949.184-6.917,1.263-2.9,4.956-8.018,15.519-9.851a1.427,1.427,0,0,0,.416.068,1.372,1.372,0,0,0,.168-.007h0a1.439,1.439,0,0,0,1.261-1.6,5.787,5.787,0,0,1,1.826-4.362c2.908-3.185,8.2-5.146,13.484-5.026.7.022,1.4.08,2.087.167a22.353,22.353,0,0,1,7.914,2.556,11.51,11.51,0,0,0-3.268,8.394,1.426,1.426,0,0,0-.038.225c0,.006,0,.011,0,.018a1.44,1.44,0,0,0,1.341,1.516c5.567.491,9.863,3.739,12.61,6.14a1.429,1.429,0,0,0,.947.354h0a1.439,1.439,0,0,0,.949-2.524c-2.837-2.481-7.187-5.776-12.937-6.678a9.183,9.183,0,0,1,3.363-6.327,19.649,19.649,0,0,1,20.262-2.363,18.841,18.841,0,0,1,9,9.411,1.438,1.438,0,0,0,1.1.952c3.969.741,6.729,2.779,8.2,6.054,1.7,3.793,1.22,8.542-.232,10.946a6.732,6.732,0,0,1-3.068,2.914,1.439,1.439,0,1,0,1.05,2.681,9.727,9.727,0,0,0,1.356-.739,9.572,9.572,0,0,0,2.366-2.211c1.922,1.049,8.04,5.12,8.426,14.525a12.839,12.839,0,0,1-5.516,10.575,12.5,12.5,0,0,1-9.717,2.59,12.107,12.107,0,0,0,.4-3.952,26.994,26.994,0,0,0-.3-2.859c0-.015-.006-.028-.008-.042-1.226-7.653-5.43-11.24-7.66-12.637a13.183,13.183,0,0,0,5.571-9.656,14.378,14.378,0,0,0-4.854-12.258,1.441,1.441,0,0,0-2.173,1.814,1.423,1.423,0,0,0,.347.419,11.585,11.585,0,0,1,3.8,9.755,10.391,10.391,0,0,1-5.627,8.329c-.03.016-.059.033-.087.05a8.134,8.134,0,0,1-4.534.928,15.239,15.239,0,0,1-5.38-1.537,58.335,58.335,0,0,1-8.327-5.122c-4.108-2.852-7.66-5.319-10.595-4.85a1.441,1.441,0,1,0,.452,2.847c1.793-.285,5.2,2.083,8.5,4.372a61.533,61.533,0,0,0,8.754,5.371,17.841,17.841,0,0,0,6.406,1.8c.285.02.573.03.858.03.207,0,.411-.005.616-.016a11.07,11.07,0,0,0,3.209-.657,1.4,1.4,0,0,0,.41.235,3.646,3.646,0,0,1,.38.178c1.359.669,5.876,3.454,7.09,11.1a23.872,23.872,0,0,1,.271,2.558,9.294,9.294,0,0,1-.7,4.2c-1.4,3.28-4.592,5.045-7.021,5.946a20.306,20.306,0,0,1-11.787.764,14.794,14.794,0,0,0,1.134-8.53,1.383,1.383,0,0,0-.117-.4,1.436,1.436,0,0,0-1.489-.852,1.4,1.4,0,0,0-.349.092,1.441,1.441,0,0,0-.907,1.515c.417,3.378-.1,6.077-1.546,8.025-3.234,4.4-10.983,4.813-16.533,4.718-8.587-.123-14.351-2.119-17.144-5.935a11.3,11.3,0,0,1-2-5.346c-.028-.258-.047-.515-.057-.776-.035-.531-.045-1.068-.028-1.636.016-.478.041-.957.073-1.425.361-5,1.878-11.453,7.063-13.826.046-.021.092-.045.136-.07,2.813-1.249,6.429-1.15,10.74.3,7.79,2.6,6.491,6.72,5.231,10.693-.675,2.146-1.376,4.366.323,5.678a1.442,1.442,0,1,0,1.827-2.231,9.641,9.641,0,0,1,.6-2.577c1.192-3.77,3.41-10.794-7.064-14.3-4.564-1.537-8.551-1.723-11.867-.574-1.577-2.578-2.141-9.681.556-16.292a15.76,15.76,0,0,1,6.679-8.111c.009-.005.017-.013.026-.019l.008,0a11.458,11.458,0,0,1,2.014-.886,1.438,1.438,0,0,0,.9-1.74c-.006-.017-.006-.035-.011-.051a1.414,1.414,0,0,0-.279-.5,1.441,1.441,0,0,0-1.53-.438,14.394,14.394,0,0,0-2.515,1.111c-.031.017-.059.038-.089.058a18.592,18.592,0,0,0-6.821,7.169,8.374,8.374,0,0,0-2.422-1.112,18.57,18.57,0,0,0-2.354-.513l-.049-.008a1.442,1.442,0,0,0-.4,2.856,15.362,15.362,0,0,1,1.977.43c1.592.478,1.955,1,2.021,1.123v.006c-2.468,6.4-2.53,14.245-.3,18.191-.185.117-.368.233-.547.36-1.507-2.652-5.24-4.187-9.911-3.931-9.017.51-13.626,6.322-14.2,11.857v0a1.441,1.441,0,0,0,1.289,1.577,1.287,1.287,0,0,0,.149.008,1.438,1.438,0,0,0,1.43-1.3c.617-5.992,6.218-8.976,11.492-9.273,3.853-.216,6.975,1.094,7.494,3.123-2.542,2.975-4.07,7.374-4.476,13-.036.5-.061,1.018-.08,1.539-.019.665-.008,1.293.033,1.913a14,14,0,0,0,.2,1.867,14.154,14.154,0,0,0,1.546,4.394c-5.064,2.474-12.9,2.443-18.946.009a19.909,19.909,0,0,1-2.514-1.211A14.611,14.611,0,0,1,4276.849,2762.408Z" transform="translate(-4270.78 -2699.893)" fill="#1d1d1b"/>
      <path id="Path_342" data-name="Path 342" d="M4503.862,2782.022a1.442,1.442,0,0,0-1.078-1.731,4.053,4.053,0,0,1-1.068-.452c-.189-.11-.374-.228-.557-.352-.16-.108-.319-.221-.471-.338a25.293,25.293,0,0,1-2.178-1.911,1.441,1.441,0,0,0-1.994,2.081,27.857,27.857,0,0,0,2.438,2.132,12.511,12.511,0,0,0,1.335.89,6.7,6.7,0,0,0,1.847.752,1.431,1.431,0,0,0,.322.037l0,.006c.019,0,.033,0,.05,0A1.442,1.442,0,0,0,4503.862,2782.022Z" transform="translate(-4421.211 -2751.27)" fill="#1d1d1b"/>
    </g>
    <path id="Path_916" data-name="Path 916" d="M13.68-9.234V-39.9H3.99V0H29.868V-9.234ZM56.6-31.35v3.534a10.9,10.9,0,0,0-8.949-4.275c-7.809,0-14.079,6.669-14.079,16.416,0,9.69,6.156,16.416,14.136,16.416a10.868,10.868,0,0,0,8.835-4.1V0h9.69l.057-31.35ZM49.989-8.493c-3.7,0-6.612-2.793-6.612-7.182,0-4.332,2.85-7.182,6.612-7.182s6.612,2.85,6.612,7.182C56.6-11.286,53.751-8.493,49.989-8.493ZM87.837.741c7.638,0,14.82-4.5,15.846-13.167H93.708c-.741,2.964-3.249,4.218-5.871,4.218-4.047,0-6.612-2.964-6.612-7.467,0-4.389,2.394-7.467,6.669-7.467,2.565,0,5.073,1.14,5.814,4.161h9.975c-.969-8.379-7.98-13.11-15.789-13.11A15.981,15.981,0,0,0,71.421-15.675,15.968,15.968,0,0,0,87.837.741Zm40.3-32.091v16.644c0,4.332-1.938,6.213-5.643,6.213-3.819,0-4.845-1.995-4.845-5.415V-31.35h-9.69v19.608C107.958-4.1,112.233.741,119.13.741a10.9,10.9,0,0,0,9.006-4.332V0h9.69V-31.35Zm34.143-.741a11.035,11.035,0,0,0-9.063,4.275V-31.35h-9.69V0h9.69V-16.644c0-4.332,1.938-6.213,5.757-6.213,3.933,0,4.959,2,4.959,5.415V0h9.69V-19.608C173.622-27.246,169.347-32.091,162.279-32.091Zm39.216.741v3.534a10.9,10.9,0,0,0-8.949-4.275c-7.809,0-14.079,6.669-14.079,16.416,0,9.69,6.156,16.416,14.136,16.416a10.868,10.868,0,0,0,8.835-4.1V0h9.69l.057-31.35ZM194.883-8.493c-3.705,0-6.612-2.793-6.612-7.182,0-4.332,2.85-7.182,6.612-7.182s6.612,2.85,6.612,7.182C201.495-11.286,198.645-8.493,194.883-8.493Z" transform="translate(821 2786)" fill="#1d1d1b"/>
  </g>
</svg>
