<svg xmlns="http://www.w3.org/2000/svg" width="103.763" height="17.777" viewBox="0 0 103.763 17.777">
  <path id="Path_914" data-name="Path 914" d="M5.59,0V-5.168L7.266-7.184,12.176,0h4.242L9.82-9.5l6.164-7.406H12.047L5.8-9.316H5.59V-16.91H2.051V0ZM27.417-6.187h2.895L33.464,0h4.008L33.909-6.715a4.97,4.97,0,0,0,3.07-4.8c0-3.34-2.285-5.391-6-5.391h-7.1V0h3.539Zm0-7.957h3.07a2.576,2.576,0,0,1,2.859,2.672,2.5,2.5,0,0,1-2.824,2.648H27.417ZM56.205,0h3.832L54.166-16.91h-4.16L44.135,0h3.551l1.3-4.1h5.941ZM51.87-13.477h.211l2.1,6.727h-4.43ZM71.107,0V-10.816h.211L79.123,0h2.93V-16.91H78.666v10.77h-.211L70.673-16.91H67.72V0Zm34.706-6.867V-9.012h-7.1v2.578h3.668l-.012.316c-.07,2.109-1.676,3.527-4,3.527-2.789,0-4.547-2.238-4.547-5.918,0-3.609,1.676-5.824,4.406-5.824a3.8,3.8,0,0,1,3.914,2.777h3.516c-.492-3.5-3.434-5.789-7.43-5.789-4.922,0-8.027,3.434-8.027,8.871,0,5.52,3.082,8.906,8.109,8.906C102.93.434,105.813-2.379,105.813-6.867Z" transform="translate(-2.051 17.344)" fill="#fff"/>
</svg>
