<svg id="Groupon_Logo" xmlns="http://www.w3.org/2000/svg" width="146.085" height="23.009" viewBox="0 0 146.085 23.009">
  <path id="Path_36" data-name="Path 36" d="M913.981,93.792c4.92,0,8.2-3.2,8.2-8.592V71.4H916.8V84.984c0,2.511-.9,3.756-2.787,3.756-1.821,0-2.6-1.274-2.6-3.756V71.4H906V85.2C906.007,90.714,909,93.792,913.981,93.792Z" transform="translate(-841.244 -70.872)" fill="#fff"/>
  <path id="Path_37" data-name="Path 37" d="M1157.464,72.607c-1.486-1.051-3.247-1.207-5.566-1.207h-7.3V93.45h5.38v-7.1h1.546c2.289,0,4.02-.156,5.418-.991a7.411,7.411,0,0,0,3.493-6.543A7.1,7.1,0,0,0,1157.464,72.607Zm-6.428,8.965h-.989V76.333h1.419c2.386,0,3.53.745,3.53,2.571C1154.989,80.886,1153.7,81.572,1151.036,81.572Z" transform="translate(-1062.061 -70.872)" fill="#fff"/>
  <path id="Path_38" data-name="Path 38" d="M1691.08,81.169l8.2,12.281H1704V71.4h-5.373V83.651L1690.553,71.4H1685.7V93.45h5.38Z" transform="translate(-1562.809 -70.872)" fill="#fff"/>
  <path id="Path_39" data-name="Path 39" d="M602.21,69.256A11.262,11.262,0,0,0,583,77.2a11.535,11.535,0,0,0,3.121,8.189,10.889,10.889,0,0,0,8.2,3.472,11.121,11.121,0,0,0,8.1-3.442,11.448,11.448,0,0,0,3.188-8.122A11.117,11.117,0,0,0,602.21,69.256ZM594.326,83.4a6.022,6.022,0,0,1-5.782-6.14,5.768,5.768,0,1,1,5.782,6.14Z" transform="translate(-542.313 -65.874)" fill="#fff"/>
  <path id="Path_40" data-name="Path 40" d="M1386.41,69.256A11.262,11.262,0,0,0,1367.2,77.2a11.535,11.535,0,0,0,3.121,8.189,10.9,10.9,0,0,0,8.2,3.472,11.121,11.121,0,0,0,8.1-3.442,11.448,11.448,0,0,0,3.188-8.122A11.117,11.117,0,0,0,1386.41,69.256ZM1378.526,83.4a6.022,6.022,0,0,1-5.782-6.14,5.768,5.768,0,1,1,5.782,6.14Z" transform="translate(-1268.053 -65.874)" fill="#fff"/>
  <path id="Path_41" data-name="Path 41" d="M40.313,84.825a10.851,10.851,0,0,0,8.167,3.5,11.39,11.39,0,0,0,9.371-4.933,11.068,11.068,0,0,0,1.888-6.453c0-.462-.03-.961-.059-1.46H47.15v4.4h6.28a5.6,5.6,0,0,1-4.949,2.98,6.035,6.035,0,0,1-5.752-6.207,5.77,5.77,0,0,1,5.752-5.8A6.037,6.037,0,0,1,53,73h6.124a11.234,11.234,0,0,0-10.575-7.6A11.255,11.255,0,0,0,37.2,76.629,11.471,11.471,0,0,0,40.313,84.825Z" transform="translate(-37.199 -65.318)" fill="#fff"/>
  <path id="Path_42" data-name="Path 42" d="M369.557,85.879c3.121-.872,4.979-3.532,4.979-7.1a7.077,7.077,0,0,0-2.973-6.17C370.078,71.556,368.316,71.4,366,71.4h-7.3V93.45h5.38v-7.1l4.206,7.1h6.651Zm-4.422-4.307h-1.048V76.333h1.486c2.378,0,3.522.745,3.522,2.571C369.1,80.886,367.8,81.572,365.136,81.572Z" transform="translate(-334.737 -70.872)" fill="#fff"/>
  <path id="Path_43" data-name="Path 43" d="M1954.95,67.614a1.582,1.582,0,0,0,1.174-.49,1.653,1.653,0,1,0-2.341,0A1.566,1.566,0,0,0,1954.95,67.614Zm-1-2.675a1.427,1.427,0,0,1,2.438,1.011,1.415,1.415,0,0,1-.416,1.018,1.418,1.418,0,0,1-2.021,0,1.4,1.4,0,0,1-.416-1.018A1.368,1.368,0,0,1,1953.946,64.939Z" transform="translate(-1810.522 -64.3)" fill="#fff"/>
  <path id="Path_44" data-name="Path 44" d="M1967.812,75.9a.23.23,0,0,1-.015-.1c0-.045-.007-.1-.007-.134v-.134a.5.5,0,0,0-.1-.282.442.442,0,0,0-.312-.178.562.562,0,0,0,.26-.089.4.4,0,0,0,.178-.357.45.45,0,0,0-.282-.461,1.347,1.347,0,0,0-.5-.067h-.639v1.821h.319v-.713h.253a.791.791,0,0,1,.357.059c.119.067.171.208.171.416v.141l.008.059v.022c0,.007,0,.015.007.015h.3Zm-.483-.959a.824.824,0,0,1-.3.037h-.29v-.661h.275a.836.836,0,0,1,.386.067.275.275,0,0,1,.119.268A.282.282,0,0,1,1967.329,74.94Z" transform="translate(-1822.649 -73.372)" fill="#fff"/>
</svg>
