<svg xmlns="http://www.w3.org/2000/svg" width="190" height="43.877" viewBox="0 0 190 43.877">
  <g id="driving_logo-black" data-name="driving logo-black" transform="translate(0 0.001)">
    <g id="Group_411" data-name="Group 411" transform="translate(0 16.536)">
      <g id="Group_410" data-name="Group 410">
        <g id="Group_409" data-name="Group 409">
          <path id="Path_398" data-name="Path 398" d="M0,67.54v-.3H9.969a19.35,19.35,0,0,1,3.859.36,16.394,16.394,0,0,1,3.165.958,13.474,13.474,0,0,1,2.417,1.31,11.332,11.332,0,0,1,1.723,1.451,12.986,12.986,0,0,1,2.092,2.734,12.781,12.781,0,0,1,1.292,3.173,13.751,13.751,0,0,1,.431,3.446,13.181,13.181,0,0,1-.422,3.376,11.926,11.926,0,0,1-1.213,2.963,12.167,12.167,0,0,1-1.89,2.47,13.646,13.646,0,0,1-2.558,2A12.025,12.025,0,0,1,16,92.681a16.7,16.7,0,0,1-4.378.457H0v-.281H.352a2.016,2.016,0,0,0,1.811-.914,3.476,3.476,0,0,0,.6-1.934V70.458a3.76,3.76,0,0,0-.325-1.653,2.114,2.114,0,0,0-.87-.967,2.483,2.483,0,0,0-1.213-.3H0Zm5.433.932V88.989a4.023,4.023,0,0,0,.484,2.224,2.28,2.28,0,0,0,1.5.923,15.83,15.83,0,0,0,2.989.211,17.482,17.482,0,0,0,4.747-.554,8.462,8.462,0,0,0,3.745-2.47,10.793,10.793,0,0,0,2.145-3.481,13.617,13.617,0,0,0,.809-4.976A16.424,16.424,0,0,0,21.2,76.3a12.115,12.115,0,0,0-1.987-4.017,10.285,10.285,0,0,0-3.842-3.112A12.983,12.983,0,0,0,9.722,68.05,27.547,27.547,0,0,0,5.433,68.472Z" transform="translate(0 -66.485)" fill="#fff"/>
          <path id="Path_399" data-name="Path 399" d="M126.048,67.609H125.7V67.24h8.966a9,9,0,0,1,3.666.668,6.169,6.169,0,0,1,2.338,1.7,6.579,6.579,0,0,1,1.2,2.171,7.457,7.457,0,0,1,.36,2.25,6.437,6.437,0,0,1-.589,2.7,5.812,5.812,0,0,1-1.811,2.224,7.029,7.029,0,0,1-3.05,1.266v.07a10.825,10.825,0,0,1,4.29,4.466l2.338,3.956a12.45,12.45,0,0,0,2.541,3.358,3.817,3.817,0,0,0,1.89.791v.281h-4.712q-.3-.387-.563-.747t-.563-.765q-.176-.264-.519-.8a6.372,6.372,0,0,0-.413-.606L137.968,85.1a12.972,12.972,0,0,0-1.908-2.541,7.318,7.318,0,0,0-1.82-1.4,5.3,5.3,0,0,0-1.521-.527,10.49,10.49,0,0,0-1.591-.105v9.476a2.55,2.55,0,0,0,2.813,2.848v.281H125.7v-.281a3.93,3.93,0,0,0,1.371-.29,2.191,2.191,0,0,0,.993-.879,3.109,3.109,0,0,0,.4-1.679V70.422a2.711,2.711,0,0,0-.756-2.18A2.521,2.521,0,0,0,126.048,67.609Zm5.081,12.236h1.477a9.326,9.326,0,0,0,3.806-.668,4.381,4.381,0,0,0,2.154-1.908,6.324,6.324,0,0,0,.668-3.033,7.541,7.541,0,0,0-.6-2.927,5.431,5.431,0,0,0-2.031-2.409,6.757,6.757,0,0,0-3.859-.976,6.842,6.842,0,0,0-1.617.158Z" transform="translate(-93.368 -66.484)" fill="#fff"/>
          <path id="Path_400" data-name="Path 400" d="M254.123,67.241v.3a3.043,3.043,0,0,0-1.969.65,2.619,2.619,0,0,0-.809,2.162V90.009a2.592,2.592,0,0,0,.862,2.171,3.026,3.026,0,0,0,1.916.677v.281h-8.21v-.281a3,3,0,0,0,1.943-.659,2.655,2.655,0,0,0,.818-2.189V70.353a2.584,2.584,0,0,0-.818-2.215,3.2,3.2,0,0,0-1.943-.6v-.3Z" transform="translate(-182.667 -66.485)" fill="#fff"/>
          <path id="Path_401" data-name="Path 401" d="M336.348,67.24v.3a3.076,3.076,0,0,0-1.635.668,4.613,4.613,0,0,0-1.108,1.415q-.458.87-1.037,2.312a1.047,1.047,0,0,0-.176.422L324.9,93.823h-.246L315.831,70.6a.546.546,0,0,0-.07-.211,4.723,4.723,0,0,0-1.345-2.18,3.1,3.1,0,0,0-2.083-.668v-.3h8.509v.3a5.13,5.13,0,0,0-1.723.422q-.651.316-.65,1.512a6.157,6.157,0,0,0,.281,1.3,1.732,1.732,0,0,1,.061.185c.017.065.032.114.044.149l6.8,18.179h.07l5.837-16.931a8.761,8.761,0,0,0,.615-2.62q0-1.389-.589-1.758a3.782,3.782,0,0,0-1.749-.44v-.3h6.5Z" transform="translate(-232.004 -66.484)" fill="#fff"/>
          <path id="Path_402" data-name="Path 402" d="M448.687,67.241v.3a3.043,3.043,0,0,0-1.969.65,2.619,2.619,0,0,0-.809,2.162V90.009a2.592,2.592,0,0,0,.862,2.171,3.026,3.026,0,0,0,1.916.677v.281h-8.21v-.281a3,3,0,0,0,1.943-.659,2.655,2.655,0,0,0,.818-2.189V70.353a2.584,2.584,0,0,0-.818-2.215,3.2,3.2,0,0,0-1.943-.6v-.3Z" transform="translate(-327.192 -66.485)" fill="#fff"/>
          <path id="Path_403" data-name="Path 403" d="M533.945,67.239v.3a5.636,5.636,0,0,0-1.556.378,1.788,1.788,0,0,0-.888,1,5.737,5.737,0,0,0-.316,2.154V93.786h-.176L511.124,71.6V87.527a20.012,20.012,0,0,0,.158,2.954,3.461,3.461,0,0,0,.457,1.389,2.752,2.752,0,0,0,2.268.985v.281H507.52v-.281a3.279,3.279,0,0,0,1.7-.466,2.4,2.4,0,0,0,.862-1.512,15.881,15.881,0,0,0,.255-3.314V70.667l-.862-.967a7.2,7.2,0,0,0-1.828-1.644,6.178,6.178,0,0,0-1.705-.519v-.3h4.87L530.393,89.18V72.46a19.378,19.378,0,0,0-.149-2.813,2.431,2.431,0,0,0-.791-1.495,3.2,3.2,0,0,0-2.013-.615v-.3h6.5Z" transform="translate(-375.817 -66.482)" fill="#fff"/>
          <path id="Path_404" data-name="Path 404" d="M661.065,70.436h-.281a5.886,5.886,0,0,0-2.989-3.929,10.893,10.893,0,0,0-5.538-1.4,13.346,13.346,0,0,0-3.472.5,10.659,10.659,0,0,0-3.613,1.82,9.8,9.8,0,0,0-2.919,3.824,15,15,0,0,0-1.16,6.3q0,6.048,2.822,9.67t9.063,3.622a14.245,14.245,0,0,0,3.622-.334,2.369,2.369,0,0,0,1.486-.914,3.207,3.207,0,0,0,.325-1.565V83.288a2.683,2.683,0,0,0-.729-2.233,4.6,4.6,0,0,0-2.189-.721v-.3h8.421v.3a4.466,4.466,0,0,0-1.793.5,1.853,1.853,0,0,0-.844.976,4.869,4.869,0,0,0-.211,1.582V90.6a30.688,30.688,0,0,1-7.982,1.037,25.112,25.112,0,0,1-4.2-.352,14.158,14.158,0,0,1-4.325-1.565,11.932,11.932,0,0,1-3.973-3.586A13.419,13.419,0,0,1,638,78.066a13.986,13.986,0,0,1,3.789-9.538,13.138,13.138,0,0,1,4.492-3.094,14.847,14.847,0,0,1,5.89-1.134,17.682,17.682,0,0,1,2.444.167q1.2.167,3.569.677a6.962,6.962,0,0,0,1.336.211,1.329,1.329,0,0,0,1.266-.862h.281Z" transform="translate(-473.912 -64.3)" fill="#fff"/>
        </g>
      </g>
    </g>
    <g id="Group_439" data-name="Group 439" transform="translate(50.633 -0.001)">
      <g id="Group_412" data-name="Group 412" transform="translate(0 7.48)">
        <path id="Path_405" data-name="Path 405" d="M202.025,31.3c-.232-1.139-.907-1.553-1.579-1.553h-.027v3.1c0,2.729.018,2.845.161,3a.828.828,0,0,0,.6.18v.189h-3.276v-.189a.827.827,0,0,0,.6-.18c.143-.153.161-.27.161-3v-3.1h-.027c-.674,0-1.347.414-1.58,1.553h-.189V29.43h5.341V31.3Z" transform="translate(-196.873 -29.34)" fill="#fff"/>
        <path id="Path_406" data-name="Path 406" d="M222.311,36.207v-.189a.589.589,0,0,0,.467-.153c.162-.161.18-.314.18-2.89h-1.876c0,2.577.017,2.729.18,2.89a.588.588,0,0,0,.466.153v.189h-3.043v-.189a.593.593,0,0,0,.467-.153c.161-.161.179-.323.179-3.052s-.017-2.881-.179-3.042a.6.6,0,0,0-.467-.153V29.43h3.043v.189a.591.591,0,0,0-.466.153c-.153.152-.18.3-.18,2.764h1.876c0-2.468-.027-2.612-.18-2.764a.592.592,0,0,0-.467-.153V29.43h3.043v.189a.592.592,0,0,0-.466.153c-.162.161-.18.314-.18,3.042s.017,2.891.18,3.052a.59.59,0,0,0,.466.153v.189h-3.043Z" transform="translate(-213.075 -29.34)" fill="#fff"/>
        <path id="Path_407" data-name="Path 407" d="M250.936,36.207h-4.927v-.189a.592.592,0,0,0,.467-.153c.161-.161.179-.323.179-3.052s-.018-2.881-.179-3.042a.594.594,0,0,0-.467-.153V29.43h4.837l.027,1.867h-.188c-.2-.915-.6-1.508-1.544-1.508h-.736v2.747h.35c.789,0,1.176-.2,1.283-.951h.189V34h-.189c-.107-.745-.493-1.023-1.283-1.023h-.35s.008,1.455.008,1.705c0,.808.144,1.158.943,1.158.852,0,1.283-.566,1.5-1.553h.189Z" transform="translate(-233.372 -29.34)" fill="#fff"/>
        <path id="Path_408" data-name="Path 408" d="M275.605,36.037A12.113,12.113,0,0,1,274.1,35.8a.666.666,0,0,0-.395.144h-.162V34.027h.189a1.68,1.68,0,0,0,1.759,1.652.974.974,0,0,0,1.113-1c0-1.571-3.1-1.427-3.1-3.537a1.961,1.961,0,0,1,2.154-2.065,12.4,12.4,0,0,1,1.365.207.415.415,0,0,0,.34-.117h.154v1.867h-.189c-.188-.726-.637-1.6-1.679-1.6-.681,0-.987.386-.987.808,0,1.391,3.295,1.3,3.295,3.671A2.168,2.168,0,0,1,275.605,36.037Z" transform="translate(-253.796 -29.081)" fill="#fff"/>
        <path id="Path_409" data-name="Path 409" d="M296.754,30.633v2.881c0,1.642-.593,2.782-2.45,2.782-1.759,0-2.5-1.005-2.5-2.109V31.755c0-1.373-.062-1.866-.18-1.983a.593.593,0,0,0-.467-.153V29.43H294.2v.189a.593.593,0,0,0-.467.153c-.125.125-.18.6-.18,2.046v2.648a1.125,1.125,0,0,0,1.23,1.283c.951,0,1.454-.718,1.454-2.19V30.633c0-.718-.072-.925-.709-1.014V29.43h1.93v.189C296.825,29.709,296.754,29.915,296.754,30.633Z" transform="translate(-266.911 -29.34)" fill="#fff"/>
        <path id="Path_410" data-name="Path 410" d="M321.908,30.633v5.574h-.942l-3.492-4.82V35c0,.718.072.925.709,1.014v.189h-1.93v-.189c.637-.09.709-.3.709-1.014v-2.19c0-2.729-.017-2.881-.18-3.042a.593.593,0,0,0-.467-.153V29.43h2.226l2.854,4v-2.8c0-.718-.072-.925-.709-1.014V29.43h1.93v.189C321.98,29.709,321.908,29.915,321.908,30.633Z" transform="translate(-285.55 -29.34)" fill="#fff"/>
        <path id="Path_411" data-name="Path 411" d="M345.559,36.207H342.39v-.189a.591.591,0,0,0,.467-.153c.162-.161.18-.323.18-3.052s-.017-2.881-.18-3.042a.593.593,0,0,0-.467-.153V29.43h3.016c2.11,0,3.268,1.248,3.268,3.393C348.674,34.735,347.991,36.207,345.559,36.207Zm-.377-6.418h-.395v4.972c0,.673.117,1.077.889,1.077.889,0,1.176-1.139,1.176-3.042C346.851,31.126,346.448,29.789,345.181,29.789Z" transform="translate(-304.965 -29.34)" fill="#fff"/>
        <path id="Path_412" data-name="Path 412" d="M368.211,36.209V36.02c.548-.054.826-.18.826-.493a8.038,8.038,0,0,0-.449-1.5h-1.741a9.846,9.846,0,0,0-.4,1.418c0,.359.225.566.628.566v.2H364.9V36.02c.674-.134.8-.252,1.158-1.319l1.75-5.27h1.175l1.939,5.628c.225.647.359.916.834.96v.189h-3.545Zm-.521-4.811-.7,2.19h1.454Z" transform="translate(-321.685 -29.342)" fill="#fff"/>
        <path id="Path_413" data-name="Path 413" d="M392,30.723l-1.167,2.459c0,2.378.027,2.53.18,2.683.081.081.207.144.583.153v.189h-3.276v-.189c.386-.009.5-.072.584-.153.152-.153.179-.3.179-2.683l-1.221-2.352c-.583-1.131-.628-1.158-1.148-1.211V29.43h3.2v.189c-.4.017-.566.117-.566.359,0,.107.045.233.323.789l.907,1.822.763-1.606a3.232,3.232,0,0,0,.377-1c0-.188-.117-.35-.5-.367V29.43h1.848v.189C392.527,29.691,392.445,29.789,392,30.723Z" transform="translate(-337.886 -29.34)" fill="#fff"/>
        <path id="Path_414" data-name="Path 414" d="M421.871,31.3c-.234-1.139-.907-1.553-1.58-1.553h-.026v3.1c0,2.729.017,2.845.161,3a.825.825,0,0,0,.6.18v.189H417.75v-.189a.827.827,0,0,0,.6-.18c.143-.153.162-.27.162-3v-3.1h-.027c-.673,0-1.346.414-1.58,1.553h-.188V29.43h5.341V31.3Z" transform="translate(-360.176 -29.34)" fill="#fff"/>
        <path id="Path_415" data-name="Path 415" d="M438.53,36.207v-.189a.592.592,0,0,0,.467-.153c.162-.161.18-.323.18-3.052s-.018-2.881-.18-3.042a.594.594,0,0,0-.467-.153V29.43h3.043v.189a.59.59,0,0,0-.467.153c-.162.161-.18.314-.18,3.042s.018,2.891.18,3.052a.587.587,0,0,0,.467.153v.189H438.53Z" transform="translate(-376.379 -29.34)" fill="#fff"/>
        <path id="Path_416" data-name="Path 416" d="M456.36,36.207v-.189a.591.591,0,0,0,.467-.153c.161-.161.179-.323.179-3.052V30.992l-1.777,5.223h-.557l-1.831-5.223V35c0,.718.072.925.709,1.014v.189h-1.8v-.189c.566-.081.647-.3.647-1.014v-2.19c0-2.729-.018-2.881-.18-3.042a.594.594,0,0,0-.467-.153V29.43h2.522l1.382,4.12,1.427-4.12H459.4v.189a.593.593,0,0,0-.467.153c-.161.161-.18.314-.18,3.042s.018,2.891.18,3.052a.59.59,0,0,0,.467.153v.189H456.36Z" transform="translate(-386.202 -29.34)" fill="#fff"/>
        <path id="Path_417" data-name="Path 417" d="M487.812,36.207h-4.927v-.189a.589.589,0,0,0,.466-.153c.162-.161.18-.323.18-3.052s-.018-2.881-.18-3.042a.591.591,0,0,0-.466-.153V29.43h4.837l.027,1.867h-.188c-.2-.915-.6-1.508-1.544-1.508h-.736v2.747h.35c.79,0,1.175-.2,1.284-.951h.188V34h-.188c-.109-.745-.494-1.023-1.284-1.023h-.35s.009,1.455.009,1.705c0,.808.143,1.158.943,1.158.852,0,1.283-.566,1.5-1.553h.188Z" transform="translate(-409.326 -29.34)" fill="#fff"/>
        <path id="Path_418" data-name="Path 418" d="M505.954,36.037a12.1,12.1,0,0,1-1.507-.233.669.669,0,0,0-.4.144h-.162L504,34.027h.189a1.568,1.568,0,0,0,1.651,1.652.974.974,0,0,0,1.113-1c0-1.571-3.1-1.427-3.1-3.537a1.962,1.962,0,0,1,2.154-2.065,12.384,12.384,0,0,1,1.365.207.417.417,0,0,0,.341-.117h.153v1.867h-.188c-.189-.726-.637-1.6-1.679-1.6-.682,0-.987.386-.987.808,0,1.391,3.295,1.3,3.295,3.671A2.169,2.169,0,0,1,505.954,36.037Z" transform="translate(-424.902 -29.081)" fill="#fff"/>
      </g>
      <g id="Group_417" data-name="Group 417" transform="translate(28.914 4.361)">
        <path id="Path_419" data-name="Path 419" d="M338.768,18.863c0-.066.028-.312.028-.4s-.007-.312-.007-.364c0-.193.385-.392.854-.392.818,0,1.6.257,1.911.246l-.042.119a17.054,17.054,0,0,0-1.865-.253.913.913,0,0,0-.74.26,3.551,3.551,0,0,1-.027.687,2.75,2.75,0,0,1,.76-.135c.549,0,1.382.219,1.851.219a1.17,1.17,0,0,0,.26-.035l.08.1a1.514,1.514,0,0,1-.35.038c-.472,0-1.278-.211-1.833-.211a1.938,1.938,0,0,0-.712.132,2.454,2.454,0,0,0,.809.083v-.214l.128.008s0,.139,0,.185c0,.129-.185.132-.413.132C339.3,19.071,338.768,19.033,338.768,18.863Z" transform="translate(-331.188 -17.514)" fill="#fff" fill-rule="evenodd"/>
        <path id="Path_420" data-name="Path 420" d="M323.2,18.459c0-.114.052-.427.052-.5s-.007-.23-.007-.279c0-.19.367-.306.684-.306.747,0,2.45.559,3.334.506l.007.125c-.989,0-2.639-.514-3.341-.514-.225,0-.482.028-.582.2a2.3,2.3,0,0,1-.031.649,1.734,1.734,0,0,1,.457-.057c.691,0,2.357.495,3.384.495a4.179,4.179,0,0,0,.419-.019l.6.046a4.661,4.661,0,0,1-.914.106c-1.027,0-2.934-.513-3.493-.513a1.6,1.6,0,0,0-.461.087,1.045,1.045,0,0,0,.589.2,1.149,1.149,0,0,0,.245-.023v-.223l.128.02v.211c0,.127-.2.139-.347.139C323.859,18.806,323.2,18.736,323.2,18.459Z" transform="translate(-319.625 -17.267)" fill="#fff" fill-rule="evenodd"/>
        <path id="Path_421" data-name="Path 421" d="M309.467,18.2a17.447,17.447,0,0,0,3.5.185l.008.117a16.2,16.2,0,0,1-3.022-.114,6.333,6.333,0,0,0,.944.525,7.7,7.7,0,0,1-.975.383,15.14,15.14,0,0,0,3.526.078l.379.022a13.9,13.9,0,0,1-4.525-.067,10.564,10.564,0,0,0,1.29-.422A6.849,6.849,0,0,1,309.467,18.2Z" transform="translate(-309.297 -17.882)" fill="#fff" fill-rule="evenodd"/>
        <path id="Path_422" data-name="Path 422" d="M375.386,18.863c0-.066-.027-.312-.027-.4s.007-.312.007-.364c0-.193-.385-.392-.854-.392-.818,0-1.6.257-1.911.246l.049.114a17.158,17.158,0,0,1,1.858-.248.912.912,0,0,1,.74.26,3.556,3.556,0,0,0,.028.687,2.764,2.764,0,0,0-.761-.135c-.549,0-1.382.219-1.851.219a1.172,1.172,0,0,1-.26-.035l-.08.1a1.521,1.521,0,0,0,.351.038c.471,0,1.277-.211,1.833-.211a1.936,1.936,0,0,1,.711.132,2.449,2.449,0,0,1-.809.083v-.214l-.128.008s0,.139,0,.185c0,.129.185.132.413.132C374.859,19.071,375.386,19.033,375.386,18.863Z" transform="translate(-356.114 -17.514)" fill="#fff" fill-rule="evenodd"/>
        <path id="Path_423" data-name="Path 423" d="M391.47,18.155a20.708,20.708,0,0,1,2.318-.289,1.738,1.738,0,0,1,.457.057,2.985,2.985,0,0,1-.036-.748c-.09-.074-.2-.11-.562-.11a24.381,24.381,0,0,0-2.732.383l-.089-.1a24.191,24.191,0,0,1,2.807-.4c.38,0,.684.058.684.247,0,.05-.008.267-.008.338s.053.384.053.5c0,.278-.659.347-.721.347-.148,0-.347-.012-.347-.14V18.02l.128-.013v.233a1.193,1.193,0,0,0,.245.022.878.878,0,0,0,.589-.2.88.88,0,0,0-.461-.087,23.277,23.277,0,0,0-2.329.3Z" transform="translate(-369.858 -16.956)" fill="#fff" fill-rule="evenodd"/>
        <path id="Path_424" data-name="Path 424" d="M382.039,22.69a5.232,5.232,0,0,1-.558.037,4.173,4.173,0,0,1-.419-.019l-.6.046a4.651,4.651,0,0,0,.914.106,6.519,6.519,0,0,0,.77-.061Z" transform="translate(-362.162 -21.215)" fill="#fff" fill-rule="evenodd"/>
        <path id="Path_425" data-name="Path 425" d="M404.033,17.727a8,8,0,0,1-2.29.2l-.007.117a5.633,5.633,0,0,0,1.816-.13,6.326,6.326,0,0,1-.944.525,7.584,7.584,0,0,0,.976.382,6.71,6.71,0,0,1-2.321.094l-.379.022a7.566,7.566,0,0,0,3.319-.082,10.408,10.408,0,0,1-1.29-.422A6.852,6.852,0,0,0,404.033,17.727Z" transform="translate(-377.328 -17.529)" fill="#fff" fill-rule="evenodd"/>
        <g id="Group_413" data-name="Group 413" transform="translate(4.649 0.368)">
          <path id="Path_426" data-name="Path 426" d="M327.631,18.431a.349.349,0,0,1,.323.342.234.234,0,0,1-.3.238l-.281-.047v-.033c.061.01.081,0,.081-.042v-.4c0-.042-.02-.058-.081-.069v-.033Zm-.045.472c0,.04.02.061.075.071.088.015.145-.053.143-.226s-.056-.259-.143-.273c-.055-.01-.075.006-.075.046Z" transform="translate(-327.373 -18.388)" fill="#fff"/>
          <path id="Path_427" data-name="Path 427" d="M330.249,19.468v-.033c.061.012.081,0,.081-.04V19c0-.042-.019-.059-.081-.071v-.033l.3.059v.033c-.061-.012-.081,0-.081.039v.4c0,.042.02.06.081.071v.033Z" transform="translate(-329.509 -18.762)" fill="#fff"/>
          <path id="Path_428" data-name="Path 428" d="M331.969,19.812v-.034c.061.013.081,0,.081-.039v-.4c0-.042-.019-.059-.081-.071v-.034l.509.1,0,.207-.035-.007a.248.248,0,0,0-.192-.205c-.05-.011-.068,0-.068.04v.162c.079.016.106,0,.129-.071l.033.006V19.7l-.033-.006c-.023-.083-.049-.107-.129-.123v.191c0,.041.017.057.068.067a.166.166,0,0,0,.206-.14l.035.007-.005.218C332.33,19.891,332.107,19.842,331.969,19.812Z" transform="translate(-330.787 -19.017)" fill="#fff"/>
          <path id="Path_429" data-name="Path 429" d="M334.852,19.8v.033c-.064-.01-.084,0-.084.043v.345a.137.137,0,0,0,.118.132c.093.015.14-.027.14-.124v-.3c0-.042-.021-.058-.089-.077v-.033l.21.032v.033c-.056,0-.076.011-.076.052v.3c0,.132-.08.179-.218.158-.091-.014-.213-.07-.213-.2v-.332c0-.042-.02-.058-.08-.067v-.034Z" transform="translate(-332.712 -19.403)" fill="#fff"/>
        </g>
        <g id="Group_414" data-name="Group 414" transform="translate(8.616 0.436)">
          <path id="Path_430" data-name="Path 430" d="M343.314,18.693l0,.207-.036,0a.217.217,0,0,0-.195-.184c-.052,0-.069.007-.069.048v.162c.08.007.108-.009.13-.086l.034,0v.233l-.034,0a.119.119,0,0,0-.13-.108v.191c0,.042.017.056.069.06a.183.183,0,0,0,.208-.156l.037,0-.006.219c-.128-.02-.423-.048-.53-.052v-.033c.063.005.082-.007.082-.049v-.4c0-.042-.02-.057-.082-.062V18.65A4.185,4.185,0,0,1,343.314,18.693Z" transform="translate(-342.797 -18.65)" fill="#fff"/>
          <path id="Path_431" data-name="Path 431" d="M345.844,19l0,.2-.038-.006c-.022-.1-.07-.179-.162-.2v.449c0,.042.02.059.092.072v.033l-.322-.059v-.033c.072.013.092,0,.092-.039V18.98c-.091-.016-.139.042-.161.137l-.038-.007,0-.2C345.456,18.923,345.718,18.978,345.844,19Z" transform="translate(-344.664 -18.84)" fill="#fff"/>
        </g>
        <g id="Group_415" data-name="Group 415" transform="translate(16.746 0.406)">
          <path id="Path_432" data-name="Path 432" d="M374.409,19.695v-.033a.089.089,0,0,0,.081-.093v-.38c0-.043-.027-.045-.076-.038v-.033l.24-.039.117.372h0l.118-.41.242-.04v.034c-.061.01-.08.026-.08.068v.4c0,.041.02.052.08.042v.033l-.287.047V19.59c.054-.009.074-.026.074-.068V19.1h0l-.158.54-.071.011-.151-.489h0v.4c0,.057.037.071.087.064v.033Z" transform="translate(-374.409 -18.88)" fill="#fff"/>
          <path id="Path_433" data-name="Path 433" d="M377.76,18.708a.253.253,0,0,1,.291.256.359.359,0,0,1-.291.341.253.253,0,0,1-.291-.256A.359.359,0,0,1,377.76,18.708Zm0,.558c.1-.013.135-.118.135-.279s-.038-.254-.135-.24-.135.118-.135.279S377.663,19.28,377.76,19.265Z" transform="translate(-376.682 -18.661)" fill="#fff"/>
          <path id="Path_434" data-name="Path 434" d="M380.19,18.54l.284.407h0v-.295c0-.042-.021-.056-.089-.068v-.033a1.819,1.819,0,0,1,.212.029v.034c-.057.006-.077.018-.077.06v.466l-.079-.01-.32-.457h0l0,.35c0,.042.02.056.1.059v.033a1.732,1.732,0,0,0-.229,0v-.033c.062,0,.083-.01.083-.052v-.407c0-.042-.02-.056-.085-.059v-.033A1.685,1.685,0,0,1,380.19,18.54Z" transform="translate(-378.553 -18.534)" fill="#fff"/>
        </g>
        <g id="Group_416" data-name="Group 416" transform="translate(21.731 0.204)">
          <path id="Path_435" data-name="Path 435" d="M394.028,18.666a.231.231,0,0,1,.3.243.326.326,0,0,1-.277.33l-.259.04v-.034c.057-.009.075-.025.075-.067v-.4c0-.042-.018-.052-.075-.044V18.7Zm-.041.485c0,.04.018.056.069.048.08-.013.132-.1.132-.27s-.052-.242-.132-.229c-.051.008-.069.029-.069.069Z" transform="translate(-393.791 -18.426)" fill="#fff"/>
          <path id="Path_436" data-name="Path 436" d="M396.591,18.7c0,.083-.031.142-.112.154s-.109-.028-.114-.126-.008-.128-.09-.128v.177c0,.047.01.065.073.055v.033l-.27.042v-.033c.056-.009.075-.025.075-.067v-.4c0-.042-.019-.053-.075-.044v-.033l.266-.042c.129-.02.2.026.2.124s-.1.153-.184.168h0c.093,0,.114.05.131.105.024.077.028.086.047.083s.023-.037.025-.066Zm-.316-.13c.083-.017.134-.04.134-.136,0-.069-.032-.112-.085-.1a.053.053,0,0,0-.049.058Z" transform="translate(-395.491 -18.148)" fill="#fff"/>
          <path id="Path_437" data-name="Path 437" d="M398.428,17.97a.249.249,0,0,1,.268.264.34.34,0,0,1-.268.333.249.249,0,0,1-.268-.264A.339.339,0,0,1,398.428,17.97Zm0,.558c.089-.012.125-.114.125-.275s-.035-.255-.125-.244-.126.114-.126.275S398.339,18.539,398.428,18.528Z" transform="translate(-397.036 -17.911)" fill="#fff"/>
          <path id="Path_438" data-name="Path 438" d="M400.656,17.78v.033c-.057,0-.075.019-.075.06v.4c0,.042.019.054.075.05v.034c-.062,0-.212.013-.279.018v-.033c.057,0,.075-.019.075-.06v-.4c0-.042-.019-.055-.075-.051V17.8C400.446,17.794,400.595,17.782,400.656,17.78Z" transform="translate(-398.683 -17.772)" fill="#fff"/>
          <path id="Path_439" data-name="Path 439" d="M401.78,18.332V18.3c.068,0,.086-.008.086-.05V17.8c-.085,0-.129.06-.15.157l-.036,0,0-.2a2.255,2.255,0,0,1,.5.03l0,.2-.035,0c-.021-.1-.065-.17-.15-.175v.449c0,.042.018.057.084.06v.034A2.084,2.084,0,0,0,401.78,18.332Z" transform="translate(-399.651 -17.748)" fill="#fff"/>
        </g>
      </g>
      <g id="Group_418" data-name="Group 418" transform="translate(45.338 0.895)">
        <path id="Path_440" data-name="Path 440" d="M374.117,5.657a.329.329,0,0,1,.258-.157c.258,0,.588.257,1.107.257a.6.6,0,0,0,.622-.608.589.589,0,0,0-.627-.642c-.4,0-.48.141-.925.141-.231,0-.365-.11-.389-.405l.081-.079c-.007.246.058.413.313.413.354,0,.562-.172.932-.172a.737.737,0,0,1,.764.743.722.722,0,0,1-.757.718c-.584,0-.849-.262-1.113-.262a.251.251,0,0,0-.219.105Z" transform="translate(-373.87 -3.987)" fill="#fff" fill-rule="evenodd"/>
        <path id="Path_441" data-name="Path 441" d="M373.375,3.855c.04.353.152.474.521.474.279,0,.606-.148.836-.148a.351.351,0,0,1,.385.374.326.326,0,0,1-.352.343c-.328,0-.663-.157-.972-.157a.441.441,0,0,0-.414.248l-.069-.081a.534.534,0,0,1,.481-.261c.388,0,.625.165.981.165.107,0,.19-.052.19-.109,0-.083-.112-.19-.271-.19-.23,0-.665.129-.916.129-.379,0-.617-.2-.617-.506a.614.614,0,0,1,.572-.66c.18,0,.285.087.285.229,0,.091-.051.193-.106.193s.086-.289-.194-.289A.415.415,0,0,0,373.375,3.855Zm-.044.1a.517.517,0,0,0-.031.169c0,.323.17.422.462.422.322,0,.634-.121.932-.121a.379.379,0,0,1,.32.177.261.261,0,0,0-.283-.336c-.2,0-.576.139-.847.139C373.515,4.4,373.349,4.279,373.331,3.953Z" transform="translate(-373.156 -3.477)" fill="#fff"/>
      </g>
      <path id="Path_442" data-name="Path 442" d="M393.572,10.585l.011.141-.118-.015-.013.168.132-.042-.024.182.052-.012.051.012.006-.182.125.042.015-.168-.121.015.034-.141Z" transform="translate(-342.894 -7.862)" fill="#fff"/>
      <path id="Path_443" data-name="Path 443" d="M391.961,10.474l.007.143-.117-.036-.019.165.135-.017-.027.181.049.024.053-.013.01-.183.123.054.018-.167-.12,0,.037-.138Z" transform="translate(-341.692 -7.78)" fill="#fff"/>
      <path id="Path_444" data-name="Path 444" d="M390.416,10.2l0,.142-.115-.034-.03.165.136-.021-.044.177.053,0,.049.02.024-.18.121.061.026-.164-.114,0,.048-.135Z" transform="translate(-340.528 -7.575)" fill="#fff"/>
      <path id="Path_445" data-name="Path 445" d="M390.764,5.06a1.743,1.743,0,0,0,.1-.672,1.789,1.789,0,0,0-1.447-1.641l-.045-.1a1.787,1.787,0,0,1,1.624,1.713,2.113,2.113,0,0,1-.117.717,1.365,1.365,0,0,1-.643,1.6l-.206.016A1.485,1.485,0,0,0,390.764,5.06Z" transform="translate(-339.861 -1.965)" fill="#fff"/>
      <path id="Path_446" data-name="Path 446" d="M388.023,1.5c.23,0,.4.344.4.487a.973.973,0,0,1-.051.178.1.1,0,0,0,.062.082l-.076.034c-.058-.015-.083-.04-.083-.072,0-.095.035-.128.035-.217s-.145-.388-.277-.388a.072.072,0,0,0-.05.022.348.348,0,0,1,.052.11c0,.024-.02.116-.02.138a.392.392,0,0,0,.064.224l-.024.025c-.043-.042-.118-.083-.118-.167,0-.057.033-.185.033-.209s-.068-.1-.068-.117A.133.133,0,0,1,388.023,1.5Z" transform="translate(-338.772 -1.117)" fill="#fff"/>
      <path id="Path_447" data-name="Path 447" d="M388.757,2.87c.041,0,.109.115.109.178a.364.364,0,0,1-.026.149c-.015-.007-.043-.018-.053-.024C388.751,3.071,388.727,2.87,388.757,2.87Z" transform="translate(-339.397 -2.132)" fill="#fff"/>
      <path id="Path_448" data-name="Path 448" d="M384.232,2.889a1.465,1.465,0,0,0-.472.432.689.689,0,0,1-.2.31c-.105.091-.467.343-.489.494a.249.249,0,0,0-.111.154,1.044,1.044,0,0,0,0,.2c.009.067.065.067.1.067s.231-.2.347-.2a.124.124,0,0,1,.086.035l-.022.052a.109.109,0,0,0-.064-.019c-.081,0-.243.178-.313.192,0,.04.01.051.038.051s.05-.032.082-.032c.051,0,.135.031.22.031a.218.218,0,0,0,.223-.177.209.209,0,0,1,.058,0c-.009.149-.11.3-.237.3a1.9,1.9,0,0,1-.208-.029c-.017,0-.119.024-.175.024a.1.1,0,0,1-.1-.13c-.119.007-.172-.105-.172-.27A.486.486,0,0,1,383,4.015a2.288,2.288,0,0,1,.5-.469.713.713,0,0,0,.174-.288,1.453,1.453,0,0,1,.549-.484Z" transform="translate(-335.006 -2.061)" fill="#fff"/>
      <path id="Path_449" data-name="Path 449" d="M386.54,4.9c.034-.052.1-.12.159-.12a.471.471,0,0,1,.3.181.113.113,0,0,1-.038.035.5.5,0,0,0-.254-.148.278.278,0,0,0-.143.08A.039.039,0,0,1,386.54,4.9Z" transform="translate(-337.76 -3.55)" fill="#fff"/>
      <path id="Path_450" data-name="Path 450" d="M386.764,5.055a.152.152,0,0,0,.14.125.187.187,0,0,0,.15-.08l-.04-.032a.107.107,0,0,1-.163-.051Z" transform="translate(-337.926 -3.726)" fill="#fff"/>
      <path id="Path_451" data-name="Path 451" d="M383.459,8.492c0-.019.055-.038.077-.038a.074.074,0,0,1,.071.068c0,.081-.076.092-.073.174a.076.076,0,0,1-.034.021c-.005,0-.015-.047-.015-.06,0-.039.022-.066.022-.108S383.459,8.519,383.459,8.492Z" transform="translate(-335.471 -6.279)" fill="#fff"/>
      <path id="Path_452" data-name="Path 452" d="M386.988,5.809a.738.738,0,0,0,.4.181c.358,0,.6-.149.6-.542a.707.707,0,0,0-.152-.372.149.149,0,0,0-.033.021.848.848,0,0,1,.065.344.481.481,0,0,1-.461.463.658.658,0,0,1-.394-.13A.073.073,0,0,0,386.988,5.809Z" transform="translate(-338.093 -3.771)" fill="#fff"/>
      <path id="Path_453" data-name="Path 453" d="M386.091,8.793c.187.014.487-.1.512-.29l.1.008a.474.474,0,0,1-.637.346Z" transform="translate(-337.407 -6.316)" fill="#fff"/>
      <path id="Path_454" data-name="Path 454" d="M376.666,11.477c-.938-.077-1.4-.283-1.893-.283a.846.846,0,0,0-.662.295l-.094-.1a.863.863,0,0,1,.738-.344c.589,0,.807.218,2,.324Z" transform="translate(-328.458 -8.206)" fill="#fff"/>
      <path id="Path_455" data-name="Path 455" d="M385.56,9.187c.046.008.2.019.216.019.322,0,.6-.069.725-.33.012-.01.011-.022.022-.034.2-.2.187-.654.038-.731l.064-.057c.239.1.265.595-.022.852-.011.01-.008.022-.02.031a.813.813,0,0,1-.817.374,1.47,1.47,0,0,1-.273-.033Z" transform="translate(-336.982 -5.982)" fill="#fff"/>
      <path id="Path_456" data-name="Path 456" d="M382.893.767,382.636,1a.5.5,0,0,1-.189-.118A.433.433,0,0,1,382.2.756a.536.536,0,0,1-.242-.121A.584.584,0,0,1,381.7.493a.7.7,0,0,1-.258-.153c-.287-.091-.392-.216-.392-.287,0-.035.045-.054.082-.054a.4.4,0,0,1,.162.041c.054.023.052.187.069.2a.22.22,0,0,0,.076.024A.744.744,0,0,1,381.4.093a.032.032,0,0,1,.017-.007.334.334,0,0,1,.169.081c.027.042.012.179.049.232a.368.368,0,0,0,.062.029,1.54,1.54,0,0,1-.035-.217.048.048,0,0,1,.02-.011.343.343,0,0,1,.155.073c.033.074.013.2.049.27a.139.139,0,0,0,.067.025c-.034-.033-.026-.206-.042-.25a.063.063,0,0,1,.021-.01.316.316,0,0,1,.148.058c.042.078.025.241.055.3a.183.183,0,0,0,.059.009,1.362,1.362,0,0,0-.032-.254.026.026,0,0,1,.02-.014.3.3,0,0,1,.161.073,1.791,1.791,0,0,0,.028.311.171.171,0,0,0,.067.009c-.019-.082-.016-.252-.024-.281A.069.069,0,0,1,382.436.5a.49.49,0,0,1,.144.061,3.484,3.484,0,0,0,.022.348A.186.186,0,0,0,382.67.9c-.016-.071,0-.218-.006-.293A.131.131,0,0,1,382.689.6a1.507,1.507,0,0,1,.22.093Z" transform="translate(-333.679 0.001)" fill="#fff"/>
      <path id="Path_457" data-name="Path 457" d="M384.272,6.762a1.469,1.469,0,0,1,.408-.4c.018,0,.022.005.018.018a3.411,3.411,0,0,0-.347.39A.156.156,0,0,1,384.272,6.762Z" transform="translate(-336.075 -4.727)" fill="#fff"/>
      <path id="Path_458" data-name="Path 458" d="M390.964,17.151a1.283,1.283,0,0,0,.227-.5.015.015,0,0,0-.022-.013,3.717,3.717,0,0,1-.306.438C390.865,17.093,390.95,17.138,390.964,17.151Z" transform="translate(-340.972 -12.356)" fill="#fff"/>
      <path id="Path_459" data-name="Path 459" d="M386.16,8.244a.283.283,0,0,0,.274-.15l.084.048a.333.333,0,0,1-.365.135A.045.045,0,0,1,386.16,8.244Z" transform="translate(-337.472 -6.012)" fill="#fff"/>
      <path id="Path_460" data-name="Path 460" d="M391.91,4.635a1.371,1.371,0,0,1,.53,1.11.01.01,0,0,1-.019,0,1.666,1.666,0,0,0-.625-1.062A.215.215,0,0,1,391.91,4.635Z" transform="translate(-341.663 -3.443)" fill="#fff"/>
      <path id="Path_461" data-name="Path 461" d="M385.07,16.806c-.042-.023-.024-.09,0-.117a1.418,1.418,0,0,1,.161-.144c.037-.011.053.026.055.051a.684.684,0,0,1-.087.126c.492.264,1.175.639,1.175,1.021,0,.437-.342.5-.571.5-.052,0-.452-.01-.508-.01s-.442.048-.506.048a.933.933,0,0,1-.95-1.049l.13.078c-.1.236.357.857.829.857.061,0,.4-.08.486-.08s.452.04.536.04a.357.357,0,0,0,.384-.361C386.207,17.407,385.45,17.018,385.07,16.806Z" transform="translate(-335.754 -12.289)" fill="#fff"/>
      <path id="Path_462" data-name="Path 462" d="M383.49,16.173a.534.534,0,0,0-.258.41.466.466,0,0,0,.381.481c.061.007.949.435,1.006.452a2.319,2.319,0,0,0,.291.061.055.055,0,0,0,.024-.083c-.037-.005-.266-.084-.3-.1-.189-.066-.734-.381-.99-.45a.345.345,0,0,1-.25-.355.581.581,0,0,1,.179-.375C383.564,16.183,383.535,16.149,383.49,16.173Z" transform="translate(-335.303 -12.007)" fill="#fff"/>
      <path id="Path_463" data-name="Path 463" d="M385.73,20.522a1.119,1.119,0,0,0-.528.323l.074.057a1.008,1.008,0,0,1,.6-.284Z" transform="translate(-336.766 -15.244)" fill="#fff"/>
      <path id="Path_464" data-name="Path 464" d="M378.057,14.521a.654.654,0,0,1,.573.866l-.15,0a.661.661,0,0,0-.5-.823A.151.151,0,0,1,378.057,14.521Z" transform="translate(-331.403 -10.786)" fill="#fff"/>
      <path id="Path_465" data-name="Path 465" d="M393.226,16.22a2.481,2.481,0,0,1,1.08-.277.226.226,0,0,1,.226.343l-.115.021a.213.213,0,0,0-.243-.233,2.735,2.735,0,0,0-1.083.3Z" transform="translate(-342.625 -11.842)" fill="#fff"/>
      <path id="Path_466" data-name="Path 466" d="M389.6,11.167a1.65,1.65,0,0,0,1.354.21l0,.1a1.368,1.368,0,0,1-1.412-.236Z" transform="translate(-339.991 -8.295)" fill="#fff"/>
      <path id="Path_467" data-name="Path 467" d="M382.1,14.5l-.06.01-.2-.13-.017-.058.237-.374.059-.01.205.13.017.057Zm0-.465-.184.29.139.088.183-.29Z" transform="translate(-334.254 -10.355)" fill="#fff"/>
      <path id="Path_468" data-name="Path 468" d="M384.2,12.067l-.06-.008-.158-.185v-.059l.335-.289.059.008.159.185v.06Zm.136-.444-.261.223.108.125.26-.223Z" transform="translate(-335.857 -8.561)" fill="#fff"/>
      <path id="Path_469" data-name="Path 469" d="M387.046,10.674,387,10.638l-.047-.239.031-.052.434-.085.048.037.046.239-.031.052Zm.338-.319-.337.066.032.161.336-.065Z" transform="translate(-338.065 -7.622)" fill="#fff"/>
      <path id="Path_470" data-name="Path 470" d="M388.875,10.946a.411.411,0,0,1,.146.044l.059-.058a.558.558,0,0,0-.217-.068Z" transform="translate(-339.485 -8.07)" fill="#fff"/>
      <path id="Path_471" data-name="Path 471" d="M385.679,11.406a1.957,1.957,0,0,1,.364-.2l-.013-.094a1.928,1.928,0,0,0-.409.211Z" transform="translate(-337.077 -8.255)" fill="#fff"/>
      <path id="Path_472" data-name="Path 472" d="M383.232,13.364a2.668,2.668,0,0,1,.282-.311l-.067-.078a2.839,2.839,0,0,0-.3.323Z" transform="translate(-335.242 -9.637)" fill="#fff"/>
      <path id="Path_473" data-name="Path 473" d="M381.829,15.7a1.116,1.116,0,0,0-.131.573l.105.026a1.117,1.117,0,0,1,.118-.539Z" transform="translate(-334.161 -11.66)" fill="#fff"/>
      <path id="Path_474" data-name="Path 474" d="M389.707,1.517a.677.677,0,0,1,.616-.431c.475,0,.494.682.806.678a.045.045,0,0,1,0,.03c-.524.21-.635-.308-.788-.039l-.113-.063c.2-.4.469.091.709.063-.213-.089-.238-.546-.606-.546a.579.579,0,0,0-.506.353Z" transform="translate(-340.112 -0.806)" fill="#fff"/>
      <path id="Path_475" data-name="Path 475" d="M396.689,5.815" transform="translate(-345.299 -4.319)" fill="#fff"/>
      <path id="Path_476" data-name="Path 476" d="M394.118,2.907c-.26,0-.3-.4-.434-.2l-.067-.056c.225-.35.3.244.547.138-.278-.143-.019-.768-.341-.768a.181.181,0,0,0-.131.079l-.036-.059a.241.241,0,0,1,.2-.127c.39,0,.128.761.507.9.024-.019.052-.012.072-.028.163-.121.3-.048.3.154,0,.228-.186.305-.186.731,0,.078.187.246.187.47,0,.241-.422.388-.3.571a.026.026,0,0,1-.016.016c-.221-.114-.069-.506-.347-.423l.014-.067a.215.215,0,0,1,.122-.06c.09,0,.166.166.163.371.026-.2.246-.2.246-.492,0-.23-.182-.259-.182-.522,0-.2.169-.463.169-.585,0-.14-.1-.153-.225-.114A.648.648,0,0,1,394.118,2.907Z" transform="translate(-343.017 -1.423)" fill="#fff"/>
      <path id="Path_477" data-name="Path 477" d="M395.178,3.438c.042-.11.129-.207.208-.207.1,0,.188.073.188.234,0,.1-.089.437-.089.506a.378.378,0,0,0,.1.256.312.312,0,0,1-.149.056c-.161,0-.207-.207-.3-.207-.032,0-.065.057-.074.087l-.026-.051c.014-.067.053-.135.1-.135.122,0,.149.145.3.171a.538.538,0,0,1-.048-.176c0-.157.064-.209.064-.382,0-.121-.031-.215-.13-.215a.135.135,0,0,0-.126.1Z" transform="translate(-344.068 -2.4)" fill="#fff"/>
      <path id="Path_478" data-name="Path 478" d="M397.41,7.035a.246.246,0,0,1,.192-.146.151.151,0,0,1,.156.16c0,.309-.317.356-.22.654l-.1-.133c-.037-.181.193-.315.193-.5a.075.075,0,0,0-.082-.085c-.048,0-.108.055-.143.1Z" transform="translate(-345.831 -5.117)" fill="#fff"/>
      <path id="Path_479" data-name="Path 479" d="M395.489,7.676a.141.141,0,0,1,.112-.109c.135,0,.118.251.272.3l.059.114c-.259.008-.3-.452-.43-.269Z" transform="translate(-344.407 -5.621)" fill="#fff"/>
      <path id="Path_480" data-name="Path 480" d="M395.61,9.331c.032-.057.079-.123.139-.123.211,0,.1.415.339.452l-.028.028c-.264.122-.207-.562-.449-.3Z" transform="translate(-344.497 -6.84)" fill="#fff"/>
      <path id="Path_481" data-name="Path 481" d="M395.833,10.882c.144-.079.245-.023.245.068,0,.377-.583.443-.454.782,0,.011,0,.009-.014.012-.352-.069-.211-.532-.436-.439l0-.057a.166.166,0,0,1,.1-.049c.2,0,.114.308.274.407-.057-.229.417-.428.417-.655,0-.035-.046-.084-.157-.018Z" transform="translate(-344.17 -8.055)" fill="#fff"/>
      <path id="Path_482" data-name="Path 482" d="M338.255,9.835c.444-.335,1.89,1.009,2.577.733l-.023.121c-.74.22-1.965-.966-2.523-.721Z" transform="translate(-301.893 -7.265)" fill="#fff" fill-rule="evenodd"/>
      <g id="Group_419" data-name="Group 419" transform="translate(33.606 1.447)">
        <path id="Path_483" data-name="Path 483" d="M328.041,7.414a.729.729,0,0,0-.167-.389,1.069,1.069,0,0,1-.334-.706.68.68,0,0,1,.577-.694c.029.005.044.061.01.073a.645.645,0,0,0-.443.619.965.965,0,0,0,.259.625.579.579,0,0,1,.147.247Z" transform="translate(-327.54 -5.625)" fill="#fff" fill-rule="evenodd"/>
      </g>
      <path id="Path_484" data-name="Path 484" d="M329.635,10.78a.466.466,0,0,1-.23-.4c0-.283.171-.41.178-.6a.035.035,0,0,1,.056,0c.04.191-.138.446-.138.633a.236.236,0,0,0,.178.222Z" transform="translate(-295.319 -7.255)" fill="#fff" fill-rule="evenodd"/>
      <path id="Path_485" data-name="Path 485" d="M329.058,7.837c.1-.158.4-.11.455.207a.1.1,0,0,1-.081.014c-.064-.245-.282-.284-.346-.2C329.067,7.873,329.052,7.859,329.058,7.837Z" transform="translate(-295.061 -5.756)" fill="#fff" fill-rule="evenodd"/>
      <path id="Path_486" data-name="Path 486" d="M329.527,7.937c-.016.189.144.189.209.122A.227.227,0,0,0,329.527,7.937Z" transform="translate(-295.409 -5.895)" fill="#fff" fill-rule="evenodd"/>
      <path id="Path_487" data-name="Path 487" d="M329.372,8.744a.458.458,0,0,1-.276-.111.032.032,0,0,0-.03.04.335.335,0,0,0,.306.095C329.409,8.766,329.392,8.744,329.372,8.744Z" transform="translate(-295.067 -6.412)" fill="#fff" fill-rule="evenodd"/>
      <path id="Path_488" data-name="Path 488" d="M333.17,7.853c-.1-.158-.4-.124-.461.2a.109.109,0,0,0,.081.025c.064-.245.285-.291.35-.2C333.155,7.88,333.173,7.871,333.17,7.853Z" transform="translate(-297.774 -5.765)" fill="#fff" fill-rule="evenodd"/>
      <path id="Path_489" data-name="Path 489" d="M333.371,7.915c.016.189-.144.2-.207.118A.22.22,0,0,1,333.371,7.915Z" transform="translate(-298.112 -5.878)" fill="#fff" fill-rule="evenodd"/>
      <path id="Path_490" data-name="Path 490" d="M333.231,8.744a.458.458,0,0,0,.276-.111.035.035,0,0,1,.031.04.359.359,0,0,1-.306.095C333.195,8.766,333.211,8.744,333.231,8.744Z" transform="translate(-298.145 -6.412)" fill="#fff" fill-rule="evenodd"/>
      <path id="Path_491" data-name="Path 491" d="M330.056,11.8c0-.267.228-.2.357-.319a.154.154,0,0,0,.019-.091c0-.106-.116-.114-.2-.24,0-.011.01-.03.031-.027.084.036.159.034.232.124.059-.095.15-.082.231-.139.02-.007.034.028.031.043-.1.11-.2.132-.2.238a.16.16,0,0,0,.036.091c.159.145.328.043.328.311,0,.121-.1.259-.429.259S330.056,11.921,330.056,11.8Zm.443.13c.143,0,.315-.031.315-.182,0-.135-.2-.048-.312-.19-.111.154-.316.049-.316.19S330.353,11.93,330.5,11.93Z" transform="translate(-295.803 -8.25)" fill="#fff" fill-rule="evenodd"/>
      <path id="Path_492" data-name="Path 492" d="M333.125,10.806a.553.553,0,0,0,.234-.372c0-.234-.172-.41-.172-.619-.012-.018-.047-.014-.065,0-.062.211.13.423.13.61a.272.272,0,0,1-.17.234Z" transform="translate(-298.051 -7.282)" fill="#fff" fill-rule="evenodd"/>
      <path id="Path_493" data-name="Path 493" d="M326.149,6.15V6.108a.421.421,0,0,1-.306-.325c0-.108.059-.165.134-.165a.361.361,0,0,1,.3.193l.027-.033a.382.382,0,0,0-.358-.265c-.158,0-.21.138-.21.252C325.734,5.939,325.855,6.1,326.149,6.15Z" transform="translate(-292.592 -4.095)" fill="#fff" fill-rule="evenodd"/>
      <path id="Path_494" data-name="Path 494" d="M326.993,6.837c-.075-.042-.147-.129-.147-.165,0-.08.113-.085.213.012A.81.81,0,0,1,326.993,6.837Z" transform="translate(-293.418 -4.911)" fill="#fff" fill-rule="evenodd"/>
      <path id="Path_495" data-name="Path 495" d="M330.137,15.041c.1-.117.057-.293.282-.34a.413.413,0,0,1,.1.016,1.658,1.658,0,0,0-.257.343Z" transform="translate(-295.863 -10.919)" fill="#fff" fill-rule="evenodd"/>
      <path id="Path_496" data-name="Path 496" d="M324.137,5.907l-.018,0a.351.351,0,0,1-.213-.3c0-.408.382-.375.452-.5a.107.107,0,0,0-.117-.1c-.119,0-.161.082-.115.22a.258.258,0,0,1-.18-.263.4.4,0,0,1,.61-.306c-.014-.046-.069-.141-.111-.14.111-.176.354-.07.456.086l-.009.07a.381.381,0,0,0-.314-.116.222.222,0,0,1,.045.172l-.108,0a.289.289,0,0,0-.436.2c.151-.058.288-.07.351.163-.111.315-.355.177-.355.466a.354.354,0,0,0,.086.175.434.434,0,0,0,.3-.413c.005,0,.013-.008.02,0,.081.266-.251.463-.187.744.076-.113.452-.1.437-.552a.038.038,0,0,1,.041-.005c.107.448-.428.558-.292,1.075a.022.022,0,0,0,.014,0c.014-.137.18-.192.312-.18.241-.249.052-.4.052-.555.008-.011.017-.013.033-.014a.963.963,0,0,1,.126.318c0,.364-.434.285-.265.817.021-.042.05-.07.085-.07.014,0,.074.017.1.017.179,0-.027-.448.207-.609.012,0,.014.006.016.017a.326.326,0,0,0-.052.157c0,.056.011.13.011.2,0,.3-.282.38-.12.563a.244.244,0,0,1,.208-.235c.142,0,.123-.29.083-.425,0-.006.007-.008.018-.006a1.051,1.051,0,0,1,.076.251c0,.216-.1.378.088.577l-.086.034a.479.479,0,0,1-.192-.348c-.08.036-.115.212-.049.348-.209-.012-.329-.152-.3-.4-.048.145-.142.275-.277.269a.636.636,0,0,0,.086-.315c0-.1-.07-.329-.027-.384-.056-.008-.131.1-.1.193-.215-.058-.214-.505-.156-.6-.062,0-.084.084-.08.142a.226.226,0,0,1-.115-.2c0-.053.055-.29.055-.309s-.006-.043-.027-.043C324.139,5.786,324.123,5.856,324.137,5.907Z" transform="translate(-291.235 -3.296)" fill="#fff" fill-rule="evenodd"/>
      <path id="Path_497" data-name="Path 497" d="M327.517,4.441a.8.8,0,0,0,.023-.489c-.015-.023.034-.068.062-.053a.955.955,0,0,1,.378.375l-.046.109a.391.391,0,0,0-.3-.263.69.69,0,0,1-.069.367Z" transform="translate(-293.917 -2.893)" fill="#fff" fill-rule="evenodd"/>
      <g id="Group_420" data-name="Group 420" transform="translate(35.186 1.447)">
        <path id="Path_498" data-name="Path 498" d="M333.8,7.368A.653.653,0,0,1,333.964,7a1.012,1.012,0,0,0,.33-.684.639.639,0,0,0-.585-.691.042.042,0,0,0-.01.073.607.607,0,0,1,.456.614.878.878,0,0,1-.283.622.657.657,0,0,0-.128.288Z" transform="translate(-333.682 -5.625)" fill="#fff" fill-rule="evenodd"/>
      </g>
      <path id="Path_499" data-name="Path 499" d="M329.044,4.983a1.527,1.527,0,0,1,.108-.372c0-.016.018-.079.031-.059a1.765,1.765,0,0,0,.268.322.066.066,0,0,1-.059.021.632.632,0,0,1-.189-.2c-.005.055-.067.149-.074.236Z" transform="translate(-295.051 -3.378)" fill="#fff" fill-rule="evenodd"/>
      <path id="Path_500" data-name="Path 500" d="M335.965,6.837c.075-.042.147-.129.147-.165,0-.08-.113-.085-.213.012A.852.852,0,0,0,335.965,6.837Z" transform="translate(-300.142 -4.911)" fill="#fff" fill-rule="evenodd"/>
      <path id="Path_501" data-name="Path 501" d="M333.323,4.9a1.924,1.924,0,0,0-.092-.413.048.048,0,0,0-.047-.018,1,1,0,0,1-.267.323.067.067,0,0,0,.059.021.643.643,0,0,0,.189-.2c0,.055.066.149.072.236Z" transform="translate(-297.928 -3.317)" fill="#fff" fill-rule="evenodd"/>
      <path id="Path_502" data-name="Path 502" d="M319.458,15.3a.25.25,0,0,1-.133-.257.037.037,0,0,0-.05.011.219.219,0,0,0-.021.214.109.109,0,0,1-.075.037.324.324,0,0,1-.124-.25.049.049,0,0,0-.061.008.209.209,0,0,0,0,.212.094.094,0,0,1-.06.025c-.1-.043-.108-.2-.1-.232-.021-.013-.036,0-.057,0a.2.2,0,0,0-.025.2c-.014.025-.061.033-.094.033a.282.282,0,0,1-.116-.235c0-.249.221-.332.59-.366a2.178,2.178,0,0,0,1.385-.491l0-.192a1.928,1.928,0,0,1-1.405.569c-.387.032-.77.138-.77.47,0,.143.161.226.181.315Z" transform="translate(-287.1 -10.417)" fill="#fff"/>
      <path id="Path_503" data-name="Path 503" d="M338.525,15.785a.669.669,0,0,1,.091.78l.115,0c.2-.393.149-.73-.167-.866A.106.106,0,0,0,338.525,15.785Z" transform="translate(-302.094 -11.664)" fill="#fff"/>
      <path id="Path_504" data-name="Path 504" d="M332.814,17.246a.251.251,0,0,1-.04.369l.1,0a.289.289,0,0,0,.02-.423A.114.114,0,0,0,332.814,17.246Z" transform="translate(-297.822 -12.773)" fill="#fff"/>
      <path id="Path_505" data-name="Path 505" d="M343.229,14.47a.593.593,0,0,0-.338.846l-.143,0c-.208-.358-.124-.75.444-.928A.078.078,0,0,1,343.229,14.47Z" transform="translate(-305.154 -10.69)" fill="#fff"/>
      <path id="Path_506" data-name="Path 506" d="M330.024,3.484a.067.067,0,0,1-.027.089l-.069.037a.066.066,0,0,1-.089-.028h0a.066.066,0,0,1,.027-.088l.069-.037a.067.067,0,0,1,.089.027Z" transform="translate(-295.636 -2.562)" fill="#fff" fill-rule="evenodd"/>
      <path id="Path_507" data-name="Path 507" d="M328.726,2.812A2.347,2.347,0,0,0,328.5,2.5c-.021-.024-.023-.038-.009-.053a.994.994,0,0,1,1.682,0c.014.016.012.03-.01.053a2.5,2.5,0,0,0-.226.317,1.288,1.288,0,0,0-1.21,0Zm.605-.222a1.485,1.485,0,0,1,.567.146c.011-.035.115-.26.124-.276s.005-.021,0-.031a.865.865,0,0,0-1.372,0c-.01.01-.013.015,0,.031s.113.241.124.276A1.489,1.489,0,0,1,329.332,2.591Z" transform="translate(-294.634 -1.469)" fill="#fff" fill-rule="evenodd"/>
      <path id="Path_508" data-name="Path 508" d="M330.358,4.858a1.329,1.329,0,0,1,.477.083l.017-.033a1.318,1.318,0,0,0-.989,0l.016.033A1.34,1.34,0,0,1,330.358,4.858Z" transform="translate(-295.66 -3.573)" fill="#fff" fill-rule="evenodd"/>
      <path id="Path_509" data-name="Path 509" d="M332.97,3.484a.066.066,0,0,0,.027.089l.068.037a.065.065,0,0,0,.088-.028h0a.064.064,0,0,0-.026-.088l-.068-.037a.067.067,0,0,0-.089.027Z" transform="translate(-297.962 -2.562)" fill="#fff" fill-rule="evenodd"/>
      <path id="Path_510" data-name="Path 510" d="M331.277,3.17l-.074-.13.074-.129h.15l.074.129-.074.13Z" transform="translate(-296.655 -2.162)" fill="#fff" fill-rule="evenodd"/>
      <g id="Group_421" data-name="Group 421" transform="translate(36.962 0.895)">
        <path id="Path_511" data-name="Path 511" d="M342.722,5.657a.33.33,0,0,0-.257-.157c-.258,0-.589.257-1.107.257a.6.6,0,0,1-.623-.608.59.59,0,0,1,.628-.642c.4,0,.479.141.924.141.231,0,.365-.11.389-.405l-.08-.079c.007.246-.058.413-.313.413-.354,0-.562-.172-.932-.172a.745.745,0,0,0-.763.752.713.713,0,0,0,.756.709c.585,0,.848-.262,1.113-.262a.252.252,0,0,1,.219.105Z" transform="translate(-340.587 -3.988)" fill="#fff" fill-rule="evenodd"/>
        <path id="Path_512" data-name="Path 512" d="M343.631,3.611c-.28,0-.138.289-.194.289s-.107-.1-.107-.193c0-.141.106-.229.286-.229a.614.614,0,0,1,.571.66c0,.305-.238.507-.616.507-.252,0-.687-.131-.917-.131-.158,0-.272.107-.272.19,0,.057.084.109.191.109.355,0,.595-.165.983-.165a.528.528,0,0,1,.478.261l-.069.081a.441.441,0,0,0-.415-.248c-.309,0-.644.157-.972.157a.326.326,0,0,1-.352-.343.351.351,0,0,1,.386-.374c.23,0,.556.148.836.148.368,0,.48-.121.521-.474A.415.415,0,0,0,343.631,3.611Zm-.172.792c-.272,0-.643-.139-.847-.139a.261.261,0,0,0-.283.336.377.377,0,0,1,.32-.177c.3,0,.61.121.932.121.292,0,.462-.1.462-.422a.525.525,0,0,0-.031-.169C343.993,4.28,343.829,4.4,343.459,4.4Z" transform="translate(-341.804 -3.478)" fill="#fff"/>
      </g>
      <path id="Path_513" data-name="Path 513" d="M329.285,15.876a2.411,2.411,0,0,1-.455-.04c-.375-.068-.951-.026-.951.26,0,.143.1.165.108.25l.908.16a.25.25,0,0,1-.061-.282.048.048,0,0,0-.059-.006.137.137,0,0,0-.071.161.153.153,0,0,1-.1.02.231.231,0,0,1-.038-.233.049.049,0,0,0-.061-.008.159.159,0,0,0-.055.176.164.164,0,0,1-.074.018c-.081-.066-.042-.205-.028-.23-.016-.018-.033-.014-.055-.011a.16.16,0,0,0-.079.171.122.122,0,0,1-.1.019.267.267,0,0,1-.064-.2c0-.19.423-.209.77-.149a2.273,2.273,0,0,0,.575.034Z" transform="translate(-294.185 -11.742)" fill="#fff"/>
      <path id="Path_514" data-name="Path 514" d="M330.408,6.395a.546.546,0,0,1,.136-.044c.085,0,.131.051.216.051s.133-.056.221-.056a.232.232,0,0,1,.118.053c0,.01,0,.015-.008.02a.321.321,0,0,0-.108-.029c-.06,0-.138.053-.223.053s-.153-.045-.216-.045a.567.567,0,0,0-.128.021C330.4,6.416,330.408,6.4,330.408,6.395Z" transform="translate(-296.064 -4.714)" fill="#fff" fill-rule="evenodd"/>
      <path id="Path_515" data-name="Path 515" d="M330.143,6.884a.767.767,0,0,1,.161-.045c.1,0,.156.051.258.051.086,0,.158-.056.263-.056a.3.3,0,0,1,.14.053c0,.01,0,.015-.009.02a.442.442,0,0,0-.129-.03c-.072,0-.164.059-.266.059-.118,0-.182-.051-.258-.051a.81.81,0,0,0-.153.021C330.139,6.905,330.143,6.889,330.143,6.884Z" transform="translate(-295.867 -5.077)" fill="#fff" fill-rule="evenodd"/>
      <path id="Path_516" data-name="Path 516" d="M335.67,6.15V6.108a.422.422,0,0,0,.307-.325c0-.108-.059-.165-.135-.165a.361.361,0,0,0-.3.193l-.027-.033a.382.382,0,0,1,.358-.265c.158,0,.21.138.21.252C336.086,5.939,335.965,6.1,335.67,6.15Z" transform="translate(-299.859 -4.095)" fill="#fff" fill-rule="evenodd"/>
      <path id="Path_517" data-name="Path 517" d="M332.317,7.6a.623.623,0,0,0,.2-.508c.106.019.175.189.108.325.209-.012.329-.152.3-.4a.242.242,0,0,0,.255.155.425.425,0,0,1-.058-.257c0-.1.058-.234-.011-.359.056-.009.138.142.111.232.3-.07.237-.515.18-.614a.122.122,0,0,1,.134.139.268.268,0,0,0,.117-.23c0-.093-.078-.177-.078-.195s.062,0,.062,0a.305.305,0,0,0,.173-.3c0-.3-.366-.327-.411-.5a.106.106,0,0,1,.116-.1c.08,0,.115.077.029.193a.3.3,0,0,0,.238-.281c0-.308-.284-.446-.6-.25.014-.046.045-.135.13-.147a.263.263,0,0,0-.459.082l.01.07a.364.364,0,0,1,.286-.157.317.317,0,0,0-.016.213l.108,0c.188-.107.4-.055.405.215-.108-.124-.257-.089-.32.144.111.315.334.241.334.5a.351.351,0,0,1-.057.2.591.591,0,0,1-.3-.47c-.006,0-.013-.008-.021,0-.081.266.272.482.18.771-.076-.113-.344.043-.429-.58a.036.036,0,0,0-.04-.005c-.107.448.458.6.293,1.105a.04.04,0,0,1-.018,0,.2.2,0,0,0-.259-.177c-.28-.242-.1-.429-.1-.584a.035.035,0,0,0-.031-.016c-.014.05-.135.21-.135.313,0,.364.434.285.266.817-.02-.042-.049-.07-.084-.07-.015,0-.075.017-.1.017-.179,0,.027-.448-.207-.609-.011,0-.014.006-.016.017a.326.326,0,0,1,.053.157c0,.056-.011.13-.011.2,0,.349.323.389.091.6a.332.332,0,0,0-.185-.275c-.111-.047-.109-.292-.067-.427,0-.007-.016-.007-.027-.006a1.063,1.063,0,0,0-.076.251c0,.216.078.406-.108.6-.1-.116-.08-.3-.305-.343a.43.43,0,0,0-.095,0C332.073,7.172,332.073,7.519,332.317,7.6Z" transform="translate(-297.159 -3.268)" fill="#fff" fill-rule="evenodd"/>
      <path id="Path_518" data-name="Path 518" d="M334.609,4.441a.789.789,0,0,1-.023-.489c.015-.023-.034-.068-.062-.053a.955.955,0,0,0-.378.375l.046.109a.54.54,0,0,1,.255-.276.685.685,0,0,0,.11.381Z" transform="translate(-298.841 -2.893)" fill="#fff" fill-rule="evenodd"/>
      <g id="Group_428" data-name="Group 428" transform="translate(38.724 1.389)">
        <g id="Group_422" data-name="Group 422" transform="translate(0.179)">
          <path id="Path_519" data-name="Path 519" d="M349.811,5.874a.514.514,0,0,0-.553-.476.64.64,0,0,0-.44.186,2.533,2.533,0,0,0-.682,1.3.407.407,0,0,0,.41.354c.3,0,.424-.132.424-.218,0-.194-.3-.307-.489-.114l.055.056a.249.249,0,0,1,.193-.077c.1,0,.155.049.155.1,0,.095-.075.154-.305.154-.093,0-.284-.068-.284-.233,0-.119.139-.233.359-.233a.487.487,0,0,1,.369.2l.044-.1a.526.526,0,0,0-.406-.231.424.424,0,0,0-.364.17,3.024,3.024,0,0,1,.6-1.008.455.455,0,0,1,.359-.154.421.421,0,0,1,.438.409Z" transform="translate(-348.136 -5.398)" fill="#fff"/>
          <path id="Path_520" data-name="Path 520" d="M349.59,10.257h.077l-.119.239-.072.017Z" transform="translate(-349.132 -9.007)" fill="#fff"/>
        </g>
        <g id="Group_423" data-name="Group 423" transform="translate(0 1.737)">
          <path id="Path_521" data-name="Path 521" d="M347.591,13.316a1.172,1.172,0,0,1-.025-.236,3.349,3.349,0,0,1,.063-.524.38.38,0,0,1,.421-.278.624.624,0,0,1,.337.1l.03-.117a.6.6,0,0,0-.342-.107c-.328,0-.512.158-.552.344a3.814,3.814,0,0,0-.083.594c0,.6.285.693.518.693s.475-.159.475-.356c0-.084-.118-.174-.323-.174a.343.343,0,0,0-.283.184l.038.068a.3.3,0,0,1,.244-.169c.1,0,.234.036.234.1,0,.129-.181.23-.39.23s-.314-.119-.314-.2c0-.173.279-.459.7-.249l-.008-.1C348,12.945,347.683,13.042,347.591,13.316Z" transform="translate(-347.439 -12.153)" fill="#fff"/>
          <path id="Path_522" data-name="Path 522" d="M348.893,16.107l.069-.035.014.242-.068.036Z" transform="translate(-348.519 -15.064)" fill="#fff"/>
        </g>
        <g id="Group_424" data-name="Group 424" transform="translate(0.38 3.203)">
          <path id="Path_523" data-name="Path 523" d="M349.465,19.072a1.342,1.342,0,0,1-.434-.694.377.377,0,0,1,.347-.413.613.613,0,0,1,.243.065l-.008-.119a.746.746,0,0,0-.246-.059.478.478,0,0,0-.453.524,1.653,1.653,0,0,0,.575.895.634.634,0,0,0,.418.169.4.4,0,0,0,.416-.393c0-.083-.108-.279-.257-.279a.249.249,0,0,0-.265.3l.085.033c-.014-.133.042-.236.164-.236a.172.172,0,0,1,.153.17.3.3,0,0,1-.305.3.313.313,0,0,1-.323-.267c0-.227.074-.459.3-.459a.982.982,0,0,1,.123.008l-.076-.094c-.057,0-.082-.011-.107-.011C349.546,18.509,349.417,18.828,349.465,19.072Z" transform="translate(-348.915 -17.853)" fill="#fff"/>
          <path id="Path_524" data-name="Path 524" d="M351.6,21.145l.2.269-.05.1-.213-.284Z" transform="translate(-350.861 -20.298)" fill="#fff"/>
        </g>
        <g id="Group_425" data-name="Group 425" transform="translate(5.379 0.006)">
          <path id="Path_525" data-name="Path 525" d="M368.354,5.892c.084-.285.218-.47.55-.47a.694.694,0,0,1,.456.177,2.51,2.51,0,0,1,.661,1.305.392.392,0,0,1-.424.338c-.3,0-.4-.119-.4-.205,0-.194.3-.307.489-.114l-.056.056a.25.25,0,0,0-.193-.077c-.1,0-.147.05-.147.1,0,.086.074.153.3.153a.26.26,0,0,0,.284-.233c0-.119-.139-.233-.358-.233a.489.489,0,0,0-.369.2l-.044-.1a.574.574,0,0,1,.414-.2.442.442,0,0,1,.357.143,3.029,3.029,0,0,0-.6-1.008.456.456,0,0,0-.359-.154.421.421,0,0,0-.438.409Z" transform="translate(-368.354 -5.422)" fill="#fff"/>
          <path id="Path_526" data-name="Path 526" d="M372.867,10.257h-.076l.118.239.072.017Z" transform="translate(-371.65 -9.013)" fill="#fff"/>
        </g>
        <g id="Group_426" data-name="Group 426" transform="translate(6.235 1.738)">
          <path id="Path_527" data-name="Path 527" d="M372.53,13.317a1.119,1.119,0,0,0,.025-.236,4.017,4.017,0,0,0-.054-.536.38.38,0,0,0-.421-.278.62.62,0,0,0-.337.1l-.039-.105a.6.6,0,0,1,.342-.107c.328,0,.52.136.56.322a4.663,4.663,0,0,1,.072.629c0,.639-.3.667-.535.667s-.461-.132-.461-.329c0-.084.124-.187.328-.187a.343.343,0,0,1,.283.184l-.037.068a.3.3,0,0,0-.244-.169c-.1,0-.21.042-.21.108,0,.129.157.224.365.224s.324-.107.324-.192c0-.173-.289-.47-.713-.261l.007-.1A.519.519,0,0,1,372.53,13.317Z" transform="translate(-371.683 -12.154)" fill="#fff"/>
          <path id="Path_528" data-name="Path 528" d="M373.874,16.107l-.068-.035-.014.242.068.036Z" transform="translate(-373.25 -15.064)" fill="#fff"/>
        </g>
        <g id="Group_427" data-name="Group 427" transform="translate(5.449 3.203)">
          <path id="Path_529" data-name="Path 529" d="M370.646,21.145l-.2.269.05.1.213-.284Z" transform="translate(-369.978 -20.298)" fill="#fff"/>
          <path id="Path_530" data-name="Path 530" d="M369.482,19.072a1.337,1.337,0,0,0,.434-.694.377.377,0,0,0-.347-.413.607.607,0,0,0-.243.065l.008-.119a.732.732,0,0,1,.244-.059.478.478,0,0,1,.454.524,1.621,1.621,0,0,1-.561.894.666.666,0,0,1-.433.17.391.391,0,0,1-.412-.412.3.3,0,0,1,.252-.261.25.25,0,0,1,.265.3l-.086.033c.014-.133-.041-.236-.164-.236a.168.168,0,0,0-.142.173.283.283,0,0,0,.294.292.325.325,0,0,0,.339-.255c0-.227-.091-.471-.319-.471a.986.986,0,0,0-.123.008l.076-.094c.057,0,.082-.011.106-.011C369.4,18.509,369.531,18.828,369.482,19.072Z" transform="translate(-368.627 -17.853)" fill="#fff"/>
        </g>
      </g>
      <path id="Path_531" data-name="Path 531" d="M357.482,3.544c-.065-.2-.295-.275-.295-.371,0-.037.02-.066.048-.066s.386.1.59.13a.037.037,0,0,1,0,.073,3.659,3.659,0,0,1-.431-.036.7.7,0,0,1,.193.246Z" transform="translate(-315.956 -2.308)" fill="#fff"/>
      <path id="Path_532" data-name="Path 532" d="M359.393,4.706a.9.9,0,0,1,.061.18l.094-.008a.553.553,0,0,0-.069-.191Z" transform="translate(-317.595 -3.481)" fill="#fff"/>
      <path id="Path_533" data-name="Path 533" d="M358.152,4.962a.923.923,0,0,1,.062.18l.093-.008a.577.577,0,0,0-.069-.191Z" transform="translate(-316.673 -3.671)" fill="#fff"/>
      <path id="Path_534" data-name="Path 534" d="M356.776,2c.525,0,.907-.194,1.214-.194.168,0,.256.095.256.212,0,.226-.422.4-.452.759l.1.033c.18-.464.52-.451.52-.787a.389.389,0,0,0-.419-.337c-.375,0-.819.2-1.217.2s-.842-.2-1.217-.2a.389.389,0,0,0-.419.337c0,.336.34.322.52.787l.1-.033c-.03-.36-.451-.533-.451-.759,0-.117.087-.212.255-.212C355.869,1.8,356.251,2,356.776,2Z" transform="translate(-314.436 -1.248)" fill="#fff"/>
      <path id="Path_535" data-name="Path 535" d="M358.308,4.383a3.035,3.035,0,0,1,1.065.233l.041-.082a2.8,2.8,0,0,0-2.213,0l.041.082A3.044,3.044,0,0,1,358.308,4.383Z" transform="translate(-315.967 -3.198)" fill="#fff"/>
      <path id="Path_536" data-name="Path 536" d="M363.581,3.544c.066-.2.294-.275.294-.371,0-.037-.02-.066-.048-.066s-.387.1-.591.13a.037.037,0,0,0,0,.073,3.678,3.678,0,0,0,.431-.036.706.706,0,0,0-.194.246Z" transform="translate(-320.424 -2.308)" fill="#fff"/>
      <path id="Path_537" data-name="Path 537" d="M363.17,4.706a.814.814,0,0,0-.061.18l-.093-.008a.543.543,0,0,1,.068-.191Z" transform="translate(-320.285 -3.481)" fill="#fff"/>
      <path id="Path_538" data-name="Path 538" d="M364.406,4.962a.888.888,0,0,0-.062.18l-.094-.008a.559.559,0,0,1,.069-.191Z" transform="translate(-321.203 -3.671)" fill="#fff"/>
      <rect id="Rectangle_400" data-name="Rectangle 400" width="0.089" height="0.198" transform="translate(42.296 1.171)" fill="#fff"/>
      <g id="Group_438" data-name="Group 438" transform="translate(39.583 1.347)">
        <path id="Path_539" data-name="Path 539" d="M354.07,14.645a10.139,10.139,0,0,1,1.863-.216v.078a11.266,11.266,0,0,0-1.854.215Z" transform="translate(-353.224 -12.064)" fill="#fff"/>
        <path id="Path_540" data-name="Path 540" d="M350.9,7.7a2.653,2.653,0,0,1,5.272,0,2.642,2.642,0,0,1-5.272,0Zm2.636,2.57A2.759,2.759,0,0,0,356.3,7.709a2.774,2.774,0,0,0-5.515,0A2.759,2.759,0,0,0,353.538,10.272Z" transform="translate(-350.78 -5.235)" fill="#fff"/>
        <path id="Path_541" data-name="Path 541" d="M353.605,8.944a7.253,7.253,0,0,1,.138-1.338,5.139,5.139,0,0,1,3.786,0,7.18,7.18,0,0,1,.138,1.338,2.1,2.1,0,1,1-4.062,0Zm2.031,2.521a2.435,2.435,0,0,0,1.9-2.53,8.478,8.478,0,0,0-.1-1.248,5.3,5.3,0,0,0-3.591,0,8.512,8.512,0,0,0-.1,1.248A2.435,2.435,0,0,0,355.636,11.465Z" transform="translate(-352.878 -6.727)" fill="#fff"/>
        <rect id="Rectangle_401" data-name="Rectangle 401" width="0.104" height="4.146" transform="translate(2.706 0.628)" fill="#fff"/>
        <path id="Path_542" data-name="Path 542" d="M363.556,14.645a10.131,10.131,0,0,0-1.863-.216v.078a11.273,11.273,0,0,1,1.855.215Z" transform="translate(-358.886 -12.064)" fill="#fff"/>
        <g id="Group_432" data-name="Group 432" transform="translate(1.049 0.826)">
          <g id="Group_429" data-name="Group 429">
            <path id="Path_543" data-name="Path 543" d="M355.222,8.517c.1-.007.165.011.165.074,0,.087.042.089.193.084.083,0,.309-.022.343-.02s.144.016.183.018c.074,0,.142-.008.142-.032s-.059-.047-.147-.049-.33.025-.37.027c-.076,0-.11-.025-.11-.062s.034-.07.092-.071c.031,0,.088.007.115.007.053,0,.1-.044.122-.044s.033.011.033.024c0,.035-.053.052-.149.052-.073,0-.124.008-.124.028s.026.026.061.025c.092,0,.288-.031.377-.026.131.005.179.051.179.074,0,.041-.029.068-.074.084a.249.249,0,0,0,.11.019c.011,0,.017.01.017.024,0,.1-.065.2-.114.194s-.138-.06-.138-.08.01-.03.024-.029.051.014.065.015.03-.009.03-.022-.038-.049-.092-.051a.668.668,0,0,0-.2.023c.011.026,0,.067-.027.07s-.187.017-.211.022-.169.047-.182.048c-.038,0-.045-.047-.045-.063s0-.015.017-.016.056,0,.077,0c.071,0,.182-.033.182-.08,0-.021-.027-.035-.071-.035a.791.791,0,0,0-.241.065c-.029.011-.228.08-.267.092-.06.018-.186.07-.225.075-.056.006-.1-.029-.1-.048s.062-.087.081-.089.051.038.071.035.08-.039.08-.058c0-.059-.192-.076-.192-.166,0-.025.052-.05.088-.054s.059,0,.059.017-.007.036-.007.045.021.027.046.025.065-.025.065-.055-.042-.031-.042-.046S355.149,8.523,355.222,8.517Z" transform="translate(-354.858 -8.448)" fill="#fff"/>
          </g>
          <g id="Group_430" data-name="Group 430" transform="translate(0 0.492)">
            <path id="Path_544" data-name="Path 544" d="M355.222,10.432c.1-.007.165.01.165.074,0,.087.042.089.193.084.083,0,.309-.021.343-.02s.144.016.183.018c.074,0,.142-.008.142-.032s-.059-.046-.147-.049-.33.025-.37.027c-.076,0-.11-.025-.11-.062s.034-.07.092-.071c.031,0,.088.007.115.007.053,0,.1-.044.122-.043s.033.01.033.023c0,.035-.053.052-.149.053-.073,0-.124.008-.124.028s.026.026.061.026c.092,0,.288-.031.377-.026.131.005.179.051.179.074,0,.041-.029.068-.074.085a.245.245,0,0,0,.11.018c.011,0,.017.011.017.024,0,.1-.065.2-.114.194s-.138-.06-.138-.08.01-.03.024-.03.051.014.065.015.03-.009.03-.022c0-.028-.038-.049-.092-.051a.683.683,0,0,0-.2.024c.011.026,0,.067-.027.07s-.187.017-.211.022-.169.047-.182.047c-.038,0-.045-.047-.045-.063s0-.015.017-.016.056,0,.077,0c.071,0,.182-.033.182-.08,0-.021-.027-.035-.071-.034a.777.777,0,0,0-.241.065c-.029.011-.228.08-.267.092-.06.018-.186.071-.225.075-.056.006-.1-.029-.1-.048s.062-.087.081-.089.051.038.071.035.08-.039.08-.058c0-.059-.192-.076-.192-.166,0-.025.052-.051.088-.054s.059,0,.059.017-.007.036-.007.044.021.028.046.025.065-.025.065-.055-.042-.032-.042-.047S355.149,10.437,355.222,10.432Z" transform="translate(-354.858 -10.362)" fill="#fff"/>
          </g>
          <g id="Group_431" data-name="Group 431" transform="translate(0 0.985)">
            <path id="Path_545" data-name="Path 545" d="M355.222,12.347c.1-.007.165.01.165.073,0,.087.042.089.193.084.083,0,.309-.022.343-.021s.144.016.183.018c.074,0,.142-.008.142-.032s-.059-.046-.147-.049-.33.025-.37.027c-.076,0-.11-.025-.11-.062s.034-.069.092-.07c.031,0,.088.006.115.006.053,0,.1-.044.122-.044s.033.011.033.024c0,.035-.053.052-.149.052-.073,0-.124.008-.124.029s.026.025.061.025c.092,0,.288-.03.377-.026.131.005.179.051.179.074,0,.041-.029.068-.074.084a.245.245,0,0,0,.11.019c.011,0,.017.01.017.024,0,.1-.065.2-.114.194s-.138-.06-.138-.08.01-.03.024-.03.051.014.065.015.03-.009.03-.021c0-.028-.038-.05-.092-.052a.657.657,0,0,0-.2.024c.011.026,0,.067-.027.07s-.187.016-.211.022-.169.047-.182.048c-.038,0-.045-.047-.045-.062s0-.016.017-.016.056,0,.077,0c.071,0,.182-.033.182-.08,0-.021-.027-.035-.071-.034a.791.791,0,0,0-.241.065c-.029.012-.228.079-.267.092-.06.017-.186.07-.225.074-.056.006-.1-.028-.1-.048s.062-.087.081-.089.051.037.071.035.08-.039.08-.058c0-.059-.192-.076-.192-.166,0-.025.052-.05.088-.054s.059,0,.059.017-.007.036-.007.045.021.027.046.024.065-.025.065-.055-.042-.031-.042-.047S355.149,12.352,355.222,12.347Z" transform="translate(-354.858 -12.277)" fill="#fff"/>
          </g>
        </g>
        <g id="Group_433" data-name="Group 433" transform="translate(2.902 2.624)">
          <path id="Path_546" data-name="Path 546" d="M362.406,15.453c.1,0,.169.019.171.082,0,.088.046.092.2.1.084,0,.311,0,.345.01s.144.032.182.038c.074.012.143.01.145-.014s-.055-.054-.145-.068-.335-.01-.375-.011c-.076-.005-.112-.034-.112-.072s.035-.067.095-.063c.031,0,.09.015.118.017.054.005.1-.034.127-.031s.033.014.032.027c0,.036-.057.047-.154.037-.075-.007-.128,0-.128.017s.027.028.062.031c.094.006.295,0,.385.014.133.022.177.075.175.1,0,.041-.034.064-.08.075a.263.263,0,0,0,.107.033c.011,0,.016.013.015.027-.009.1-.081.187-.129.178s-.129-.077-.128-.1.012-.029.026-.027.048.02.062.023.031-.006.032-.018c0-.028-.034-.055-.088-.064a.608.608,0,0,0-.2,0c.01.027,0,.067-.03.067s-.183,0-.207,0-.166.033-.178.033c-.036,0-.044-.05-.045-.066s0-.015.016-.015.056.006.076.007c.07,0,.179-.019.18-.066,0-.021-.026-.038-.069-.041a.678.678,0,0,0-.239.047l-.262.078c-.059.015-.18.064-.218.067-.055,0-.1-.031-.106-.05s.054-.086.073-.087.054.039.075.037.076-.036.075-.056c0-.059-.2-.082-.207-.171,0-.025.05-.05.086-.052s.061,0,.063.019-.005.036,0,.044.023.029.049.026.064-.023.062-.052-.044-.033-.045-.049S362.331,15.455,362.406,15.453Z" transform="translate(-362.065 -15.437)" fill="#fff"/>
        </g>
        <g id="Group_434" data-name="Group 434" transform="translate(2.9 3.19)">
          <path id="Path_547" data-name="Path 547" d="M362.338,17.65c.081,0,.14.016.141.068,0,.073.037.076.163.08.069,0,.257,0,.286.009s.118.026.15.031c.062.01.118.008.12-.012s-.046-.045-.12-.056a2.968,2.968,0,0,0-.31-.01c-.062,0-.093-.028-.093-.059s.03-.056.079-.053c.027,0,.074.012.1.014.044,0,.085-.028.1-.026s.027.012.027.022c0,.03-.047.039-.128.031-.061-.005-.106,0-.106.014s.022.023.051.026c.078,0,.244,0,.318.011.11.018.146.062.145.08,0,.034-.029.053-.066.062a.212.212,0,0,0,.089.028.019.019,0,0,1,.012.022c-.008.08-.066.156-.106.148a.173.173,0,0,1-.107-.08c0-.016.01-.024.022-.022s.04.017.051.019.026,0,.027-.014-.029-.046-.072-.053a.492.492,0,0,0-.165,0c.007.022,0,.056-.024.056s-.152,0-.172,0-.137.027-.147.028c-.029,0-.036-.042-.036-.055s0-.012.013-.012.046.005.063.006c.057,0,.148-.015.149-.055,0-.018-.021-.031-.057-.033a.577.577,0,0,0-.2.039l-.216.065c-.049.012-.149.052-.181.056s-.086-.026-.087-.041.045-.071.061-.073.045.032.062.031.064-.03.063-.046c0-.049-.164-.067-.171-.141,0-.021.042-.041.072-.043s.051,0,.051.015,0,.029,0,.037.018.023.04.022.053-.019.052-.044-.037-.027-.038-.04S362.275,17.653,362.338,17.65Z" transform="translate(-362.055 -17.639)" fill="#fff"/>
        </g>
        <g id="Group_435" data-name="Group 435" transform="translate(2.898 3.757)">
          <path id="Path_548" data-name="Path 548" d="M362.271,19.853c.064,0,.11.012.111.053,0,.057.029.059.128.063.054,0,.2,0,.224.006s.094.021.118.025c.049.007.093.006.094-.01s-.036-.035-.094-.044a2.4,2.4,0,0,0-.243-.007c-.049,0-.073-.022-.073-.047s.023-.043.062-.041c.02,0,.057.009.076.011.035,0,.067-.022.083-.021s.021.01.021.018-.037.03-.1.024-.082,0-.082.012.017.018.04.02c.061,0,.191,0,.249.009.086.014.115.049.114.063s-.023.041-.052.048a.169.169,0,0,0,.07.022c.007,0,.01.008.009.017-.006.063-.051.121-.083.116s-.084-.05-.083-.063.007-.019.017-.017.032.013.041.015.019,0,.02-.012-.022-.036-.056-.041a.392.392,0,0,0-.129,0c.006.018,0,.044-.02.044s-.119,0-.135,0-.107.022-.115.022c-.023,0-.029-.033-.029-.043s0-.01.01-.01l.05,0c.046,0,.116-.012.116-.042,0-.014-.016-.025-.045-.027a.441.441,0,0,0-.155.03l-.17.051c-.038.01-.117.041-.141.043s-.067-.02-.069-.033.035-.056.048-.057.035.025.049.024.049-.024.049-.037c0-.038-.128-.053-.133-.111,0-.016.032-.032.055-.034s.04,0,.04.012,0,.024,0,.029.015.018.032.017.042-.015.041-.035-.03-.021-.03-.031S362.222,19.855,362.271,19.853Z" transform="translate(-362.05 -19.843)" fill="#fff"/>
        </g>
        <g id="Group_436" data-name="Group 436" transform="translate(2.974 0.855)">
          <path id="Path_549" data-name="Path 549" d="M363.242,8.559c.041,0,.123.112.121.141s-.04.057-.042.089.02.1.018.126a2.02,2.02,0,0,0-.106.313c0,.16.243.322.288.332s.055-.006.059-.046c.011-.082-.186-.263-.176-.5.006-.117.1-.319.239-.3a.1.1,0,0,1,.091.1c-.008.064-.052.168-.055.2-.01.089.031.119.054.123s.028-.031.035-.029.021.035.019.052a.06.06,0,0,1-.068.043.187.187,0,0,1-.142-.191c.008-.093.074-.148.078-.177a.044.044,0,0,0-.036-.048.108.108,0,0,0-.106.055.61.61,0,0,0-.054.176c-.017.292.2.422.186.561a.078.078,0,0,1-.08.072.286.286,0,0,1-.137-.078.208.208,0,0,0-.037.093c-.006.094.108.108.1.181-.011.106-.183.2-.259.23l-.007-.008c.04-.055.014-.1-.023-.087,0-.013,0-.037.014-.041s.051-.031.052-.055-.028-.033-.039-.037l0-.016a.155.155,0,0,1,.122.067.1.1,0,0,0,.015-.049c.008-.135-.177-.038-.174-.19a.118.118,0,0,1,.014-.052c-.044-.022-.073-.013-.119.018a.106.106,0,0,1,.025.055c0,.087-.195.091-.282.146-.043.026-.091.1-.113.1l-.011-.009c-.006-.029.032-.049.029-.091s-.026-.053-.064-.062c-.013-.052.079-.043.075-.091a.068.068,0,0,0-.043-.051l0-.01a.094.094,0,0,1,.036-.012c.051-.005.081.092.138.088a.08.08,0,0,0,.066-.082c0-.036-.034-.085-.036-.129,0-.063.09-.031.089-.077s-.061-.109-.083-.107-.056.047-.1.051a.385.385,0,0,0-.235.094.185.185,0,0,1-.1.05l-.012-.012a.124.124,0,0,0,.052-.1.055.055,0,0,0-.051-.043c0-.005,0-.011,0-.016.044-.008.081-.039.078-.066s-.021-.049-.044-.047l0-.013c.019,0,.067,0,.078.015s.029.076.051.073.017-.03.032-.032c.035,0,.105-.025.1-.066s-.1-.081-.138-.112-.122-.144-.146-.162a.166.166,0,0,0-.136-.025l-.008-.013c.011-.034.094-.019.089-.061,0-.015-.014-.038-.031-.035l0-.018a.3.3,0,0,1,.087-.007.066.066,0,0,0-.048-.049l0-.013c.065-.011.2.022.2.079,0,.03-.023.045-.034.068a.535.535,0,0,0,.265.166c.038,0,.173-.086.173-.119s-.1-.021-.1-.056.1-.051.108-.055.007-.01,0-.014a.882.882,0,0,0-.092-.017.019.019,0,0,1-.017-.017.147.147,0,0,1,0-.037.054.054,0,0,1,.029-.027A1.689,1.689,0,0,1,363.242,8.559Z" transform="translate(-362.345 -8.559)" fill="#fff"/>
        </g>
        <g id="Group_437" data-name="Group 437" transform="translate(1.24 2.645)">
          <path id="Path_550" data-name="Path 550" d="M356.858,17.213c-.624-.209-.989-.5-1.094-.947a.136.136,0,0,0-.091-.094.075.075,0,0,1-.057-.064c0-.087.126-.144.126-.241a.043.043,0,0,0-.031-.046c-.012,0-.04.015-.053.015a.056.056,0,0,1-.054-.062c0-.019.009-.045.009-.055s-.011-.038-.011-.047c0-.068.087-.1.144-.1.09,0,.15.047.15.109,0,.094.021.151.093.151a.093.093,0,0,0,.082-.092c0-.016-.029-.069-.029-.091,0-.043.016-.061.1-.075a6.852,6.852,0,0,1,.715-.051v1.7Zm-.145-1.553a4.659,4.659,0,0,0-.486.042c-.034.005-.038.023-.038.034s0,.058,0,.078c0,.156-.278.195-.278.388,0,.286.379.646.806.808Z" transform="translate(-355.601 -15.518)" fill="#fff"/>
          <path id="Path_551" data-name="Path 551" d="M357.9,15.915l.6.343v-.121l-.6-.342Z" transform="translate(-357.309 -15.723)" fill="#fff"/>
          <path id="Path_552" data-name="Path 552" d="M356.763,17.391l.891.51V17.78l-.891-.51Z" transform="translate(-356.464 -16.819)" fill="#fff"/>
          <path id="Path_553" data-name="Path 553" d="M356.763,18.456l.891.511v-.121l-.891-.51Z" transform="translate(-356.464 -17.611)" fill="#fff"/>
          <path id="Path_554" data-name="Path 554" d="M357.5,16.754l.7.4v-.121l-.7-.4Z" transform="translate(-357.012 -16.346)" fill="#fff"/>
        </g>
      </g>
    </g>
  </g>
</svg>
