<svg xmlns="http://www.w3.org/2000/svg" width="156.625" height="33.678" viewBox="0 0 156.625 33.678">
  <g id="Group_719" data-name="Group 719" transform="translate(-207 -951.255)">
    <g id="Group_291" data-name="Group 291" transform="translate(-4063.78 -1748.639)">
      <path id="Path_335" data-name="Path 335" d="M4423.239,2714.786a.633.633,0,0,1,.122.22c0,.008,0,.015,0,.022.138-.031.278-.059.418-.081a8.139,8.139,0,0,1,1.451-.1s0-.005,0-.008a.584.584,0,0,1,.017-.1,5.034,5.034,0,0,1,1.431-3.676,9.793,9.793,0,0,0-3.465-1.119A4.037,4.037,0,0,1,4423.239,2714.786Z" transform="translate(-130.258 -8.587)" fill="#fff" opacity="0.5"/>
      <path id="Path_336" data-name="Path 336" d="M4312.02,2894.5a11.061,11.061,0,0,0,8.3,0,6.178,6.178,0,0,1-.677-1.924C4318.429,2893.878,4315.662,2894.679,4312.02,2894.5Z" transform="translate(-35.24 -164.649)" fill="#fff" opacity="0.5"/>
      <path id="Path_337" data-name="Path 337" d="M4556,2813.32c0,.006,0,.012,0,.018a11.83,11.83,0,0,1,.134,1.252,5.324,5.324,0,0,1-.175,1.731,5.476,5.476,0,0,0,4.254-1.134,5.623,5.623,0,0,0,2.415-4.631,7.366,7.366,0,0,0-3.688-6.36,4.208,4.208,0,0,1-1.037.968C4559.25,2806.324,4561.813,2811.986,4556,2813.32Z" transform="translate(-243.686 -89.127)" fill="#fff" opacity="0.5"/>
      <path id="Path_338" data-name="Path 338" d="M4494.65,2840.894a5.6,5.6,0,0,1-4.4-.117.594.594,0,0,1,.052.176,6.479,6.479,0,0,1-.5,3.735,8.891,8.891,0,0,0,5.161-.334,5.169,5.169,0,0,0,3.075-2.6,4.07,4.07,0,0,0,.3-1.839,10.5,10.5,0,0,0-.119-1.12c-.531-3.35-2.508-4.569-3.1-4.862-.054-.029-.109-.055-.165-.078a.63.63,0,0,1-.181-.1,4.817,4.817,0,0,1-1.4.288C4496.8,2836.137,4497.34,2839.523,4494.65,2840.894Z" transform="translate(-187.159 -114.379)" fill="#fff" opacity="0.5"/>
      <path id="Path_339" data-name="Path 339" d="M4505.9,2770.927a1.753,1.753,0,0,0,.467.2.631.631,0,0,1-.119,1.244c1.015,1.662.855,4.006-1.566,4.411a6.583,6.583,0,0,0,.837.133,3.558,3.558,0,0,0,1.985-.406l.038-.022a4.549,4.549,0,0,0,2.464-3.647,5.074,5.074,0,0,0-1.666-4.271.624.624,0,0,1-.152-.184l-2.533,2.39C4505.739,2770.827,4505.82,2770.879,4505.9,2770.927Z" transform="translate(-199.874 -58.525)" fill="#fff" opacity="0.5"/>
      <path id="Path_340" data-name="Path 340" d="M4380.277,2878.125c-4.821.421-6.868-1.527-7.69-2.842a4.943,4.943,0,0,0,.875,2.341c1.222,1.671,3.746,2.544,7.506,2.6,2.431.042,5.824-.141,7.239-2.066a4.779,4.779,0,0,0,.677-3.514.63.63,0,0,1,.4-.663,12.733,12.733,0,0,1-1.8-.987S4386.342,2877.6,4380.277,2878.125Z" transform="translate(-86.994 -147.914)" fill="#fff" opacity="0.5"/>
      <path id="Path_341" data-name="Path 341" d="M4315.876,2713.972a7.214,7.214,0,0,0-.118-5.372,5.76,5.76,0,0,0-4.168-3.3,9.613,9.613,0,0,0-4.424-4.493,9.906,9.906,0,0,0-9.715.8,11.054,11.054,0,0,0-5.373-1.587,9.153,9.153,0,0,0-6.866,2.611,3.749,3.749,0,0,0-1.1,2.23c-5.048.937-6.885,3.533-7.53,5.014a5.226,5.226,0,0,0-.348,3.39,6.289,6.289,0,0,0-4.222,3.582,11.662,11.662,0,0,0,.366,11.1,7.646,7.646,0,0,0,2.676,2.468,12.36,12.36,0,0,0,6.037,1.505,9.869,9.869,0,0,0,4.709-1.043c1.549,1.729,4.288,2.633,8.158,2.688.176,0,.353,0,.532,0,2.654,0,5.7-.315,7.416-2.187a7.123,7.123,0,0,0,2.633.425,10.9,10.9,0,0,0,3.709-.652,6.547,6.547,0,0,0,3.54-2.778,5.534,5.534,0,0,0,1.326.157,7.039,7.039,0,0,0,4.168-1.467,6.88,6.88,0,0,0,2.921-5.691A8.618,8.618,0,0,0,4315.876,2713.972Zm-42.438,13.293a10.344,10.344,0,0,1-.3-9.844,4.846,4.846,0,0,1,3.734-2.97,5.3,5.3,0,0,0,4.043,1.539h.019a.631.631,0,1,0,.019-1.262c-1.614-.05-2.753-.506-3.292-1.32a3.447,3.447,0,0,1,.081-3.029c.553-1.268,2.17-3.511,6.795-4.313a.621.621,0,0,0,.182.03.608.608,0,0,0,.073,0h0a.63.63,0,0,0,.552-.7,2.533,2.533,0,0,1,.8-1.91,8,8,0,0,1,5.9-2.2c.307.01.611.035.914.073a9.786,9.786,0,0,1,3.465,1.119,5.04,5.04,0,0,0-1.431,3.675.594.594,0,0,0-.017.1s0,0,0,.008a.63.63,0,0,0,.587.664,9.892,9.892,0,0,1,5.521,2.688.625.625,0,0,0,.415.155h0a.63.63,0,0,0,.416-1.105,11.42,11.42,0,0,0-5.665-2.924,4.02,4.02,0,0,1,1.473-2.77,8.6,8.6,0,0,1,8.872-1.035,8.251,8.251,0,0,1,3.942,4.121.629.629,0,0,0,.481.417,4.587,4.587,0,0,1,3.589,2.651,5.718,5.718,0,0,1-.1,4.793,2.946,2.946,0,0,1-1.344,1.276.63.63,0,1,0,.46,1.174,4.277,4.277,0,0,0,.594-.324,4.194,4.194,0,0,0,1.036-.968,7.364,7.364,0,0,1,3.689,6.36,5.623,5.623,0,0,1-2.415,4.63,5.475,5.475,0,0,1-4.255,1.134,5.3,5.3,0,0,0,.175-1.73,11.7,11.7,0,0,0-.133-1.252c0-.006,0-.012,0-.019a7.681,7.681,0,0,0-3.354-5.533,5.772,5.772,0,0,0,2.439-4.228,6.3,6.3,0,0,0-2.125-5.367.631.631,0,0,0-.952.794.624.624,0,0,0,.152.184,5.074,5.074,0,0,1,1.666,4.271,4.55,4.55,0,0,1-2.464,3.647l-.038.022a3.563,3.563,0,0,1-1.985.406,6.677,6.677,0,0,1-2.355-.673,25.537,25.537,0,0,1-3.646-2.243c-1.8-1.249-3.354-2.329-4.639-2.124a.631.631,0,1,0,.2,1.247c.785-.125,2.278.912,3.722,1.914a26.931,26.931,0,0,0,3.833,2.352,7.813,7.813,0,0,0,2.8.788c.125.009.251.013.376.013.091,0,.18,0,.27-.007a4.84,4.84,0,0,0,1.4-.288.616.616,0,0,0,.18.1,1.67,1.67,0,0,1,.167.078c.6.293,2.573,1.512,3.1,4.862a10.5,10.5,0,0,1,.119,1.12,4.065,4.065,0,0,1-.3,1.839,5.17,5.17,0,0,1-3.074,2.6,8.892,8.892,0,0,1-5.161.334,6.48,6.48,0,0,0,.5-3.735.608.608,0,0,0-.051-.176.629.629,0,0,0-.652-.373.615.615,0,0,0-.152.041.631.631,0,0,0-.4.663,4.78,4.78,0,0,1-.677,3.514c-1.416,1.925-4.809,2.107-7.239,2.066-3.76-.054-6.283-.928-7.506-2.6a4.947,4.947,0,0,1-.875-2.341c-.012-.113-.021-.226-.024-.34-.016-.232-.02-.468-.013-.716.007-.209.018-.419.032-.624.158-2.188.822-5.015,3.093-6.054.02-.009.04-.02.06-.031a6.493,6.493,0,0,1,4.7.131c3.411,1.14,2.842,2.942,2.291,4.682-.3.94-.6,1.912.142,2.486a.631.631,0,0,0,.8-.977,4.235,4.235,0,0,1,.265-1.128c.522-1.651,1.493-4.727-3.093-6.26a8.016,8.016,0,0,0-5.2-.251c-.691-1.129-.937-4.239.243-7.134a6.9,6.9,0,0,1,2.924-3.551l.012-.008h0a5.012,5.012,0,0,1,.881-.388.629.629,0,0,0,.394-.762c0-.007,0-.015,0-.022a.62.62,0,0,0-.122-.22.631.631,0,0,0-.67-.192,6.271,6.271,0,0,0-1.1.486c-.014.007-.026.017-.039.025a8.14,8.14,0,0,0-2.987,3.139,3.663,3.663,0,0,0-1.061-.487,8.115,8.115,0,0,0-1.031-.225l-.021,0a.631.631,0,0,0-.175,1.25,6.736,6.736,0,0,1,.866.188c.7.209.856.439.885.492v0c-1.081,2.8-1.108,6.237-.131,7.965-.081.051-.162.1-.24.158-.66-1.161-2.294-1.833-4.339-1.721-3.948.223-5.966,2.768-6.216,5.192h0a.631.631,0,0,0,.564.69.6.6,0,0,0,.065,0,.63.63,0,0,0,.626-.567c.271-2.624,2.723-3.93,5.032-4.06,1.687-.095,3.054.479,3.281,1.367a9.717,9.717,0,0,0-1.96,5.693c-.016.221-.026.446-.035.674-.008.291,0,.566.014.837a6.253,6.253,0,0,0,.767,2.741,11.062,11.062,0,0,1-8.3,0,8.74,8.74,0,0,1-1.1-.53A6.4,6.4,0,0,1,4273.438,2727.266Z" transform="translate(0 0)" fill="#fff"/>
      <path id="Path_342" data-name="Path 342" d="M4499.483,2779.108a.632.632,0,0,0-.472-.758,1.777,1.777,0,0,1-.468-.2c-.083-.048-.164-.1-.244-.154s-.14-.1-.206-.148a11.048,11.048,0,0,1-.954-.837.631.631,0,0,0-.873.911,12.161,12.161,0,0,0,1.067.934,5.452,5.452,0,0,0,.584.39,2.933,2.933,0,0,0,.809.33.637.637,0,0,0,.141.016v0l.022,0A.632.632,0,0,0,4499.483,2779.108Z" transform="translate(-192.514 -65.75)" fill="#fff"/>
    </g>
    <path id="Path_915" data-name="Path 915" d="M6-4.05V-17.5H1.75V0H13.1V-4.05Zm18.825-9.7v1.55A4.78,4.78,0,0,0,20.9-14.075c-3.425,0-6.175,2.925-6.175,7.2,0,4.25,2.7,7.2,6.2,7.2a4.767,4.767,0,0,0,3.875-1.8V0h4.25l.025-13.75Zm-2.9,10.025a2.909,2.909,0,0,1-2.9-3.15,2.908,2.908,0,0,1,2.9-3.15,2.908,2.908,0,0,1,2.9,3.15A2.9,2.9,0,0,1,21.925-3.725Zm16.6,4.05c3.35,0,6.5-1.975,6.95-5.775H41.1A2.468,2.468,0,0,1,38.525-3.6c-1.775,0-2.9-1.3-2.9-3.275,0-1.925,1.05-3.275,2.925-3.275A2.412,2.412,0,0,1,41.1-8.325h4.375c-.425-3.675-3.5-5.75-6.925-5.75a7.009,7.009,0,0,0-7.225,7.2A7,7,0,0,0,38.525.325ZM56.2-13.75v7.3c0,1.9-.85,2.725-2.475,2.725C52.05-3.725,51.6-4.6,51.6-6.1v-7.65H47.35v8.6c0,3.35,1.875,5.475,4.9,5.475a4.779,4.779,0,0,0,3.95-1.9V0h4.25V-13.75Zm14.975-.325A4.84,4.84,0,0,0,67.2-12.2v-1.55H62.95V0H67.2V-7.3c0-1.9.85-2.725,2.525-2.725,1.725,0,2.175.875,2.175,2.375V0h4.25V-8.6C76.15-11.95,74.275-14.075,71.175-14.075Zm17.2.325v1.55a4.78,4.78,0,0,0-3.925-1.875c-3.425,0-6.175,2.925-6.175,7.2,0,4.25,2.7,7.2,6.2,7.2a4.767,4.767,0,0,0,3.875-1.8V0H92.6l.025-13.75Zm-2.9,10.025a2.909,2.909,0,0,1-2.9-3.15,2.908,2.908,0,0,1,2.9-3.15,2.908,2.908,0,0,1,2.9,3.15A2.9,2.9,0,0,1,85.475-3.725Z" transform="translate(271 977)" fill="#fff"/>
  </g>
</svg>
