<svg xmlns="http://www.w3.org/2000/svg" width="146.459" height="50.907" viewBox="0 0 146.459 50.907">
  <g id="Page-1" transform="translate(-0.636 -0.455)">
    <g id="Nimax" transform="translate(0.636 0.455)">
      <g id="Group">
        <path id="Shape" d="M3.636,73.781H7.992V59.353h.272l8.711,14.428h5.717V53.636H18.337V67.52h0L9.625,53.636H3.636Z" transform="translate(-3.636 -39.208)" fill="#1d1d1b"/>
        <path id="Shape-2" data-name="Shape" d="M184.545,73.781H188.9V58.264h0l5.172,15.517h3.267l5.172-15.517h.272V73.781h4.356V53.636h-6.806L195.707,66.7h0l-4.628-13.067h-6.533Z" transform="translate(-130.372 -39.208)" fill="#1d1d1b"/>
        <path id="Shape-3" data-name="Shape" d="M299.091,73.781h4.9l1.633-4.356h7.895l1.633,4.356h4.9l-8.711-20.145H307.8Zm12.795-8.167h-4.9l2.45-6.261Z" transform="translate(-210.617 -39.208)" fill="#1d1d1b"/>
        <path id="Shape-4" data-name="Shape" d="M396.364,73.781l20.145-20.145H422.5L402.625,73.781Z" transform="translate(-278.761 -39.208)" fill="#1d1d1b"/>
        <path id="Shape-5" data-name="Shape" d="M112.435,17.977l-4.083-2.995-4.083,2.995,1.633-4.9-4.083-2.995h5.172l1.361-4.628,1.633,4.628h5.172l-4.083,2.995Z" transform="translate(-72.418 -5.455)" fill="#1d1d1b"/>
        <path id="Shape-6" data-name="Shape" d="M7.175,150.617H9.081v-8.984H12.62V140H3.636v1.633H7.175Z" transform="translate(-3.636 -99.71)" fill="#1d1d1b"/>
        <path id="Shape-7" data-name="Shape" d="M70.909,150.617h1.906v-4.628h5.445v4.628h1.906V140H78.259v4.083H72.815V140H70.909Z" transform="translate(-50.764 -99.71)" fill="#1d1d1b"/>
        <path id="Shape-8" data-name="Shape" d="M142.727,150.617h7.895v-1.906h-5.989v-2.722h5.445v-1.633h-5.445v-2.722h5.717V140h-7.622Z" transform="translate(-101.076 -99.71)" fill="#1d1d1b"/>
        <path id="Shape-9" data-name="Shape" d="M203.636,151.254h2.178l1.089-2.45h4.9l1.089,2.45h2.45l-4.9-10.345h-1.633Zm4.083-4.083,1.906-4.356,1.633,4.356Z" transform="translate(-143.746 -100.347)" fill="#1d1d1b"/>
        <path id="Shape-10" data-name="Shape" d="M273.539,150.617h1.906v-8.984h3.539V140H270v1.633h3.539Z" transform="translate(-190.237 -99.71)" fill="#1d1d1b"/>
        <path id="Shape-11" data-name="Shape" d="M336.636,151.254h1.906V146.9H339.9l2.722,4.356h2.45l-2.995-4.628A2.917,2.917,0,0,0,344.8,143.9c0-2.45-2.178-2.994-4.356-2.994h-4.083v10.345Zm1.906-6.261V142.27h1.633c1.089,0,2.178.272,2.178,1.361,0,1.361-1.361,1.361-2.45,1.361Z" transform="translate(-236.728 -100.347)" fill="#1d1d1b"/>
        <path id="Shape-12" data-name="Shape" d="M403.636,150.617h7.622v-1.906h-5.717v-2.722h5.172v-1.633h-5.172v-2.722h5.445V140h-7.35Z" transform="translate(-283.856 -99.71)" fill="#1d1d1b"/>
        <path id="Shape-13" data-name="Shape" d="M473.986,140.18a4.753,4.753,0,0,0-3.267-1.089c-2.178,0-4.083,1.089-4.083,3.267,0,3.811,5.445,2.45,5.445,4.628,0,1.089-1.089,1.361-1.906,1.361A2.476,2.476,0,0,1,468,147.258l-1.633,1.361c.817,1.089,2.45,1.361,3.811,1.361,2.178,0,4.083-1.089,4.083-3.267,0-3.811-5.445-2.45-5.445-4.628,0-1.089.817-1.361,1.906-1.361a2.119,2.119,0,0,1,1.906.817Z" transform="translate(-327.8 -99.073)" fill="#1d1d1b"/>
      </g>
      <path id="Shape-14" data-name="Shape" d="M113.636,73.237v-19.6h4.628V73.509h-4.628Z" transform="translate(-80.697 -39.208)" fill="#1d1d1b"/>
      <path id="Shape-15" data-name="Shape" d="M252.722,50.87C217.061,10.036,150.909,22.83,150.909,22.83c73.229-5.717,95.008,28.04,95.008,28.04Z" transform="translate(-106.808 -16.297)" fill="#1d1d1b"/>
    </g>
  </g>
</svg>
