<svg id="Group_543" data-name="Group 543" xmlns="http://www.w3.org/2000/svg" xmlns:xlink="http://www.w3.org/1999/xlink" width="120.718" height="40" viewBox="0 0 120.718 40">
  <defs>
    <clipPath id="clip-path">
      <rect id="Rectangle_511" data-name="Rectangle 511" width="120.718" height="40" fill="#fff"/>
    </clipPath>
  </defs>
  <g id="Group_542" data-name="Group 542" clip-path="url(#clip-path)">
    <path id="Path_606" data-name="Path 606" d="M13,0c.016.152.024.305.05.455q.445,2.538.894,5.075c.012.069.016.14.026.233H6.078c-.009.745,0,1.47,0,2.231.6,0,1.18,0,1.761,0h3.515v5.731H6.077c-.006.683,0,1.342,0,2.029h8.6l-1.631,5.936h-13c-.009-.064-.022-.125-.025-.186,0-.089,0-.178,0-.268Q.011,10.8.01.364C.01.243,0,.121,0,0Z" transform="translate(-0.001)" fill="#fff"/>
    <path id="Path_607" data-name="Path 607" d="M1745.019,0c0,.073-.012.145-.012.218q0,3.5,0,7.005v.256a1.291,1.291,0,0,0,.149-.107,5.059,5.059,0,0,1,3.095-1.432,6.729,6.729,0,0,1,2.393.113,3.944,3.944,0,0,1,3.032,2.911,7.8,7.8,0,0,1,.291,2.234q0,5.132,0,10.265c0,.071-.008.142-.012.226h-5.524v-.3c0-2.692,0-5.384-.006-8.076a5.65,5.65,0,0,0-.125-1.18,1.212,1.212,0,0,0-1.186-1.065,1.668,1.668,0,0,0-1.569.52,2.111,2.111,0,0,0-.479,1.126,5.714,5.714,0,0,0-.057.8q-.006,3.928,0,7.857v.285c-.182.06-5.031.084-5.524.028,0-.089-.008-.183-.008-.277q0-3.442,0-6.884,0-7.1,0-14.205c0-.105,0-.211,0-.316Z" transform="translate(-1697.121)" fill="#fff"/>
    <path id="Path_608" data-name="Path 608" d="M4306.456,247.87c-.07.037-.144.069-.21.112l-8.531,5.53c-.072.047-.142.1-.238.167a3.186,3.186,0,0,0,.952.279,7.006,7.006,0,0,0,3.783-.513,11.088,11.088,0,0,0,2.609-1.541c.058-.045.115-.09.174-.133a.313.313,0,0,1,.072-.021c.022.225.046.446.065.667q.166,1.926.33,3.851c.009.113.006.228.024.339.022.137-.041.2-.151.267a12.534,12.534,0,0,1-4.14,1.5,13.335,13.335,0,0,1-2.883.189,9.167,9.167,0,0,1-4.843-1.481,7.2,7.2,0,0,1-3.17-5.033,8.027,8.027,0,0,1,4.329-8.545,9,9,0,0,1,6.312-.759,7.475,7.475,0,0,1,5.172,4.213c.124.252.23.512.345.768Zm-6.019-.644a2.012,2.012,0,0,0-.964-.528,3.416,3.416,0,0,0-3.093.751,3.075,3.075,0,0,0-1.174,2.721c.012.149.047.3.078.492l5.152-3.436" transform="translate(-4185.738 -236.581)" fill="#fff"/>
    <path id="Path_609" data-name="Path 609" d="M3480.642,1171.023l-.378-.073a3.332,3.332,0,0,1-2.625-2.243,4.555,4.555,0,0,1-.093-2.963,3.533,3.533,0,0,1,2.881-2.552,3.594,3.594,0,0,1,2.482.308.8.8,0,0,0,.109.039,1.109,1.109,0,0,0-.558-1.375,2.552,2.552,0,0,0-.949-.187,15.617,15.617,0,0,0-2.815.126c-.07.01-.141.007-.235.012.147-.889.291-1.756.438-2.64.177-.025.343-.054.51-.072a17.643,17.643,0,0,1,3.617-.1,8.919,8.919,0,0,1,1.315.221,2.611,2.611,0,0,1,2.049,2.243,8.719,8.719,0,0,1,.133,1.573q.006,3.6,0,7.2v.252h-3.157v-.736c-.076.055-.115.078-.148.108a3.206,3.206,0,0,1-1.832.824.517.517,0,0,0-.112.039Zm.278-4.221a1.18,1.18,0,0,0,1.161,1.237,1.217,1.217,0,0,0,1.191-1.2,1.236,1.236,0,0,0-1.187-1.258,1.21,1.21,0,0,0-1.165,1.22" transform="translate(-3392.684 -1131.023)" fill="#fff"/>
    <path id="Path_610" data-name="Path 610" d="M3633.737,243.1l-1.689,2.288c.055.083.106.163.16.242a8.272,8.272,0,0,1,1.29,2.916,5.724,5.724,0,0,1-1.144,4.964c-.1.134-.213.264-.333.413.044.073.088.147.136.22a7.561,7.561,0,0,1,1.03,2.192,5.631,5.631,0,0,1-.308,3.687,6.152,6.152,0,0,1-3.188,3.232,8.552,8.552,0,0,1-3.19.789,11.923,11.923,0,0,1-5.263-.835,9.08,9.08,0,0,1-2.929-1.883,2.581,2.581,0,0,0-.214-.165l2.871-3.776c.09.072.165.131.239.192a7.8,7.8,0,0,0,2.609,1.475,5,5,0,0,0,2.136.226,2.6,2.6,0,0,0,1.138-.4,1.677,1.677,0,0,0,.785-1.733c-.031-.231-.081-.46-.128-.72l-.687.084a8.536,8.536,0,0,1-4.17-.4,6.378,6.378,0,0,1-4.238-5.174,6.763,6.763,0,0,1,5-7.814,8.626,8.626,0,0,1,4.448-.063,1.734,1.734,0,0,0,.409.043q2.458,0,4.916,0Zm-5.684,6.687a1.734,1.734,0,0,0-.387-1.1,2.19,2.19,0,0,0-3.063-.389,1.862,1.862,0,0,0-.125,2.856,2.189,2.189,0,0,0,3.263-.383,1.75,1.75,0,0,0,.313-.984" transform="translate(-3530.009 -236.887)" fill="#fff"/>
    <path id="Path_611" data-name="Path 611" d="M3009.238,257.378h-5.517V241.856c.168-.051,5-.071,5.42-.019v1.444c.091-.083.139-.121.181-.165a4.978,4.978,0,0,1,3.021-1.478,6.692,6.692,0,0,1,2.679.146,3.921,3.921,0,0,1,2.8,2.607,6.878,6.878,0,0,1,.377,2.317q.011,5.219,0,10.437c0,.071-.006.142-.01.228h-5.515c0-.1-.006-.2-.006-.3,0-2.644,0-5.288,0-7.931,0-.387-.054-.775-.091-1.161a1.485,1.485,0,0,0-.077-.306,1.21,1.21,0,0,0-1.085-.909,2.826,2.826,0,0,0-.581-.018,1.558,1.558,0,0,0-1.378,1.071,3.148,3.148,0,0,0-.207,1.142q-.005,1.46,0,2.919,0,2.591,0,5.182Z" transform="translate(-2930.593 -235.687)" fill="#fff"/>
    <path id="Path_612" data-name="Path 612" d="M2813.864,976.4c.752,5.345,1.5,10.662,2.251,16h-4.2l-.87-7.223-.051-.011c-1,2.421-1.976,4.849-2.992,7.319l-3.248-7.307a6.272,6.272,0,0,0-.182,1.177c-.048.4-.081.807-.122,1.21s-.085.806-.127,1.209-.079.79-.12,1.185-.084.806-.126,1.209-.083.8-.124,1.2c-.183.054-3.843.07-4.193.017l1.967-15.968h3.327l2.756,7.087c.05-.106.085-.17.112-.237q.9-2.271,1.8-4.542.416-1.051.833-2.1c.086-.217.087-.219.31-.219h3Z" transform="translate(-2731.595 -952.628)" fill="#fff"/>
    <path id="Path_613" data-name="Path 613" d="M2377.854,249.49c.19-.026.365-.053.541-.072a32.767,32.767,0,0,1,5.245-.2,10.217,10.217,0,0,1,2.845.476,3.663,3.663,0,0,1,1.953,1.413,4.423,4.423,0,0,1,.629,1.646,9.844,9.844,0,0,1,.156,1.863v10.2c-1.569.008-3.121,0-4.7,0V263.8a1.444,1.444,0,0,0-.167.1,5.264,5.264,0,0,1-4.065,1.173,5.381,5.381,0,0,1-2.043-.587,4.881,4.881,0,0,1-2.6-3.642,5.741,5.741,0,0,1,.168-2.812,4.894,4.894,0,0,1,3.073-3.165,7.136,7.136,0,0,1,3.033-.445,5.258,5.258,0,0,1,1.869.5c.066.03.133.059.2.087a.161.161,0,0,0,.048,0,1.478,1.478,0,0,0-.842-1.885,4.969,4.969,0,0,0-.991-.226,15.663,15.663,0,0,0-2.7-.027c-.744.045-1.486.125-2.229.188a.32.32,0,0,1-.074-.022c.213-1.171.427-2.346.647-3.555m4.842,11.6a1.65,1.65,0,0,0,.68-.163,1.605,1.605,0,0,0,.736-2.376,1.805,1.805,0,0,0-2.572-.436,1.623,1.623,0,0,0-.229,2.436,1.8,1.8,0,0,0,1.385.539" transform="translate(-2317.714 -243.121)" fill="#fff"/>
    <path id="Path_614" data-name="Path 614" d="M591.3,258.823l-5.254-7.508c.2-.053,6.164-.074,6.675-.027l1.42,3.378.053,0c.04-.084.081-.168.119-.253.437-.976.876-1.951,1.307-2.93a.3.3,0,0,1,.32-.219c2,.007,4.007,0,6.01,0,.063,0,.127.006.236.012l-4.906,7.569,5.193,7.982h-6.5l-1.708-3.872-.052,0-1.459,3.88h-6.6c1.719-2.684,3.429-5.337,5.146-8.016" transform="translate(-571.778 -245.145)" fill="#fff"/>
    <path id="Path_615" data-name="Path 615" d="M1200.8,254.8v4.975c-.08.022-.163.048-.247.067a12.623,12.623,0,0,1-3.673.282,8.533,8.533,0,0,1-3.7-1.078,7.436,7.436,0,0,1-3.694-5.121,8.536,8.536,0,0,1,.066-4.07,7.181,7.181,0,0,1,3.813-4.65,9.583,9.583,0,0,1,3.316-.979,10.735,10.735,0,0,1,2.837.009c.424.062.843.154,1.277.235v5.1l-.324-.069a9.732,9.732,0,0,0-1.871-.285,4.944,4.944,0,0,0-1.934.3,2.619,2.619,0,0,0-1.716,2.761,2.81,2.81,0,0,0,2.234,2.565,5.943,5.943,0,0,0,2.149.124c.427-.039.852-.109,1.278-.163a1.7,1.7,0,0,1,.192,0" transform="translate(-1160.314 -238.189)" fill="#fff"/>
    <path id="Path_616" data-name="Path 616" d="M2292.942,983.4c.011-.169.026-.28.026-.391q0-2.177,0-4.354c0-.065,0-.13,0-.195.009-.19.027-.215.211-.215q1.533,0,3.066,0c.2,0,.214.023.221.23,0,.057,0,.114,0,.17q0,7.528,0,15.057c0,.455.016.426-.422.426h-2.7c-.057,0-.114,0-.17,0-.173-.01-.192-.031-.206-.2-.009-.11-.018-.219-.03-.374-.113.056-.191.091-.265.132a5.188,5.188,0,0,1-1.563.587,4.981,4.981,0,0,1-3.624-.641,5.643,5.643,0,0,1-2.661-3.818,6.085,6.085,0,0,1,.8-4.648,5.3,5.3,0,0,1,3.4-2.456,5.014,5.014,0,0,1,3.6.526c.091.049.184.094.325.166m-2.244,7.258a3.7,3.7,0,0,0,.528-.127,2.352,2.352,0,0,0,1.419-2.533,1.979,1.979,0,0,0-1.6-1.636,2.006,2.006,0,0,0-2.154.787,2.153,2.153,0,0,0,.177,2.752,2.046,2.046,0,0,0,1.631.758" transform="translate(-2229.055 -954.426)" fill="#fff"/>
    <path id="Path_617" data-name="Path 617" d="M1856.132,1167.13a1.339,1.339,0,0,0,.142-.113,3.408,3.408,0,0,1,2.116-1.038,4.391,4.391,0,0,1,1.922.153,2.675,2.675,0,0,1,1.712,1.642,4.718,4.718,0,0,1,.32,1.735c.011,2.489.006,4.979.006,7.468a.345.345,0,0,1-.007.144.263.263,0,0,1-.121.123.564.564,0,0,1-.193.009h-3.115l-.17,0a.135.135,0,0,1-.15-.151c0-.073,0-.146,0-.219,0-1.857,0-3.714,0-5.57a4.425,4.425,0,0,0-.1-.915.96.96,0,0,0-1.12-.811,1.137,1.137,0,0,0-1.1.841,3.152,3.152,0,0,0-.148,1.053q0,2.688,0,5.376c0,.409.037.4-.395.4h-2.993l-.219,0a.135.135,0,0,1-.151-.15c0-.057,0-.114,0-.17q0-5.242,0-10.484c0-.325,0-.326.321-.326h3.066c.315,0,.315,0,.316.307q0,.338,0,.676Z" transform="translate(-1807.269 -1137.552)" fill="#fff"/>
    <path id="Path_618" data-name="Path 618" d="M1434.521,1166.564a1.148,1.148,0,0,0-.588-1.481,3.047,3.047,0,0,0-.611-.153,9.079,9.079,0,0,0-1.82-.029l-1.476.119a1.1,1.1,0,0,1-.121-.006c.019-.143.032-.277.054-.408q.163-.957.331-1.913c.035-.2.033-.211.24-.24a10.883,10.883,0,0,1,1.086-.119c.858-.031,1.718-.065,2.576-.046a5.862,5.862,0,0,1,2.137.4,2.445,2.445,0,0,1,1.427,1.5,3.952,3.952,0,0,1,.238,1.235q.036,1.555.045,3.111c.007,1.613,0,3.226,0,4.84,0,.073,0,.146,0,.219a.117.117,0,0,1-.123.123c-.048,0-.1,0-.146,0h-2.579c-.04,0-.081,0-.121,0-.114,0-.16-.058-.161-.166,0-.13,0-.26,0-.389a1.534,1.534,0,0,0-.047-.216c-.093.073-.156.119-.216.17a3.325,3.325,0,0,1-2.092.8,3.667,3.667,0,0,1-2.03-.474,3.386,3.386,0,0,1-1.571-2.054,4.562,4.562,0,0,1,.043-2.821,3.468,3.468,0,0,1,2.375-2.252,4.6,4.6,0,0,1,1.73-.193,3.366,3.366,0,0,1,1.164.327c.085.04.174.072.262.108m-.972,4.476a1.263,1.263,0,1,0-.026-2.525,1.257,1.257,0,0,0-1.223,1.279,1.235,1.235,0,0,0,1.248,1.247" transform="translate(-1393.961 -1133.987)" fill="#fff"/>
    <path id="Path_619" data-name="Path 619" d="M4176.892,1028.929c-.009.078-.017.118-.017.158,0,.94,0,1.881.007,2.821a2.545,2.545,0,0,0,.069.553.7.7,0,0,0,.7.6c.217.016.437,0,.655.006h.271l-.684,3.959c-.251.035-.49.08-.73.1a7.438,7.438,0,0,1-1.892-.043,2.178,2.178,0,0,1-1.992-2.008,10.859,10.859,0,0,1-.129-1.792c-.007-1.346,0-2.692,0-4.037v-.3h-.652c-.053-.19-.071-2.988-.024-3.416h.652c.01-.088.023-.15.023-.211,0-.292,0-.584,0-.875a.218.218,0,0,1,.112-.22q1.761-1.034,3.521-2.073a.357.357,0,0,1,.09-.018v3.385h1.383v3.42Z" transform="translate(-4070.865 -997.24)" fill="#fff"/>
    <path id="Path_620" data-name="Path 620" d="M3889.7,1157.148h3.685v1.064l.044.032a2.754,2.754,0,0,1,2.423-1.212v3.952c-.108,0-.2-.005-.3,0a5.731,5.731,0,0,0-.7.061,1.7,1.7,0,0,0-1.4,1.46,4.106,4.106,0,0,0-.058.7c0,1.7,0,3.406,0,5.108v.324c-1.235.012-2.456,0-3.67.006-.059-.182-.074-11.189-.018-11.5" transform="translate(-3794.966 -1128.863)" fill="#fff"/>
  </g>
</svg>
