<svg xmlns="http://www.w3.org/2000/svg" xmlns:xlink="http://www.w3.org/1999/xlink" width="150" height="39.444" viewBox="0 0 150 39.444">
  <defs>
    <linearGradient id="linear-gradient" x1="0.228" y1="0.081" x2="0.772" y2="0.919" gradientUnits="objectBoundingBox">
      <stop offset="0" stop-color="#d6d6d6"/>
      <stop offset="0.03" stop-color="#e0e0e0"/>
      <stop offset="0.09" stop-color="#ebebeb"/>
      <stop offset="0.15" stop-color="#efefef"/>
      <stop offset="0.64" stop-color="#efefef"/>
      <stop offset="0.73" stop-color="#efefef"/>
      <stop offset="0.8" stop-color="#eaeaea"/>
      <stop offset="0.88" stop-color="#dadada"/>
      <stop offset="0.98" stop-color="silver"/>
      <stop offset="1" stop-color="#bababa"/>
    </linearGradient>
    <linearGradient id="linear-gradient-2" x1="-0.019" y1="0.419" x2="1.549" y2="0.84" gradientUnits="objectBoundingBox">
      <stop offset="0.1" stop-color="#641724"/>
      <stop offset="0.21" stop-color="#711825"/>
      <stop offset="0.42" stop-color="#941b26"/>
      <stop offset="0.58" stop-color="#b31e28"/>
      <stop offset="1" stop-color="#d2202f"/>
    </linearGradient>
    <linearGradient id="linear-gradient-3" x1="0.149" y1="1.241" x2="1.614" y2="1.241" gradientUnits="objectBoundingBox">
      <stop offset="0.08" stop-color="#321724"/>
      <stop offset="0.32" stop-color="#471825" stop-opacity="0.871"/>
      <stop offset="0.66" stop-color="#801b29" stop-opacity="0.51"/>
      <stop offset="1" stop-color="#d2202f" stop-opacity="0"/>
    </linearGradient>
    <linearGradient id="linear-gradient-4" x1="0.899" y1="6.099" x2="0.899" y2="2.018" gradientUnits="objectBoundingBox">
      <stop offset="0" stop-color="#95191d" stop-opacity="0"/>
      <stop offset="1" stop-color="#4a191d"/>
    </linearGradient>
    <linearGradient id="linear-gradient-5" y1="0.5" x2="1.134" y2="0.5" gradientUnits="objectBoundingBox">
      <stop offset="0" stop-color="#b59f2c"/>
      <stop offset="0.87" stop-color="#f0eec5"/>
    </linearGradient>
    <linearGradient id="linear-gradient-6" x1="0.15" y1="0.77" x2="0.954" y2="0.151" xlink:href="#linear-gradient-5"/>
    <linearGradient id="linear-gradient-7" x1="0.119" y1="0.837" x2="0.961" y2="0.084" gradientUnits="objectBoundingBox">
      <stop offset="0" stop-color="#25130e"/>
      <stop offset="0.02" stop-color="#2a1711"/>
      <stop offset="0.46" stop-color="#ac8864"/>
      <stop offset="0.66" stop-color="#e0b585"/>
      <stop offset="0.8" stop-color="#e9c08f"/>
      <stop offset="1" stop-color="#fbd6a4"/>
    </linearGradient>
    <linearGradient id="linear-gradient-8" x1="0.874" y1="0.158" x2="-0.09" y2="0.869" gradientUnits="objectBoundingBox">
      <stop offset="0" stop-color="#e0b585" stop-opacity="0"/>
      <stop offset="0.03" stop-color="#d3aa7d" stop-opacity="0.071"/>
      <stop offset="0.29" stop-color="#73573f" stop-opacity="0.58"/>
      <stop offset="0.55" stop-color="#39251a" stop-opacity="0.89"/>
      <stop offset="0.81" stop-color="#26140e"/>
      <stop offset="1" stop-color="#25130e"/>
    </linearGradient>
    <linearGradient id="linear-gradient-9" x1="0.068" y1="0.443" x2="1.285" y2="0.558" gradientUnits="objectBoundingBox">
      <stop offset="0.07" stop-color="#25130e"/>
      <stop offset="0.79" stop-color="#5a321e" stop-opacity="0.4"/>
    </linearGradient>
    <linearGradient id="linear-gradient-10" x1="0.077" y1="0.607" x2="0.98" y2="0.211" gradientUnits="objectBoundingBox">
      <stop offset="0.21" stop-color="#e0b585" stop-opacity="0.2"/>
      <stop offset="0.49" stop-color="#a8805e" stop-opacity="0.561"/>
      <stop offset="0.77" stop-color="#7a563f" stop-opacity="0.851"/>
      <stop offset="0.96" stop-color="#6a4634" stop-opacity="0.961"/>
    </linearGradient>
    <linearGradient id="linear-gradient-11" x1="-0.066" y1="0.5" x2="1.044" y2="0.5" gradientUnits="objectBoundingBox">
      <stop offset="0" stop-color="#5a321e" stop-opacity="0.102"/>
      <stop offset="0.14" stop-color="#512c1b" stop-opacity="0.388"/>
      <stop offset="0.35" stop-color="#462617" stop-opacity="0.729"/>
      <stop offset="0.56" stop-color="#3f2215" stop-opacity="0.929"/>
      <stop offset="0.78" stop-color="#3d2114"/>
    </linearGradient>
    <linearGradient id="linear-gradient-12" x1="-0.001" y1="0.5" x2="1" y2="0.5" gradientUnits="objectBoundingBox">
      <stop offset="0" stop-color="#5a321e" stop-opacity="0.102"/>
      <stop offset="0.38" stop-color="#402316" stop-opacity="0.388"/>
      <stop offset="1" stop-color="#25130e" stop-opacity="0.698"/>
    </linearGradient>
    <linearGradient id="linear-gradient-13" y1="0.5" x2="1" y2="0.5" gradientUnits="objectBoundingBox">
      <stop offset="0" stop-color="#25130e" stop-opacity="0.2"/>
      <stop offset="0.53" stop-color="#25130e" stop-opacity="0.69"/>
      <stop offset="1" stop-color="#25130e"/>
    </linearGradient>
    <radialGradient id="radial-gradient" cx="0.952" cy="-0.27" r="1.604" gradientTransform="matrix(0.602, -0.193, 0.086, 0.711, 0.404, 0.105)" gradientUnits="objectBoundingBox">
      <stop offset="0.39" stop-color="#47210e"/>
      <stop offset="0.58" stop-color="#4d2713" stop-opacity="0.961"/>
      <stop offset="0.71" stop-color="#603922" stop-opacity="0.831"/>
      <stop offset="0.82" stop-color="#81593b" stop-opacity="0.62"/>
      <stop offset="0.92" stop-color="#af865f" stop-opacity="0.322"/>
      <stop offset="1" stop-color="#e0b585" stop-opacity="0"/>
    </radialGradient>
    <linearGradient id="linear-gradient-14" x1="0.067" y1="0.768" x2="1.052" y2="0.189" gradientUnits="objectBoundingBox">
      <stop offset="0.14" stop-color="#5a321e" stop-opacity="0.302"/>
      <stop offset="1" stop-color="#25130e" stop-opacity="0.898"/>
    </linearGradient>
  </defs>
  <g id="Group_517" data-name="Group 517" transform="translate(4793.293 17910.701)">
    <g id="compare-the-market" transform="translate(-4793.292 -17910.637)">
      <path id="Path_582" data-name="Path 582" d="M684.5,192.163a11.726,11.726,0,0,1-1.248-.073v2.146h-3.036V180.1h2.476l.236,1.2a5.006,5.006,0,0,1,3.277-1.46c2.827,0,4.2,2.544,4.2,5.677,0,4.661-2.5,6.643-5.891,6.643m.848-9.989a3.5,3.5,0,0,0-2.1.99v6.6a3.793,3.793,0,0,0,1.414.235c1.529,0,2.615-1.249,2.615-4.052,0-2.427-.728-3.77-1.932-3.77m-40.8,10.283c-3.183,0-4.8-2.025-4.8-6.126,0-3.835,2-6.457,5.16-6.457a4.42,4.42,0,0,1,3.473,1.519l-1.086,1.592a2.907,2.907,0,0,0-2-.8c-1.423,0-2.339,1.3-2.339,3.834,0,2.942.8,4.1,2.194,4.1a3.671,3.671,0,0,0,2.556-1.013l.942,1.591a5.566,5.566,0,0,1-4.1,1.761m9.766.02c-3.328,0-5.329-1.615-5.329-6.053,0-4.459,2.242-6.555,5.836-6.555,3.328,0,5.328,1.615,5.328,6.028,0,4.485-2.242,6.582-5.835,6.582m.219-10.32c-1.425,0-2.367.989-2.367,3.736,0,3.4.845,4.291,2.437,4.291,1.422,0,2.363-.988,2.363-3.737,0-3.4-.868-4.293-2.436-4.293m23.777,10.054h-3.111c0-2.436.073-4.919.073-6.318,0-2.894-.531-3.545-1.567-3.545a4.364,4.364,0,0,0-2.291,1.085,10.057,10.057,0,0,1,.121,1.808v6.969h-3.087V185.9c0-2.845-.53-3.545-1.543-3.545a4.137,4.137,0,0,0-2.17.989v8.872h-3.114V180.136h2.556l.218,1.277a5.318,5.318,0,0,1,3.569-1.543,3.063,3.063,0,0,1,2.942,1.736,5.8,5.8,0,0,1,3.86-1.736c2.363,0,3.617,1.543,3.617,5.449,0,1.494-.073,4.244-.073,6.9m20.809,0-.219-1.229a5.378,5.378,0,0,1-3.688,1.495c-2.435,0-3.738-1.205-3.738-3.447,0-2.509,2-4.172,6.221-4.172h.747v-.915c0-1.23-.7-1.833-2.242-1.833a11.389,11.389,0,0,0-3.666.724l-.41-1.881A12.048,12.048,0,0,1,697,179.87c3.087,0,4.509,1.47,4.509,3.761v8.584Zm-.675-5.473h-.917c-2.363,0-3.014.8-3.014,1.905a1.479,1.479,0,0,0,1.615,1.639,3.74,3.74,0,0,0,2.315-1.061Zm11.743-3.858a3.7,3.7,0,0,0-1.063-.169c-.675,0-1.253.458-2.339,1.832v7.668h-3.109V180.136h2.556l.241,1.881c1.229-1.615,2.049-2.122,2.918-2.122a2.768,2.768,0,0,1,1.181.265Zm3.474,3.91v.168c0,2.219.988,3.16,2.7,3.16a12.855,12.855,0,0,0,3.933-.7l.437,1.783a10.838,10.838,0,0,1-4.967,1.278c-3.184,0-5.257-1.567-5.257-5.98,0-4.316,2.073-6.628,5.473-6.628,3.087,0,5.137,1.736,4.823,6.919Zm4.146-1.977c0-1.93-.674-2.87-1.977-2.87-1.326,0-2.049,1.229-2.146,2.918h4.123Z" transform="translate(-594.277 -175.771)" fill="#1d1d1b"/>
      <circle id="Ellipse_2530" data-name="Ellipse 2530" cx="19.69" cy="19.69" r="19.69" transform="translate(0 0)" fill="url(#linear-gradient)"/>
      <path id="Path_583" data-name="Path 583" d="M141.323,426a21.6,21.6,0,0,1-1.473,7.073,19.719,19.719,0,0,0,17.763,1.111A27.278,27.278,0,0,0,141.323,426Z" transform="translate(-130.136 -396.409)" fill="url(#linear-gradient-2)"/>
      <path id="Path_584" data-name="Path 584" d="M154.993,426a19.888,19.888,0,0,1-.453,3.668,22.349,22.349,0,0,1,13.34,5.626,19.583,19.583,0,0,0,3.4-1.111A27.282,27.282,0,0,0,154.993,426Z" transform="translate(-143.805 -396.409)" opacity="0.55" fill="url(#linear-gradient-3)"/>
      <path id="Path_585" data-name="Path 585" d="M160.34,517.248a19.6,19.6,0,0,0,8.242,1.945C166.751,515.732,163.52,514.26,160.34,517.248Z" transform="translate(-149.202 -479.82)" fill="url(#linear-gradient-4)"/>
      <path id="Path_586" data-name="Path 586" d="M279.81,396.283a7.8,7.8,0,0,0-5.01.738l.013.006c2.633,1.186,1.806,2.5,2.663,4.837a26.95,26.95,0,0,1,5.713,4.546,19.616,19.616,0,0,0,3.309-1.822.018.018,0,0,0-.006-.015C284.644,398.832,282.191,396.734,279.81,396.283Z" transform="translate(-255.712 -368.633)" fill="url(#linear-gradient-5)"/>
      <path id="Path_587" data-name="Path 587" d="M166.49,386.329l-.013-.006a24.07,24.07,0,0,0-8.087-1.662,15.089,15.089,0,0,1,.186,2.867,27.1,27.1,0,0,1,9.611,3.089q.49.266.966.549C168.3,388.833,169.122,387.516,166.49,386.329Z" transform="translate(-147.388 -357.936)" fill="url(#linear-gradient-6)"/>
      <path id="Path_588" data-name="Path 588" d="M111.143,90.949s-1.589.172-2.317.2a18.085,18.085,0,0,1-2.535.027,6.065,6.065,0,0,1-3.705-2.991c0-.007-.007-.013-.01-.019a.213.213,0,0,0-.278-.119c-.173.05-.445.213-.927.417l-.039.016h0a9.878,9.878,0,0,1-1.174.4c-1.855.509-3.751.586-6.343,1.885A10.756,10.756,0,0,0,88.426,96.2c-1.727,4.376.252,7.536,2.6,9.586a5.154,5.154,0,0,1,1.651,2.848,24.07,24.07,0,0,1,8.087,1.662,7.8,7.8,0,0,1,4.928-.753,3.293,3.293,0,0,1,.179-3.595,4.67,4.67,0,0,1,.912-1.155c-.129-.044-.365-.06-.426-.243a11.284,11.284,0,0,0,1.86-2.194.321.321,0,0,0,.022-.04c.66-1.4,1.158-2.542,1.158-2.542,1.832-1.7,3.007-3.056,3.415-4.266C114.707,94.985,115.064,90.4,111.143,90.949Z" transform="translate(-81.675 -81.914)" fill="url(#linear-gradient-7)"/>
      <path id="Path_589" data-name="Path 589" d="M108.707,216.385v.012a11.057,11.057,0,0,1-1.905,2.275l-.006,0c.061.183.3.2.426.243a4.67,4.67,0,0,0-.912,1.155,3.279,3.279,0,0,0-.183,3.588l0,.007h0l-.044-.008-.053-.009a.289.289,0,0,1-.055-.008l-.117-.017-.083-.012-.145-.017h-.024l-.1-.012c-.081-.008-.162-.013-.242-.019a7.833,7.833,0,0,0-1.777.09h-.008c-.1.017-.208.037-.307.058a7.627,7.627,0,0,0-.9.246c-.147.051-.289.106-.427.164-.075.031-.149.063-.221.1s-.139.064-.208.1l-.015.008q-.1.049-.2.1c-.089-.038-.178-.075-.267-.111l-.045-.018-.251-.1-.065-.025c-.069-.03-.139-.056-.213-.08l-.1-.033-.248-.086-.3-.1-.059-.019q-.29-.092-.579-.174l-.058-.016c-.087-.024-.174-.049-.26-.069l-.031-.008-.254-.066h-.008l-.3-.074-.053-.013-.261-.06-.022,0c-.1-.022-.2-.044-.3-.064l-.018,0c-.286-.06-.566-.115-.838-.163l-.04-.007-.251-.043h-.017l-.231-.038h-.026l-.181-.028h-.01L95.764,223l-.047-.006-.129-.018-.047-.006-.16-.022h-.006l-.16-.02H95.2l-.139-.017-.024,0-.322-.035H94.7l-.2-.019h-.015l-.073-.007-.038,0-.1-.008h-.008l-.073-.006h-.028L94,222.815h-.01l-.18-.013-.076,0h-.01l-.065,0-.069,0h-.465c-.012-.051-.026-.1-.039-.151-.019-.073-.04-.144-.063-.216-.042-.139-.09-.272-.139-.4a.069.069,0,0,0-.007-.019,3.881,3.881,0,0,0-.272-.587l-.039-.069-.036-.064c-.033-.06-.043-.077-.08-.134q-.089-.146-.185-.285c-.038-.053-.076-.107-.115-.16l-.014-.019a4.437,4.437,0,0,0-.323-.391c-.06-.069-.122-.132-.186-.2q-.121-.123-.249-.238c-.09-.081-.18-.163-.269-.247l-.017-.015c-.088-.083-.175-.168-.261-.255l0,0v0q-.131-.133-.259-.27v0c-.087-.093-.172-.188-.256-.284v0c-.063-.073-.126-.147-.187-.222a7.916,7.916,0,0,1-1.837-4.182,8.137,8.137,0,0,1,.417-3.454v0c.026-.077.052-.154.08-.231v-.007c-.676,6.445,3.418,7.612,7.573,7.2a8.372,8.372,0,0,1-.857.719c-.028.021-.032.076.01.083a5.844,5.844,0,0,0,3.279-.752,6.014,6.014,0,0,1-.722.824.045.045,0,0,0,.032.077,7.078,7.078,0,0,0,3.959-1.837q-.089.265-.176.528a.044.044,0,0,0,.055.056,5.66,5.66,0,0,0,2.633-1.9,1.951,1.951,0,0,1,2.871-.366Z" transform="translate(-82.114 -196.036)" fill="url(#linear-gradient-8)"/>
      <path id="Path_590" data-name="Path 590" d="M119.619,161.057a2.421,2.421,0,0,1-.522-1.7c-.2.106-.384.222-.581.324a.046.046,0,0,1-.069-.04,6.243,6.243,0,0,1,.531-1.6,6.446,6.446,0,0,0-.768.172.046.046,0,0,1-.051-.069,5.224,5.224,0,0,1,2.7-1.907l.025-.056a.57.57,0,0,0,.069-.347v-.013c-.295-1.152-2.7-.174-3.829,1.167a5.1,5.1,0,0,0-1.025,4.371,3.238,3.238,0,0,0,2.715,2.758,3.08,3.08,0,0,0,.932-.058l.033-.008a2.754,2.754,0,0,0,.648-.24,1.648,1.648,0,0,0,.813-1.914C120.651,161.677,120.034,161.607,119.619,161.057Z" transform="translate(-107.921 -144.519)" fill="url(#linear-gradient-9)"/>
      <path id="Path_591" data-name="Path 591" d="M362.291,131.675c0-.069-.007-.144-.014-.217s-.017-.133-.028-.2c-.008-.04-.015-.081-.024-.121a2.4,2.4,0,0,0-.176-.506,2.061,2.061,0,0,0-.367-.531,2.028,2.028,0,0,0-.251-.221,2.108,2.108,0,0,0-.194-.126,3.034,3.034,0,0,0-1.987-.278s-1.585.172-2.314.2c-.986.035-1.842.081-2.292.058a1.258,1.258,0,0,1-.242-.031c2.326.736-1.466,6.629,4.434,7.309a11.716,11.716,0,0,0,1.684-2.107l.006-.01c.033-.058.066-.115.1-.171v0c.028-.051.054-.1.08-.154l.014-.028c.026-.053.051-.1.074-.157a.013.013,0,0,1,0-.009c.021-.047.041-.094.059-.139.006-.012.01-.025.015-.038.019-.05.037-.1.054-.149.02-.006.04-.013.06-.019l.061-.022a1.467,1.467,0,0,0,.171-.079c.032-.017.063-.036.094-.056l.05-.033a1.681,1.681,0,0,0,.19-.156l.007-.006a2.407,2.407,0,0,0,.609-1.034A3.015,3.015,0,0,0,362.291,131.675Z" transform="translate(-329.782 -120.438)" opacity="0.71" fill="url(#linear-gradient-10)"/>
      <path id="Path_592" data-name="Path 592" d="M236.313,91.471a2.886,2.886,0,0,0,.464-.034.046.046,0,0,1,.051.069,4.341,4.341,0,0,0-.613,2.635,3.4,3.4,0,0,0,.381,1.118.278.278,0,0,0,.145.124c.733-3.136,6.561-1.209,7.646-4.2a6.065,6.065,0,0,1-3.705-2.991c0-.007-.007-.012-.01-.019a.213.213,0,0,0-.278-.119c-.173.05-.445.213-.927.417l-.039.016h0c-.11.046-.229.093-.36.139A6.581,6.581,0,0,0,236.313,91.471Z" transform="translate(-219.773 -81.923)" opacity="0.83" fill="url(#linear-gradient-11)"/>
      <path id="Path_593" data-name="Path 593" d="M273.573,129.492c-1.1.126-1.563,2.244-2.223,2.693,1.181-.38,2.692-.447,3.893-.844C275.4,129.931,274.529,129.383,273.573,129.492Z" transform="translate(-252.501 -120.485)" fill="url(#linear-gradient-12)"/>
      <path id="Path_594" data-name="Path 594" d="M291.534,144.654c-.569.034-.875,1.074-1.224,1.342.69-.124,1.407-.226,2.067-.39A.763.763,0,0,0,291.534,144.654Z" transform="translate(-270.144 -134.604)" fill="url(#linear-gradient-13)"/>
      <path id="Path_595" data-name="Path 595" d="M300.251,202.3a.674.674,0,0,0,.882-.334v-.006l.005-.011.061-.133,0-.008.187-.406c.347-.783.591-1.32.591-1.32,1.83-1.7,3-3.053,3.413-4.263-3.959,2.5-7.647-.084-9.854,1.516-.045.039-.158.145-.307.29a1.644,1.644,0,0,0,.482,2.685Z" transform="translate(-274.261 -182.218)" opacity="0.8" fill="url(#radial-gradient)"/>
      <path id="Path_596" data-name="Path 596" d="M423.706,129.452l-.012.018a1.378,1.378,0,0,0-.134.362l.006,0a1.021,1.021,0,0,0,.367.214.526.526,0,0,1,.314.288,2.029,2.029,0,0,1,.135.329.909.909,0,0,0,.065.133c.952.313,2.292.462,2.141,1.544C426.88,130.911,426.155,129.157,423.706,129.452Z" transform="translate(-394.138 -120.429)" fill="url(#linear-gradient-14)"/>
    </g>
    <path id="Path_597" data-name="Path 597" d="M844.681,190.639h-3.11c0-2.436.073-4.919.073-6.318,0-2.894-.532-3.545-1.567-3.545a4.361,4.361,0,0,0-2.292,1.085,10.064,10.064,0,0,1,.121,1.808v6.969h-3.087v-6.317c0-2.845-.532-3.545-1.543-3.545a4.128,4.128,0,0,0-2.17.989v8.872H828V178.56h2.556l.219,1.277a5.318,5.318,0,0,1,3.569-1.543,3.064,3.064,0,0,1,2.942,1.736,5.8,5.8,0,0,1,3.86-1.736c2.362,0,3.616,1.543,3.616,5.449,0,1.494-.073,4.244-.073,6.9m9.137,0-.218-1.229a5.383,5.383,0,0,1-3.69,1.494c-2.436,0-3.738-1.205-3.738-3.447,0-2.509,2-4.172,6.222-4.172h.747v-.915c0-1.23-.7-1.833-2.242-1.833a11.384,11.384,0,0,0-3.666.724l-.41-1.881a12.048,12.048,0,0,1,4.871-1.085c3.087,0,4.509,1.47,4.509,3.761v8.584Zm-.676-5.473h-.915c-2.363,0-3.015.8-3.015,1.905a1.479,1.479,0,0,0,1.615,1.639,3.737,3.737,0,0,0,2.315-1.061Zm11.985-3.858a3.728,3.728,0,0,0-1.063-.168c-.674,0-1.253.458-2.338,1.832v7.667h-3.111V178.56h2.556l.241,1.883c1.23-1.615,2.049-2.122,2.918-2.122a2.767,2.767,0,0,1,1.181.265Zm7.91,9.333-3.231-5.98v5.98H866.7V176.55h3.112v6.663l2.771-4.653H876.2L872.6,183.6l4.076,7.041Zm6.777-5.423v.168c0,2.219.99,3.16,2.7,3.16a12.858,12.858,0,0,0,3.933-.7l.437,1.784a10.851,10.851,0,0,1-4.968,1.277c-3.183,0-5.256-1.567-5.256-5.98,0-4.316,2.073-6.628,5.473-6.628,3.087,0,5.136,1.736,4.823,6.919Zm4.148-1.977c0-1.93-.674-2.87-1.977-2.87-1.326,0-2.049,1.229-2.146,2.918h4.123Zm8.222,7.641c-2.242,0-3.063-.844-3.063-3.159v-6.989h-1.544V178.56h1.641a18.278,18.278,0,0,0,.746-2.009h2.242v2.01h2.677v2.173h-2.677v6.221c0,1.23.291,1.615,1.109,1.615a5.955,5.955,0,0,0,1.64-.265l.241,1.784a6.427,6.427,0,0,1-3.014.8m-90.526-.076c-2.008,0-2.725-.86-2.725-3.178v-7.479H797.02v-1.384h1.936a19.045,19.045,0,0,0,.5-2.2h1.36v2.2H804v1.384h-3.178v7c0,1.626.262,2.2,1.409,2.2a5.507,5.507,0,0,0,1.84-.382l.24,1.147a6.348,6.348,0,0,1-2.653.693m13.315-.194h-1.865c0-2.247.047-4.851.047-6.309,0-3.132-.812-4.207-2.27-4.207a4.992,4.992,0,0,0-2.913,1.41v9.1h-1.894V176.559h1.888v3.5a5.592,5.592,0,0,1,3.562-1.482c2.151,0,3.513,1.363,3.513,5.258,0,1.434-.073,4.326-.073,6.788m3.685-5.693v.239c0,2.964,1.147,4.159,3.274,4.159a9.067,9.067,0,0,0,3.466-.717l.359,1.123a9.355,9.355,0,0,1-4.28,1.076c-2.867,0-4.78-1.553-4.78-5.76,0-4.136,1.793-6.478,4.852-6.478,2.8,0,4.494,1.793,4.231,6.358Zm5.282-1.363c0-2.271-.812-3.633-2.51-3.633-1.748,0-2.652,1.7-2.772,3.729h5.282Zm73.413-4.672v2.936h-.4v-2.936H896.1v-.318H898.2v.318Zm4.157,2.935c-.02-1.007-.1-2.087-.184-2.748h0l-.918,2.748h-.3l-.926-2.748h-.009c-.062.723-.11,1.741-.125,2.748h-.391a32.4,32.4,0,0,1,.241-3.254h.516l.883,2.579.883-2.579h.5c.13,1.046.227,2.213.256,3.254Z" transform="translate(-5545.215 -18066.58)" fill="#1d1d1b"/>
    <circle id="Ellipse_2698" data-name="Ellipse 2698" cx="19.69" cy="19.69" r="19.69" transform="translate(-4793.293 -17910.701)" style="mix-blend-mode: color;isolation: isolate"/>
  </g>
</svg>
