<svg id="Group_350" data-name="Group 350" xmlns="http://www.w3.org/2000/svg" width="187.161" height="29.951" viewBox="0 0 187.161 29.951">
  <path id="Path_3" data-name="Path 3" d="M10.579,21.559H7.053V3.214H0V0H17.631V3.214H10.579Z" transform="translate(0)" fill="#1d1d1b"/>
  <path id="Path_4" data-name="Path 4" d="M38.179,12.6A7.9,7.9,0,0,0,30.1,20.724a7.9,7.9,0,0,0,8.079,8.124A7.906,7.906,0,0,0,46.3,20.724,7.88,7.88,0,0,0,38.179,12.6Zm0,13.079a4.681,4.681,0,0,1-4.731-4.955,4.758,4.758,0,1,1,9.508,0A4.691,4.691,0,0,1,38.179,25.679Z" transform="translate(-16.664 -6.976)" fill="#1d1d1b"/>
  <path id="Path_5" data-name="Path 5" d="M192.5,29.792c0,5.044-3.839,7.633-7.722,7.633a7.571,7.571,0,0,1-7.678-5.8l3.214-1.116a4.612,4.612,0,0,0,4.6,3.794c2.232,0,4.2-1.518,4.2-4.508V26.579a5.256,5.256,0,0,1-4.642,2.767,6.035,6.035,0,0,1-6.16-6.428V13.5h3.437v8.883c0,2.366,1.384,3.66,3.3,3.66,2.143,0,4.017-1.607,4.017-4.6V13.5H192.5Z" transform="translate(-98.049 -7.474)" fill="#1d1d1b"/>
  <path id="Path_6" data-name="Path 6" d="M114.056,25.455a2.291,2.291,0,0,1-1.071.312c-.58,0-1.161-.357-1.161-1.428V13h-3.348v1.919a5.584,5.584,0,0,0-4.91-2.321c-3.839,0-7.767,2.678-7.767,8.169,0,5.267,3.66,8.079,7.41,8.079a6.967,6.967,0,0,0,5.669-2.723A3.529,3.529,0,0,0,112.4,28.8a3.68,3.68,0,0,0,2.544-.937A6.755,6.755,0,0,1,114.056,25.455Zm-10.311.312c-2.321,0-4.553-1.652-4.553-5.044,0-3.437,2.321-5.044,4.6-5.044a4.653,4.653,0,0,1,4.687,5C108.432,24.072,106.066,25.768,103.745,25.768Z" transform="translate(-53.038 -6.976)" fill="#1d1d1b"/>
  <path id="Path_7" data-name="Path 7" d="M148.64,18.613a3.762,3.762,0,0,1-1.339.268c-1.116,0-1.964-.625-1.964-2.366V0H141.9V16.694c0,3.7,2.321,5.178,4.821,5.178a6.917,6.917,0,0,0,2.946-.67,6.551,6.551,0,0,1-1.027-2.589" transform="translate(-78.561)" fill="#1d1d1b"/>
  <path id="Path_8" data-name="Path 8" d="M282.479,12.6a7.9,7.9,0,0,0-8.079,8.124,8.1,8.1,0,1,0,16.2,0A7.907,7.907,0,0,0,282.479,12.6Zm0,13.079a4.681,4.681,0,0,1-4.732-4.955,4.758,4.758,0,1,1,9.508,0A4.691,4.691,0,0,1,282.479,25.679Z" transform="translate(-151.917 -6.976)" fill="#1d1d1b"/>
  <path id="Path_9" data-name="Path 9" d="M314.689,13h3.348v2.232a5.667,5.667,0,0,1,4.91-2.634,5.42,5.42,0,0,1,5.58,5.8V28.535H325.09V19.608c0-2.634-1.384-3.7-3.125-3.7-2.143,0-3.928,1.652-3.928,4.6v8.035H314.6V13Z" transform="translate(-174.173 -6.976)" fill="#1d1d1b"/>
  <path id="Path_10" data-name="Path 10" d="M365,20.322c0-5.222-3.3-7.722-7.1-7.722a7.679,7.679,0,0,0-7.9,8.079,7.859,7.859,0,0,0,8.035,8.169,8.342,8.342,0,0,0,6.7-3.258l-2.187-2.143a5.176,5.176,0,0,1-4.374,2.187,4.256,4.256,0,0,1-4.508-3.392h11.159A7.847,7.847,0,0,0,365,20.322Zm-11.427-.893a4.018,4.018,0,0,1,4.151-3.794,3.683,3.683,0,0,1,3.839,3.794Z" transform="translate(-193.772 -6.976)" fill="#1d1d1b"/>
  <path id="Path_11" data-name="Path 11" d="M236.763,0l-7.008,12.186L222.792,0h-3.928V16.6c0,1.652-.848,2.276-1.964,2.321v2.946h.491a5.019,5.019,0,0,0,2.009-.357c1.7-.625,2.991-2.143,2.991-4.821V6.606l5.8,10.088h3.214l5.8-10.088V21.515h3.526V0Z" transform="translate(-120.083)" fill="#1d1d1b"/>
  <path id="Path_12" data-name="Path 12" d="M168.394,18.792a3.334,3.334,0,0,1-.893.134c-1.116,0-1.964-.625-1.964-2.366V0H162.1V16.694c0,3.7,2.321,5.178,4.821,5.178a6.724,6.724,0,0,0,2.9-.67,7.833,7.833,0,0,1-1.428-2.41" transform="translate(-89.744)" fill="#1d1d1b"/>
  <path id="Path_13" data-name="Path 13" d="M78.847,20.937a4.2,4.2,0,0,1-1.875.491c-1.205,0-2.187-.625-2.187-2.366v-7.32h4.33V8.617h-4.33V4.6H71.392V8.573H68V11.7h3.348v7.544a4.817,4.817,0,0,0,5.089,5.178,7.872,7.872,0,0,0,3.794-1.071h0a10.606,10.606,0,0,1-1.384-2.41" transform="translate(-37.647 -2.547)" fill="#1d1d1b"/>
  <path id="Path_14" data-name="Path 14" d="M400.2,29.792c0,5.044-3.839,7.633-7.722,7.633a7.571,7.571,0,0,1-7.678-5.8l3.214-1.116a4.612,4.612,0,0,0,4.6,3.794c2.232,0,4.2-1.518,4.2-4.508V26.579a5.256,5.256,0,0,1-4.642,2.767,6.035,6.035,0,0,1-6.16-6.428V13.5h3.437v8.883c0,2.366,1.384,3.66,3.3,3.66,2.142,0,4.017-1.607,4.017-4.6V13.5H400.2Z" transform="translate(-213.038 -7.474)" fill="#1d1d1b"/>
</svg>
