<svg id="Group_339" data-name="Group 339" xmlns="http://www.w3.org/2000/svg" width="180.568" height="24.091" viewBox="0 0 180.568 24.091">
  <g id="Group_337" data-name="Group 337" transform="translate(0 0.241)">
    <path id="Path_268" data-name="Path 268" d="M740.505,773.8a13.653,13.653,0,0,1,2.938.293,6.247,6.247,0,0,1,2.275.963,4.452,4.452,0,0,1,1.469,1.779,6.428,6.428,0,0,1,.521,2.741,5.234,5.234,0,0,1-.774,2.937,5.669,5.669,0,0,1-2.291,1.925,5.421,5.421,0,0,1,3.112,2.17,7.324,7.324,0,0,1,.363,6.787,5.884,5.884,0,0,1-1.785,2.1,7.786,7.786,0,0,1-2.559,1.207,11.184,11.184,0,0,1-2.954.392H729.89V773.8Zm-.632,9.43a3.481,3.481,0,0,0,2.18-.653,2.5,2.5,0,0,0,.853-2.121,2.783,2.783,0,0,0-.285-1.338,2.143,2.143,0,0,0-.758-.816,3.147,3.147,0,0,0-1.09-.408,7,7,0,0,0-1.28-.114H734.85v5.449Zm.285,9.887a6.452,6.452,0,0,0,1.39-.147,3.35,3.35,0,0,0,1.169-.49,2.445,2.445,0,0,0,.806-.93,3.287,3.287,0,0,0,.3-1.5,3.062,3.062,0,0,0-.979-2.561,4.086,4.086,0,0,0-2.591-.767h-5.4v6.4Z" transform="translate(-729.89 -773.804)" fill="#fff"/>
    <path id="Path_269" data-name="Path 269" d="M779.071,799.842a4.481,4.481,0,0,0,5.244.31,2.9,2.9,0,0,0,1.2-1.484h3.949a7.739,7.739,0,0,1-2.906,4.34,8.348,8.348,0,0,1-4.739,1.305,9.069,9.069,0,0,1-3.475-.636,7.222,7.222,0,0,1-2.622-1.811,8.2,8.2,0,0,1-1.659-2.807,10.572,10.572,0,0,1-.584-3.589,10.124,10.124,0,0,1,.6-3.525,8.309,8.309,0,0,1,1.706-2.822,8.018,8.018,0,0,1,2.638-1.876,8.223,8.223,0,0,1,3.4-.685,7.559,7.559,0,0,1,3.633.832A7.332,7.332,0,0,1,788,789.629a9.342,9.342,0,0,1,1.437,3.2,12.314,12.314,0,0,1,.316,3.753H777.965A4.773,4.773,0,0,0,779.071,799.842Zm5.07-8.875a3.1,3.1,0,0,0-2.448-.914,3.8,3.8,0,0,0-1.785.375,3.4,3.4,0,0,0-1.738,2.1,5.462,5.462,0,0,0-.206,1.11h7.3A5.445,5.445,0,0,0,784.141,790.967Z" transform="translate(-753.728 -780.591)" fill="#fff"/>
    <path id="Path_270" data-name="Path 270" d="M819.637,790.053a3.081,3.081,0,0,0-1.8.505,3.974,3.974,0,0,0-1.184,1.305,5.739,5.739,0,0,0-.648,1.762,9.859,9.859,0,0,0-.19,1.909,9.445,9.445,0,0,0,.19,1.86,5.853,5.853,0,0,0,.616,1.713,3.6,3.6,0,0,0,1.153,1.257,3.093,3.093,0,0,0,1.769.489,3.229,3.229,0,0,0,2.48-.93,4.468,4.468,0,0,0,1.09-2.5h4.328a7.728,7.728,0,0,1-2.528,5.123,7.985,7.985,0,0,1-5.339,1.762,8.692,8.692,0,0,1-3.365-.636A7.435,7.435,0,0,1,813.6,801.9a8.117,8.117,0,0,1-1.674-2.724,9.717,9.717,0,0,1-.6-3.476,11.574,11.574,0,0,1,.553-3.638,8.246,8.246,0,0,1,1.627-2.9,7.447,7.447,0,0,1,2.622-1.909,8.662,8.662,0,0,1,3.538-.685,9.952,9.952,0,0,1,2.8.391,7.377,7.377,0,0,1,2.4,1.191,6.326,6.326,0,0,1,1.721,1.99,6.505,6.505,0,0,1,.758,2.822h-4.391A3.04,3.04,0,0,0,819.637,790.053Z" transform="translate(-774.426 -780.591)" fill="#fff"/>
    <path id="Path_271" data-name="Path 271" d="M854.85,773.8v12.5l5.655-6.069h5.307l-6.161,6.2,6.855,10.67h-5.433l-4.486-7.538-1.737,1.73V797.1h-4.486V773.8Z" transform="translate(-795.774 -773.804)" fill="#fff"/>
  </g>
  <g id="Group_338" data-name="Group 338" transform="translate(70.578)">
    <path id="Path_272" data-name="Path 272" d="M907.542,787.639q-.377.048-1.014.154a3.7,3.7,0,0,0-1.029.3,1.4,1.4,0,0,0-.668.689,2.585,2.585,0,0,0-.2,1.047v1.786q0,1.947.023,2.63t.055,1.12a23.181,23.181,0,0,1-4.165,1.493,16.722,16.722,0,0,1-4.071.52,10.568,10.568,0,0,1-4.118-.829A10.275,10.275,0,0,1,888.9,794.2a11.367,11.367,0,0,1-2.373-3.753,13.228,13.228,0,0,1-.88-4.939,13.832,13.832,0,0,1,.841-4.881,11.658,11.658,0,0,1,2.381-3.907,10.447,10.447,0,0,1,3.56-2.526,10.938,10.938,0,0,1,4.424-.9,10.321,10.321,0,0,1,3.285.471,11.746,11.746,0,0,1,2.468,1.136l.644-1.1h1.257l.141,8.052h-1.289a23.314,23.314,0,0,0-.818-2.621,9.254,9.254,0,0,0-1.259-2.313,5.868,5.868,0,0,0-1.88-1.632,5.434,5.434,0,0,0-2.651-.609,6.276,6.276,0,0,0-3.005.707,6.624,6.624,0,0,0-2.3,2.1,10.108,10.108,0,0,0-1.479,3.364,18.035,18.035,0,0,0-.519,4.5,16.21,16.21,0,0,0,.511,4.135,10.622,10.622,0,0,0,1.488,3.355,7.194,7.194,0,0,0,2.439,2.274,6.617,6.617,0,0,0,3.321.829,7,7,0,0,0,2.526-.439,4.563,4.563,0,0,0,1.613-.925,12.344,12.344,0,0,0,.134-1.7q.007-.861.008-1.461V790.14a3.72,3.72,0,0,0-.181-1.209,1.274,1.274,0,0,0-.746-.771,4.99,4.99,0,0,0-1.407-.365q-.888-.121-1.391-.154v-1.185h9.776Z" transform="translate(-885.648 -773.289)" fill="#fff"/>
    <path id="Path_273" data-name="Path 273" d="M946.872,791a2.757,2.757,0,0,1-.393,1.47,1.321,1.321,0,0,1-1.21.641,1.8,1.8,0,0,1-1.344-.471,1.453,1.453,0,0,1-.464-1.039,3.517,3.517,0,0,1,.055-.65q.055-.292.1-.585a3.408,3.408,0,0,0-1.729.617,5.2,5.2,0,0,0-1.682,1.753v9.318a1.793,1.793,0,0,0,.212.925,1.29,1.29,0,0,0,.668.535,4.082,4.082,0,0,0,1.014.244q.621.081,1.077.114v1.071h-8.173v-1.071l.747-.065a2.8,2.8,0,0,0,.668-.13,1.135,1.135,0,0,0,.652-.511,1.873,1.873,0,0,0,.213-.949v-9.874a2.31,2.31,0,0,0-.228-.989,1.958,1.958,0,0,0-.637-.778,2.1,2.1,0,0,0-.707-.284,6.223,6.223,0,0,0-.88-.122V789.1l5.155-.357.22.227v2.256h.078a7.133,7.133,0,0,1,2.169-2,4.477,4.477,0,0,1,2.185-.682,2.1,2.1,0,0,1,1.611.666A2.514,2.514,0,0,1,946.872,791Z" transform="translate(-912.546 -781.408)" fill="#fff"/>
    <path id="Path_274" data-name="Path 274" d="M977.153,801.107a8.118,8.118,0,0,1-2.609,3.051,6.418,6.418,0,0,1-3.756,1.136,7.432,7.432,0,0,1-3.277-.681,6.461,6.461,0,0,1-2.318-1.851,7.947,7.947,0,0,1-1.36-2.727,11.873,11.873,0,0,1-.448-3.3,10.006,10.006,0,0,1,.479-3.06,8.734,8.734,0,0,1,1.407-2.7,6.858,6.858,0,0,1,2.224-1.859,6.242,6.242,0,0,1,2.978-.706,6.962,6.962,0,0,1,2.908.552,5.191,5.191,0,0,1,1.965,1.509,6.106,6.106,0,0,1,1.077,2.143,9.692,9.692,0,0,1,.353,2.679v1.071H966.512a12.991,12.991,0,0,0,.291,2.863,6.974,6.974,0,0,0,.919,2.261,4.416,4.416,0,0,0,1.6,1.489,4.813,4.813,0,0,0,2.357.545,4.243,4.243,0,0,0,2.413-.677,6.654,6.654,0,0,0,1.957-2.439Zm-3.474-6.1a13.676,13.676,0,0,0-.149-1.941,6.1,6.1,0,0,0-.479-1.733,3.278,3.278,0,0,0-.99-1.213,2.633,2.633,0,0,0-1.619-.469,3.331,3.331,0,0,0-2.742,1.416A6.743,6.743,0,0,0,966.512,795Z" transform="translate(-928.16 -781.334)" fill="#fff"/>
    <path id="Path_275" data-name="Path 275" d="M1010.873,801.107a8.119,8.119,0,0,1-2.609,3.051,6.418,6.418,0,0,1-3.756,1.136,7.43,7.43,0,0,1-3.277-.681,6.467,6.467,0,0,1-2.318-1.851,7.949,7.949,0,0,1-1.36-2.727,11.873,11.873,0,0,1-.448-3.3,9.99,9.99,0,0,1,.479-3.06,8.722,8.722,0,0,1,1.406-2.7,6.859,6.859,0,0,1,2.224-1.859,6.242,6.242,0,0,1,2.978-.706,6.965,6.965,0,0,1,2.908.552,5.193,5.193,0,0,1,1.964,1.509,6.1,6.1,0,0,1,1.077,2.143,9.678,9.678,0,0,1,.353,2.679v1.071h-10.263a13,13,0,0,0,.291,2.863,6.973,6.973,0,0,0,.919,2.261,4.419,4.419,0,0,0,1.6,1.489,4.813,4.813,0,0,0,2.358.545,4.242,4.242,0,0,0,2.412-.677,6.653,6.653,0,0,0,1.957-2.439ZM1007.4,795a13.676,13.676,0,0,0-.149-1.941,6.1,6.1,0,0,0-.479-1.733,3.276,3.276,0,0,0-.99-1.213,2.633,2.633,0,0,0-1.619-.469,3.332,3.332,0,0,0-2.742,1.416,6.746,6.746,0,0,0-1.187,3.941Z" transform="translate(-946.601 -781.334)" fill="#fff"/>
    <path id="Path_276" data-name="Path 276" d="M1046.7,804.891h-7.575V803.82q.361-.032.794-.065a2.915,2.915,0,0,0,.715-.13,1.136,1.136,0,0,0,.652-.512,1.878,1.878,0,0,0,.212-.95v-8.23a3.966,3.966,0,0,0-.78-2.63,2.4,2.4,0,0,0-1.9-.926,4.212,4.212,0,0,0-1.528.268,5.367,5.367,0,0,0-1.228.658,3.542,3.542,0,0,0-.827.8,7.373,7.373,0,0,0-.449.69V802a1.706,1.706,0,0,0,.22.909,1.422,1.422,0,0,0,.66.552,3.021,3.021,0,0,0,.715.244,6.186,6.186,0,0,0,.794.114v1.071h-7.591V803.82l.747-.065a2.791,2.791,0,0,0,.668-.13,1.134,1.134,0,0,0,.652-.511,1.869,1.869,0,0,0,.213-.949v-9.874a2.261,2.261,0,0,0-.228-1.013,2,2,0,0,0-.637-.754,2.1,2.1,0,0,0-.707-.284,6.241,6.241,0,0,0-.88-.122v-1.071l5.155-.357.22.227v2.256h.078q.377-.39.943-.934a8.332,8.332,0,0,1,1.069-.884,5.539,5.539,0,0,1,1.383-.649,5.852,5.852,0,0,1,1.807-.26,3.867,3.867,0,0,1,3.308,1.436,6.224,6.224,0,0,1,1.077,3.823v8.328a1.929,1.929,0,0,0,.188.917,1.256,1.256,0,0,0,.645.543,4.058,4.058,0,0,0,.652.228,4.87,4.87,0,0,0,.762.1Z" transform="translate(-964.269 -781.353)" fill="#fff"/>
    <path id="Path_277" data-name="Path 277" d="M1083.273,801.107a8.118,8.118,0,0,1-2.609,3.051,6.417,6.417,0,0,1-3.756,1.136,7.432,7.432,0,0,1-3.277-.681,6.466,6.466,0,0,1-2.318-1.851,7.949,7.949,0,0,1-1.359-2.727,11.88,11.88,0,0,1-.448-3.3,9.994,9.994,0,0,1,.479-3.06,8.724,8.724,0,0,1,1.407-2.7,6.851,6.851,0,0,1,2.223-1.859,6.244,6.244,0,0,1,2.979-.706,6.963,6.963,0,0,1,2.908.552,5.189,5.189,0,0,1,1.964,1.509,6.1,6.1,0,0,1,1.077,2.143,9.674,9.674,0,0,1,.354,2.679v1.071h-10.263a12.991,12.991,0,0,0,.291,2.863,6.984,6.984,0,0,0,.919,2.261,4.42,4.42,0,0,0,1.6,1.489,4.814,4.814,0,0,0,2.358.545,4.24,4.24,0,0,0,2.412-.677,6.648,6.648,0,0,0,1.957-2.439ZM1079.8,795a13.677,13.677,0,0,0-.149-1.941,6.119,6.119,0,0,0-.48-1.733,3.272,3.272,0,0,0-.99-1.213,2.632,2.632,0,0,0-1.619-.469,3.332,3.332,0,0,0-2.743,1.416,6.745,6.745,0,0,0-1.187,3.941Z" transform="translate(-986.194 -781.334)" fill="#fff"/>
    <path id="Path_278" data-name="Path 278" d="M1113.853,791a2.757,2.757,0,0,1-.393,1.47,1.321,1.321,0,0,1-1.21.641,1.8,1.8,0,0,1-1.344-.471,1.453,1.453,0,0,1-.464-1.039,3.517,3.517,0,0,1,.055-.65q.055-.292.1-.585a3.407,3.407,0,0,0-1.729.617,5.2,5.2,0,0,0-1.682,1.753v9.318a1.793,1.793,0,0,0,.212.925,1.289,1.289,0,0,0,.668.535,4.083,4.083,0,0,0,1.014.244q.621.081,1.076.114v1.071h-8.172v-1.071l.747-.065a2.8,2.8,0,0,0,.668-.13,1.135,1.135,0,0,0,.652-.511,1.873,1.873,0,0,0,.213-.949v-9.874a2.311,2.311,0,0,0-.228-.989,1.958,1.958,0,0,0-.637-.778,2.1,2.1,0,0,0-.708-.284,6.219,6.219,0,0,0-.88-.122V789.1l5.155-.357.22.227v2.256h.078a7.129,7.129,0,0,1,2.169-2,4.476,4.476,0,0,1,2.185-.682,2.1,2.1,0,0,1,1.611.666A2.514,2.514,0,0,1,1113.853,791Z" transform="translate(-1003.863 -781.408)" fill="#fff"/>
  </g>
</svg>
