<?xml version="1.0" encoding="utf-8"?>
<!-- Generator: Adobe Illustrator 25.1.0, SVG Export Plug-In . SVG Version: 6.00 Build 0)  -->
<svg version="1.1" id="Layer_1" xmlns="http://www.w3.org/2000/svg" xmlns:xlink="http://www.w3.org/1999/xlink" x="0px" y="0px"
	 viewBox="0 0 200 36" style="enable-background:new 0 0 200 36;" xml:space="preserve">
<style type="text/css">
	.st0{fill-rule:evenodd;clip-rule:evenodd;fill:#1D1E1B;}
</style>
<g id="Group_22" transform="translate(-0.348 -0.016)">
	<path id="Path_93" class="st0" d="M187.5,17c2.6-0.6,5.3,0.4,6.9,2.6l-11.9,2.7C183,19.7,184.9,17.6,187.5,17z M194.5,26.9
		c-0.9,1.4-2.4,2.3-4,2.7c-2.6,0.6-5.3-0.4-6.9-2.6l11.9-2.7l1.9-0.4l3.7-0.8c0-0.8-0.1-1.6-0.3-2.4c-1.6-6.5-8.1-10.5-14.6-8.9
		c-6.4,1.4-10.5,7.7-9.2,14.2c0,0,0,0.1,0,0.1c1.7,6.6,8.3,10.5,14.9,8.9c3.6-0.9,6.5-3.4,8.1-6.7L194.5,26.9z M166.4,34.6v-17h-3.7
		v-5.8h3.7v-8h6.2v8h4.7v5.8h-4.7v17H166.4z M154.5,34.6h6V11.8h-6V34.6z M153.7,3.8c0-2,1.6-3.7,3.7-3.7c0,0,0.1,0,0.1,0
		c2-0.1,3.7,1.5,3.8,3.5c0,0.1,0,0.1,0,0.2c0,2-1.6,3.7-3.6,3.7c0,0-0.1,0-0.1,0c-2.1,0.1-3.8-1.6-3.8-3.6
		C153.7,3.8,153.7,3.8,153.7,3.8L153.7,3.8z M152.4,11.8c-3.1,0.2-4.9,0.6-6.8,2v-2h-6v22.8h6V23.4c0-3.5,0.9-5.5,6.8-5.7
		L152.4,11.8L152.4,11.8z M118.8,23.5c0.3,3.6,3.4,6.4,7,6.1c3.4-0.2,6-3,6.1-6.4c-0.1-3.6-3-6.4-6.6-6.4c-3.5,0-6.3,2.7-6.6,6.1
		L118.8,23.5z M112.9,34.6V0.9l6-1.4v14c1.8-1.4,4.1-2.2,6.5-2.1c6.7-0.1,12.2,5.1,12.4,11.8c0,0,0,0.1,0,0.1
		c-0.1,6.7-5.6,12.1-12.3,12c0,0,0,0,0,0c-2.3,0.1-4.6-0.7-6.5-2.1v1.5L112.9,34.6L112.9,34.6z M100,34.6V17.5h-3.7v-5.7h3.7v-8
		l6.2-1.4v9.4h4.7v5.7h-4.7v17.2H100z M89,34.6V22.4c0-4.4-2.4-5.4-4.8-5.4s-4.8,0.9-4.8,5.3v12.3h-6V11.8h6v1.7
		c1.7-1.4,3.9-2.2,6.1-2.1c5.1,0,9.5,2.9,9.5,10.1v13.2H89z M58.1,17c2.6-0.6,5.3,0.4,6.9,2.6l-11.9,2.7
		C53.5,19.7,55.5,17.6,58.1,17L58.1,17z M65,26.9c-0.9,1.4-2.4,2.3-4,2.7c-2.6,0.6-5.3-0.4-6.9-2.6l11.9-2.7l1.9-0.4l3.7-0.8
		c0-0.8-0.1-1.6-0.3-2.4c-1.6-6.5-8.1-10.5-14.6-8.9c-6.4,1.4-10.5,7.7-9.2,14.2c0,0,0,0.1,0,0.1c1.7,6.6,8.3,10.5,14.9,8.9
		c3.6-0.9,6.5-3.4,8.1-6.7L65,26.9L65,26.9z M33.5,34.6l-9.4-22.8h6.6l5.9,15.5l6-15.5h6.6l-9.4,22.8H33.5z M12.3,17
		c2.6-0.6,5.3,0.4,6.9,2.6L7.3,22.3C7.7,19.7,9.7,17.6,12.3,17z M19.2,26.9c-0.9,1.4-2.4,2.3-4,2.7c-2.6,0.6-5.3-0.4-6.9-2.6
		l11.9-2.7l1.9-0.4L26,23c0-0.8-0.1-1.6-0.3-2.4c-1.6-6.5-8.1-10.5-14.6-8.9C4.6,13,0.5,19.4,1.9,25.8c0,0,0,0.1,0,0.1
		c1.6,6.5,8.1,10.5,14.6,8.9c3.7-0.8,6.8-3.3,8.4-6.8L19.2,26.9L19.2,26.9z"/>
</g>
</svg>
