<svg xmlns="http://www.w3.org/2000/svg" xmlns:xlink="http://www.w3.org/1999/xlink" width="529" height="127.004" viewBox="0 0 529 127.004">
  <defs>
    <clipPath id="clip-path">
      <path id="Path_37" data-name="Path 37" d="M246.093,16.851V-13.455c0-5.319.257-5.038,2.707-7.954H238.3c2.458,2.916,2.709,2.635,2.709,7.954V20.4a26.546,26.546,0,0,1-16.08,5.051c-8.97,0-13.544-4.9-13.544-13.067V-13.455c0-5.319.249-5.038,2.711-7.954h-8.944l-.041,0h-24.4L187.823-32.2c2.131-3.116,4.72-7.218,5.714-11.334a18.279,18.279,0,0,0,.6-4.868,20.34,20.34,0,0,0-6.84-15.209c-4.088-3.685-9.785-5.474-17.412-5.474a55.678,55.678,0,0,0-7.362.6c-1.63.262-1.876,1-1.876,1.408,0,.163.067.926,1.2.926l2.824-.238,2.171-.153,3.478-.2a38.088,38.088,0,0,1,6.174.593c-5.171,6.845-8.174,10.495-23.313,26.379-4.055,4.219-7.934,7.721-12.047,11.432,0,0-7.3,6.694-7.568,6.932H107.956c-.283-2.2-.774-4.361-5.311-7.987-6.96-5.572-20.981-9.028-36.578-9.028-26.233,0-46.184,9.837-56.1,19.046C6.479-16.279,0-10.485,0,.47,0,9.189,4.736,16.089,14.084,20.99c3.227,1.706,9.926,5.287,23.86,5.287,20.6,0,40.03-8.046,52.864-14.091C105.706,5.055,119.487-3,138.23-19.073h29.058c-.869,1.368-35.12,55.08-35.12,55.08-2.064,3.282-4.387,7.006-4.387,11.077,0,5.186,4.814,10.789,12.6,10.789l-.092-.455h.092l-.148-.464c.052,0,.094.015.148.015,0,0-.1-.085-.2-.161l-.074-.229-.218-1.072c-1.024-.233-4.13-.95-4.208-3.323-.007-.083-.007-.153-.007-.224,0-2.421,1.358-4.786,2.918-7.5,5.836-9.7,33.558-52.953,40.63-63.531h25.294a1.7,1.7,0,0,1,1.438,1.04l.054.161a18.467,18.467,0,0,1,.3,4.417V11.464c0,10.853,5.925,16.1,18.282,16.1,8.976,0,12.87-2.7,16.418-4.683v3.622h9.739c-2.539-1.637-4.655-2.2-4.655-9.656ZM84.944,10c-5.108,1.756-16.95,5.806-36.308,5.806-15.788,0-23.133-2.456-27.083-3.774,0-.006-.233-.085-.233-.085C18.7,11.026,11.731,8.577,7.634,3.6A13.55,13.55,0,0,1,4.018-4.921c0-6.037,5.636-12.69,15.085-17.806,11.421-6.132,29.587-9.939,47.385-9.939,20.127,0,31.514,3.923,34.719,6,.991.564,3.142,2.3,3.69,3.818,0,.006.1.617.187,1.053H63.368a178.664,178.664,0,0,0-21.491,1.2c-1.364.181-5.513.739-8.124,3.094a6.774,6.774,0,0,0-2.382,4.735c0,1.423.689,6.307,9.532,9.355C48.172-.846,58.8-.652,61.884-.652c11.959,0,22.681-1.976,31.86-5.867,10.547-4.395,12.822-9.831,13.978-12.936h23.011C105.172,3.09,93.493,7.1,84.944,10Zm19.925-29.57c-.288,1.011-1.046,2.179-5,4.627-2.236,1.41-6.431,3.539-13.722,5.659A91.85,91.85,0,0,1,57.56-5.252c-3.493,0-14.156,0-20.6-3.742-1.922-1.122-2.746-2.253-2.746-3.777,0-3.071,4.764-4.568,17.573-5.5,9.19-.734,16.963-.821,25.192-.911l3.35-.043,24.536-.346Zm72.5-17.074s-8.669,14.416-8.931,14.845H140.555c1.159-1.061,4-3.69,4-3.69A176.182,176.182,0,0,0,162.178-43.6a218.713,218.713,0,0,0,16.928-22.112c4.93,1.648,7.568,4.565,7.568,8.49C186.674-52.248,183.693-46.873,177.369-36.64ZM289.518-21.409h-9.229c4.158,2.273,4.158,4.409,4.158,7.954V18.566c0,3.613,0,5.6-4.158,7.941h12.956c13.123,0,34.613-2.412,34.613-22.574,0-12.844-8.97-25.342-38.341-25.342Zm7.366,45.79c-7.366,0-7.366-2.633-7.366-9.443V-19.276c14.475,0,32.588,3.9,32.588,23.71C322.105,17.911,311.2,24.381,296.884,24.381Zm70.088-7.741V-13.455c0-5.319.264-5.038,2.789-7.954h-10.5c2.388,2.916,2.628,2.635,2.628,7.954V18.566c0,3.613,0,5.6-4.138,7.941H390.5l4.058-9.514c-2.369,1.781-5.579,7.388-18.787,7.388-8.207,0-8.8-2.345-8.8-7.741m62.648,0V.96h13.964c4.236,0,4.411.423,6.7,2.125V-3.3c-2.284,1.769-3.14,2.129-6.457,2.129h-14.2v-18.1h9.131c9.244,0,9.576,1.068,12.016,4.542v-6.675H420.392c4.151,2.273,4.151,4.409,4.151,7.954V18.566c0,3.613,0,5.6-4.151,7.941h32.678l4.058-9.514c-2.365,1.781-5.592,7.388-18.7,7.388-8.214,0-8.806-2.345-8.806-7.741m91-38.049c.333.5.939.711.939,1.99s-1.029,2.275-2.122,3.546L507.079-1.746,495.638-15.587a6.151,6.151,0,0,1-1.765-4.04c0-.717.671-1.138,1-1.781H483.284c3.219,1.99,3.476,2.133,6.183,5.466L502.917.812V19.765c0,4.049-1.005,4.541-2.8,6.742h10.759c-1.61-2.125-2.534-2.835-2.534-6.814V.389l14.391-16.471A35.16,35.16,0,0,1,529-21.409h-8.384" transform="translate(0 69.082)" fill="none"/>
    </clipPath>
    <clipPath id="clip-path-2">
      <path id="Path_36" data-name="Path 36" d="M-369,1345.368H1523.368V-547H-369Z" transform="translate(369 547)" fill="none"/>
    </clipPath>
    <clipPath id="clip-path-3">
      <path id="Path_40" data-name="Path 40" d="M77.113,1.754S71.824,3.082,74.1,3.677c5.113,1.377,19.14,1.016,33.1-8.46l.218-1.031c-19.064,11.182-30.3,7.568-30.3,7.568" transform="translate(-73.532 5.814)" fill="none"/>
    </clipPath>
  </defs>
  <g id="Group_56" data-name="Group 56" transform="translate(0 69.082)">
    <g id="Group_53" data-name="Group 53" transform="translate(0 -69.082)" clip-path="url(#clip-path)">
      <g id="Group_52" data-name="Group 52" transform="translate(-681.918 -883.2)" clip-path="url(#clip-path-2)">
        <path id="Path_35" data-name="Path 35" d="M-5-74.082H542.48V71.353H-5Z" transform="translate(677.678 948.042)"/>
      </g>
    </g>
    <g id="Group_55" data-name="Group 55" transform="translate(135.888 47.838)" clip-path="url(#clip-path-3)">
      <g id="Group_54" data-name="Group 54" transform="translate(-817.806 -1000.12)" clip-path="url(#clip-path-2)">
        <path id="Path_38" data-name="Path 38" d="M68.532-10.814H120.9V17.75H68.532Z" transform="translate(740.034 1001.694)"/>
      </g>
    </g>
  </g>
</svg>
