<svg xmlns="http://www.w3.org/2000/svg" width="146.036" height="20.552" viewBox="0 0 146.036 20.552">
  <g id="blackrock-logo" transform="translate(0)">
    <g id="BlackRock_Wordmark_Blk_RGB_R" data-name="BlackRock_Wordmark_Blk_RGB+R" transform="translate(0 0)">
      <path id="Shape" d="M67.53,20.345,64.1,14.379,61.878,16.72v3.625H57.4V.164h4.482v11.19l5.366-5.937h5.2l-5.081,5.538,5.424,9.391Zm-44.416,0V.164h-4.6V20.317h4.6Zm84.208-7.564c0-4.853-3.768-7.907-8.221-7.907S90.88,7.928,90.88,12.781s3.768,7.936,8.221,7.936S107.322,17.662,107.322,12.781Zm-4.539,0a3.693,3.693,0,1,1-7.365,0,3.691,3.691,0,1,1,7.365,0Zm-86.006,1.8a4.98,4.98,0,0,0-3.226-4.824A4.461,4.461,0,0,0,16.177,5.53C16.177,2.59,14.037.164,9.3.164H.164V20.317H9.7C14.465,20.345,16.777,18,16.777,14.579ZM11.3,6.13C11.3,7.5,10.411,8.3,8.756,8.3h-3.8V4.074h3.8C10.3,4.074,11.3,4.759,11.3,6.13Zm.485,8.107c0,1.313-.913,2.2-2.626,2.2h-4.2v-4.4h4.2C10.811,12.038,11.782,12.866,11.782,14.236Zm44.5-5.281C55,6.272,52.6,4.9,49.176,4.9c-4.2,0-8.021,2.655-8.021,7.878,0,5.11,3.368,7.936,7.964,7.936,3.34,0,5.88-1.285,7.165-4.025l-3.711-1.913A3.618,3.618,0,0,1,49.2,16.72c-2.084,0-3.511-1.513-3.511-3.968s1.627-3.939,3.482-3.939a3.461,3.461,0,0,1,3.283,2.055Zm67.538,0c-1.285-2.683-3.682-4.053-7.108-4.053-4.2,0-8.021,2.655-8.021,7.878,0,5.11,3.368,7.936,7.964,7.936,3.34,0,5.88-1.285,7.165-4.025l-3.711-1.913a3.618,3.618,0,0,1-3.368,1.941c-2.084,0-3.511-1.513-3.511-3.968s1.627-3.939,3.483-3.939A3.461,3.461,0,0,1,120,10.868Zm16.5,11.389L134.9,10.954l5.081-5.538h-5.2l-5.338,5.937V.164h-4.482V20.317h4.482V16.691l2.227-2.341,3.425,5.966h5.224Zm-54.778,0-3.825-6.794h-2.94v6.794H74.038V.164h8.535c4.624,0,7.85,2.2,7.85,6.537A6.28,6.28,0,0,1,86.6,12.638l4.424,7.679H85.542ZM78.777,9.555h3.511c2.2,0,3.254-1.227,3.254-2.712,0-1.741-1-2.683-3.254-2.683H78.777ZM40.526,20.174v-3.14a3.025,3.025,0,0,1-.828.114.719.719,0,0,1-.828-.8V10.44c0-4.082-3.311-5.566-6.822-5.566A11.4,11.4,0,0,0,25.283,6.9l2.255,3.026a7.525,7.525,0,0,1,4-1.285c1.684,0,2.8.771,2.8,2.255v.828l-3.768-.657c-3.4.257-5.709,1.941-5.709,4.881,0,3.368,2.483,4.767,5.738,4.681l4.139-1.6a3.208,3.208,0,0,0,3.054,1.627A6.869,6.869,0,0,0,40.526,20.174Zm-6.194-3.368a8.234,8.234,0,0,1-2.769.542c-1.342,0-2.084-.714-2.084-1.684,0-1.028.8-1.713,2.141-1.713a14.781,14.781,0,0,1,2.712.314Z" transform="translate(-0.164 -0.164)" fill="#1d1d1b"/>
      <path id="Shape-2" data-name="Shape" d="M135.251,17.3a2.306,2.306,0,0,1,.628-1.713,2.346,2.346,0,0,1,1.741-.657,2.715,2.715,0,0,1,1,.171,2.232,2.232,0,0,1,.742.485,2.169,2.169,0,0,1,.457.742,2.835,2.835,0,0,1,0,1.941,2.169,2.169,0,0,1-.457.742,2.232,2.232,0,0,1-.742.485,2.715,2.715,0,0,1-1,.171,2.213,2.213,0,0,1-2.369-2.369Zm.371,0a1.966,1.966,0,0,0,.542,1.513,2.061,2.061,0,0,0,1.456.514,1.99,1.99,0,0,0,1.427-.514,1.966,1.966,0,0,0,.542-1.513,1.966,1.966,0,0,0-.542-1.513,2.038,2.038,0,0,0-1.427-.514,2.061,2.061,0,0,0-1.456.514A2.125,2.125,0,0,0,135.622,17.3Zm1.085-1.2h.971a.906.906,0,0,1,.656.2.731.731,0,0,1,.228.542.817.817,0,0,1-.114.485.779.779,0,0,1-.343.257l.457.828h-.485l-.428-.771h-.514v.771h-.428Zm.428.371V17.3h.485a.648.648,0,0,0,.371-.086.356.356,0,0,0,.114-.314c0-.257-.143-.4-.428-.4h-.542Z" transform="translate(6.046 0.515)" fill="#1d1d1b"/>
    </g>
  </g>
</svg>
