<svg xmlns="http://www.w3.org/2000/svg" width="184.119" height="25.341" viewBox="0 0 184.119 25.341">
  <g id="g10" transform="translate(0.625 0.625)">
    <g id="g12" transform="translate(0 0)">
      <path id="path14" d="M2.43-32.461v6.127l3.057.037A8,8,0,0,0,8.2-26.635a2.78,2.78,0,0,0,1.35-1.09,3.02,3.02,0,0,0,.491-1.685,2.979,2.979,0,0,0-.491-1.66,2.711,2.711,0,0,0-1.3-1.073,7.8,7.8,0,0,0-2.633-.318H2.43ZM.625-34.23h3.6a20.745,20.745,0,0,1,4.174.27,4.632,4.632,0,0,1,2.529,1.566,4.509,4.509,0,0,1,.982,2.978,4.554,4.554,0,0,1-.958,2.977,4.709,4.709,0,0,1-2.64,1.577,23.334,23.334,0,0,1-4.592.3H2.43v8.4H.625V-34.23" transform="translate(-0.625 35.028)" fill="#fff"/>
      <path id="path16" d="M2.43-32.461v6.127l3.057.037A8,8,0,0,0,8.2-26.635a2.78,2.78,0,0,0,1.35-1.09,3.02,3.02,0,0,0,.491-1.685,2.979,2.979,0,0,0-.491-1.66,2.711,2.711,0,0,0-1.3-1.073,7.8,7.8,0,0,0-2.633-.318H2.43ZM.625-34.23h3.6a20.745,20.745,0,0,1,4.174.27,4.632,4.632,0,0,1,2.529,1.566,4.509,4.509,0,0,1,.982,2.978,4.554,4.554,0,0,1-.958,2.977,4.709,4.709,0,0,1-2.64,1.577,23.334,23.334,0,0,1-4.592.3H2.43v8.4H.625V-34.23Z" transform="translate(-0.625 35.028)" fill="none" stroke="#fff" stroke-width="1.25"/>
      <path id="path18" d="M21.922-29.88h1.719v13.359H21.922Zm.853-5.5a1.365,1.365,0,0,1,1,.417,1.376,1.376,0,0,1,.416,1.007,1.361,1.361,0,0,1-.416.995,1.362,1.362,0,0,1-1,.418,1.348,1.348,0,0,1-.99-.418,1.36,1.36,0,0,1-.416-.995,1.375,1.375,0,0,1,.416-1.007,1.35,1.35,0,0,1,.99-.417" transform="translate(-6.991 35.381)" fill="#fff"/>
      <path id="path20" d="M21.922-29.88h1.719v13.359H21.922Zm.853-5.5a1.365,1.365,0,0,1,1,.417,1.376,1.376,0,0,1,.416,1.007,1.361,1.361,0,0,1-.416.995,1.362,1.362,0,0,1-1,.418,1.348,1.348,0,0,1-.99-.418,1.36,1.36,0,0,1-.416-.995,1.375,1.375,0,0,1,.416-1.007A1.35,1.35,0,0,1,22.776-35.381Z" transform="translate(-6.991 35.381)" fill="none" stroke="#fff" stroke-width="1.25"/>
      <path id="path22" d="M30.637-27.6h1.719V-25.2a7.175,7.175,0,0,1,2.284-2.056,5.608,5.608,0,0,1,2.726-.682,4.735,4.735,0,0,1,2.658.761,4.534,4.534,0,0,1,1.713,2.051,10.845,10.845,0,0,1,.552,4.015v6.877H40.569v-6.373a15.689,15.689,0,0,0-.191-3.081,3.382,3.382,0,0,0-1.146-2,3.461,3.461,0,0,0-2.21-.669,4.237,4.237,0,0,0-2.794,1.032A4.831,4.831,0,0,0,32.6-22.772a17.787,17.787,0,0,0-.245,3.635v4.9H30.637V-27.6" transform="translate(-9.835 33.098)" fill="#fff"/>
      <path id="path24" d="M30.637-27.6h1.719V-25.2a7.175,7.175,0,0,1,2.284-2.056,5.608,5.608,0,0,1,2.726-.682,4.735,4.735,0,0,1,2.658.761,4.534,4.534,0,0,1,1.713,2.051,10.845,10.845,0,0,1,.552,4.015v6.877H40.569v-6.373a15.689,15.689,0,0,0-.191-3.081,3.382,3.382,0,0,0-1.146-2,3.461,3.461,0,0,0-2.21-.669,4.237,4.237,0,0,0-2.794,1.032A4.831,4.831,0,0,0,32.6-22.772a17.787,17.787,0,0,0-.245,3.635v4.9H30.637Z" transform="translate(-9.835 33.098)" fill="none" stroke="#fff" stroke-width="1.25"/>
      <path id="path26" d="M53.6-27.6h1.719V-25.2A7.175,7.175,0,0,1,57.6-27.259a5.608,5.608,0,0,1,2.726-.682,4.736,4.736,0,0,1,2.658.761,4.534,4.534,0,0,1,1.713,2.051,10.845,10.845,0,0,1,.552,4.015v6.877H63.528v-6.373a15.688,15.688,0,0,0-.191-3.081,3.382,3.382,0,0,0-1.146-2,3.461,3.461,0,0,0-2.21-.669,4.238,4.238,0,0,0-2.794,1.032,4.831,4.831,0,0,0-1.627,2.554,17.788,17.788,0,0,0-.245,3.635v4.9H53.6V-27.6" transform="translate(-16.88 33.098)" fill="#fff"/>
      <path id="path28" d="M53.6-27.6h1.719V-25.2A7.175,7.175,0,0,1,57.6-27.259a5.608,5.608,0,0,1,2.726-.682,4.736,4.736,0,0,1,2.658.761,4.534,4.534,0,0,1,1.713,2.051,10.845,10.845,0,0,1,.552,4.015v6.877H63.528v-6.373a15.688,15.688,0,0,0-.191-3.081,3.382,3.382,0,0,0-1.146-2,3.461,3.461,0,0,0-2.21-.669,4.238,4.238,0,0,0-2.794,1.032,4.831,4.831,0,0,0-1.627,2.554,17.788,17.788,0,0,0-.245,3.635v4.9H53.6V-27.6Z" transform="translate(-16.88 33.098)" fill="none" stroke="#fff" stroke-width="1.25"/>
      <path id="path30" d="M75.938-29.88h1.719v13.359H75.938Zm.853-5.5a1.365,1.365,0,0,1,1,.417,1.377,1.377,0,0,1,.415,1.007,1.362,1.362,0,0,1-.415.995,1.363,1.363,0,0,1-1,.418,1.349,1.349,0,0,1-.99-.418,1.36,1.36,0,0,1-.415-.995,1.375,1.375,0,0,1,.415-1.007,1.351,1.351,0,0,1,.99-.417" transform="translate(-23.567 35.381)" fill="#fff"/>
      <path id="path32" d="M75.938-29.88h1.719v13.359H75.938Zm.853-5.5a1.365,1.365,0,0,1,1,.417,1.377,1.377,0,0,1,.415,1.007,1.362,1.362,0,0,1-.415.995,1.363,1.363,0,0,1-1,.418,1.349,1.349,0,0,1-.99-.418,1.36,1.36,0,0,1-.415-.995,1.375,1.375,0,0,1,.415-1.007A1.351,1.351,0,0,1,76.791-35.381Z" transform="translate(-23.567 35.381)" fill="none" stroke="#fff" stroke-width="1.25"/>
      <path id="path34" d="M84.651-27.6H86.37V-25.2a7.175,7.175,0,0,1,2.283-2.056,5.61,5.61,0,0,1,2.726-.682,4.737,4.737,0,0,1,2.658.761,4.535,4.535,0,0,1,1.713,2.051,10.836,10.836,0,0,1,.553,4.015v6.877H94.584v-6.373a15.718,15.718,0,0,0-.191-3.081,3.385,3.385,0,0,0-1.146-2,3.462,3.462,0,0,0-2.211-.669,4.238,4.238,0,0,0-2.794,1.032,4.83,4.83,0,0,0-1.627,2.554,17.762,17.762,0,0,0-.245,3.635v4.9H84.651V-27.6" transform="translate(-26.41 33.098)" fill="#fff"/>
      <path id="path36" d="M84.651-27.6H86.37V-25.2a7.175,7.175,0,0,1,2.283-2.056,5.61,5.61,0,0,1,2.726-.682,4.737,4.737,0,0,1,2.658.761,4.535,4.535,0,0,1,1.713,2.051,10.836,10.836,0,0,1,.553,4.015v6.877H94.584v-6.373a15.718,15.718,0,0,0-.191-3.081,3.385,3.385,0,0,0-1.146-2,3.462,3.462,0,0,0-2.211-.669,4.238,4.238,0,0,0-2.794,1.032,4.83,4.83,0,0,0-1.627,2.554,17.762,17.762,0,0,0-.245,3.635v4.9H84.651V-27.6Z" transform="translate(-26.41 33.098)" fill="none" stroke="#fff" stroke-width="1.25"/>
      <path id="path38" d="M113.751-26.283a5.433,5.433,0,0,0-2.713.706,5.117,5.117,0,0,0-1.964,1.952,5.339,5.339,0,0,0-.712,2.7,4.858,4.858,0,0,0,1.474,3.635,5.238,5.238,0,0,0,3.818,1.437,5.192,5.192,0,0,0,3.812-1.424,5.03,5.03,0,0,0,1.443-3.745,5.43,5.43,0,0,0-.663-2.7,4.833,4.833,0,0,0-1.879-1.872,5.227,5.227,0,0,0-2.616-.687Zm5.071-1.314h1.719v10.646a12.567,12.567,0,0,1-.491,4.113A5.35,5.35,0,0,1,117.706-10a7.706,7.706,0,0,1-4.015,1,9.185,9.185,0,0,1-3.088-.487,6.194,6.194,0,0,1-2.229-1.305,7.777,7.777,0,0,1-1.584-2.4h1.866a4.93,4.93,0,0,0,1.967,1.964,6.321,6.321,0,0,0,2.987.639,6.173,6.173,0,0,0,2.969-.655,4.021,4.021,0,0,0,1.727-1.646,7.34,7.34,0,0,0,.516-3.2v-.688a6.513,6.513,0,0,1-2.373,1.884,6.921,6.921,0,0,1-2.974.657,6.953,6.953,0,0,1-3.466-.915,6.494,6.494,0,0,1-2.507-2.462,6.727,6.727,0,0,1-.885-3.4,6.81,6.81,0,0,1,.922-3.456,6.767,6.767,0,0,1,2.55-2.535,6.8,6.8,0,0,1,3.435-.933,6.4,6.4,0,0,1,2.8.62,7.718,7.718,0,0,1,2.5,2.044V-27.6" transform="translate(-33.151 33.098)" fill="#fff"/>
      <path id="path40" d="M113.751-26.283a5.433,5.433,0,0,0-2.713.706,5.117,5.117,0,0,0-1.964,1.952,5.339,5.339,0,0,0-.712,2.7,4.858,4.858,0,0,0,1.474,3.635,5.238,5.238,0,0,0,3.818,1.437,5.192,5.192,0,0,0,3.812-1.424,5.03,5.03,0,0,0,1.443-3.745,5.43,5.43,0,0,0-.663-2.7,4.833,4.833,0,0,0-1.879-1.872,5.227,5.227,0,0,0-2.616-.687Zm5.071-1.314h1.719v10.646a12.567,12.567,0,0,1-.491,4.113A5.35,5.35,0,0,1,117.706-10a7.706,7.706,0,0,1-4.015,1,9.185,9.185,0,0,1-3.088-.487,6.194,6.194,0,0,1-2.229-1.305,7.777,7.777,0,0,1-1.584-2.4h1.866a4.93,4.93,0,0,0,1.967,1.964,6.321,6.321,0,0,0,2.987.639,6.173,6.173,0,0,0,2.969-.655,4.021,4.021,0,0,0,1.727-1.646,7.34,7.34,0,0,0,.516-3.2v-.688a6.513,6.513,0,0,1-2.373,1.884,6.921,6.921,0,0,1-2.974.657,6.953,6.953,0,0,1-3.466-.915,6.494,6.494,0,0,1-2.507-2.462,6.727,6.727,0,0,1-.885-3.4,6.81,6.81,0,0,1,.922-3.456,6.767,6.767,0,0,1,2.55-2.535,6.8,6.8,0,0,1,3.435-.933,6.4,6.4,0,0,1,2.8.62,7.718,7.718,0,0,1,2.5,2.044Z" transform="translate(-33.151 33.098)" fill="none" stroke="#fff" stroke-width="1.25"/>
      <path id="path42" d="M133.978-34.6H135.7v4.961h2.725v1.485H135.7v11.874h-1.719V-28.156h-2.345v-1.485h2.345V-34.6" transform="translate(-40.827 35.142)" fill="#fff"/>
      <path id="path44" d="M133.978-34.6H135.7v4.961h2.725v1.485H135.7v11.874h-1.719V-28.156h-2.345v-1.485h2.345Z" transform="translate(-40.827 35.142)" fill="none" stroke="#fff" stroke-width="1.25"/>
      <path id="path46" d="M152.012-26.259a4.957,4.957,0,0,0-3.685,1.584,5.3,5.3,0,0,0-1.54,3.831,5.436,5.436,0,0,0,.7,2.7,4.969,4.969,0,0,0,1.9,1.934,5.2,5.2,0,0,0,2.625.681,5.2,5.2,0,0,0,2.624-.681,4.981,4.981,0,0,0,1.9-1.934,5.436,5.436,0,0,0,.7-2.7,5.286,5.286,0,0,0-1.547-3.831A4.966,4.966,0,0,0,152.012-26.259Zm0-1.682a6.619,6.619,0,0,1,5.118,2.235,6.949,6.949,0,0,1,1.845,4.825,6.951,6.951,0,0,1-1.949,4.894,6.544,6.544,0,0,1-5.013,2.093,6.557,6.557,0,0,1-5.023-2.093,6.951,6.951,0,0,1-1.949-4.894,6.938,6.938,0,0,1,1.845-4.813,6.614,6.614,0,0,1,5.128-2.247" transform="translate(-44.943 33.098)" fill="#fff"/>
      <path id="path48" d="M152.012-26.259a4.957,4.957,0,0,0-3.685,1.584,5.3,5.3,0,0,0-1.54,3.831,5.436,5.436,0,0,0,.7,2.7,4.969,4.969,0,0,0,1.9,1.934,5.2,5.2,0,0,0,2.625.681,5.2,5.2,0,0,0,2.624-.681,4.981,4.981,0,0,0,1.9-1.934,5.436,5.436,0,0,0,.7-2.7,5.286,5.286,0,0,0-1.547-3.831A4.966,4.966,0,0,0,152.012-26.259Zm0-1.682a6.619,6.619,0,0,1,5.118,2.235,6.949,6.949,0,0,1,1.845,4.825,6.951,6.951,0,0,1-1.949,4.894,6.544,6.544,0,0,1-5.013,2.093,6.557,6.557,0,0,1-5.023-2.093,6.951,6.951,0,0,1-1.949-4.894,6.938,6.938,0,0,1,1.845-4.813A6.614,6.614,0,0,1,152.017-27.941Z" transform="translate(-44.943 33.098)" fill="none" stroke="#fff" stroke-width="1.25"/>
      <path id="path50" d="M170.571-27.6h1.719V-25.2a7.17,7.17,0,0,1,2.284-2.056,5.606,5.606,0,0,1,2.725-.682,4.736,4.736,0,0,1,2.658.761,4.533,4.533,0,0,1,1.713,2.051,10.821,10.821,0,0,1,.554,4.015v6.877H180.5v-6.373a15.8,15.8,0,0,0-.191-3.081,3.387,3.387,0,0,0-1.146-2,3.461,3.461,0,0,0-2.21-.669,4.238,4.238,0,0,0-2.794,1.032,4.832,4.832,0,0,0-1.627,2.554,17.773,17.773,0,0,0-.245,3.635v4.9h-1.719V-27.6" transform="translate(-52.776 33.098)" fill="#fff"/>
      <path id="path52" d="M170.571-27.6h1.719V-25.2a7.17,7.17,0,0,1,2.284-2.056,5.606,5.606,0,0,1,2.725-.682,4.736,4.736,0,0,1,2.658.761,4.533,4.533,0,0,1,1.713,2.051,10.821,10.821,0,0,1,.554,4.015v6.877H180.5v-6.373a15.8,15.8,0,0,0-.191-3.081,3.387,3.387,0,0,0-1.146-2,3.461,3.461,0,0,0-2.21-.669,4.238,4.238,0,0,0-2.794,1.032,4.832,4.832,0,0,0-1.627,2.554,17.773,17.773,0,0,0-.245,3.635v4.9h-1.719V-27.6Z" transform="translate(-52.776 33.098)" fill="none" stroke="#fff" stroke-width="1.25"/>
      <path id="path54" d="M193.938-34.23h1.806v16.318h6.949v1.744h-8.754V-34.23" transform="translate(-59.947 35.028)" fill="#fff"/>
      <path id="path56" d="M193.938-34.23h1.806v16.318h6.949v1.744h-8.754Z" transform="translate(-59.947 35.028)" fill="none" stroke="#fff" stroke-width="1.25"/>
      <path id="path58" d="M217.3-26.283a5.184,5.184,0,0,0-2.649.7,5.173,5.173,0,0,0-1.932,1.981A5.43,5.43,0,0,0,212-20.9a5.435,5.435,0,0,0,.723,2.7,5.269,5.269,0,0,0,1.944,2.005,5.073,5.073,0,0,0,2.618.717,5.36,5.36,0,0,0,2.674-.712,4.973,4.973,0,0,0,1.944-1.925,5.5,5.5,0,0,0,.68-2.736,5.319,5.319,0,0,0-1.527-3.875,5.056,5.056,0,0,0-3.759-1.558Zm6.869-1.314v13.359h-1.694v-2.3a7.368,7.368,0,0,1-2.425,1.977,6.55,6.55,0,0,1-2.941.663,6.519,6.519,0,0,1-4.843-2.057,6.894,6.894,0,0,1-2.008-5,6.772,6.772,0,0,1,2.026-4.936,6.608,6.608,0,0,1,4.874-2.051,6.3,6.3,0,0,1,2.978.7,6.786,6.786,0,0,1,2.339,2.1V-27.6h1.694" transform="translate(-64.953 33.098)" fill="#fff"/>
      <path id="path60" d="M217.3-26.283a5.184,5.184,0,0,0-2.649.7,5.173,5.173,0,0,0-1.932,1.981A5.43,5.43,0,0,0,212-20.9a5.435,5.435,0,0,0,.723,2.7,5.269,5.269,0,0,0,1.944,2.005,5.073,5.073,0,0,0,2.618.717,5.36,5.36,0,0,0,2.674-.712,4.973,4.973,0,0,0,1.944-1.925,5.5,5.5,0,0,0,.68-2.736,5.319,5.319,0,0,0-1.527-3.875,5.056,5.056,0,0,0-3.759-1.558Zm6.869-1.314v13.359h-1.694v-2.3a7.368,7.368,0,0,1-2.425,1.977,6.55,6.55,0,0,1-2.941.663,6.519,6.519,0,0,1-4.843-2.057,6.894,6.894,0,0,1-2.008-5,6.772,6.772,0,0,1,2.026-4.936,6.608,6.608,0,0,1,4.874-2.051,6.3,6.3,0,0,1,2.978.7,6.786,6.786,0,0,1,2.339,2.1V-27.6Z" transform="translate(-64.953 33.098)" fill="none" stroke="#fff" stroke-width="1.25"/>
      <path id="path62" d="M234.135-27.445H235.9l4.095,9.7,4.263-9.7h.311l4.291,9.7,4.174-9.7h1.787l-5.8,13.359H248.7l-4.271-9.566-4.27,9.566h-.32l-5.706-13.359" transform="translate(-72.282 32.946)" fill="#fff"/>
      <path id="path64" d="M234.135-27.445H235.9l4.095,9.7,4.263-9.7h.311l4.291,9.7,4.174-9.7h1.787l-5.8,13.359H248.7l-4.271-9.566-4.27,9.566h-.32l-5.706-13.359Z" transform="translate(-72.282 32.946)" fill="none" stroke="#fff" stroke-width="1.25"/>
    </g>
  </g>
</svg>
