<svg xmlns="http://www.w3.org/2000/svg" width="190" height="26.74" viewBox="0 0 190 26.74">
  <g id="blackrock-logo" transform="translate(0)">
    <g id="BlackRock_Wordmark_Blk_RGB_R" data-name="BlackRock_Wordmark_Blk_RGB+R" transform="translate(0 0)">
      <path id="Shape" d="M87.81,26.421l-4.457-7.762-2.9,3.045v4.717H74.626V.164h5.831V14.722L87.439,7H94.2l-6.611,7.2,7.056,12.219Zm-57.787,0V.164H24.044v26.22h5.979Zm109.558-9.842c0-6.314-4.9-10.287-10.7-10.287s-10.7,3.974-10.7,10.287,4.9,10.324,10.7,10.324S139.581,22.93,139.581,16.579Zm-5.9,0c0,3.305-2.191,5.162-4.791,5.162s-4.791-1.857-4.791-5.162c0-3.342,2.191-5.125,4.791-5.125S133.676,13.236,133.676,16.579Zm-111.9,2.34a6.479,6.479,0,0,0-4.2-6.276C20.256,11.082,21,9.337,21,7.146,21,3.321,18.213.164,12.048.164H.164v26.22h12.4C18.77,26.421,21.778,23.375,21.778,18.919ZM14.648,7.926c0,1.783-1.151,2.823-3.305,2.823H6.4v-5.5h4.939C13.348,5.252,14.648,6.143,14.648,7.926Zm.631,10.547c0,1.708-1.188,2.86-3.417,2.86H6.4V15.613h5.459C14.016,15.613,15.279,16.69,15.279,18.473Zm57.9-6.871c-1.671-3.491-4.791-5.274-9.247-5.274-5.459,0-10.436,3.454-10.436,10.25,0,6.648,4.382,10.324,10.362,10.324,4.345,0,7.651-1.671,9.322-5.237L68.35,19.179A4.708,4.708,0,0,1,63.968,21.7c-2.711,0-4.568-1.968-4.568-5.162s2.117-5.125,4.531-5.125A4.5,4.5,0,0,1,68.2,14.091Zm87.87,0c-1.671-3.491-4.791-5.274-9.247-5.274-5.459,0-10.436,3.454-10.436,10.25,0,6.648,4.382,10.324,10.362,10.324,4.345,0,7.651-1.671,9.322-5.237l-4.828-2.488a4.708,4.708,0,0,1-4.382,2.525c-2.711,0-4.568-1.968-4.568-5.162s2.117-5.125,4.531-5.125a4.5,4.5,0,0,1,4.271,2.674Zm21.466,14.818L175.457,14.2,182.068,7h-6.759l-6.945,7.725V.164h-5.831v26.22h5.831V21.667l2.9-3.045,4.457,7.762h6.8Zm-71.269,0-4.977-8.839h-3.825v8.839H96.278V.164h11.1c6.016,0,10.213,2.86,10.213,8.5a8.171,8.171,0,0,1-4.977,7.725l5.756,9.99h-7.131Zm-8.8-14.038h4.568c2.86,0,4.234-1.6,4.234-3.528,0-2.265-1.3-3.491-4.234-3.491h-4.568ZM52.677,26.2V22.113a3.936,3.936,0,0,1-1.077.149.936.936,0,0,1-1.077-1.04V13.534c0-5.311-4.308-7.242-8.876-7.242a14.826,14.826,0,0,0-8.8,2.637l2.934,3.937a9.791,9.791,0,0,1,5.2-1.671c2.191,0,3.64,1,3.64,2.934V15.2l-4.9-.854c-4.419.334-7.428,2.525-7.428,6.351,0,4.382,3.231,6.2,7.465,6.091l5.385-2.08a4.174,4.174,0,0,0,3.974,2.117A8.937,8.937,0,0,0,52.677,26.2Zm-8.059-4.382a10.713,10.713,0,0,1-3.6.706c-1.746,0-2.711-.928-2.711-2.191,0-1.337,1.04-2.228,2.785-2.228a19.231,19.231,0,0,1,3.528.409Z" transform="translate(-0.164 -0.164)" fill="#fff"/>
      <path id="Shape-2" data-name="Shape" d="M135.251,18.01a3,3,0,0,1,.817-2.228,3.052,3.052,0,0,1,2.265-.854,3.532,3.532,0,0,1,1.3.223,2.9,2.9,0,0,1,.966.631,2.823,2.823,0,0,1,.594.966,3.689,3.689,0,0,1,0,2.525,2.823,2.823,0,0,1-.594.966,2.9,2.9,0,0,1-.966.631,3.532,3.532,0,0,1-1.3.223,2.879,2.879,0,0,1-3.082-3.082Zm.483,0a2.557,2.557,0,0,0,.706,1.968,2.682,2.682,0,0,0,1.894.668,2.589,2.589,0,0,0,1.857-.668,2.557,2.557,0,0,0,.706-1.968,2.557,2.557,0,0,0-.706-1.968,2.651,2.651,0,0,0-1.857-.668,2.682,2.682,0,0,0-1.894.668A2.765,2.765,0,0,0,135.734,18.01Zm1.411-1.56h1.263a1.179,1.179,0,0,1,.854.26.951.951,0,0,1,.3.706,1.063,1.063,0,0,1-.149.631,1.014,1.014,0,0,1-.446.334l.594,1.077h-.631l-.557-1H137.7v1h-.557Zm.557.483V18.01h.631a.843.843,0,0,0,.483-.111.463.463,0,0,0,.149-.409c0-.334-.186-.52-.557-.52H137.7Z" transform="translate(48.584 5.164)" fill="#fff"/>
    </g>
  </g>
</svg>
