<svg xmlns="http://www.w3.org/2000/svg" width="240.194" height="70.656" viewBox="0 0 240.194 70.656">
  <g id="Group_679" data-name="Group 679" transform="translate(-589 -4663.451)">
    <path id="Path_918" data-name="Path 918" d="M8.985-16.405l8.659,27.219h.332l8.676-27.219h8.4L22.7,19.42H12.938L.571-16.405ZM48.4,19.945a14.247,14.247,0,0,1-7.128-1.688,11.418,11.418,0,0,1-4.592-4.793,15.788,15.788,0,0,1-1.609-7.356,15.707,15.707,0,0,1,1.609-7.277,11.878,11.878,0,0,1,4.539-4.881A13.175,13.175,0,0,1,48.1-7.8a14.221,14.221,0,0,1,4.959.848A11.178,11.178,0,0,1,57.082-4.4a11.594,11.594,0,0,1,2.685,4.26,17.014,17.014,0,0,1,.962,5.991V7.893H38.041V3.274H53.714a5.709,5.709,0,0,0-.7-2.851,5.091,5.091,0,0,0-1.933-1.95,5.64,5.64,0,0,0-2.86-.708,5.737,5.737,0,0,0-3,.778A5.583,5.583,0,0,0,43.184.624a5.929,5.929,0,0,0-.752,2.9V7.91a7.473,7.473,0,0,0,.743,3.446A5.322,5.322,0,0,0,45.283,13.6a6.366,6.366,0,0,0,3.236.787,7.047,7.047,0,0,0,2.274-.35,4.72,4.72,0,0,0,1.767-1.05,4.564,4.564,0,0,0,1.12-1.714l6.892.455a9.4,9.4,0,0,1-2.143,4.329,10.766,10.766,0,0,1-4.163,2.869A15.646,15.646,0,0,1,48.4,19.945Zm17.2-.525V-7.449h7.225v4.688h.28a6.983,6.983,0,0,1,2.466-3.787,6.513,6.513,0,0,1,3.988-1.286,11.272,11.272,0,0,1,1.207.07,8.5,8.5,0,0,1,1.137.192V-.959a9.736,9.736,0,0,0-1.452-.28,13.043,13.043,0,0,0-1.7-.122,5.97,5.97,0,0,0-2.93.708,5.264,5.264,0,0,0-2.029,1.968,5.6,5.6,0,0,0-.743,2.9v15.2Zm20.274,0V-16.405h7.452V-2.936h.227a9.879,9.879,0,0,1,1.426-2.213A7.5,7.5,0,0,1,97.42-7.038a8.347,8.347,0,0,1,3.77-.761,10.142,10.142,0,0,1,5.423,1.531,10.691,10.691,0,0,1,3.971,4.6,17.594,17.594,0,0,1,1.487,7.688,17.844,17.844,0,0,1-1.443,7.583,10.777,10.777,0,0,1-3.918,4.671,10.059,10.059,0,0,1-5.536,1.583,8.55,8.55,0,0,1-3.682-.717,7.547,7.547,0,0,1-2.475-1.811,9,9,0,0,1-1.469-2.213h-.332v4.3ZM93.161,5.986a11.959,11.959,0,0,0,.665,4.181,6.148,6.148,0,0,0,1.924,2.773,5.225,5.225,0,0,0,6.14-.017,6.207,6.207,0,0,0,1.915-2.8,12.008,12.008,0,0,0,.656-4.137,11.872,11.872,0,0,0-.647-4.093,6.1,6.1,0,0,0-1.907-2.764,4.833,4.833,0,0,0-3.1-1,4.885,4.885,0,0,0-3.07.962,6,6,0,0,0-1.915,2.729A11.811,11.811,0,0,0,93.161,5.986Zm23.86,13.435V-7.449h7.452V19.42Zm3.761-30.333a4.031,4.031,0,0,1-2.851-1.111,3.522,3.522,0,0,1-1.189-2.668,3.5,3.5,0,0,1,1.189-2.65,4.01,4.01,0,0,1,2.834-1.111,4.023,4.023,0,0,1,2.86,1.111,3.515,3.515,0,0,1,1.181,2.65,3.534,3.534,0,0,1-1.181,2.668A4,4,0,0,1,120.782-10.912ZM152.776.213l-6.822.42A3.587,3.587,0,0,0,145.2-.95a4.129,4.129,0,0,0-1.513-1.137,5.322,5.322,0,0,0-2.23-.429,5.51,5.51,0,0,0-2.921.726A2.19,2.19,0,0,0,137.348.143a2.07,2.07,0,0,0,.77,1.627,6.109,6.109,0,0,0,2.641,1.067l4.863.98a12.056,12.056,0,0,1,5.843,2.589,6.094,6.094,0,0,1,1.924,4.688,7.345,7.345,0,0,1-1.548,4.636,10.111,10.111,0,0,1-4.233,3.1,16.072,16.072,0,0,1-6.184,1.111,14.458,14.458,0,0,1-8.493-2.23,8.618,8.618,0,0,1-3.7-6.079l7.329-.385a3.734,3.734,0,0,0,1.609,2.475,6.827,6.827,0,0,0,6.429.087,2.309,2.309,0,0,0,1.216-1.968,2.081,2.081,0,0,0-.857-1.671,6.243,6.243,0,0,0-2.589-1.006l-4.653-.927a11.092,11.092,0,0,1-5.851-2.729,6.754,6.754,0,0,1-1.915-4.95A7.208,7.208,0,0,1,131.356-3.9a8.937,8.937,0,0,1,3.971-2.886A16.272,16.272,0,0,1,141.336-7.8q5.09,0,8.02,2.152A8.319,8.319,0,0,1,152.776.213Z" transform="translate(675.806 4698.42)" fill="#fff"/>
    <path id="Path_83" data-name="Path 83" d="M58.632-18.551a38.981,38.981,0,0,1-4.317-1.191,13.216,13.216,0,0,1-3.423-1.686l.794-3.772H76.891L76.1-21.428a26.115,26.115,0,0,1-3.424,1.588,28.524,28.524,0,0,1-4.317,1.289L32.235,44.265l-9.924,1.191L10.3-18.551a27.171,27.171,0,0,1-3.92-1.241,11.383,11.383,0,0,1-2.928-1.637L4.25-25.2H37L36.2-21.428a29.72,29.72,0,0,1-4.068,1.637,43.938,43.938,0,0,1-4.663,1.241l5.657,39.1.3,9.328h.2l4.168-9.527Z" transform="translate(585.544 4688.651)" fill="#fff"/>
  </g>
</svg>
