<svg xmlns="http://www.w3.org/2000/svg" width="180" height="41.567" viewBox="0 0 180 41.567">
  <g id="driving_logo-black" data-name="driving logo-black" transform="translate(0 0.001)">
    <g id="Group_411" data-name="Group 411" transform="translate(0 15.666)">
      <g id="Group_410" data-name="Group 410">
        <g id="Group_409" data-name="Group 409">
          <path id="Path_398" data-name="Path 398" d="M0,67.524v-.283H9.444a18.331,18.331,0,0,1,3.656.341,15.531,15.531,0,0,1,3,.908,12.765,12.765,0,0,1,2.29,1.241,10.736,10.736,0,0,1,1.632,1.374A12.3,12.3,0,0,1,22,73.7,12.108,12.108,0,0,1,23.227,76.7a13.027,13.027,0,0,1,.408,3.264,12.487,12.487,0,0,1-.4,3.2,11.3,11.3,0,0,1-1.149,2.807,11.527,11.527,0,0,1-1.791,2.34,12.928,12.928,0,0,1-2.423,1.9,11.392,11.392,0,0,1-2.715,1.132,15.821,15.821,0,0,1-4.147.433H0v-.267H.333a1.91,1.91,0,0,0,1.716-.866,3.293,3.293,0,0,0,.566-1.832V70.289a3.562,3.562,0,0,0-.308-1.566,2,2,0,0,0-.825-.916,2.352,2.352,0,0,0-1.149-.283H0Zm5.147.883V87.844A3.811,3.811,0,0,0,5.6,89.951a2.16,2.16,0,0,0,1.424.874,15,15,0,0,0,2.831.2,16.562,16.562,0,0,0,4.5-.525,8.016,8.016,0,0,0,3.548-2.34,10.225,10.225,0,0,0,2.032-3.3,12.9,12.9,0,0,0,.766-4.714,15.559,15.559,0,0,0-.616-4.322,11.477,11.477,0,0,0-1.882-3.806,9.744,9.744,0,0,0-3.639-2.948,12.3,12.3,0,0,0-5.355-1.066A26.1,26.1,0,0,0,5.147,68.407Z" transform="translate(0 -66.524)" fill="#1d1d1b"/>
          <path id="Path_399" data-name="Path 399" d="M126.029,67.59H125.7v-.35h8.494a8.531,8.531,0,0,1,3.473.633,5.845,5.845,0,0,1,2.215,1.607,6.233,6.233,0,0,1,1.132,2.057,7.065,7.065,0,0,1,.341,2.132,6.1,6.1,0,0,1-.558,2.557,5.506,5.506,0,0,1-1.716,2.107,6.659,6.659,0,0,1-2.89,1.2V79.6a10.255,10.255,0,0,1,4.064,4.231l2.215,3.748a11.8,11.8,0,0,0,2.407,3.181,3.616,3.616,0,0,0,1.791.749v.267H142.2q-.283-.366-.533-.708t-.533-.725q-.167-.25-.491-.758a6.036,6.036,0,0,0-.391-.575l-2.931-4.847a12.29,12.29,0,0,0-1.807-2.407,6.933,6.933,0,0,0-1.724-1.324,5.023,5.023,0,0,0-1.441-.5,9.938,9.938,0,0,0-1.507-.1v8.978a2.416,2.416,0,0,0,2.665,2.7v.267H125.7v-.267a3.723,3.723,0,0,0,1.3-.275,2.075,2.075,0,0,0,.941-.833,2.946,2.946,0,0,0,.375-1.591V70.255a2.569,2.569,0,0,0-.716-2.065A2.388,2.388,0,0,0,126.029,67.59Zm4.814,11.592h1.4a8.835,8.835,0,0,0,3.606-.633,4.151,4.151,0,0,0,2.04-1.807,5.991,5.991,0,0,0,.633-2.873,7.145,7.145,0,0,0-.566-2.773,5.146,5.146,0,0,0-1.924-2.282,6.4,6.4,0,0,0-3.656-.924,6.482,6.482,0,0,0-1.532.15Z" transform="translate(-95.07 -66.524)" fill="#1d1d1b"/>
          <path id="Path_400" data-name="Path 400" d="M253.691,67.241v.283a2.883,2.883,0,0,0-1.865.616,2.481,2.481,0,0,0-.766,2.049V88.81a2.456,2.456,0,0,0,.816,2.057,2.866,2.866,0,0,0,1.815.641v.267h-7.778v-.267a2.842,2.842,0,0,0,1.841-.624,2.515,2.515,0,0,0,.775-2.074V70.189a2.448,2.448,0,0,0-.775-2.1,3.034,3.034,0,0,0-1.841-.566v-.283Z" transform="translate(-185.996 -66.524)" fill="#1d1d1b"/>
          <path id="Path_401" data-name="Path 401" d="M335.084,67.24v.283a2.914,2.914,0,0,0-1.549.633,4.371,4.371,0,0,0-1.049,1.341q-.434.825-.983,2.19a.992.992,0,0,0-.167.4l-7.1,20.337h-.233l-8.361-22a.517.517,0,0,0-.067-.2,4.475,4.475,0,0,0-1.274-2.065,2.94,2.94,0,0,0-1.974-.633V67.24h8.061v.283a4.86,4.86,0,0,0-1.632.4q-.617.3-.616,1.432a5.833,5.833,0,0,0,.267,1.233,1.64,1.64,0,0,1,.058.175c.017.061.03.108.042.142l6.446,17.222h.066l5.53-16.04a8.3,8.3,0,0,0,.583-2.482q0-1.316-.558-1.666a3.583,3.583,0,0,0-1.657-.416V67.24h6.162Z" transform="translate(-236.232 -66.524)" fill="#1d1d1b"/>
          <path id="Path_402" data-name="Path 402" d="M448.255,67.241v.283a2.883,2.883,0,0,0-1.865.616,2.481,2.481,0,0,0-.766,2.049V88.81a2.456,2.456,0,0,0,.816,2.057,2.866,2.866,0,0,0,1.815.641v.267h-7.778v-.267a2.842,2.842,0,0,0,1.841-.624,2.515,2.515,0,0,0,.775-2.074V70.189a2.448,2.448,0,0,0-.775-2.1,3.034,3.034,0,0,0-1.841-.566v-.283Z" transform="translate(-333.154 -66.524)" fill="#1d1d1b"/>
          <path id="Path_403" data-name="Path 403" d="M532.471,67.239v.283A5.34,5.34,0,0,0,531,67.88a1.694,1.694,0,0,0-.841.949,5.435,5.435,0,0,0-.3,2.04V92.389h-.167l-18.838-21.02v15.09a18.96,18.96,0,0,0,.15,2.8,3.279,3.279,0,0,0,.433,1.316,2.607,2.607,0,0,0,2.149.933v.267h-6.146v-.267a3.106,3.106,0,0,0,1.608-.442,2.27,2.27,0,0,0,.816-1.432,15.043,15.043,0,0,0,.241-3.14V70.487l-.816-.916a6.818,6.818,0,0,0-1.732-1.557,5.853,5.853,0,0,0-1.616-.491v-.283h4.614l18.555,20.786V72.185a18.349,18.349,0,0,0-.141-2.665,2.3,2.3,0,0,0-.749-1.416,3.032,3.032,0,0,0-1.907-.583v-.283h6.162Z" transform="translate(-382.665 -66.522)" fill="#1d1d1b"/>
          <path id="Path_404" data-name="Path 404" d="M659.851,70.113h-.267a5.576,5.576,0,0,0-2.831-3.723,10.319,10.319,0,0,0-5.247-1.324,12.643,12.643,0,0,0-3.289.475,10.1,10.1,0,0,0-3.423,1.724,9.281,9.281,0,0,0-2.765,3.623,14.214,14.214,0,0,0-1.1,5.971q0,5.73,2.674,9.161t8.586,3.431a13.5,13.5,0,0,0,3.431-.316,2.245,2.245,0,0,0,1.408-.866,3.038,3.038,0,0,0,.308-1.482v-4.5a2.542,2.542,0,0,0-.691-2.115,4.353,4.353,0,0,0-2.074-.683v-.283h7.978v.283a4.23,4.23,0,0,0-1.7.475,1.755,1.755,0,0,0-.8.924,4.612,4.612,0,0,0-.2,1.5v6.829a29.072,29.072,0,0,1-7.562.983,23.789,23.789,0,0,1-3.981-.333,13.413,13.413,0,0,1-4.1-1.482,11.3,11.3,0,0,1-3.764-3.4A12.713,12.713,0,0,1,638,77.341a13.25,13.25,0,0,1,3.59-9.036,12.447,12.447,0,0,1,4.255-2.931,14.066,14.066,0,0,1,5.58-1.074,16.752,16.752,0,0,1,2.315.158q1.133.159,3.381.641a6.6,6.6,0,0,0,1.266.2,1.26,1.26,0,0,0,1.2-.816h.267Z" transform="translate(-482.548 -64.3)" fill="#1d1d1b"/>
        </g>
      </g>
    </g>
    <g id="Group_439" data-name="Group 439" transform="translate(47.968 -0.001)">
      <g id="Group_412" data-name="Group 412" transform="translate(0 7.086)">
        <path id="Path_405" data-name="Path 405" d="M201.754,31.2c-.22-1.079-.859-1.471-1.5-1.471h-.026v2.934c0,2.585.017,2.7.153,2.84a.785.785,0,0,0,.57.17v.179h-3.1v-.179a.783.783,0,0,0,.57-.17c.136-.145.153-.255.153-2.84V29.727h-.025c-.638,0-1.276.392-1.5,1.471h-.179V29.43h5.06V31.2Z" transform="translate(-196.873 -29.345)" fill="#1d1d1b"/>
        <path id="Path_406" data-name="Path 406" d="M222.12,35.85v-.179a.558.558,0,0,0,.442-.145c.153-.152.17-.3.17-2.738h-1.777c0,2.441.017,2.585.17,2.738a.557.557,0,0,0,.442.145v.179h-2.883v-.179a.562.562,0,0,0,.442-.145c.153-.152.169-.306.169-2.891s-.017-2.73-.169-2.882a.563.563,0,0,0-.442-.145V29.43h2.883v.179a.56.56,0,0,0-.442.145c-.145.144-.17.281-.17,2.619h1.777c0-2.338-.026-2.474-.17-2.619a.561.561,0,0,0-.442-.145V29.43H225v.179a.561.561,0,0,0-.442.145c-.154.153-.17.3-.17,2.882s.017,2.738.17,2.891a.559.559,0,0,0,.442.145v.179H222.12Z" transform="translate(-213.37 -29.345)" fill="#1d1d1b"/>
        <path id="Path_407" data-name="Path 407" d="M250.677,35.85h-4.668v-.179a.561.561,0,0,0,.442-.145c.153-.152.17-.306.17-2.891s-.017-2.73-.17-2.882a.562.562,0,0,0-.442-.145V29.43h4.583l.026,1.768h-.178c-.187-.867-.57-1.428-1.463-1.428h-.7v2.6h.332c.748,0,1.114-.187,1.215-.9h.179v2.287h-.179c-.1-.706-.467-.969-1.215-.969h-.332s.008,1.378.008,1.616c0,.766.137,1.1.894,1.1.807,0,1.215-.536,1.42-1.471h.179Z" transform="translate(-234.037 -29.345)" fill="#1d1d1b"/>
        <path id="Path_408" data-name="Path 408" d="M275.495,35.671a11.476,11.476,0,0,1-1.429-.221.631.631,0,0,0-.374.136h-.154v-1.82h.179a1.591,1.591,0,0,0,1.666,1.565.923.923,0,0,0,1.054-.944c0-1.488-2.934-1.352-2.934-3.35a1.858,1.858,0,0,1,2.04-1.956,11.75,11.75,0,0,1,1.293.2.393.393,0,0,0,.322-.11h.145v1.768h-.179c-.178-.688-.6-1.513-1.59-1.513-.645,0-.935.366-.935.766,0,1.318,3.121,1.233,3.121,3.477A2.053,2.053,0,0,1,275.495,35.671Z" transform="translate(-254.833 -29.081)" fill="#1d1d1b"/>
        <path id="Path_409" data-name="Path 409" d="M296.459,30.57V33.3c0,1.556-.562,2.636-2.321,2.636-1.667,0-2.364-.952-2.364-2v-2.3c0-1.3-.059-1.768-.17-1.879a.561.561,0,0,0-.442-.145V29.43h2.883v.179a.562.562,0,0,0-.442.145c-.119.118-.17.569-.17,1.938V34.2a1.065,1.065,0,0,0,1.165,1.216c.9,0,1.377-.68,1.377-2.075V30.57c0-.681-.068-.876-.672-.961V29.43h1.828v.179C296.527,29.694,296.459,29.89,296.459,30.57Z" transform="translate(-268.188 -29.345)" fill="#1d1d1b"/>
        <path id="Path_410" data-name="Path 410" d="M321.611,30.57v5.28h-.893l-3.308-4.567v3.427c0,.68.068.876.672.961v.179h-1.828v-.179c.6-.085.672-.281.672-.961V32.636c0-2.585-.017-2.73-.17-2.882a.561.561,0,0,0-.442-.145V29.43h2.109l2.7,3.792V30.57c0-.681-.068-.876-.672-.961V29.43h1.828v.179C321.679,29.694,321.611,29.89,321.611,30.57Z" transform="translate(-287.166 -29.345)" fill="#1d1d1b"/>
        <path id="Path_411" data-name="Path 411" d="M345.392,35.85h-3v-.179a.56.56,0,0,0,.442-.145c.154-.152.17-.306.17-2.891s-.017-2.73-.17-2.882a.562.562,0,0,0-.442-.145V29.43h2.857c2,0,3.1,1.182,3.1,3.215C348.343,34.456,347.7,35.85,345.392,35.85Zm-.357-6.08h-.374v4.711c0,.638.111,1.02.842,1.02.842,0,1.114-1.079,1.114-2.882C346.617,31.037,346.234,29.77,345.035,29.77Z" transform="translate(-306.935 -29.345)" fill="#1d1d1b"/>
        <path id="Path_412" data-name="Path 412" d="M368.037,35.852v-.179c.519-.051.782-.17.782-.467a7.614,7.614,0,0,0-.425-1.42h-1.649a9.325,9.325,0,0,0-.374,1.343c0,.34.213.536.595.536v.187H364.9v-.179c.638-.127.757-.238,1.1-1.249l1.658-4.992h1.113l1.837,5.332c.213.613.34.868.79.91v.179h-3.358Zm-.493-4.558-.663,2.075h1.377Z" transform="translate(-323.959 -29.346)" fill="#1d1d1b"/>
        <path id="Path_413" data-name="Path 413" d="M391.719,30.655l-1.106,2.33c0,2.253.025,2.4.17,2.542.076.077.2.137.552.145v.179h-3.1v-.179c.365-.009.476-.068.553-.145.144-.145.17-.289.17-2.542L387.8,30.757c-.552-1.072-.595-1.1-1.088-1.148V29.43h3.036v.179c-.382.017-.536.11-.536.34,0,.1.042.221.306.748l.859,1.726L391.1,30.9a3.062,3.062,0,0,0,.357-.944c0-.178-.111-.331-.476-.348V29.43h1.751v.179C392.221,29.677,392.143,29.77,391.719,30.655Z" transform="translate(-340.456 -29.345)" fill="#1d1d1b"/>
        <path id="Path_414" data-name="Path 414" d="M421.6,31.2c-.222-1.079-.859-1.471-1.5-1.471h-.025v2.934c0,2.585.016,2.7.152,2.84a.782.782,0,0,0,.57.17v.179h-3.1v-.179a.783.783,0,0,0,.57-.17c.136-.145.154-.255.154-2.84V29.727h-.026c-.638,0-1.275.392-1.5,1.471h-.178V29.43h5.059V31.2Z" transform="translate(-363.152 -29.345)" fill="#1d1d1b"/>
        <path id="Path_415" data-name="Path 415" d="M438.53,35.85v-.179a.561.561,0,0,0,.442-.145c.153-.152.17-.306.17-2.891s-.017-2.73-.17-2.882a.563.563,0,0,0-.442-.145V29.43h2.883v.179a.559.559,0,0,0-.442.145c-.154.153-.171.3-.171,2.882s.017,2.738.171,2.891a.557.557,0,0,0,.442.145v.179H438.53Z" transform="translate(-379.65 -29.345)" fill="#1d1d1b"/>
        <path id="Path_416" data-name="Path 416" d="M456.118,35.85v-.179a.559.559,0,0,0,.442-.145c.153-.152.17-.306.17-2.891V30.91l-1.683,4.949h-.528l-1.734-4.949v3.8c0,.68.068.876.672.961v.179h-1.7v-.179c.536-.077.613-.281.613-.961V32.636c0-2.585-.017-2.73-.17-2.882a.562.562,0,0,0-.443-.145V29.43h2.389l1.31,3.9,1.352-3.9H459v.179a.562.562,0,0,0-.442.145c-.153.153-.17.3-.17,2.882s.017,2.738.17,2.891a.559.559,0,0,0,.442.145v.179h-2.882Z" transform="translate(-389.652 -29.345)" fill="#1d1d1b"/>
        <path id="Path_417" data-name="Path 417" d="M487.552,35.85h-4.667v-.179a.558.558,0,0,0,.441-.145c.154-.152.171-.306.171-2.891s-.017-2.73-.171-2.882a.56.56,0,0,0-.441-.145V29.43h4.582l.026,1.768h-.178c-.187-.867-.57-1.428-1.463-1.428h-.7v2.6h.332c.748,0,1.113-.187,1.216-.9h.178v2.287H486.7c-.1-.706-.468-.969-1.216-.969h-.332s.009,1.378.009,1.616c0,.766.135,1.1.893,1.1.807,0,1.216-.536,1.42-1.471h.178Z" transform="translate(-413.198 -29.345)" fill="#1d1d1b"/>
        <path id="Path_418" data-name="Path 418" d="M505.844,35.671a11.464,11.464,0,0,1-1.428-.221.634.634,0,0,0-.374.136h-.153l.1-1.82h.179a1.485,1.485,0,0,0,1.564,1.565.923.923,0,0,0,1.055-.944c0-1.488-2.934-1.352-2.934-3.35a1.859,1.859,0,0,1,2.041-1.956,11.732,11.732,0,0,1,1.293.2.4.4,0,0,0,.323-.11h.145v1.768h-.178c-.179-.688-.6-1.513-1.59-1.513-.646,0-.935.366-.935.766,0,1.318,3.121,1.233,3.121,3.477A2.054,2.054,0,0,1,505.844,35.671Z" transform="translate(-429.058 -29.081)" fill="#1d1d1b"/>
      </g>
      <g id="Group_417" data-name="Group 417" transform="translate(27.392 4.132)">
        <path id="Path_419" data-name="Path 419" d="M338.768,18.8c0-.062.027-.3.027-.378s-.007-.3-.007-.345c0-.183.365-.372.809-.372.775,0,1.519.244,1.811.233l-.04.113a16.157,16.157,0,0,0-1.767-.24.865.865,0,0,0-.7.246,3.364,3.364,0,0,1-.026.651,2.605,2.605,0,0,1,.72-.128c.52,0,1.31.208,1.753.208a1.108,1.108,0,0,0,.246-.033l.076.1a1.434,1.434,0,0,1-.332.036c-.447,0-1.211-.2-1.737-.2a1.836,1.836,0,0,0-.674.125,2.324,2.324,0,0,0,.767.079v-.2l.122.008s0,.132,0,.175c0,.122-.176.125-.391.125C339.268,19,338.768,18.963,338.768,18.8Z" transform="translate(-331.587 -17.524)" fill="#1d1d1b" fill-rule="evenodd"/>
        <path id="Path_420" data-name="Path 420" d="M323.2,18.4c0-.108.05-.4.05-.473s-.007-.218-.007-.264c0-.18.348-.29.648-.29.708,0,2.322.529,3.158.479l.007.118c-.937,0-2.5-.487-3.166-.487-.213,0-.457.026-.551.19a2.173,2.173,0,0,1-.029.615,1.643,1.643,0,0,1,.432-.054c.655,0,2.233.469,3.206.469a3.959,3.959,0,0,0,.4-.018l.565.043a4.416,4.416,0,0,1-.866.1c-.973,0-2.779-.486-3.309-.486a1.512,1.512,0,0,0-.436.082.99.99,0,0,0,.558.186,1.088,1.088,0,0,0,.232-.021v-.212l.122.019v.2c0,.121-.189.132-.329.132C323.824,18.73,323.2,18.665,323.2,18.4Z" transform="translate(-319.813 -17.273)" fill="#1d1d1b" fill-rule="evenodd"/>
        <path id="Path_421" data-name="Path 421" d="M309.458,18.2a16.529,16.529,0,0,0,3.312.175l.007.111a15.352,15.352,0,0,1-2.863-.108,6,6,0,0,0,.894.5,7.3,7.3,0,0,1-.924.363,14.343,14.343,0,0,0,3.34.074l.359.021a13.165,13.165,0,0,1-4.287-.063,10.009,10.009,0,0,0,1.222-.4A6.488,6.488,0,0,1,309.458,18.2Z" transform="translate(-309.297 -17.898)" fill="#1d1d1b" fill-rule="evenodd"/>
        <path id="Path_422" data-name="Path 422" d="M375.225,18.8c0-.062-.026-.3-.026-.378s.007-.3.007-.345c0-.183-.365-.372-.809-.372-.775,0-1.519.244-1.81.233l.046.108a16.254,16.254,0,0,1,1.76-.235.864.864,0,0,1,.7.246,3.369,3.369,0,0,0,.027.651,2.618,2.618,0,0,0-.721-.128c-.52,0-1.309.208-1.754.208a1.11,1.11,0,0,1-.246-.033l-.076.1a1.441,1.441,0,0,0,.333.036c.447,0,1.21-.2,1.736-.2a1.834,1.834,0,0,1,.674.125,2.32,2.32,0,0,1-.766.079v-.2l-.122.008s0,.132,0,.175c0,.122.175.125.391.125C374.726,19,375.225,18.963,375.225,18.8Z" transform="translate(-356.967 -17.524)" fill="#1d1d1b" fill-rule="evenodd"/>
        <path id="Path_423" data-name="Path 423" d="M391.436,18.092a19.619,19.619,0,0,1,2.2-.273,1.647,1.647,0,0,1,.432.054,2.827,2.827,0,0,1-.034-.709c-.085-.07-.192-.1-.532-.1a23.1,23.1,0,0,0-2.588.363l-.084-.09a22.917,22.917,0,0,1,2.66-.376c.36,0,.648.055.648.234,0,.047-.008.253-.008.32s.05.364.05.473c0,.263-.624.329-.683.329-.14,0-.329-.012-.329-.132v-.215l.121-.012v.221a1.131,1.131,0,0,0,.232.021.832.832,0,0,0,.558-.186.833.833,0,0,0-.437-.082,22.052,22.052,0,0,0-2.207.284Z" transform="translate(-370.961 -16.956)" fill="#1d1d1b" fill-rule="evenodd"/>
        <path id="Path_424" data-name="Path 424" d="M381.957,22.69a4.956,4.956,0,0,1-.528.035,3.953,3.953,0,0,1-.4-.018l-.565.043a4.406,4.406,0,0,0,.866.1,6.176,6.176,0,0,0,.729-.058Z" transform="translate(-363.126 -21.293)" fill="#1d1d1b" fill-rule="evenodd"/>
        <path id="Path_425" data-name="Path 425" d="M403.867,17.727a7.579,7.579,0,0,1-2.17.189l-.007.111a5.337,5.337,0,0,0,1.72-.123,5.993,5.993,0,0,1-.894.5,7.182,7.182,0,0,0,.924.362,6.357,6.357,0,0,1-2.2.089l-.359.021a7.168,7.168,0,0,0,3.144-.078,9.86,9.86,0,0,1-1.222-.4A6.491,6.491,0,0,0,403.867,17.727Z" transform="translate(-378.568 -17.539)" fill="#1d1d1b" fill-rule="evenodd"/>
        <g id="Group_413" data-name="Group 413" transform="translate(4.404 0.349)">
          <path id="Path_426" data-name="Path 426" d="M327.617,18.429a.33.33,0,0,1,.306.324.222.222,0,0,1-.284.226l-.266-.045V18.9c.058.009.076,0,.076-.039v-.378c0-.04-.019-.055-.076-.065v-.032Zm-.042.447c0,.038.019.058.071.067.083.014.137-.05.136-.214s-.053-.245-.136-.259c-.052-.009-.071.005-.071.044Z" transform="translate(-327.373 -18.388)" fill="#1d1d1b"/>
          <path id="Path_427" data-name="Path 427" d="M330.249,19.438v-.031c.058.011.076,0,.076-.038v-.378c0-.039-.018-.056-.076-.067v-.032l.284.056v.032c-.058-.012-.077,0-.077.037v.378c0,.04.019.057.077.067v.032Z" transform="translate(-329.548 -18.769)" fill="#1d1d1b"/>
          <path id="Path_428" data-name="Path 428" d="M331.969,19.781v-.032c.058.012.076,0,.076-.037v-.378c0-.039-.018-.056-.076-.067v-.032l.482.1,0,.2-.034-.007a.235.235,0,0,0-.182-.194c-.047-.01-.064,0-.064.038v.154c.075.015.1,0,.122-.067l.031.006v.221l-.031-.006c-.021-.079-.047-.1-.122-.116v.181c0,.039.017.054.064.064a.157.157,0,0,0,.195-.133l.033.007,0,.206C332.311,19.856,332.1,19.811,331.969,19.781Z" transform="translate(-330.849 -19.029)" fill="#1d1d1b"/>
          <path id="Path_429" data-name="Path 429" d="M334.836,19.8v.031c-.061-.01-.079,0-.079.04V20.2a.13.13,0,0,0,.112.125c.088.014.133-.025.133-.118v-.289c0-.04-.02-.055-.085-.073V19.81l.2.03v.031c-.053,0-.072.01-.072.049V20.2c0,.125-.076.169-.207.149-.087-.013-.2-.066-.2-.188v-.315c0-.039-.019-.055-.076-.064v-.032Z" transform="translate(-332.809 -19.422)" fill="#1d1d1b"/>
        </g>
        <g id="Group_414" data-name="Group 414" transform="translate(8.162 0.413)">
          <path id="Path_430" data-name="Path 430" d="M343.287,18.691l0,.2-.034,0a.206.206,0,0,0-.185-.174c-.049,0-.066.006-.066.046v.154c.076.007.1-.009.123-.082l.032,0v.221l-.032,0a.113.113,0,0,0-.123-.1v.181c0,.039.017.053.066.057a.173.173,0,0,0,.2-.148l.035,0-.005.208c-.121-.019-.4-.045-.5-.049v-.032c.059.005.078-.006.078-.046v-.377c0-.04-.019-.054-.078-.059V18.65A3.964,3.964,0,0,1,343.287,18.691Z" transform="translate(-342.797 -18.65)" fill="#1d1d1b"/>
          <path id="Path_431" data-name="Path 431" d="M345.816,19l0,.194-.036-.006c-.021-.1-.067-.169-.154-.185v.425c0,.04.019.056.087.068v.032l-.3-.056v-.031c.068.013.087,0,.087-.037v-.425c-.086-.016-.132.04-.153.129l-.036-.007,0-.193C345.448,18.922,345.7,18.974,345.816,19Z" transform="translate(-344.698 -18.844)" fill="#1d1d1b"/>
        </g>
        <g id="Group_415" data-name="Group 415" transform="translate(15.865 0.384)">
          <path id="Path_432" data-name="Path 432" d="M374.409,19.658v-.031a.085.085,0,0,0,.077-.088v-.36c0-.041-.026-.043-.072-.036v-.032l.228-.037.111.352h0l.112-.388.229-.038v.032c-.057.009-.076.025-.076.065v.378c0,.039.019.049.076.04v.032l-.272.045v-.032c.051-.009.07-.024.07-.064v-.4h0l-.15.512-.067.011-.143-.464h0v.381c0,.054.035.067.082.061v.032Z" transform="translate(-374.409 -18.886)" fill="#1d1d1b"/>
          <path id="Path_433" data-name="Path 433" d="M377.745,18.708a.239.239,0,0,1,.276.242.34.34,0,0,1-.276.323.24.24,0,0,1-.276-.243A.34.34,0,0,1,377.745,18.708Zm0,.528c.092-.013.128-.112.128-.264s-.036-.241-.128-.227-.128.112-.128.264S377.653,19.249,377.745,19.236Z" transform="translate(-376.723 -18.663)" fill="#1d1d1b"/>
          <path id="Path_434" data-name="Path 434" d="M380.179,18.539l.269.386h0v-.279c0-.04-.019-.053-.084-.064V18.55a1.725,1.725,0,0,1,.2.027v.032c-.054.006-.073.017-.073.057v.441l-.075-.01-.3-.433h0V19c0,.04.019.053.093.056v.032a1.641,1.641,0,0,0-.217,0v-.032c.059,0,.078-.009.078-.049v-.385c0-.04-.019-.053-.08-.056v-.032A1.6,1.6,0,0,1,380.179,18.539Z" transform="translate(-378.629 -18.534)" fill="#1d1d1b"/>
        </g>
        <g id="Group_416" data-name="Group 416" transform="translate(20.587 0.193)">
          <path id="Path_435" data-name="Path 435" d="M394.016,18.666a.219.219,0,0,1,.283.23.309.309,0,0,1-.263.313l-.245.038v-.032c.054-.009.071-.023.071-.063v-.378c0-.04-.017-.05-.071-.041V18.7Zm-.039.46c0,.038.017.053.065.046.076-.012.126-.092.126-.256s-.049-.229-.126-.217c-.049.008-.065.027-.065.066Z" transform="translate(-393.791 -18.438)" fill="#1d1d1b"/>
          <path id="Path_436" data-name="Path 436" d="M396.564,18.68c0,.078-.029.135-.106.146s-.1-.027-.108-.12-.008-.121-.086-.121v.167c0,.045.009.062.069.052v.031l-.256.04v-.032c.053-.008.071-.024.071-.064V18.4c0-.04-.018-.05-.071-.041v-.031l.252-.04c.123-.019.185.025.185.117s-.094.144-.174.159h0c.088,0,.108.048.124.1.023.073.026.081.044.079s.022-.035.024-.063Zm-.3-.123c.079-.016.127-.038.127-.129,0-.066-.03-.106-.08-.1a.051.051,0,0,0-.047.055Z" transform="translate(-395.522 -18.155)" fill="#1d1d1b"/>
          <path id="Path_437" data-name="Path 437" d="M398.414,17.97a.236.236,0,0,1,.254.25.322.322,0,0,1-.254.315.236.236,0,0,1-.254-.25A.321.321,0,0,1,398.414,17.97Zm0,.528c.085-.011.118-.108.118-.261s-.034-.242-.118-.231-.119.108-.119.261S398.329,18.509,398.414,18.5Z" transform="translate(-397.095 -17.914)" fill="#1d1d1b"/>
          <path id="Path_438" data-name="Path 438" d="M400.642,17.78v.032c-.054,0-.071.018-.071.057v.382c0,.04.018.051.071.048v.032c-.058,0-.2.012-.265.017v-.031c.054,0,.071-.018.071-.057v-.378c0-.04-.018-.052-.071-.048V17.8C400.442,17.793,400.583,17.781,400.642,17.78Z" transform="translate(-398.772 -17.772)" fill="#1d1d1b"/>
          <path id="Path_439" data-name="Path 439" d="M401.775,18.3V18.27c.065,0,.081-.008.081-.048V17.8c-.081,0-.123.057-.142.149l-.034,0,0-.193a2.136,2.136,0,0,1,.47.028l0,.194-.034,0c-.02-.094-.062-.161-.142-.166v.426c0,.04.017.054.08.057v.032A1.974,1.974,0,0,0,401.775,18.3Z" transform="translate(-399.758 -17.748)" fill="#1d1d1b"/>
        </g>
      </g>
      <g id="Group_418" data-name="Group 418" transform="translate(42.952 0.847)">
        <path id="Path_440" data-name="Path 440" d="M374.117,5.579a.311.311,0,0,1,.244-.149c.245,0,.557.243,1.049.243A.572.572,0,0,0,376,5.1a.558.558,0,0,0-.594-.609c-.383,0-.455.134-.876.134-.219,0-.346-.1-.369-.384l.076-.075c-.007.233.055.391.3.391.336,0,.533-.163.883-.163a.7.7,0,0,1,.724.7.684.684,0,0,1-.717.681c-.554,0-.8-.248-1.054-.248a.238.238,0,0,0-.207.1Z" transform="translate(-373.883 -3.997)" fill="#1d1d1b" fill-rule="evenodd"/>
        <path id="Path_441" data-name="Path 441" d="M373.364,3.835c.038.334.144.449.493.449.265,0,.574-.14.792-.14a.332.332,0,0,1,.365.355.309.309,0,0,1-.334.325c-.31,0-.628-.149-.921-.149a.418.418,0,0,0-.392.235l-.065-.077a.505.505,0,0,1,.456-.247c.367,0,.592.156.929.156.1,0,.18-.049.18-.1,0-.079-.106-.18-.257-.18-.218,0-.63.122-.868.122-.359,0-.585-.19-.585-.479a.581.581,0,0,1,.542-.625c.17,0,.27.083.27.217,0,.086-.048.183-.1.183s.082-.274-.184-.274A.393.393,0,0,0,373.364,3.835Zm-.042.093a.49.49,0,0,0-.029.16c0,.306.161.4.438.4.3,0,.6-.115.883-.115a.359.359,0,0,1,.3.168.247.247,0,0,0-.269-.318c-.193,0-.546.132-.8.132C373.5,4.354,373.339,4.237,373.321,3.928Z" transform="translate(-373.156 -3.477)" fill="#1d1d1b"/>
      </g>
      <path id="Path_442" data-name="Path 442" d="M393.566,10.585l.01.134-.112-.015-.012.159.125-.039-.022.173.05-.011.048.011.005-.173.119.039.014-.159-.114.015.032-.134Z" transform="translate(-345.555 -8.006)" fill="#1d1d1b"/>
      <path id="Path_443" data-name="Path 443" d="M391.955,10.474l.007.135-.11-.034-.018.156.128-.016-.026.171.047.022.05-.012.009-.173.117.051.017-.158-.114,0,.035-.131Z" transform="translate(-344.331 -7.922)" fill="#1d1d1b"/>
      <path id="Path_444" data-name="Path 444" d="M390.408,10.2l0,.134-.109-.032-.029.156.129-.02-.042.168.051,0,.047.019.023-.171.115.058.024-.155-.108,0,.046-.128Z" transform="translate(-343.145 -7.713)" fill="#1d1d1b"/>
      <path id="Path_445" data-name="Path 445" d="M390.691,4.933a1.651,1.651,0,0,0,.092-.637,1.7,1.7,0,0,0-1.371-1.554l-.043-.1a1.693,1.693,0,0,1,1.538,1.622,2,2,0,0,1-.111.679,1.293,1.293,0,0,1-.609,1.511l-.2.015A1.407,1.407,0,0,0,390.691,4.933Z" transform="translate(-342.467 -2.001)" fill="#1d1d1b"/>
      <path id="Path_446" data-name="Path 446" d="M388.017,1.5c.218,0,.378.326.378.461a.921.921,0,0,1-.048.168.091.091,0,0,0,.059.078l-.072.032c-.055-.014-.078-.038-.078-.068,0-.09.033-.122.033-.206s-.137-.368-.262-.368a.068.068,0,0,0-.048.021.33.33,0,0,1,.049.1c0,.022-.019.11-.019.131a.371.371,0,0,0,.061.212l-.023.024c-.041-.039-.112-.079-.112-.158,0-.054.032-.175.032-.2s-.065-.09-.065-.111A.126.126,0,0,1,388.017,1.5Z" transform="translate(-341.358 -1.137)" fill="#1d1d1b"/>
      <path id="Path_447" data-name="Path 447" d="M388.757,2.87c.039,0,.1.109.1.168a.345.345,0,0,1-.024.141c-.014-.007-.041-.017-.05-.023C388.751,3.061,388.728,2.87,388.757,2.87Z" transform="translate(-341.994 -2.17)" fill="#1d1d1b"/>
      <path id="Path_448" data-name="Path 448" d="M384.158,2.883a1.388,1.388,0,0,0-.447.409.653.653,0,0,1-.186.294c-.1.086-.442.325-.463.468a.236.236,0,0,0-.105.146.988.988,0,0,0,0,.192c.008.063.062.064.1.064s.219-.189.329-.189a.117.117,0,0,1,.082.034l-.021.049a.1.1,0,0,0-.061-.018c-.077,0-.23.169-.3.182,0,.038.009.049.036.049s.048-.03.078-.03c.048,0,.127.029.209.029a.207.207,0,0,0,.211-.168.2.2,0,0,1,.055,0c-.009.141-.1.282-.225.282a1.8,1.8,0,0,1-.2-.028c-.017,0-.113.023-.166.023a.1.1,0,0,1-.093-.123c-.113.006-.163-.1-.163-.256a.461.461,0,0,1,.155-.338,2.168,2.168,0,0,1,.478-.444.676.676,0,0,0,.165-.272,1.376,1.376,0,0,1,.52-.459Z" transform="translate(-337.523 -2.099)" fill="#1d1d1b"/>
      <path id="Path_449" data-name="Path 449" d="M386.54,4.892c.033-.049.093-.113.151-.113a.446.446,0,0,1,.28.172.107.107,0,0,1-.036.033.469.469,0,0,0-.241-.141.264.264,0,0,0-.135.076A.037.037,0,0,1,386.54,4.892Z" transform="translate(-340.327 -3.614)" fill="#1d1d1b"/>
      <path id="Path_450" data-name="Path 450" d="M386.764,5.053a.144.144,0,0,0,.133.118.177.177,0,0,0,.143-.076L387,5.065a.1.1,0,0,1-.154-.048Z" transform="translate(-340.497 -3.794)" fill="#1d1d1b"/>
      <path id="Path_451" data-name="Path 451" d="M383.459,8.49c0-.018.052-.036.073-.036a.07.07,0,0,1,.067.065c0,.077-.072.087-.069.165a.072.072,0,0,1-.032.02c-.005,0-.014-.045-.014-.057,0-.037.02-.063.02-.1S383.459,8.516,383.459,8.49Z" transform="translate(-337.997 -6.394)" fill="#1d1d1b"/>
      <path id="Path_452" data-name="Path 452" d="M386.988,5.771a.7.7,0,0,0,.382.172c.339,0,.571-.141.571-.513a.67.67,0,0,0-.144-.352.141.141,0,0,0-.031.02.8.8,0,0,1,.062.326.456.456,0,0,1-.437.439.624.624,0,0,1-.374-.123A.069.069,0,0,0,386.988,5.771Z" transform="translate(-340.666 -3.84)" fill="#1d1d1b"/>
      <path id="Path_453" data-name="Path 453" d="M386.09,8.778c.177.013.461-.1.485-.275l.094.008a.449.449,0,0,1-.6.328Z" transform="translate(-339.968 -6.431)" fill="#1d1d1b"/>
      <path id="Path_454" data-name="Path 454" d="M376.526,11.454c-.888-.073-1.324-.269-1.793-.269a.8.8,0,0,0-.627.279l-.089-.092a.817.817,0,0,1,.7-.326c.558,0,.765.206,1.9.307Z" transform="translate(-330.856 -8.355)" fill="#1d1d1b"/>
      <path id="Path_455" data-name="Path 455" d="M385.556,9.127c.043.008.187.018.2.018.3,0,.569-.066.687-.313.011-.01.01-.021.021-.032.188-.191.177-.62.036-.693l.06-.054c.226.094.251.563-.02.807-.01.01-.008.02-.019.029a.77.77,0,0,1-.774.355,1.393,1.393,0,0,1-.259-.031Z" transform="translate(-339.535 -6.091)" fill="#1d1d1b"/>
      <path id="Path_456" data-name="Path 456" d="M382.8.727l-.244.22a.473.473,0,0,1-.179-.111.41.41,0,0,1-.235-.12.508.508,0,0,1-.23-.115.554.554,0,0,1-.248-.134.663.663,0,0,1-.244-.144c-.272-.086-.371-.2-.371-.272,0-.034.042-.051.077-.051a.383.383,0,0,1,.154.038c.051.022.049.177.065.19a.209.209,0,0,0,.072.023.7.7,0,0,1-.03-.162A.03.03,0,0,1,381.4.082a.317.317,0,0,1,.161.077c.026.04.012.17.047.22a.347.347,0,0,0,.059.027A1.459,1.459,0,0,1,381.633.2a.045.045,0,0,1,.019-.01A.325.325,0,0,1,381.8.26c.032.07.012.192.047.256a.132.132,0,0,0,.064.024c-.032-.032-.024-.2-.04-.237a.06.06,0,0,1,.02-.01.3.3,0,0,1,.14.055c.04.074.024.229.052.284a.174.174,0,0,0,.056.008,1.29,1.29,0,0,0-.03-.24.025.025,0,0,1,.019-.013.286.286,0,0,1,.152.069A1.7,1.7,0,0,0,382.3.75a.162.162,0,0,0,.064.009c-.018-.078-.016-.239-.023-.266a.065.065,0,0,1,.018-.014.464.464,0,0,1,.137.058,3.3,3.3,0,0,0,.02.33.176.176,0,0,0,.065-.012c-.015-.067,0-.206-.006-.277a.124.124,0,0,1,.024-.01,1.428,1.428,0,0,1,.209.088Z" transform="translate(-336.172 0.001)" fill="#1d1d1b"/>
      <path id="Path_457" data-name="Path 457" d="M384.272,6.741a1.392,1.392,0,0,1,.386-.375c.017,0,.02,0,.017.017a3.234,3.234,0,0,0-.329.369A.148.148,0,0,1,384.272,6.741Z" transform="translate(-338.612 -4.813)" fill="#1d1d1b"/>
      <path id="Path_458" data-name="Path 458" d="M390.959,17.124a1.216,1.216,0,0,0,.215-.476.015.015,0,0,0-.02-.012,3.521,3.521,0,0,1-.29.415C390.865,17.069,390.946,17.111,390.959,17.124Z" transform="translate(-343.598 -12.581)" fill="#1d1d1b"/>
      <path id="Path_459" data-name="Path 459" d="M386.16,8.236a.268.268,0,0,0,.26-.142l.08.045a.316.316,0,0,1-.346.127A.043.043,0,0,1,386.16,8.236Z" transform="translate(-340.034 -6.122)" fill="#1d1d1b"/>
      <path id="Path_460" data-name="Path 460" d="M391.9,4.635a1.3,1.3,0,0,1,.5,1.051.01.01,0,0,1-.018,0,1.579,1.579,0,0,0-.592-1.006A.2.2,0,0,1,391.9,4.635Z" transform="translate(-344.302 -3.505)" fill="#1d1d1b"/>
      <path id="Path_461" data-name="Path 461" d="M385.005,16.792c-.04-.022-.023-.085,0-.111a1.344,1.344,0,0,1,.152-.136c.035-.01.05.025.052.048a.65.65,0,0,1-.083.119c.466.25,1.113.605,1.113.967,0,.414-.324.476-.541.476-.049,0-.428-.01-.481-.01s-.418.045-.479.045a.884.884,0,0,1-.9-.994l.123.074c-.1.224.338.812.785.812.058,0,.379-.076.461-.076s.429.038.508.038a.338.338,0,0,0,.364-.342C386.082,17.362,385.365,16.993,385.005,16.792Z" transform="translate(-338.285 -12.513)" fill="#1d1d1b"/>
      <path id="Path_462" data-name="Path 462" d="M383.477,16.172a.506.506,0,0,0-.245.388.442.442,0,0,0,.361.455c.058.007.9.412.953.428a2.2,2.2,0,0,0,.276.058.052.052,0,0,0,.023-.079c-.035,0-.252-.079-.286-.091-.179-.062-.7-.361-.938-.426a.327.327,0,0,1-.237-.336.55.55,0,0,1,.17-.355C383.546,16.182,383.519,16.15,383.477,16.172Z" transform="translate(-337.825 -12.226)" fill="#1d1d1b"/>
      <path id="Path_463" data-name="Path 463" d="M385.7,20.522a1.06,1.06,0,0,0-.5.306l.07.054a.954.954,0,0,1,.567-.269Z" transform="translate(-339.315 -15.522)" fill="#1d1d1b"/>
      <path id="Path_464" data-name="Path 464" d="M378.053,14.521a.619.619,0,0,1,.543.82l-.142,0a.626.626,0,0,0-.472-.779A.143.143,0,0,1,378.053,14.521Z" transform="translate(-333.854 -10.983)" fill="#1d1d1b"/>
      <path id="Path_465" data-name="Path 465" d="M393.218,16.206a2.351,2.351,0,0,1,1.023-.263.214.214,0,0,1,.214.325l-.109.02a.2.2,0,0,0-.23-.221,2.591,2.591,0,0,0-1.026.281Z" transform="translate(-345.281 -12.058)" fill="#1d1d1b"/>
      <path id="Path_466" data-name="Path 466" d="M389.6,11.167a1.564,1.564,0,0,0,1.283.2l0,.1a1.3,1.3,0,0,1-1.338-.223Z" transform="translate(-342.599 -8.446)" fill="#1d1d1b"/>
      <path id="Path_467" data-name="Path 467" d="M382.087,14.473l-.057.009-.194-.123-.016-.055.224-.355.056-.009.194.124.016.054Zm0-.44-.174.275.132.083.173-.275Z" transform="translate(-336.757 -10.544)" fill="#1d1d1b"/>
      <path id="Path_468" data-name="Path 468" d="M384.185,12.038l-.057-.008-.15-.175V11.8l.318-.274.056.008.151.175v.057Zm.129-.421-.247.212.1.118.246-.212Z" transform="translate(-338.389 -8.717)" fill="#1d1d1b"/>
      <path id="Path_469" data-name="Path 469" d="M387.041,10.652,387,10.618l-.044-.227.029-.049.411-.081.046.035.044.226-.029.049Zm.321-.3-.319.062.03.153.318-.062Z" transform="translate(-340.638 -7.761)" fill="#1d1d1b"/>
      <path id="Path_470" data-name="Path 470" d="M388.874,10.942a.39.39,0,0,1,.138.042l.056-.055a.528.528,0,0,0-.206-.065Z" transform="translate(-342.084 -8.217)" fill="#1d1d1b"/>
      <path id="Path_471" data-name="Path 471" d="M385.676,11.391a1.854,1.854,0,0,1,.345-.188l-.013-.089a1.826,1.826,0,0,0-.387.2Z" transform="translate(-339.632 -8.406)" fill="#1d1d1b"/>
      <path id="Path_472" data-name="Path 472" d="M383.228,13.343a2.525,2.525,0,0,1,.267-.3l-.064-.074a2.69,2.69,0,0,0-.282.306Z" transform="translate(-337.763 -9.813)" fill="#1d1d1b"/>
      <path id="Path_473" data-name="Path 473" d="M381.822,15.7a1.057,1.057,0,0,0-.124.543l.1.025a1.058,1.058,0,0,1,.112-.51Z" transform="translate(-336.663 -11.872)" fill="#1d1d1b"/>
      <path id="Path_474" data-name="Path 474" d="M389.707,1.495a.641.641,0,0,1,.583-.409c.45,0,.468.646.764.643a.043.043,0,0,1,0,.028c-.5.2-.6-.292-.746-.037l-.107-.06c.186-.383.444.086.672.06-.2-.085-.226-.517-.574-.517a.548.548,0,0,0-.48.334Z" transform="translate(-342.723 -0.821)" fill="#1d1d1b"/>
      <path id="Path_475" data-name="Path 475" d="M396.689,5.815" transform="translate(-348.003 -4.398)" fill="#1d1d1b"/>
      <path id="Path_476" data-name="Path 476" d="M394.092,2.855c-.246,0-.286-.379-.412-.188l-.063-.053c.213-.331.284.231.518.131-.263-.135-.018-.728-.323-.728a.171.171,0,0,0-.124.075l-.034-.056a.229.229,0,0,1,.194-.12c.369,0,.122.721.481.85.023-.018.049-.011.068-.026.154-.114.288-.045.288.145,0,.216-.176.289-.176.692,0,.074.177.233.177.445,0,.229-.4.368-.282.541a.024.024,0,0,1-.015.015c-.209-.108-.066-.479-.328-.4l.013-.063a.2.2,0,0,1,.115-.057c.085,0,.157.157.155.352.025-.191.233-.194.233-.466,0-.218-.172-.245-.172-.494,0-.193.16-.439.16-.554,0-.132-.091-.145-.213-.108A.614.614,0,0,1,394.092,2.855Z" transform="translate(-345.68 -1.449)" fill="#1d1d1b"/>
      <path id="Path_477" data-name="Path 477" d="M395.17,3.427c.039-.1.123-.2.2-.2.092,0,.178.069.178.221,0,.1-.085.414-.085.479a.358.358,0,0,0,.1.243.3.3,0,0,1-.142.053c-.152,0-.2-.2-.286-.2-.03,0-.062.054-.07.082l-.025-.048c.013-.064.051-.128.092-.128.116,0,.141.137.285.162a.51.51,0,0,1-.046-.167c0-.149.061-.2.061-.362,0-.115-.029-.2-.123-.2a.128.128,0,0,0-.119.09Z" transform="translate(-346.75 -2.444)" fill="#1d1d1b"/>
      <path id="Path_478" data-name="Path 478" d="M397.41,7.028a.233.233,0,0,1,.182-.139.143.143,0,0,1,.148.151c0,.292-.3.337-.208.619l-.1-.126c-.035-.172.183-.3.183-.475a.071.071,0,0,0-.078-.08c-.046,0-.1.052-.135.092Z" transform="translate(-348.546 -5.21)" fill="#1d1d1b"/>
      <path id="Path_479" data-name="Path 479" d="M395.489,7.67a.134.134,0,0,1,.106-.1c.128,0,.112.237.258.284l.056.108c-.245.008-.28-.428-.408-.254Z" transform="translate(-347.096 -5.723)" fill="#1d1d1b"/>
      <path id="Path_480" data-name="Path 480" d="M395.61,9.324c.03-.054.075-.116.132-.116.2,0,.094.393.322.428l-.026.026c-.25.115-.2-.533-.425-.285Z" transform="translate(-347.187 -6.964)" fill="#1d1d1b"/>
      <path id="Path_481" data-name="Path 481" d="M395.8,10.88c.136-.075.232-.022.232.065,0,.357-.552.42-.43.74,0,.01,0,.009-.013.012-.333-.066-.2-.5-.413-.416l0-.054a.158.158,0,0,1,.1-.046c.19,0,.108.291.26.385-.054-.217.395-.405.395-.621,0-.033-.043-.08-.149-.017Z" transform="translate(-346.855 -8.202)" fill="#1d1d1b"/>
      <path id="Path_482" data-name="Path 482" d="M338.255,9.832c.42-.317,1.791.956,2.441.694l-.022.115c-.7.208-1.862-.915-2.39-.683Z" transform="translate(-303.807 -7.398)" fill="#1d1d1b" fill-rule="evenodd"/>
      <g id="Group_419" data-name="Group 419" transform="translate(31.837 1.371)">
        <path id="Path_483" data-name="Path 483" d="M328.015,7.32a.691.691,0,0,0-.158-.369,1.013,1.013,0,0,1-.316-.669.644.644,0,0,1,.547-.658c.028.005.041.058.01.069a.611.611,0,0,0-.419.587.914.914,0,0,0,.245.592.548.548,0,0,1,.14.234Z" transform="translate(-327.54 -5.625)" fill="#1d1d1b" fill-rule="evenodd"/>
      </g>
      <path id="Path_484" data-name="Path 484" d="M329.623,10.726a.442.442,0,0,1-.218-.378c0-.268.162-.389.168-.566a.034.034,0,0,1,.053,0c.038.181-.13.422-.13.6a.224.224,0,0,0,.169.211Z" transform="translate(-297.113 -7.388)" fill="#1d1d1b" fill-rule="evenodd"/>
      <path id="Path_485" data-name="Path 485" d="M329.058,7.832c.1-.15.375-.1.431.2a.093.093,0,0,1-.077.014c-.061-.232-.267-.269-.328-.185C329.066,7.867,329.052,7.853,329.058,7.832Z" transform="translate(-296.85 -5.86)" fill="#1d1d1b" fill-rule="evenodd"/>
      <path id="Path_486" data-name="Path 486" d="M329.527,7.937c-.015.179.136.179.2.115A.215.215,0,0,0,329.527,7.937Z" transform="translate(-297.205 -6.002)" fill="#1d1d1b" fill-rule="evenodd"/>
      <path id="Path_487" data-name="Path 487" d="M329.356,8.738a.434.434,0,0,1-.261-.105.031.031,0,0,0-.029.038.317.317,0,0,0,.29.09C329.391,8.759,329.375,8.738,329.356,8.738Z" transform="translate(-296.856 -6.529)" fill="#1d1d1b" fill-rule="evenodd"/>
      <path id="Path_488" data-name="Path 488" d="M333.145,7.848c-.1-.15-.377-.117-.436.186a.1.1,0,0,0,.076.024c.06-.232.27-.276.331-.193C333.132,7.874,333.149,7.865,333.145,7.848Z" transform="translate(-299.612 -5.87)" fill="#1d1d1b" fill-rule="evenodd"/>
      <path id="Path_489" data-name="Path 489" d="M333.36,7.915c.015.179-.136.186-.2.112A.208.208,0,0,1,333.36,7.915Z" transform="translate(-299.956 -5.986)" fill="#1d1d1b" fill-rule="evenodd"/>
      <path id="Path_490" data-name="Path 490" d="M333.23,8.738a.434.434,0,0,0,.261-.105.033.033,0,0,1,.029.038.341.341,0,0,1-.29.09C333.2,8.759,333.21,8.738,333.23,8.738Z" transform="translate(-299.991 -6.529)" fill="#1d1d1b" fill-rule="evenodd"/>
      <path id="Path_491" data-name="Path 491" d="M330.056,11.763c0-.253.216-.192.338-.3a.146.146,0,0,0,.018-.086c0-.1-.11-.108-.186-.227,0-.01.01-.029.03-.025.08.034.151.032.22.118.056-.09.142-.078.219-.132.019-.006.032.026.029.041-.1.1-.186.125-.186.226a.151.151,0,0,0,.034.086c.151.137.311.04.311.3,0,.115-.094.245-.406.245S330.056,11.878,330.056,11.763Zm.419.124c.135,0,.3-.029.3-.172,0-.128-.187-.045-.3-.18-.106.146-.3.047-.3.18S330.337,11.887,330.475,11.887Z" transform="translate(-297.606 -8.4)" fill="#1d1d1b" fill-rule="evenodd"/>
      <path id="Path_492" data-name="Path 492" d="M333.123,10.753a.524.524,0,0,0,.221-.352c0-.221-.163-.388-.163-.586-.012-.017-.045-.014-.062,0-.059.2.124.4.124.578a.257.257,0,0,1-.161.221Z" transform="translate(-299.894 -7.415)" fill="#1d1d1b" fill-rule="evenodd"/>
      <path id="Path_493" data-name="Path 493" d="M326.127,6.117v-.04a.4.4,0,0,1-.29-.308c0-.1.056-.156.127-.156a.342.342,0,0,1,.282.182l.025-.031a.362.362,0,0,0-.339-.251c-.15,0-.2.131-.2.239C325.734,5.916,325.849,6.074,326.127,6.117Z" transform="translate(-294.337 -4.17)" fill="#1d1d1b" fill-rule="evenodd"/>
      <path id="Path_494" data-name="Path 494" d="M326.985,6.825c-.071-.04-.139-.122-.139-.156,0-.076.107-.08.2.011A.767.767,0,0,1,326.985,6.825Z" transform="translate(-295.178 -5.001)" fill="#1d1d1b" fill-rule="evenodd"/>
      <path id="Path_495" data-name="Path 495" d="M330.137,15.023c.095-.11.054-.278.267-.322a.391.391,0,0,1,.091.015,1.571,1.571,0,0,0-.243.325Z" transform="translate(-297.667 -11.118)" fill="#1d1d1b" fill-rule="evenodd"/>
      <path id="Path_496" data-name="Path 496" d="M324.125,5.829l-.017,0a.332.332,0,0,1-.2-.286c0-.387.362-.355.428-.471a.1.1,0,0,0-.11-.09c-.113,0-.153.077-.109.209a.244.244,0,0,1-.171-.249.377.377,0,0,1,.578-.29c-.013-.044-.065-.134-.105-.132.105-.167.335-.067.432.081l-.009.067a.361.361,0,0,0-.3-.11.21.21,0,0,1,.043.163h-.1a.274.274,0,0,0-.413.185c.143-.055.272-.066.332.154-.1.3-.336.167-.336.441a.335.335,0,0,0,.082.166.411.411,0,0,0,.28-.392c.005,0,.012-.008.019,0,.077.252-.238.439-.177.7.072-.107.429-.1.414-.523a.036.036,0,0,1,.039-.005c.1.424-.405.528-.277,1.018a.021.021,0,0,0,.013,0c.013-.129.17-.182.3-.171.228-.236.049-.379.049-.526.007-.01.016-.012.031-.013a.912.912,0,0,1,.119.3c0,.345-.411.27-.251.774.02-.039.048-.067.081-.067.013,0,.07.017.091.017.17,0-.025-.424.2-.577.012,0,.013.006.015.016a.309.309,0,0,0-.05.149c0,.053.01.123.01.191,0,.288-.267.36-.114.533a.231.231,0,0,1,.2-.223c.134,0,.117-.275.078-.4,0-.006.007-.008.017-.006a1,1,0,0,1,.072.238c0,.2-.094.358.084.547l-.081.032a.454.454,0,0,1-.182-.33c-.076.034-.109.2-.046.33-.2-.011-.312-.144-.285-.383-.045.137-.135.26-.262.255a.6.6,0,0,0,.082-.3c0-.1-.066-.312-.026-.364-.053-.008-.124.1-.1.183-.2-.055-.2-.479-.147-.573-.058,0-.079.079-.076.134a.214.214,0,0,1-.109-.191c0-.051.052-.275.052-.293s-.006-.041-.026-.041C324.127,5.715,324.111,5.782,324.125,5.829Z" transform="translate(-292.954 -3.356)" fill="#1d1d1b" fill-rule="evenodd"/>
      <path id="Path_497" data-name="Path 497" d="M327.517,4.412a.755.755,0,0,0,.021-.464c-.014-.021.032-.064.058-.05a.9.9,0,0,1,.358.355l-.044.1a.37.37,0,0,0-.28-.249.654.654,0,0,1-.065.348Z" transform="translate(-295.685 -2.946)" fill="#1d1d1b" fill-rule="evenodd"/>
      <g id="Group_420" data-name="Group 420" transform="translate(33.334 1.371)">
        <path id="Path_498" data-name="Path 498" d="M333.791,7.276a.619.619,0,0,1,.158-.348.959.959,0,0,0,.313-.648.605.605,0,0,0-.554-.655.04.04,0,0,0-.009.069.575.575,0,0,1,.432.582.832.832,0,0,1-.268.589.623.623,0,0,0-.121.273Z" transform="translate(-333.682 -5.625)" fill="#1d1d1b" fill-rule="evenodd"/>
      </g>
      <path id="Path_499" data-name="Path 499" d="M329.044,4.96a1.445,1.445,0,0,1,.1-.353c0-.015.018-.075.029-.056a1.673,1.673,0,0,0,.254.305.062.062,0,0,1-.056.02.6.6,0,0,1-.179-.19c-.005.052-.063.142-.07.223Z" transform="translate(-296.84 -3.44)" fill="#1d1d1b" fill-rule="evenodd"/>
      <path id="Path_500" data-name="Path 500" d="M335.961,6.825c.071-.04.139-.122.139-.156,0-.076-.107-.08-.2.011A.808.808,0,0,0,335.961,6.825Z" transform="translate(-302.024 -5.001)" fill="#1d1d1b" fill-rule="evenodd"/>
      <path id="Path_501" data-name="Path 501" d="M333.3,4.875a1.825,1.825,0,0,0-.087-.391.046.046,0,0,0-.045-.017.943.943,0,0,1-.253.306.063.063,0,0,0,.056.02.61.61,0,0,0,.179-.19c0,.052.062.142.068.223Z" transform="translate(-299.77 -3.377)" fill="#1d1d1b" fill-rule="evenodd"/>
      <path id="Path_502" data-name="Path 502" d="M319.4,15.232a.237.237,0,0,1-.126-.243.035.035,0,0,0-.047.01.208.208,0,0,0-.02.2.1.1,0,0,1-.071.035.307.307,0,0,1-.117-.237.046.046,0,0,0-.057.008.2.2,0,0,0,0,.2.089.089,0,0,1-.057.024c-.091-.04-.1-.193-.095-.22-.02-.012-.034,0-.054,0a.184.184,0,0,0-.024.194c-.013.024-.057.032-.089.031a.267.267,0,0,1-.11-.222c0-.236.21-.315.559-.347a2.063,2.063,0,0,0,1.312-.465l0-.182a1.826,1.826,0,0,1-1.331.539c-.366.03-.729.131-.729.445,0,.135.152.214.172.3Z" transform="translate(-288.744 -10.607)" fill="#1d1d1b"/>
      <path id="Path_503" data-name="Path 503" d="M338.525,15.78a.634.634,0,0,1,.086.739l.109,0c.191-.373.141-.691-.159-.821A.1.1,0,0,0,338.525,15.78Z" transform="translate(-304.011 -11.877)" fill="#1d1d1b"/>
      <path id="Path_504" data-name="Path 504" d="M332.812,17.244a.237.237,0,0,1-.038.349l.1,0a.274.274,0,0,0,.019-.4A.108.108,0,0,0,332.812,17.244Z" transform="translate(-299.661 -13.006)" fill="#1d1d1b"/>
      <path id="Path_505" data-name="Path 505" d="M343.2,14.466a.562.562,0,0,0-.32.8l-.136,0c-.2-.339-.117-.711.42-.88A.074.074,0,0,1,343.2,14.466Z" transform="translate(-307.127 -10.885)" fill="#1d1d1b"/>
      <path id="Path_506" data-name="Path 506" d="M330.014,3.482a.063.063,0,0,1-.026.084l-.065.035a.063.063,0,0,1-.084-.026h0a.063.063,0,0,1,.025-.084l.066-.035a.063.063,0,0,1,.085.026Z" transform="translate(-297.436 -2.608)" fill="#1d1d1b" fill-rule="evenodd"/>
      <path id="Path_507" data-name="Path 507" d="M328.714,2.768a2.224,2.224,0,0,0-.215-.3c-.019-.022-.021-.036-.009-.05a.942.942,0,0,1,1.593,0c.013.015.011.028-.009.05a2.365,2.365,0,0,0-.214.3,1.221,1.221,0,0,0-1.147,0Zm.574-.21a1.407,1.407,0,0,1,.537.138c.01-.034.109-.246.117-.262s.005-.02,0-.029a.82.82,0,0,0-1.3,0c-.009.009-.012.014,0,.029s.107.228.117.262A1.411,1.411,0,0,1,329.287,2.558Z" transform="translate(-296.415 -1.496)" fill="#1d1d1b" fill-rule="evenodd"/>
      <path id="Path_508" data-name="Path 508" d="M330.332,4.855a1.259,1.259,0,0,1,.452.078L330.8,4.9a1.249,1.249,0,0,0-.937,0l.015.031A1.269,1.269,0,0,1,330.332,4.855Z" transform="translate(-297.46 -3.639)" fill="#1d1d1b" fill-rule="evenodd"/>
      <path id="Path_509" data-name="Path 509" d="M332.97,3.482a.063.063,0,0,0,.026.084l.065.035a.062.062,0,0,0,.084-.026h0a.061.061,0,0,0-.025-.084l-.065-.035a.063.063,0,0,0-.085.026Z" transform="translate(-299.804 -2.608)" fill="#1d1d1b" fill-rule="evenodd"/>
      <path id="Path_510" data-name="Path 510" d="M331.273,3.157l-.07-.123.07-.122h.143l.07.122-.07.123Z" transform="translate(-298.473 -2.201)" fill="#1d1d1b" fill-rule="evenodd"/>
      <g id="Group_421" data-name="Group 421" transform="translate(35.016 0.848)">
        <path id="Path_511" data-name="Path 511" d="M342.61,5.579a.312.312,0,0,0-.244-.149c-.245,0-.558.243-1.048.243a.573.573,0,0,1-.59-.576.559.559,0,0,1,.595-.609c.383,0,.454.134.875.134.219,0,.346-.1.368-.384l-.076-.075c.007.233-.055.391-.3.391-.336,0-.533-.163-.883-.163a.705.705,0,0,0-.723.712.676.676,0,0,0,.716.672c.554,0,.8-.248,1.054-.248a.239.239,0,0,1,.208.1Z" transform="translate(-340.587 -3.997)" fill="#1d1d1b" fill-rule="evenodd"/>
        <path id="Path_512" data-name="Path 512" d="M343.557,3.6c-.265,0-.13.274-.184.274s-.1-.1-.1-.183c0-.134.1-.217.271-.217a.581.581,0,0,1,.541.625c0,.289-.226.481-.584.481-.239,0-.651-.124-.869-.124-.15,0-.258.1-.258.18,0,.054.079.1.181.1.336,0,.563-.156.931-.156a.5.5,0,0,1,.453.247l-.065.077a.418.418,0,0,0-.393-.235c-.293,0-.61.149-.921.149a.309.309,0,0,1-.333-.325.333.333,0,0,1,.365-.355c.218,0,.526.14.792.14.349,0,.454-.115.494-.449A.393.393,0,0,0,343.557,3.6Zm-.163.751c-.257,0-.61-.132-.8-.132a.247.247,0,0,0-.268.318.357.357,0,0,1,.3-.168c.282,0,.578.115.883.115.277,0,.438-.094.438-.4a.5.5,0,0,0-.029-.16C343.9,4.237,343.745,4.354,343.394,4.354Z" transform="translate(-341.827 -3.478)" fill="#1d1d1b"/>
      </g>
      <path id="Path_513" data-name="Path 513" d="M329.211,15.872a2.285,2.285,0,0,1-.431-.038c-.355-.064-.9-.025-.9.246,0,.135.1.156.1.237l.861.152a.237.237,0,0,1-.058-.267.046.046,0,0,0-.056-.006.13.13,0,0,0-.067.153.145.145,0,0,1-.091.019.219.219,0,0,1-.036-.221.046.046,0,0,0-.057-.008.15.15,0,0,0-.052.166.156.156,0,0,1-.07.017c-.077-.062-.04-.194-.026-.218-.015-.017-.031-.013-.052-.01a.152.152,0,0,0-.075.162.115.115,0,0,1-.1.018.253.253,0,0,1-.061-.187c0-.18.4-.2.73-.141a2.154,2.154,0,0,0,.545.032Z" transform="translate(-295.958 -11.956)" fill="#1d1d1b"/>
      <path id="Path_514" data-name="Path 514" d="M330.408,6.392a.517.517,0,0,1,.129-.042c.081,0,.124.049.2.049s.126-.053.209-.053a.22.22,0,0,1,.112.05c0,.01,0,.014-.008.019a.3.3,0,0,0-.1-.028c-.057,0-.131.05-.211.05s-.145-.043-.2-.043a.538.538,0,0,0-.122.02C330.4,6.413,330.408,6.4,330.408,6.392Z" transform="translate(-297.872 -4.8)" fill="#1d1d1b" fill-rule="evenodd"/>
      <path id="Path_515" data-name="Path 515" d="M330.143,6.882a.727.727,0,0,1,.153-.043c.1,0,.148.049.245.049.081,0,.15-.053.249-.053a.283.283,0,0,1,.133.05c0,.01,0,.015-.009.019a.419.419,0,0,0-.122-.028c-.068,0-.155.056-.252.056-.112,0-.173-.049-.244-.049a.768.768,0,0,0-.145.02C330.139,6.9,330.143,6.886,330.143,6.882Z" transform="translate(-297.671 -5.169)" fill="#1d1d1b" fill-rule="evenodd"/>
      <path id="Path_516" data-name="Path 516" d="M335.662,6.117v-.04a.4.4,0,0,0,.29-.308c0-.1-.056-.156-.128-.156a.342.342,0,0,0-.282.182l-.025-.031a.362.362,0,0,1,.339-.251c.15,0,.2.131.2.239C336.056,5.916,335.941,6.074,335.662,6.117Z" transform="translate(-301.736 -4.17)" fill="#1d1d1b" fill-rule="evenodd"/>
      <path id="Path_517" data-name="Path 517" d="M332.294,7.43a.59.59,0,0,0,.192-.481c.1.018.166.179.1.308.2-.011.312-.144.285-.383a.229.229,0,0,0,.242.147.4.4,0,0,1-.055-.243c0-.1.055-.222-.01-.34.053-.008.131.135.105.22.282-.067.225-.488.171-.582a.115.115,0,0,1,.127.132.254.254,0,0,0,.111-.218c0-.088-.074-.167-.074-.185s.059,0,.059,0a.289.289,0,0,0,.164-.284c0-.288-.347-.31-.39-.472a.1.1,0,0,1,.11-.09c.076,0,.109.073.028.183a.281.281,0,0,0,.225-.266c0-.292-.269-.423-.566-.237.013-.044.043-.128.124-.139a.249.249,0,0,0-.435.078l.009.067a.345.345,0,0,1,.271-.149.3.3,0,0,0-.015.2h.1c.178-.1.382-.052.384.2-.1-.118-.243-.084-.3.136.105.3.316.229.316.475a.333.333,0,0,1-.054.186.56.56,0,0,1-.287-.446c-.005,0-.013-.008-.02,0-.077.252.257.456.17.731-.072-.107-.326.041-.407-.549a.034.034,0,0,0-.038-.005c-.1.424.433.569.277,1.047a.038.038,0,0,1-.017,0,.187.187,0,0,0-.245-.167c-.265-.229-.09-.406-.09-.553a.033.033,0,0,0-.029-.015c-.014.047-.127.2-.127.3,0,.345.411.27.252.774-.019-.039-.047-.067-.08-.067-.014,0-.071.017-.092.017-.17,0,.025-.424-.2-.577-.01,0-.013.006-.015.016a.309.309,0,0,1,.05.149c0,.053-.01.123-.01.191,0,.33.306.369.086.572a.315.315,0,0,0-.176-.261c-.105-.044-.1-.277-.064-.4,0-.006-.015-.007-.026-.005a1.007,1.007,0,0,0-.072.238c0,.2.074.384-.1.573-.094-.11-.076-.28-.289-.325a.408.408,0,0,0-.09,0C332.063,7.026,332.063,7.354,332.294,7.43Z" transform="translate(-298.987 -3.327)" fill="#1d1d1b" fill-rule="evenodd"/>
      <path id="Path_518" data-name="Path 518" d="M334.585,4.412a.747.747,0,0,1-.022-.464c.014-.021-.032-.064-.059-.05a.9.9,0,0,0-.358.355l.044.1a.511.511,0,0,1,.242-.262.649.649,0,0,0,.1.361Z" transform="translate(-300.699 -2.946)" fill="#1d1d1b" fill-rule="evenodd"/>
      <g id="Group_428" data-name="Group 428" transform="translate(36.686 1.315)">
        <g id="Group_422" data-name="Group 422" transform="translate(0.17)">
          <path id="Path_519" data-name="Path 519" d="M349.723,5.849A.487.487,0,0,0,349.2,5.4a.606.606,0,0,0-.416.176,2.4,2.4,0,0,0-.646,1.232.385.385,0,0,0,.389.335c.287,0,.4-.125.4-.207,0-.184-.286-.291-.463-.108l.052.053a.236.236,0,0,1,.183-.073c.091,0,.147.046.147.093,0,.09-.071.146-.289.146-.088,0-.269-.065-.269-.221,0-.113.132-.221.34-.221a.461.461,0,0,1,.349.185l.042-.1a.5.5,0,0,0-.385-.219.4.4,0,0,0-.345.161,2.865,2.865,0,0,1,.567-.955.431.431,0,0,1,.34-.145.4.4,0,0,1,.415.388Z" transform="translate(-348.136 -5.398)" fill="#1d1d1b"/>
          <path id="Path_520" data-name="Path 520" d="M349.584,10.257h.073l-.112.227-.068.016Z" transform="translate(-349.15 -9.073)" fill="#1d1d1b"/>
        </g>
        <g id="Group_423" data-name="Group 423" transform="translate(0 1.646)">
          <path id="Path_521" data-name="Path 521" d="M347.583,13.255a1.11,1.11,0,0,1-.024-.224,3.173,3.173,0,0,1,.059-.5.36.36,0,0,1,.4-.263.591.591,0,0,1,.319.094l.028-.111a.57.57,0,0,0-.324-.1c-.31,0-.485.15-.523.326a3.615,3.615,0,0,0-.078.563c0,.572.27.656.491.656s.45-.151.45-.337c0-.079-.112-.165-.306-.165a.325.325,0,0,0-.268.175l.036.065a.286.286,0,0,1,.231-.16c.1,0,.222.034.222.1,0,.122-.172.218-.369.218s-.3-.113-.3-.193c0-.163.264-.434.666-.236l-.007-.1C347.969,12.9,347.67,12.995,347.583,13.255Z" transform="translate(-347.439 -12.153)" fill="#1d1d1b"/>
          <path id="Path_522" data-name="Path 522" d="M348.893,16.1l.065-.033.013.229-.064.034Z" transform="translate(-348.539 -15.117)" fill="#1d1d1b"/>
        </g>
        <g id="Group_424" data-name="Group 424" transform="translate(0.36 3.035)">
          <path id="Path_523" data-name="Path 523" d="M349.436,19.008a1.271,1.271,0,0,1-.411-.657.357.357,0,0,1,.329-.391.581.581,0,0,1,.23.061l-.007-.113a.707.707,0,0,0-.233-.056.452.452,0,0,0-.429.5,1.566,1.566,0,0,0,.545.847.6.6,0,0,0,.4.16.376.376,0,0,0,.394-.373c0-.078-.1-.264-.243-.264a.236.236,0,0,0-.251.285l.081.032c-.013-.126.039-.224.155-.224a.163.163,0,0,1,.145.161.279.279,0,0,1-.289.28.3.3,0,0,1-.306-.253c0-.215.07-.435.286-.435a.93.93,0,0,1,.117.008l-.072-.089c-.054,0-.077-.01-.1-.01C349.513,18.475,349.39,18.776,349.436,19.008Z" transform="translate(-348.915 -17.853)" fill="#1d1d1b"/>
          <path id="Path_524" data-name="Path 524" d="M351.595,21.145l.19.255-.047.095-.2-.269Z" transform="translate(-350.897 -20.343)" fill="#1d1d1b"/>
        </g>
        <g id="Group_425" data-name="Group 425" transform="translate(5.096 0.006)">
          <path id="Path_525" data-name="Path 525" d="M368.354,5.867c.08-.27.207-.445.521-.445a.657.657,0,0,1,.432.168,2.378,2.378,0,0,1,.627,1.237.371.371,0,0,1-.4.32c-.287,0-.381-.113-.381-.194,0-.184.285-.291.463-.108l-.053.053a.237.237,0,0,0-.182-.073c-.092,0-.14.048-.14.094,0,.081.07.144.281.144a.246.246,0,0,0,.269-.221c0-.113-.132-.221-.339-.221a.463.463,0,0,0-.35.185l-.042-.1a.544.544,0,0,1,.392-.193.418.418,0,0,1,.338.135,2.87,2.87,0,0,0-.568-.955.432.432,0,0,0-.34-.145.4.4,0,0,0-.415.388Z" transform="translate(-368.354 -5.422)" fill="#1d1d1b"/>
          <path id="Path_526" data-name="Path 526" d="M372.863,10.257h-.072l.112.227.068.016Z" transform="translate(-371.71 -9.079)" fill="#1d1d1b"/>
        </g>
        <g id="Group_426" data-name="Group 426" transform="translate(5.907 1.646)">
          <path id="Path_527" data-name="Path 527" d="M372.485,13.256a1.061,1.061,0,0,0,.024-.224,3.806,3.806,0,0,0-.051-.508.36.36,0,0,0-.4-.263.587.587,0,0,0-.319.094l-.037-.1a.571.571,0,0,1,.324-.1c.311,0,.493.129.53.3a4.418,4.418,0,0,1,.068.6c0,.605-.288.632-.507.632s-.437-.125-.437-.311c0-.079.118-.178.31-.178a.325.325,0,0,1,.268.175l-.035.065a.286.286,0,0,0-.231-.16c-.1,0-.2.04-.2.1,0,.122.149.212.346.212s.307-.1.307-.182c0-.163-.274-.446-.675-.248l.007-.1A.491.491,0,0,1,372.485,13.256Z" transform="translate(-371.683 -12.154)" fill="#1d1d1b"/>
          <path id="Path_528" data-name="Path 528" d="M373.87,16.1l-.065-.033-.013.229.064.034Z" transform="translate(-373.278 -15.117)" fill="#1d1d1b"/>
        </g>
        <g id="Group_427" data-name="Group 427" transform="translate(5.162 3.035)">
          <path id="Path_529" data-name="Path 529" d="M370.636,21.145l-.19.255.048.095.2-.269Z" transform="translate(-370.003 -20.343)" fill="#1d1d1b"/>
          <path id="Path_530" data-name="Path 530" d="M369.437,19.008a1.266,1.266,0,0,0,.411-.657.357.357,0,0,0-.329-.391.575.575,0,0,0-.23.061l.008-.113a.693.693,0,0,1,.231-.056.453.453,0,0,1,.43.5,1.536,1.536,0,0,1-.531.847.631.631,0,0,1-.41.161.371.371,0,0,1-.39-.39.281.281,0,0,1,.239-.247.237.237,0,0,1,.251.285l-.081.032c.013-.126-.039-.224-.155-.224a.16.16,0,0,0-.135.164.268.268,0,0,0,.278.277.307.307,0,0,0,.321-.241c0-.215-.086-.447-.3-.447a.935.935,0,0,0-.117.008l.072-.089c.054,0,.077-.01.1-.01C369.36,18.475,369.483,18.776,369.437,19.008Z" transform="translate(-368.627 -17.853)" fill="#1d1d1b"/>
        </g>
      </g>
      <path id="Path_531" data-name="Path 531" d="M357.466,3.521c-.062-.19-.279-.261-.279-.352,0-.035.019-.062.046-.062s.365.094.559.123a.035.035,0,0,1,0,.069,3.466,3.466,0,0,1-.409-.034.664.664,0,0,1,.183.233Z" transform="translate(-318.126 -2.35)" fill="#1d1d1b"/>
      <path id="Path_532" data-name="Path 532" d="M359.393,4.705a.848.848,0,0,1,.057.17l.089-.007a.524.524,0,0,0-.065-.181Z" transform="translate(-319.795 -3.545)" fill="#1d1d1b"/>
      <path id="Path_533" data-name="Path 533" d="M358.152,4.961a.872.872,0,0,1,.059.171l.089-.007a.545.545,0,0,0-.065-.181Z" transform="translate(-318.856 -3.738)" fill="#1d1d1b"/>
      <path id="Path_534" data-name="Path 534" d="M356.69,1.979c.5,0,.859-.184,1.15-.184.159,0,.242.09.242.2,0,.214-.4.378-.428.719l.093.031c.17-.44.492-.427.492-.745a.368.368,0,0,0-.4-.319c-.355,0-.776.192-1.153.192s-.8-.192-1.153-.192a.369.369,0,0,0-.4.319c0,.318.322.305.492.745l.094-.031c-.029-.341-.428-.5-.428-.719,0-.111.083-.2.242-.2C355.83,1.795,356.192,1.979,356.69,1.979Z" transform="translate(-316.578 -1.271)" fill="#1d1d1b"/>
      <path id="Path_535" data-name="Path 535" d="M358.25,4.379a2.875,2.875,0,0,1,1.009.221l.039-.078a2.655,2.655,0,0,0-2.1,0l.039.078A2.884,2.884,0,0,1,358.25,4.379Z" transform="translate(-318.138 -3.257)" fill="#1d1d1b"/>
      <path id="Path_536" data-name="Path 536" d="M363.561,3.521c.062-.19.279-.261.279-.352,0-.035-.019-.062-.045-.062s-.366.094-.559.123a.035.035,0,0,0,0,.069,3.484,3.484,0,0,0,.408-.034.669.669,0,0,0-.183.233Z" transform="translate(-322.676 -2.35)" fill="#1d1d1b"/>
      <path id="Path_537" data-name="Path 537" d="M363.161,4.705a.77.77,0,0,0-.058.17l-.088-.007a.514.514,0,0,1,.065-.181Z" transform="translate(-322.534 -3.545)" fill="#1d1d1b"/>
      <path id="Path_538" data-name="Path 538" d="M364.4,4.961a.841.841,0,0,0-.058.171l-.089-.007a.529.529,0,0,1,.066-.181Z" transform="translate(-323.468 -3.738)" fill="#1d1d1b"/>
      <rect id="Rectangle_400" data-name="Rectangle 400" width="0.085" height="0.188" transform="translate(40.07 1.109)" fill="#1d1d1b"/>
      <g id="Group_438" data-name="Group 438" transform="translate(37.5 1.276)">
        <path id="Path_539" data-name="Path 539" d="M354.07,14.634a9.606,9.606,0,0,1,1.765-.2V14.5a10.673,10.673,0,0,0-1.757.2Z" transform="translate(-353.268 -12.189)" fill="#1d1d1b"/>
        <path id="Path_540" data-name="Path 540" d="M350.9,7.572a2.514,2.514,0,0,1,4.995,0,2.5,2.5,0,0,1-4.995,0Zm2.5,2.435A2.614,2.614,0,0,0,356,7.579a2.628,2.628,0,0,0-5.225,0A2.614,2.614,0,0,0,353.393,10.007Z" transform="translate(-350.78 -5.235)" fill="#1d1d1b"/>
        <path id="Path_541" data-name="Path 541" d="M353.605,8.854a6.873,6.873,0,0,1,.131-1.268,4.869,4.869,0,0,1,3.587,0,6.8,6.8,0,0,1,.131,1.268,1.988,1.988,0,1,1-3.849,0Zm1.924,2.389a2.307,2.307,0,0,0,1.8-2.4,8.031,8.031,0,0,0-.1-1.182,5.024,5.024,0,0,0-3.4,0,8.064,8.064,0,0,0-.1,1.182A2.307,2.307,0,0,0,355.529,11.243Z" transform="translate(-352.917 -6.755)" fill="#1d1d1b"/>
        <rect id="Rectangle_401" data-name="Rectangle 401" width="0.098" height="3.928" transform="translate(2.564 0.595)" fill="#1d1d1b"/>
        <path id="Path_542" data-name="Path 542" d="M363.457,14.634a9.6,9.6,0,0,0-1.764-.2V14.5a10.679,10.679,0,0,1,1.757.2Z" transform="translate(-359.034 -12.189)" fill="#1d1d1b"/>
        <g id="Group_432" data-name="Group 432" transform="translate(0.994 0.783)">
          <g id="Group_429" data-name="Group 429">
            <path id="Path_543" data-name="Path 543" d="M355.2,8.514c.09-.007.156.01.156.07,0,.083.04.085.183.08.079,0,.292-.02.325-.019s.136.015.173.017c.07,0,.135-.008.135-.03s-.056-.044-.139-.047-.313.024-.35.026c-.072,0-.1-.024-.1-.059s.033-.066.087-.067c.029,0,.084.006.109.007.051,0,.094-.042.116-.041s.031.01.031.022c0,.034-.051.049-.141.049-.069,0-.118.007-.118.027s.025.024.058.024c.087,0,.273-.029.357-.025.124.005.17.049.17.07,0,.039-.028.064-.07.08a.236.236,0,0,0,.1.018c.01,0,.016.01.016.023,0,.092-.061.186-.108.183s-.13-.057-.13-.076.01-.029.023-.028.048.013.061.014.029-.009.029-.02-.036-.047-.087-.049a.633.633,0,0,0-.19.022c.01.025,0,.064-.026.066s-.177.016-.2.021-.16.044-.172.045c-.036,0-.042-.045-.042-.06s0-.015.016-.015.053,0,.073,0c.067,0,.172-.031.172-.076,0-.02-.026-.034-.067-.033a.75.75,0,0,0-.229.061c-.028.011-.216.076-.253.087-.057.017-.176.066-.213.071-.053.006-.1-.027-.1-.045s.058-.083.077-.085.048.036.067.034.076-.037.076-.055c0-.056-.181-.072-.181-.157,0-.024.05-.048.083-.051s.056,0,.056.016-.007.034-.007.043.02.026.044.024.061-.024.061-.052-.04-.029-.04-.044S355.134,8.519,355.2,8.514Z" transform="translate(-354.858 -8.448)" fill="#1d1d1b"/>
          </g>
          <g id="Group_430" data-name="Group 430" transform="translate(0 0.466)">
            <path id="Path_544" data-name="Path 544" d="M355.2,10.428c.09-.007.156.01.156.07,0,.083.04.085.183.079.079,0,.292-.02.325-.019s.136.015.173.017c.07,0,.135-.008.135-.03s-.056-.044-.139-.047-.313.024-.35.026c-.072,0-.1-.024-.1-.059s.033-.066.087-.067c.029,0,.084.007.109.006.051,0,.094-.042.116-.041s.031.01.031.022c0,.034-.051.05-.141.05-.069,0-.118.007-.118.027s.025.024.058.025c.087,0,.273-.029.357-.025.124.005.17.049.17.07,0,.039-.028.064-.07.08a.232.232,0,0,0,.1.017c.01,0,.016.01.016.023,0,.092-.061.186-.108.183s-.13-.057-.13-.076.01-.029.023-.028.048.013.061.014.029-.009.029-.02-.036-.047-.087-.049a.648.648,0,0,0-.19.022c.01.025,0,.064-.026.066s-.177.016-.2.021-.16.044-.172.045c-.036,0-.042-.044-.042-.059s0-.014.016-.015.053,0,.073,0c.067,0,.172-.032.172-.076,0-.02-.026-.034-.067-.033a.736.736,0,0,0-.229.061c-.028.011-.216.076-.253.087-.057.017-.176.067-.213.071-.053.005-.1-.027-.1-.046s.058-.083.077-.085.048.036.067.033.076-.037.076-.055c0-.056-.181-.072-.181-.157,0-.024.05-.048.083-.051s.056,0,.056.016-.007.034-.007.042.02.026.044.024.061-.024.061-.052-.04-.03-.04-.045S355.134,10.433,355.2,10.428Z" transform="translate(-354.858 -10.362)" fill="#1d1d1b"/>
          </g>
          <g id="Group_431" data-name="Group 431" transform="translate(0 0.933)">
            <path id="Path_545" data-name="Path 545" d="M355.2,12.344c.09-.007.156.009.156.069,0,.083.04.084.183.08.079,0,.292-.021.325-.019s.136.016.173.017c.07,0,.135-.008.135-.03s-.056-.044-.139-.047-.313.024-.35.025c-.072,0-.1-.024-.1-.059s.033-.066.087-.067c.029,0,.084.006.109.006.051,0,.094-.041.116-.041s.031.01.031.023c0,.033-.051.049-.141.049-.069,0-.118.007-.118.027s.025.024.058.024c.087,0,.273-.029.357-.025.124.005.17.048.17.07,0,.038-.028.064-.07.08a.232.232,0,0,0,.1.018c.01,0,.016.01.016.023,0,.092-.061.186-.108.183s-.13-.057-.13-.076.01-.029.023-.028.048.013.061.014.029-.009.029-.02-.036-.047-.087-.049a.623.623,0,0,0-.19.022c.01.025,0,.064-.026.067s-.177.016-.2.02-.16.044-.172.045c-.036,0-.042-.045-.042-.059s0-.015.016-.015.053,0,.073,0c.067,0,.172-.032.172-.076,0-.02-.026-.033-.067-.032a.75.75,0,0,0-.229.061c-.028.011-.216.075-.253.087-.057.017-.176.066-.213.07-.053.006-.1-.027-.1-.045s.058-.082.077-.084.048.035.067.033.076-.037.076-.055c0-.056-.181-.072-.181-.157,0-.024.05-.048.083-.051s.056,0,.056.016-.007.034-.007.043.02.026.044.023.061-.024.061-.052-.04-.03-.04-.044S355.134,12.348,355.2,12.344Z" transform="translate(-354.858 -12.277)" fill="#1d1d1b"/>
          </g>
        </g>
        <g id="Group_433" data-name="Group 433" transform="translate(2.75 2.486)">
          <path id="Path_546" data-name="Path 546" d="M362.388,15.452c.092,0,.16.018.162.078,0,.084.043.087.188.092.079,0,.294,0,.327.01s.136.03.172.036c.07.011.135.01.137-.014s-.052-.051-.137-.064-.317-.01-.355-.011c-.072-.005-.106-.032-.106-.068s.033-.064.09-.06c.03,0,.085.014.112.016.051.005.1-.032.121-.029s.031.013.031.026c0,.034-.054.044-.146.035-.071-.007-.121,0-.121.016s.025.027.059.029c.089.006.279,0,.364.014.126.02.168.071.166.092,0,.039-.033.06-.076.071a.249.249,0,0,0,.1.031c.01,0,.015.012.014.025-.009.092-.076.178-.122.169s-.122-.073-.122-.092.012-.028.025-.026.046.019.058.022.03-.006.03-.017c0-.027-.032-.052-.083-.06a.576.576,0,0,0-.189,0c.01.026,0,.064-.028.064s-.173,0-.2,0-.157.031-.168.031c-.034,0-.042-.048-.042-.062s0-.015.016-.014l.072.007c.066,0,.17-.018.171-.062,0-.02-.025-.036-.066-.038a.643.643,0,0,0-.227.045l-.248.074c-.056.014-.17.06-.206.064-.052,0-.1-.029-.1-.048s.051-.081.069-.083.051.037.071.035.072-.034.071-.053c0-.056-.188-.077-.2-.162,0-.024.047-.047.082-.05s.058,0,.059.018-.005.034,0,.042.021.027.046.025.061-.021.059-.049-.042-.032-.043-.046S362.317,15.454,362.388,15.452Z" transform="translate(-362.065 -15.437)" fill="#1d1d1b"/>
        </g>
        <g id="Group_434" data-name="Group 434" transform="translate(2.747 3.022)">
          <path id="Path_547" data-name="Path 547" d="M362.323,17.65c.076,0,.133.015.134.065,0,.069.035.072.155.076.066,0,.244,0,.271.008s.112.025.142.03c.058.009.112.008.114-.011s-.043-.043-.114-.053a2.812,2.812,0,0,0-.294-.009c-.059,0-.088-.027-.088-.056s.028-.053.075-.05c.025,0,.07.011.093.014.042,0,.08-.027.1-.024s.026.011.025.021c0,.028-.045.037-.121.029-.058-.005-.1,0-.1.014s.02.022.049.025c.074,0,.231,0,.3.011.1.017.138.059.137.076s-.027.05-.063.059a.2.2,0,0,0,.084.026.018.018,0,0,1,.011.02c-.007.076-.063.147-.1.14a.164.164,0,0,1-.1-.076c0-.015.01-.023.02-.021s.038.016.049.018.025,0,.026-.014-.027-.043-.068-.05a.466.466,0,0,0-.156,0c.007.021,0,.053-.023.053s-.144,0-.163,0-.13.026-.14.026c-.028,0-.034-.04-.034-.052s0-.012.013-.011.043.005.06.006c.054,0,.14-.015.141-.052,0-.017-.02-.03-.054-.032a.546.546,0,0,0-.188.037l-.2.061c-.046.011-.141.05-.171.053s-.081-.024-.083-.039.043-.068.057-.069.043.03.058.029.06-.028.059-.044c0-.047-.156-.063-.162-.134,0-.02.039-.039.068-.041s.048,0,.049.015,0,.028,0,.035.017.022.038.02.05-.018.049-.041-.035-.026-.036-.038S362.264,17.652,362.323,17.65Z" transform="translate(-362.055 -17.639)" fill="#1d1d1b"/>
        </g>
        <g id="Group_435" data-name="Group 435" transform="translate(2.746 3.559)">
          <path id="Path_548" data-name="Path 548" d="M362.259,19.853c.06,0,.1.011.106.05s.027.056.121.06c.051,0,.191,0,.212.006s.089.02.112.024c.046.007.088.006.089-.009s-.034-.033-.089-.042a2.27,2.27,0,0,0-.23-.007c-.047,0-.069-.021-.069-.045s.022-.041.059-.039c.019,0,.054.009.072.01.033,0,.063-.021.078-.019s.02.009.02.017-.035.029-.1.023-.077,0-.078.011.016.017.038.019c.058,0,.181,0,.236.009.082.013.109.046.108.06s-.022.039-.049.046a.16.16,0,0,0,.066.02c.007,0,.009.008.009.016-.005.059-.049.115-.079.11s-.079-.047-.079-.06.007-.018.016-.016.03.012.039.014.018,0,.019-.011-.021-.034-.053-.039a.372.372,0,0,0-.123,0c.005.017,0,.041-.019.041s-.112,0-.127,0-.1.021-.109.021-.027-.031-.027-.041,0-.01.01-.009l.048,0c.043,0,.11-.011.11-.04,0-.013-.015-.023-.043-.025a.417.417,0,0,0-.147.029l-.161.048c-.036.009-.11.039-.134.041s-.064-.019-.065-.031.033-.053.045-.054.033.024.046.023.047-.023.046-.035c0-.036-.121-.05-.126-.1,0-.015.03-.03.052-.032s.038,0,.038.011,0,.022,0,.028.015.017.03.016.04-.015.039-.033-.028-.02-.029-.029S362.213,19.854,362.259,19.853Z" transform="translate(-362.05 -19.843)" fill="#1d1d1b"/>
        </g>
        <g id="Group_436" data-name="Group 436" transform="translate(2.818 0.81)">
          <path id="Path_549" data-name="Path 549" d="M363.195,8.559c.039,0,.117.106.115.133s-.038.054-.039.084.019.093.017.119a1.913,1.913,0,0,0-.1.3c0,.151.23.3.273.314s.052-.006.056-.043c.01-.077-.177-.249-.167-.474.005-.111.1-.3.227-.283a.091.091,0,0,1,.086.095c-.007.06-.049.159-.052.187-.009.084.029.113.051.117s.027-.029.034-.028.02.034.018.049a.057.057,0,0,1-.064.041.177.177,0,0,1-.134-.181c.008-.088.07-.141.074-.168a.041.041,0,0,0-.034-.045.1.1,0,0,0-.1.052.577.577,0,0,0-.051.166c-.016.277.194.4.177.531a.074.074,0,0,1-.076.068.271.271,0,0,1-.13-.074.2.2,0,0,0-.035.088c-.005.089.1.1.1.172-.011.1-.173.188-.245.218l-.006-.008c.038-.052.013-.1-.022-.083,0-.013,0-.035.014-.039s.048-.03.049-.052-.026-.032-.037-.035V9.764a.147.147,0,0,1,.116.064.091.091,0,0,0,.014-.046c.008-.128-.168-.036-.164-.18a.112.112,0,0,1,.013-.049c-.042-.021-.069-.012-.112.017a.1.1,0,0,1,.023.052c0,.082-.184.086-.267.139-.04.024-.086.091-.107.093l-.01-.009c-.006-.028.03-.046.027-.086s-.025-.051-.061-.058c-.012-.049.075-.041.071-.086a.065.065,0,0,0-.041-.048l0-.009a.089.089,0,0,1,.034-.011c.048-.005.076.087.131.084a.076.076,0,0,0,.062-.077c0-.034-.032-.081-.034-.122,0-.059.085-.029.084-.073s-.058-.1-.078-.1-.053.045-.1.048a.365.365,0,0,0-.222.089.175.175,0,0,1-.093.047l-.012-.012a.118.118,0,0,0,.049-.1.052.052,0,0,0-.049-.041c0-.005,0-.01,0-.015.042-.008.077-.037.074-.063s-.02-.046-.042-.044l0-.012c.018,0,.064,0,.074.014s.028.072.049.069.016-.029.03-.03c.033,0,.1-.024.1-.062s-.091-.077-.131-.106-.116-.137-.138-.153a.157.157,0,0,0-.129-.024l-.007-.012c.01-.032.089-.018.084-.058,0-.015-.013-.036-.029-.033l0-.017a.289.289,0,0,1,.083-.007.063.063,0,0,0-.046-.047l0-.012c.061-.01.186.021.19.075,0,.028-.021.043-.032.064a.507.507,0,0,0,.251.158c.036,0,.163-.081.164-.112s-.1-.019-.1-.053.092-.048.1-.052.006-.01,0-.014a.836.836,0,0,0-.087-.016.018.018,0,0,1-.016-.016.138.138,0,0,1,0-.035.051.051,0,0,1,.028-.026A1.6,1.6,0,0,1,363.195,8.559Z" transform="translate(-362.345 -8.559)" fill="#1d1d1b"/>
        </g>
        <g id="Group_437" data-name="Group 437" transform="translate(1.175 2.505)">
          <path id="Path_550" data-name="Path 550" d="M356.792,17.124c-.591-.2-.937-.469-1.037-.9a.129.129,0,0,0-.086-.089.071.071,0,0,1-.054-.061c0-.083.119-.136.119-.229a.041.041,0,0,0-.029-.044c-.011,0-.038.014-.051.014a.053.053,0,0,1-.051-.059c0-.018.008-.042.008-.052s-.01-.036-.01-.044c0-.065.082-.1.136-.1.086,0,.143.045.143.1,0,.089.02.144.088.144a.088.088,0,0,0,.078-.087c0-.015-.027-.065-.027-.086,0-.041.015-.058.1-.071a6.492,6.492,0,0,1,.677-.049v1.606Zm-.137-1.471a4.413,4.413,0,0,0-.46.04c-.032,0-.036.022-.036.032s0,.055,0,.074c0,.147-.263.184-.263.367,0,.271.359.612.764.766Z" transform="translate(-355.601 -15.518)" fill="#1d1d1b"/>
          <path id="Path_551" data-name="Path 551" d="M357.9,15.909l.567.325v-.115l-.567-.324Z" transform="translate(-357.341 -15.727)" fill="#1d1d1b"/>
          <path id="Path_552" data-name="Path 552" d="M356.763,17.385l.844.483v-.115l-.844-.483Z" transform="translate(-356.48 -16.843)" fill="#1d1d1b"/>
          <path id="Path_553" data-name="Path 553" d="M356.763,18.45l.844.484v-.115l-.844-.483Z" transform="translate(-356.48 -17.649)" fill="#1d1d1b"/>
          <path id="Path_554" data-name="Path 554" d="M357.5,16.748l.665.38v-.115l-.665-.38Z" transform="translate(-357.037 -16.361)" fill="#1d1d1b"/>
        </g>
      </g>
    </g>
  </g>
</svg>
