<svg xmlns="http://www.w3.org/2000/svg" width="176.285" height="39.074" viewBox="0 0 176.285 39.074">
  <g id="Layer_2_1_" transform="translate(0 0.02)">
    <g id="Layer_1-2" transform="translate(0 -0.02)">
      <path id="Path_87" data-name="Path 87" d="M46.222,52.9H45.1v6.847h4.6v-.561h-3.48Z" transform="translate(-19.788 -23.199)" fill="#1d1d1b"/>
      <path id="Path_88" data-name="Path 88" d="M57.624,52.7A3.216,3.216,0,0,0,54.2,56.236a3.425,3.425,0,1,0,6.847,0A3.216,3.216,0,0,0,57.624,52.7Zm0,.449c1.459,0,2.189,1.01,2.189,3.087s-.73,3.087-2.189,3.087-2.189-1.01-2.189-3.087S56.164,53.149,57.624,53.149Z" transform="translate(-23.781 -23.111)" fill="#1d1d1b"/>
      <path id="Path_89" data-name="Path 89" d="M74.539,58.063l-3.816-5.107-.056-.056H69.6v6.847h.617l-.056-5.612,4.209,5.556.056.056h.73V52.9h-.617Z" transform="translate(-30.538 -23.199)" fill="#1d1d1b"/>
      <path id="Path_90" data-name="Path 90" d="M85.813,52.9H83.4v6.847h2.413c2.3,0,3.648-1.235,3.648-3.424S88.171,52.9,85.813,52.9Zm0,6.286H84.522V53.461h1.291c1.684,0,2.413.9,2.413,2.862s-.73,2.862-2.413,2.862Z" transform="translate(-36.593 -23.199)" fill="#1d1d1b"/>
      <path id="Path_91" data-name="Path 91" d="M100.024,52.7A3.216,3.216,0,0,0,96.6,56.236a3.243,3.243,0,0,0,3.424,3.536,3.536,3.536,0,0,0,0-7.072Zm0,.449c1.459,0,2.189,1.01,2.189,3.087s-.73,3.087-2.189,3.087-2.189-1.01-2.189-3.087S98.564,53.149,100.024,53.149Z" transform="translate(-42.384 -23.111)" fill="#1d1d1b"/>
      <path id="Path_92" data-name="Path 92" d="M117,58.063l-3.873-5.107V52.9H112v6.847h.617l-.056-5.612,4.265,5.556v.056h.73V52.9h-.617Z" transform="translate(-49.141 -23.199)" fill="#1d1d1b"/>
      <rect id="Rectangle_95" data-name="Rectangle 95" width="0.561" height="10.383" transform="translate(74.533 28.691)" fill="#1d1d1b"/>
      <path id="Path_93" data-name="Path 93" d="M151.535,52.9l-2.75,5.5-2.694-5.5h-1.235l-.056,6.847h.617v-5.5l2.694,5.5h.73l2.638-5.444.056,5.444h1.122L152.6,52.9Z" transform="translate(-63.533 -23.199)" fill="#1d1d1b"/>
      <path id="Path_94" data-name="Path 94" d="M165.073,52.9h-1.01L161.2,59.747h.673l.842-2.133h2.975l.842,2.133h1.179l-2.638-6.735Zm-2.133,4.209,1.291-3.2,1.235,3.2Z" transform="translate(-70.728 -23.199)" fill="#1d1d1b"/>
      <path id="Path_95" data-name="Path 95" d="M180.3,58.063l-3.873-5.107-.056-.056H175.3v6.847h.617l-.056-5.612,4.265,5.612h.73V52.9h-.617Z" transform="translate(-76.915 -23.199)" fill="#1d1d1b"/>
      <path id="Path_96" data-name="Path 96" d="M194.176,58.144a2.69,2.69,0,0,1-2.245,1.122q-2.357,0-2.357-3.031c0-2.02.786-3.031,2.3-3.031a3.045,3.045,0,0,1,2.02.786l.112.112.281-.449-.056-.056a3.738,3.738,0,0,0-2.357-.9,3.376,3.376,0,0,0-3.48,3.648,3.266,3.266,0,0,0,3.031,3.48h.449a3.115,3.115,0,0,0,2.75-1.291l.056-.056-.337-.449Z" transform="translate(-82.657 -23.111)" fill="#1d1d1b"/>
      <path id="Path_97" data-name="Path 97" d="M206.434,56.043h-3.311V52.9H202v6.847h1.122V56.66h3.311v3.087h1.122V52.9h-1.122Z" transform="translate(-88.63 -23.199)" fill="#1d1d1b"/>
      <path id="Path_98" data-name="Path 98" d="M217.022,56.548H220v-.505h-2.975V53.461h3.255V52.9H215.9v6.847h4.658v-.561h-3.536Z" transform="translate(-94.729 -23.199)" fill="#1d1d1b"/>
      <path id="Path_99" data-name="Path 99" d="M229.031,55.781c-.842-.337-1.684-.617-1.684-1.515,0-.673.505-1.122,1.347-1.122a2.824,2.824,0,0,1,1.628.673l.168.168.168-.505-.056-.056a2.612,2.612,0,0,0-1.964-.73c-1.459,0-2.413.786-2.413,1.964s1.066,1.684,2.077,2.02c.842.337,1.571.617,1.571,1.347s-.561,1.235-1.515,1.235a2.513,2.513,0,0,1-1.908-.842l-.112-.168L226,58.7l.056.056a2.842,2.842,0,0,0,2.3,1.01c1.571,0,2.638-.842,2.638-2.133S229.985,56.118,229.031,55.781Z" transform="translate(-99.16 -23.106)" fill="#1d1d1b"/>
      <path id="Path_100" data-name="Path 100" d="M236.4,53.461h2.245v6.286h1.122V53.461h2.245V52.9H236.4Z" transform="translate(-103.723 -23.199)" fill="#1d1d1b"/>
      <path id="Path_101" data-name="Path 101" d="M249.922,56.548H252.9v-.505h-2.975V53.461h3.255V52.9H248.8v6.847h4.658v-.561h-3.536Z" transform="translate(-109.164 -23.199)" fill="#1d1d1b"/>
      <path id="Path_102" data-name="Path 102" d="M263.043,57a2.056,2.056,0,0,0,1.4-1.964c0-1.291-1.01-2.133-2.694-2.133H259.9v6.847h1.066V57.222h.954l1.852,2.526h1.347Zm-2.133-3.536h.73c1.066,0,1.515.449,1.515,1.571,0,1.347-.561,1.628-1.4,1.628h-.842Z" transform="translate(-114.034 -23.199)" fill="#1d1d1b"/>
      <path id="Path_103" data-name="Path 103" d="M0,2.015H10.1C7.128,6.842,3.424,13.577,2.3,18.909l-.056.224h1.8l.056-.168c1.066-5.556,4.49-12.965,7.3-17.4l.056-.056V.5H0Z" transform="translate(0 -0.208)" fill="#1d1d1b"/>
      <path id="Path_104" data-name="Path 104" d="M23.9,2.015H34c-2.975,4.827-6.679,11.562-7.8,16.893l-.056.281h1.74l.056-.168c1.066-5.556,4.49-12.965,7.3-17.4l.056-.056V.5H23.9Z" transform="translate(-10.486 -0.208)" fill="#1d1d1b"/>
      <path id="Path_105" data-name="Path 105" d="M69.374.5H63.2V19.133h6.174c6.118,0,9.653-3.367,9.653-9.26S75.379.5,69.374.5Zm0,17.791H64.828V1.342h4.546c5.163,0,7.745,2.918,7.745,8.531S74.537,18.291,69.374,18.291Z" transform="translate(-27.73 -0.208)" fill="#1d1d1b"/>
      <rect id="Rectangle_96" data-name="Rectangle 96" width="1.628" height="18.633" transform="translate(55.17 0.292)" fill="#1d1d1b"/>
      <path id="Path_106" data-name="Path 106" d="M121.229,19.133h1.8L115.5.5h-1.515L106.3,19.133h.954l2.526-6.118h8.98Zm-2.806-6.959h-8.306L114.27,1.959Z" transform="translate(-46.64 -0.208)" fill="#1d1d1b"/>
      <path id="Path_107" data-name="Path 107" d="M142.154,2.577l8.419,16.557h1.066l8.306-16.5.112,16.5h1.628L161.573.5H160l-8.475,16.725L143.108.612,143.052.5h-1.74L141.2,19.133h.9Z" transform="translate(-61.953 -0.208)" fill="#1d1d1b"/>
      <path id="Path_108" data-name="Path 108" d="M193.792,0C188.18,0,184.7,3.7,184.7,9.653s3.48,9.6,9.092,9.6,9.148-3.648,9.148-9.6S199.4,0,193.792,0Zm0,.73c4.6,0,7.3,3.255,7.3,8.924s-2.582,8.868-7.3,8.868-7.3-3.143-7.3-8.811S189.078.73,193.792.73Z" transform="translate(-81.039 0.011)" fill="#1d1d1b"/>
      <path id="Path_109" data-name="Path 109" d="M237.794,16.72,225.728.5H224.1V19.133h.954L225,2.352l12.46,16.725.112.056h1.122V.5h-.954Z" transform="translate(-98.326 -0.208)" fill="#1d1d1b"/>
      <path id="Path_110" data-name="Path 110" d="M265.374.5H259.2V19.133h6.174c6.117,0,9.653-3.367,9.653-9.26S271.435.5,265.374.5Zm0,17.791h-4.546V1.342h4.546c5.163,0,7.8,2.862,7.8,8.531S270.537,18.291,265.374,18.291Z" transform="translate(-113.727 -0.208)" fill="#1d1d1b"/>
      <path id="Path_111" data-name="Path 111" d="M298.364,8.859c-2.638-.842-5.163-1.571-5.163-4.378,0-2.357,1.74-3.76,4.658-3.76a7.158,7.158,0,0,1,4.771,1.852l.224.224.337-.73-.112-.112A7.05,7.05,0,0,0,297.8-.009c-3.873,0-6.23,1.908-6.23,5.051,0,3.424,2.918,4.322,5.781,5.22,2.526.786,4.939,1.515,4.939,4.041s-1.964,4.153-5.051,4.153a7.31,7.31,0,0,1-5.612-2.413l-.168-.224-.561.73.056.112c.056.112,1.852,2.694,6.342,2.694,3.985,0,6.623-2.189,6.623-5.444S301.115,9.7,298.364,8.859Z" transform="translate(-127.636 0.02)" fill="#1d1d1b"/>
    </g>
  </g>
</svg>
