<svg xmlns="http://www.w3.org/2000/svg" xmlns:xlink="http://www.w3.org/1999/xlink" width="190" height="39.816" viewBox="0 0 190 39.816">
  <defs>
    <clipPath id="clip-path">
      <rect id="Rectangle_399" data-name="Rectangle 399" width="190" height="39.816" fill="#fff"/>
    </clipPath>
  </defs>
  <g id="Group_408" data-name="Group 408" transform="translate(0 0)">
    <g id="Group_407" data-name="Group 407" transform="translate(0 0)" clip-path="url(#clip-path)">
      <path id="Path_391" data-name="Path 391" d="M33.312.66H6.071A6.071,6.071,0,0,0,0,6.731V33.972a6.07,6.07,0,0,0,6.071,6.071H33.312a6.071,6.071,0,0,0,6.071-6.071V6.731A6.071,6.071,0,0,0,33.312.66M19.064,13.824a41.777,41.777,0,0,0,5.96,3.061q4.665,2.1,6.478,4.5a9.781,9.781,0,0,1,1.814,6.058,10.642,10.642,0,0,1-1.7,5.96,11.148,11.148,0,0,1-4.91,4.047A18.216,18.216,0,0,1,19.175,38.9a30.435,30.435,0,0,1-6.046-.506,22.427,22.427,0,0,1-5.084-1.764V27.94a29.005,29.005,0,0,0,5.8,2.234,21.6,21.6,0,0,0,5.529.8,5.369,5.369,0,0,0,3.183-.752,2.315,2.315,0,0,0,1.012-1.938,2.134,2.134,0,0,0-.407-1.3,4.739,4.739,0,0,0-1.308-1.122q-.9-.568-4.8-2.32a23.044,23.044,0,0,1-5.293-3.109,9.545,9.545,0,0,1-2.616-3.455,11.46,11.46,0,0,1-.851-4.614A9.251,9.251,0,0,1,11.92,4.594q3.627-2.789,9.97-2.788A27.972,27.972,0,0,1,33.316,4.4L30.33,11.924A21.644,21.644,0,0,0,21.594,9.6a4.552,4.552,0,0,0-2.763.666,2.017,2.017,0,0,0-.864,1.654,2.386,2.386,0,0,0,1.1,1.9" transform="translate(0 -0.227)" fill="#fff"/>
      <path id="Path_392" data-name="Path 392" d="M81.09,43.267l-.025-3.7h-.2a10.991,10.991,0,0,1-3.973,3.307,13.116,13.116,0,0,1-5.232.888,8.208,8.208,0,0,1-6.219-2.368,9.243,9.243,0,0,1-2.27-6.664,7.577,7.577,0,0,1,3.109-6.65q3.11-2.185,9.007-2.456l4.665-.148v-.394q0-3.455-3.407-3.455A20.37,20.37,0,0,0,68.775,23.7L65.986,17.33a26.822,26.822,0,0,1,12.339-2.518q5.381,0,8.329,2.666A9.536,9.536,0,0,1,89.6,24.93V43.267Zm-5.33-6.318a4.352,4.352,0,0,0,3-1.111A3.688,3.688,0,0,0,80,32.951V30.78l-2.221.1q-4.763.173-4.763,3.5,0,2.568,2.74,2.567" transform="translate(-21.708 -5.09)" fill="#fff"/>
      <path id="Path_393" data-name="Path 393" d="M124.676,17.941h-5.947V38.671h-9.649V17.941h-3.7l-.074-7.132,3.973.024v-.468q0-5.528,2.258-7.947T118.778,0a21.314,21.314,0,0,1,3.64.3A29.012,29.012,0,0,1,126.4,1.332L124.33,7.577a12.973,12.973,0,0,0-3.479-.494,1.885,1.885,0,0,0-1.617.678,3.754,3.754,0,0,0-.505,2.209v.74h5.947Z" transform="translate(-36.185 0)" fill="#fff"/>
      <path id="Path_394" data-name="Path 394" d="M150,43.761q-6.985,0-10.847-3.714t-3.862-10.575q0-7.083,3.579-10.87t10.217-3.788q6.317,0,9.76,3.294T162.29,27.6v4.293H145.04a4.783,4.783,0,0,0,1.715,3.678,6.721,6.721,0,0,0,4.4,1.332,21.312,21.312,0,0,0,4.677-.481,23.169,23.169,0,0,0,4.627-1.641v6.935a17.02,17.02,0,0,1-4.689,1.6,32.513,32.513,0,0,1-5.774.444m-.568-22.384a4.008,4.008,0,0,0-2.849,1.074,5.041,5.041,0,0,0-1.346,3.369h8.293a4.81,4.81,0,0,0-1.147-3.233,3.792,3.792,0,0,0-2.95-1.21" transform="translate(-46.489 -5.09)" fill="#fff"/>
      <path id="Path_395" data-name="Path 395" d="M193.558,33.436a14.328,14.328,0,0,0,4.664-.963v7.034a18.933,18.933,0,0,1-3.714,1.2,20.991,20.991,0,0,1-4.134.358q-4.862,0-7.008-2.381t-2.147-7.317V19.838h-3.381V12.854l4.294.026.024-5.923,8.786.049v5.6H197.8v7.231h-6.861V30.721q0,2.715,2.616,2.715" transform="translate(-61.109 -2.39)" fill="#fff"/>
      <path id="Path_396" data-name="Path 396" d="M224.017,43.761q-6.985,0-10.847-3.714t-3.861-10.575q0-7.083,3.578-10.87T223.1,14.813q6.317,0,9.76,3.294t3.443,9.489v4.293h-17.25a4.783,4.783,0,0,0,1.714,3.678,6.723,6.723,0,0,0,4.406,1.332,21.306,21.306,0,0,0,4.677-.481,23.159,23.159,0,0,0,4.627-1.641v6.935a17.027,17.027,0,0,1-4.689,1.6,32.519,32.519,0,0,1-5.774.444m-.568-22.384a4.01,4.01,0,0,0-2.85,1.074,5.041,5.041,0,0,0-1.346,3.369h8.293a4.81,4.81,0,0,0-1.147-3.233,3.792,3.792,0,0,0-2.95-1.21" transform="translate(-71.923 -5.09)" fill="#fff"/>
      <path id="Path_397" data-name="Path 397" d="M267.052,43.761q-6.86,0-10.4-3.7t-3.542-10.636q0-6.96,3.825-10.784t10.884-3.825a20.393,20.393,0,0,1,9.155,2.122l-2.838,7.132a31.211,31.211,0,0,0-3.233-1.222,10.409,10.409,0,0,0-3.085-.456,4.175,4.175,0,0,0-3.628,1.825,8.888,8.888,0,0,0-1.283,5.158q0,6.712,4.961,6.713a15.01,15.01,0,0,0,8.143-2.468v7.674a15.851,15.851,0,0,1-8.958,2.468" transform="translate(-86.974 -5.09)" fill="#fff"/>
    </g>
  </g>
</svg>
