<svg xmlns="http://www.w3.org/2000/svg" width="190" height="39.674" viewBox="0 0 190 39.674">
  <g id="Group_351" data-name="Group 351" opacity="0.998">
    <g id="Group_7" data-name="Group 7" transform="translate(0 0)">
      <path id="Path_145" data-name="Path 145" d="M776.986,487.073H593.337v4.38H776.986Zm-22.137-4.7a1.673,1.673,0,0,0,.126-.408q0-7.2-.022-14.39a7.959,7.959,0,0,0-.183-1.349c-.434-2.431-1.5-4.448-4.03-5.161-2.835-.8-5.576-.648-7.855,1.559-.313.3-.576.66-1,1.157-.063-.977-.111-1.728-.158-2.456h-5.075v21.031h5.15v-1.419c0-3.681.006-7.361,0-11.042a5.173,5.173,0,0,1,1.213-3.552,4.511,4.511,0,0,1,4.659-1.206c1.635.54,1.893,1.924,2.076,3.351a8.824,8.824,0,0,1,.017,1.116q0,5.707,0,11.414v1.356Zm-79.309-7.185c-.546,1.97-.818,2.522-1.631,3.022-2.284,1.4-6.082.575-6.276-2.829a66.916,66.916,0,0,1,.011-7.3,3.484,3.484,0,0,1,3.4-3.325,3.537,3.537,0,0,1,4.107,2.727c.078.276.179.546.271.826h5.048a7.367,7.367,0,0,0-5.179-7.047,12.13,12.13,0,0,0-3.275-.572c-3.846-.126-6.805,1.385-8.591,4.916a13.194,13.194,0,0,0-1.271,7.111,16.565,16.565,0,0,0,.954,4.7c2.71,6.915,11.556,6.566,15,3.3a7.892,7.892,0,0,0,2.536-5.53Zm49.114,2.669H712.673V454.142h-5.308v28.2h17.29ZM690.2,461.186v-7.063h-5.178v7.135H681.55v3.962h3.49v1.458c0,4.1-.006,8.191,0,12.286,0,2.126,1.1,3.357,3.215,3.44s4.217.033,6.326.031a8.875,8.875,0,0,0,.973-.12v-3.977c-1.38,0-2.609.005-3.837,0-1.389-.007-1.445-.062-1.447-1.495q-.007-5.212,0-10.425c0-.361.042-.722.072-1.221H694.7v-4.009Zm-56.5,21.187c0-1.73-.013-3.3,0-4.863.028-2.727-.022-5.46.141-8.18.158-2.643,1.034-3.443,3.678-3.762.843-.1,1.7-.107,2.629-.161v-4.421a5.559,5.559,0,0,0-3.634.521,25.5,25.5,0,0,0-2.871,2.332v-2.526h-5.1v21.06Zm93.38-21.127v21.1h5.013v-21.1ZM624.007,482.3V461.24h-4.993V482.3Zm105.6-24.439a3.035,3.035,0,1,0-.071-6.069,3.035,3.035,0,1,0,.071,6.069Zm-108.139-.068a2.869,2.869,0,0,0,3.05-2.979,3.006,3.006,0,1,0-3.05,2.979Z" transform="translate(-593.288 -451.78)" fill="#fff"/>
      <path id="Path_146" data-name="Path 146" d="M776.986,594.043v4.381H593.337v-4.381Z" transform="translate(-593.288 -558.749)" fill="#fff"/>
      <path id="Path_147" data-name="Path 147" d="M1189.2,509.164h-5.087v-1.356q0-5.707,0-11.414a8.823,8.823,0,0,0-.018-1.116c-.183-1.426-.441-2.811-2.077-3.351a4.51,4.51,0,0,0-4.659,1.205,5.175,5.175,0,0,0-1.213,3.552c.009,3.681,0,7.362,0,11.042v1.419H1171V488.115h5.075l.158,2.457c.428-.5.691-.853,1-1.157,2.279-2.208,5.021-2.359,7.856-1.559,2.527.713,3.6,2.73,4.031,5.161a7.949,7.949,0,0,1,.183,1.349q.029,7.2.022,14.39A1.672,1.672,0,0,1,1189.2,509.164Z" transform="translate(-1027.643 -478.573)" fill="#fff"/>
      <path id="Path_148" data-name="Path 148" d="M883.947,502.15h5.1a7.894,7.894,0,0,1-2.536,5.53c-3.442,3.261-12.288,3.61-15-3.305a16.565,16.565,0,0,1-.954-4.7,13.193,13.193,0,0,1,1.271-7.111c1.786-3.531,4.746-5.042,8.591-4.916a12.129,12.129,0,0,1,3.275.572,7.366,7.366,0,0,1,5.179,7.047h-5.048c-.093-.281-.193-.55-.271-.826a3.537,3.537,0,0,0-4.107-2.726,3.484,3.484,0,0,0-3.4,3.325,66.932,66.932,0,0,0-.011,7.3c.194,3.4,3.992,4.233,6.276,2.829C883.129,504.672,883.4,504.119,883.947,502.15Z" transform="translate(-801.695 -478.744)" fill="#fff"/>
      <path id="Path_149" data-name="Path 149" d="M1070.254,485.014v4.491h-17.29V461.3h5.308v23.713Z" transform="translate(-938.888 -458.939)" fill="#fff"/>
      <path id="Path_150" data-name="Path 150" d="M957.559,468.29h4.5V472.3h-4.355c-.031.5-.071.86-.072,1.221q-.008,5.212,0,10.425c0,1.433.057,1.487,1.447,1.495,1.228.006,2.457,0,3.837,0v3.978a8.916,8.916,0,0,1-.973.12c-2.109,0-4.22.053-6.326-.031s-3.21-1.314-3.215-3.44c-.009-4.1,0-8.191,0-12.286v-1.458h-3.49v-3.962h3.471v-7.135h5.178Z" transform="translate(-860.648 -458.883)" fill="#fff"/>
      <path id="Path_151" data-name="Path 151" d="M740.422,510.038h-5.15v-21.06h5.1V491.5a25.51,25.51,0,0,1,2.871-2.332,5.56,5.56,0,0,1,3.634-.521v4.421c-.931.054-1.785.059-2.629.161-2.645.319-3.521,1.119-3.678,3.762-.163,2.72-.113,5.453-.141,8.18C740.408,506.741,740.422,508.308,740.422,510.038Z" transform="translate(-700.011 -479.445)" fill="#fff"/>
      <path id="Path_152" data-name="Path 152" d="M1132.433,489.939h5.013v21.1h-5.013Z" transform="translate(-998.641 -480.472)" fill="#fff"/>
      <path id="Path_153" data-name="Path 153" d="M701.831,510.973h-4.993V489.914h4.993Z" transform="translate(-671.112 -480.453)" fill="#fff"/>
      <path id="Path_154" data-name="Path 154" d="M1133.3,457.9a3.035,3.035,0,1,1,3.052-3.068A3.036,3.036,0,0,1,1133.3,457.9Z" transform="translate(-996.977 -451.815)" fill="#fff"/>
      <path id="Path_155" data-name="Path 155" d="M697.753,457.792a3.006,3.006,0,1,1,3.05-2.979A2.869,2.869,0,0,1,697.753,457.792Z" transform="translate(-669.574 -451.78)" fill="#fff"/>
      <path id="Path_156" data-name="Path 156" d="M802.3,500.414h-13.54c-.736,2.482.362,4.567,2.669,5.211,2.63.733,4.638-.427,5.4-3.251h5.137a7.7,7.7,0,0,1-2.952,5.584,9.727,9.727,0,0,1-15.71-6.423,15.058,15.058,0,0,1,.724-8.049c1.649-4.118,5.086-6.149,9.763-5.787a8.857,8.857,0,0,1,8.023,7.14A47,47,0,0,1,802.3,500.414ZM788.569,496.3h8.1a3.59,3.59,0,0,0-1.479-3.834,4.577,4.577,0,0,0-4.9-.077A3.8,3.8,0,0,0,788.569,496.3Z" transform="translate(-735.95 -478.756)" fill="#fff"/>
      <path id="Path_157" data-name="Path 157" d="M593.14,489.385V461.192c.066-.056.128-.155.19-.154,3.964.037,7.95-.164,11.888.186,5.553.493,8.351,3.186,9.528,8.647a25.209,25.209,0,0,1-.136,11.31c-1.159,4.814-4.092,7.342-9.209,8.023a27.959,27.959,0,0,1-3.464.173C599.046,489.4,596.156,489.385,593.14,489.385Zm5.44-4.5c2.276-.122,4.427-.1,6.534-.385a4.685,4.685,0,0,0,4.456-4.784c.087-3.012.078-6.03,0-9.043a4.5,4.5,0,0,0-3.494-4.557c-2.45-.77-4.956-.4-7.5-.451Z" transform="translate(-593.14 -458.723)" fill="#fff"/>
      <path id="Path_158" data-name="Path 158" d="M1276.1,500.4h-13.581c-.55,2.774.529,4.664,2.912,5.261,2.524.632,4.37-.485,5.268-3.24h5.094a7.8,7.8,0,0,1-2.325,5c-3.129,3.149-10.374,3.593-13.721-.316a10.531,10.531,0,0,1-1.823-2.919,14.309,14.309,0,0,1-.026-10.772c1.646-4.177,5.264-6.189,10.05-5.7a8.916,8.916,0,0,1,7.771,7.428A50.477,50.477,0,0,1,1276.1,500.4Zm-5.5-4.106a3.757,3.757,0,0,0-1.711-3.913,4.311,4.311,0,0,0-4.8.021,3.815,3.815,0,0,0-1.71,3.892Z" transform="translate(-1092.196 -478.745)" fill="#fff"/>
    </g>
    <g id="Group_8" data-name="Group 8" transform="translate(183.698 2.237)">
      <path id="Path_159" data-name="Path 159" d="M1338.975,466.179a3.157,3.157,0,1,1,.924-2.238A3.037,3.037,0,0,1,1338.975,466.179Zm-4.15-4.154a2.622,2.622,0,0,0-.79,1.92,2.654,2.654,0,0,0,.786,1.933,2.707,2.707,0,0,0,3.841,0,2.744,2.744,0,0,0,0-3.853,2.7,2.7,0,0,0-3.836,0Zm1.855.176a2.642,2.642,0,0,1,.946.125.86.86,0,0,1,.536.877.757.757,0,0,1-.337.684,1.311,1.311,0,0,1-.5.168.838.838,0,0,1,.594.339.948.948,0,0,1,.188.536v.253c0,.08,0,.166.009.258a.552.552,0,0,0,.03.18l.021.043h-.571l-.008-.034c0-.011-.006-.024-.009-.039l-.013-.111V465.2a.845.845,0,0,0-.327-.792,1.468,1.468,0,0,0-.678-.112h-.481v1.362h-.61V462.2Zm.659.546a1.587,1.587,0,0,0-.739-.129h-.521v1.254h.551a1.657,1.657,0,0,0,.582-.077.623.623,0,0,0,.127-1.048Z" transform="translate(-1333.597 -460.796)" fill="#fff"/>
    </g>
  </g>
</svg>
