<svg id="Group_346" data-name="Group 346" xmlns="http://www.w3.org/2000/svg" width="198.833" height="24.091" viewBox="0 0 198.833 24.091">
  <g id="Group_344" data-name="Group 344" transform="translate(101.238 4.815)">
    <path id="Path_300" data-name="Path 300" d="M1205.868,114.851l2.327-.2a5.136,5.136,0,0,0,.77,2.3,4.2,4.2,0,0,0,1.875,1.449,7.1,7.1,0,0,0,2.861.553,6.852,6.852,0,0,0,2.492-.42,3.456,3.456,0,0,0,1.608-1.151,2.67,2.67,0,0,0,.528-1.6,2.426,2.426,0,0,0-.509-1.532,3.77,3.77,0,0,0-1.678-1.1,32.9,32.9,0,0,0-3.319-.909,16.962,16.962,0,0,1-3.6-1.163,5.041,5.041,0,0,1-1.99-1.736,4.251,4.251,0,0,1-.655-2.321,4.737,4.737,0,0,1,.8-2.638,4.961,4.961,0,0,1,2.339-1.863,8.878,8.878,0,0,1,3.421-.636,9.35,9.35,0,0,1,3.655.667,5.276,5.276,0,0,1,2.435,1.965,5.645,5.645,0,0,1,.915,2.937l-2.365.178a3.818,3.818,0,0,0-1.291-2.67,5.024,5.024,0,0,0-3.249-.9,5.213,5.213,0,0,0-3.261.82,2.46,2.46,0,0,0-1.024,1.977,2.119,2.119,0,0,0,.725,1.653,9.82,9.82,0,0,0,3.719,1.329,24.627,24.627,0,0,1,4.126,1.189,5.655,5.655,0,0,1,2.4,1.9,4.636,4.636,0,0,1,.775,2.651,5.068,5.068,0,0,1-.852,2.8,5.607,5.607,0,0,1-2.448,2.047,8.529,8.529,0,0,1-3.592.731,10.724,10.724,0,0,1-4.24-.737,5.94,5.94,0,0,1-2.683-2.219A6.289,6.289,0,0,1,1205.868,114.851Z" transform="translate(-1205.868 -101.882)" fill="#fff"/>
    <path id="Path_301" data-name="Path 301" d="M1280.057,132.212q0-3.751,2.085-5.556a6.283,6.283,0,0,1,4.247-1.5,6.059,6.059,0,0,1,4.552,1.825,6.943,6.943,0,0,1,1.767,5.042,8.931,8.931,0,0,1-.782,4.1,5.531,5.531,0,0,1-2.276,2.32,6.627,6.627,0,0,1-3.261.826,6.069,6.069,0,0,1-4.584-1.818A7.262,7.262,0,0,1,1280.057,132.212Zm2.352,0a5.751,5.751,0,0,0,1.131,3.884,3.768,3.768,0,0,0,5.683-.006,5.887,5.887,0,0,0,1.132-3.954,5.58,5.58,0,0,0-1.138-3.8,3.773,3.773,0,0,0-5.677-.006A5.726,5.726,0,0,0,1282.409,132.212Z" transform="translate(-1263.642 -120.006)" fill="#fff"/>
    <path id="Path_302" data-name="Path 302" d="M1346.318,121.958v-18.64h2.289v18.64Z" transform="translate(-1315.242 -103)" fill="#fff"/>
    <path id="Path_303" data-name="Path 303" d="M1369.045,105.95v-2.632h2.289v2.632Zm0,16.008v-13.5h2.289v13.5Z" transform="translate(-1332.941 -103)" fill="#fff"/>
    <path id="Path_304" data-name="Path 304" d="M1398.4,134.017l2.251.293a5.838,5.838,0,0,1-1.888,3.643,5.5,5.5,0,0,1-3.732,1.316,5.8,5.8,0,0,1-4.456-1.812,7.35,7.35,0,0,1-1.685-5.194,9.4,9.4,0,0,1,.725-3.827,5.054,5.054,0,0,1,2.206-2.46,6.546,6.546,0,0,1,3.223-.82,5.6,5.6,0,0,1,3.6,1.113,5.1,5.1,0,0,1,1.793,3.16l-2.225.343a3.7,3.7,0,0,0-1.125-2.047,2.912,2.912,0,0,0-1.952-.687,3.552,3.552,0,0,0-2.81,1.24,5.886,5.886,0,0,0-1.081,3.922,6.081,6.081,0,0,0,1.043,3.954,3.392,3.392,0,0,0,2.721,1.234,3.206,3.206,0,0,0,2.251-.827A4.1,4.1,0,0,0,1398.4,134.017Z" transform="translate(-1348.395 -120.006)" fill="#fff"/>
    <path id="Path_305" data-name="Path 305" d="M1449.07,105.95v-2.632h2.289v2.632Zm0,16.008v-13.5h2.289v13.5Z" transform="translate(-1395.26 -103)" fill="#fff"/>
    <path id="Path_306" data-name="Path 306" d="M1472.267,121.388l.331,2.021a8.487,8.487,0,0,1-1.729.2,3.918,3.918,0,0,1-1.933-.394,2.207,2.207,0,0,1-.966-1.036,8.189,8.189,0,0,1-.28-2.7v-7.769h-1.678v-1.78h1.678v-3.344l2.276-1.373v4.717h2.3v1.78h-2.3v7.9a3.99,3.99,0,0,0,.121,1.259.952.952,0,0,0,.395.445,1.521,1.521,0,0,0,.782.165A7.447,7.447,0,0,0,1472.267,121.388Z" transform="translate(-1408.453 -104.478)" fill="#fff"/>
    <path id="Path_307" data-name="Path 307" d="M1496.547,132.212q0-3.751,2.085-5.556a6.284,6.284,0,0,1,4.247-1.5,6.059,6.059,0,0,1,4.552,1.825,6.942,6.942,0,0,1,1.767,5.042,8.938,8.938,0,0,1-.781,4.1,5.537,5.537,0,0,1-2.276,2.32,6.627,6.627,0,0,1-3.261.826,6.07,6.07,0,0,1-4.584-1.818A7.263,7.263,0,0,1,1496.547,132.212Zm2.352,0a5.751,5.751,0,0,0,1.131,3.884,3.767,3.767,0,0,0,5.683-.006,5.887,5.887,0,0,0,1.132-3.954,5.581,5.581,0,0,0-1.138-3.8,3.773,3.773,0,0,0-5.677-.006A5.726,5.726,0,0,0,1498.9,132.212Z" transform="translate(-1432.232 -120.006)" fill="#fff"/>
    <path id="Path_308" data-name="Path 308" d="M1562.922,138.963v-13.5h2.06v2.047a5.586,5.586,0,0,1,1.456-1.894,2.541,2.541,0,0,1,1.469-.458,4.47,4.47,0,0,1,2.352.737l-.789,2.123a3.275,3.275,0,0,0-1.678-.5,2.178,2.178,0,0,0-1.348.451,2.442,2.442,0,0,0-.852,1.253,8.914,8.914,0,0,0-.382,2.67v7.069Z" transform="translate(-1483.921 -120.006)" fill="#fff"/>
    <path id="Path_309" data-name="Path 309" d="M1596.279,134.933l2.263-.356a3.161,3.161,0,0,0,1.062,2.085,3.7,3.7,0,0,0,2.435.725,3.576,3.576,0,0,0,2.339-.642,1.919,1.919,0,0,0,.763-1.507,1.391,1.391,0,0,0-.674-1.221,9.942,9.942,0,0,0-2.34-.776,21.318,21.318,0,0,1-3.49-1.1,3.331,3.331,0,0,1-1.977-3.1,3.475,3.475,0,0,1,.413-1.672,3.7,3.7,0,0,1,1.125-1.278,4.722,4.722,0,0,1,1.456-.668,6.92,6.92,0,0,1,1.977-.273,7.814,7.814,0,0,1,2.791.458,3.8,3.8,0,0,1,1.773,1.239,4.848,4.848,0,0,1,.788,2.092l-2.238.305a2.448,2.448,0,0,0-.884-1.627,3.233,3.233,0,0,0-2.066-.585,3.739,3.739,0,0,0-2.25.521,1.517,1.517,0,0,0-.674,1.22,1.264,1.264,0,0,0,.28.8,2.011,2.011,0,0,0,.877.61q.343.127,2.022.585a28.18,28.18,0,0,1,3.388,1.062,3.441,3.441,0,0,1,1.506,1.2,3.356,3.356,0,0,1,.547,1.958,3.844,3.844,0,0,1-.668,2.155,4.317,4.317,0,0,1-1.927,1.564,7.012,7.012,0,0,1-2.848.553,6.344,6.344,0,0,1-4.012-1.093A5.083,5.083,0,0,1,1596.279,134.933Z" transform="translate(-1509.898 -120.006)" fill="#fff"/>
  </g>
  <g id="Group_345" data-name="Group 345" transform="translate(0 0)">
    <path id="Path_310" data-name="Path 310" d="M752.391,103.467c.234-.925.542-1.833.844-2.74,1.012-3.037,2.038-6.071,3.054-9.107.19-.566.363-1.138.543-1.707a.618.618,0,0,1,.317.42c.851,4.347,1.713,8.691,2.533,13.044a1.066,1.066,0,0,0,.479.833h3.888a1.165,1.165,0,0,0,.57-.778q1.873-6.227,3.764-12.449c.36-1.184.758-2.357,1.139-3.534l.22-.027c.3.691.628,1.375.909,2.076q2.748,6.855,5.474,13.719a1.612,1.612,0,0,0,.836.994H784.7l.243-.028c-.414-.829-.714-1.493-1.066-2.128-2-3.6-4.019-7.186-6.014-10.788q-2.941-5.309-5.841-10.641a.745.745,0,0,0-1.064-.425c-.9.321-1.852.5-2.721.877a2.183,2.183,0,0,0-1.077,1.068c-1.1,2.8-2.111,5.641-3.171,8.461-.435,1.157-.919,2.3-1.38,3.442l-.295.017-3.8-10.033c-1.336.226-2.405.464-2.943,1.878-1.866,4.911-3.839,9.781-5.778,14.664-.459,1.156-.941,2.3-1.488,3.636h3.562A1.025,1.025,0,0,0,752.391,103.467Z" transform="translate(-748.311 -80.119)" fill="#fff"/>
    <path id="Path_311" data-name="Path 311" d="M991.209,127.967a4,4,0,0,1,4.2-4.124c2.123.1,3.347,1.513,3.348,4.061,0,2.891,0,5.783,0,8.734h2.62c-.1-1.237-.246-2.359-.269-3.485-.043-2.025-.009-4.052-.013-6.078a5.023,5.023,0,0,0-7.517-4.668,26.046,26.046,0,0,0-2.316,1.5c.044-.425.079-.772.123-1.2H988.8V136.64h2.4C991.2,133.658,991.162,130.812,991.209,127.967Z" transform="translate(-935.588 -112.549)" fill="#fff"/>
    <path id="Path_312" data-name="Path 312" d="M1130.727,104.274c.1-4.6.147-9.2.238-13.793.025-1.284.14-2.565.2-3.849.025-.488-.088-.9-.7-.906-.838-.008-1.675,0-2.5,0v22.849h2.449C1130.528,107.1,1130.695,105.689,1130.727,104.274Z" transform="translate(-1043.967 -84.482)" fill="#fff"/>
    <path id="Path_313" data-name="Path 313" d="M934.6,136.438l.051-.269-1.069-.677c0-2.93.02-5.841-.006-8.752-.023-2.527-2.18-5.009-4.436-5.168a8.028,8.028,0,0,0-5.4,1.524c-.859.61-.925,1.358-.939,2.462.374-.276.594-.426.8-.594a7.725,7.725,0,0,1,1.364-1.1c2.762-1.319,5.7-1.393,6.148,2.577a64.791,64.791,0,0,1-.005,8.823c-.013.525-.106,1.068.436,1.19.041.009.082.016.123.024h2.759C934.483,136.462,934.541,136.452,934.6,136.438Z" transform="translate(-884.193 -112.383)" fill="#fff"/>
    <path id="Path_314" data-name="Path 314" d="M1152.642,137.09l-6.947-7.862c1.837-1.7,3.583-3.306,5.316-4.925.467-.436.895-.914,1.439-1.474a3.6,3.6,0,0,0-4.088,1.129c-1.6,1.756-3.37,3.358-5.087,5-.432.414-.479.727-.063,1.2,1.813,2.064,3.581,4.168,5.391,6.235a3.078,3.078,0,0,0,1.367.909h2.083A4.528,4.528,0,0,0,1152.642,137.09Z" transform="translate(-1055.613 -113.217)" fill="#fff"/>
    <path id="Path_315" data-name="Path 315" d="M923.93,158.807a7.331,7.331,0,0,1-2.786-3.579,2.8,2.8,0,0,1,.586-2.959,2.6,2.6,0,0,1,2.867-.51c.638.214,1.244.523,1.864.789l.2-.171a3.869,3.869,0,0,0-.583-.884,4.491,4.491,0,0,0-3.07-1.008,4.729,4.729,0,0,0-4.46,2.3,4.516,4.516,0,0,0,.119,4.723c.346.6.908,1.374,1.485,1.486l.083.013h3.627Z" transform="translate(-880.411 -134.917)" fill="#fff"/>
  </g>
  <path id="Path_316" data-name="Path 316" d="M1071.6,136.438l.051-.269-1.069-.677c0-2.93.02-5.841-.006-8.752-.023-2.527-2.18-5.009-4.436-5.168a8.028,8.028,0,0,0-5.4,1.524c-.859.61-.925,1.358-.939,2.462.374-.276.594-.426.8-.594a7.729,7.729,0,0,1,1.364-1.1c2.762-1.319,5.7-1.393,6.149,2.577a64.821,64.821,0,0,1-.005,8.823c-.013.525-.106,1.068.436,1.19.041.009.082.016.123.024h2.759C1071.483,136.462,1071.541,136.452,1071.6,136.438Z" transform="translate(-990.881 -112.383)" fill="#fff"/>
  <path id="Path_317" data-name="Path 317" d="M1060.93,158.807a7.331,7.331,0,0,1-2.786-3.579,2.8,2.8,0,0,1,.586-2.959,2.6,2.6,0,0,1,2.867-.51c.638.214,1.244.523,1.864.789l.2-.171a3.869,3.869,0,0,0-.583-.884,4.491,4.491,0,0,0-3.07-1.008,4.729,4.729,0,0,0-4.46,2.3,4.516,4.516,0,0,0,.12,4.723c.346.6.908,1.374,1.485,1.486l.083.013h3.627Z" transform="translate(-987.099 -134.917)" fill="#fff"/>
</svg>
