<svg xmlns="http://www.w3.org/2000/svg" width="190" height="31.95" viewBox="0 0 190 31.95">
  <g id="Group_390" data-name="Group 390" transform="translate(0)">
    <path id="Path_45" data-name="Path 45" d="M1392.5-770.848c.143-.012.25-.028.356-.028,6.035-.008,12.07-.041,18.106-.008a19.329,19.329,0,0,1,6.16.853,7.545,7.545,0,0,1,3.081,1.852,7.584,7.584,0,0,1-.459,10.361,8.858,8.858,0,0,1-4.3,1.918c-.222.043-.442.088-.765.152,1.924.958,3.1,2.771,4.31,4.494,1.566,2.23,3.018,4.572,4.557,6.831.7,1.025,1.487,1.962,2.235,2.94.047.062.093.124.208.279h-2.579c-3.434,0-6.868-.007-10.3.009a.706.706,0,0,1-.671-.444,89.13,89.13,0,0,0-6.634-9.934,10.839,10.839,0,0,0-1.363-1.406,6.267,6.267,0,0,0-1-.6c-.135,4.187.1,8.232.272,12.326h-11.213C1392.92-751.1,1392.927-760.946,1392.5-770.848Zm10.909,8.664h-.056c0,1.2,0,2.393,0,3.589,0,.854.01.886.7.905a18.048,18.048,0,0,0,2.736-.015,10.814,10.814,0,0,0,2.8-.688c1.41-.586,2.068-1.907,2.084-3.671a3.793,3.793,0,0,0-1.985-3.707,5.548,5.548,0,0,0-.962-.4,14.328,14.328,0,0,0-4.941-.3c-.311.015-.385.209-.383.534C1403.418-764.686,1403.414-763.436,1403.414-762.184Z" transform="translate(-1241.885 772.008)" fill="#fff"/>
    <path id="Path_46" data-name="Path 46" d="M-213.644-780.925a30.407,30.407,0,0,1,13.21,2.93c.4.2.485.4.393.894-.258,1.381-.47,2.775-.68,4.167-.059.392-.221.468-.535.489a3.052,3.052,0,0,1-1.925-.583,15.533,15.533,0,0,0-11.518-2.5,4.326,4.326,0,0,0-1.68.742,1.7,1.7,0,0,0,0,2.88,9.92,9.92,0,0,0,2.6,1.112c2.793.815,5.615,1.5,8.4,2.356a17.754,17.754,0,0,1,3.634,1.644c5,2.912,4.886,10.94.936,14.281a13.821,13.821,0,0,1-6.254,2.917,34.814,34.814,0,0,1-12.714.059,26.79,26.79,0,0,1-7.637-2.253c-1.119-.542-1.113-.549-.868-1.912.239-1.331.479-2.662.7-4,.072-.445.206-.622.629-.644a3.193,3.193,0,0,1,2.24.765,15.824,15.824,0,0,0,12.693,3.235,6.215,6.215,0,0,0,1.968-.768,2.014,2.014,0,0,0,.991-1.959,1.753,1.753,0,0,0-1.138-1.7c-1.206-.454-2.439-.807-3.664-1.186-2.528-.782-5.074-1.49-7.583-2.351a9.68,9.68,0,0,1-4.335-3.095,9.544,9.544,0,0,1-.6-11.027,8.956,8.956,0,0,1,4.322-3.186A24.228,24.228,0,0,1-213.644-780.925Z" transform="translate(228.413 780.925)" fill="#fff"/>
    <path id="Path_47" data-name="Path 47" d="M138.236-740.949c-.8,0-1.57,0-2.34,0-3.064.016-6.127.017-9.19.067-.514.009-.727-.21-.9-.746-.452-1.389-.986-2.74-1.426-4.134-.191-.606-.474-.781-.989-.778-3.018.02-6.036,0-9.054.006-.82,0-1.64.032-2.46.02a.526.526,0,0,0-.568.419q-.883,2.428-1.8,4.838c-.059.155-.248.341-.378.342-2.367.018-4.733.01-7.1.006-.027,0-.054-.027-.118-.062.067-.16.129-.32.2-.476q6.485-14.308,12.962-28.621a.659.659,0,0,1,.708-.49c3.126.025,6.251.018,9.377,0a.485.485,0,0,1,.542.351q4.753,11.056,9.524,22.1,1.471,3.414,2.922,6.839A2.714,2.714,0,0,1,138.236-740.949Zm-16.387-10.995-4.019-10.31-.2.011-4.135,10.3Z" transform="translate(-71.215 771.704)" fill="#fff"/>
    <path id="Path_48" data-name="Path 48" d="M1097.644-758.855H1110.8v5.64c-.753,0-1.492,0-2.231,0-3.528,0-7.056,0-10.584-.02-.331,0-.425.131-.418.509q.055,2.952.075,5.9c0,.416.113.577.481.579,3.31.019,6.62.1,9.929.064a33.877,33.877,0,0,0,3.829-.468c.119-.015.238-.026.365-.039-.323,2.012-.639,3.988-.964,6.01h-24.543c.288-9.843.353-19.69.043-29.574h24.374c.25,1.877.5,3.759.762,5.706-.437-.036-.846-.09-1.257-.1q-6.287-.165-12.576-.319c-.231-.006-.432-.006-.436.379-.018,1.839-.045,3.678-.067,5.518A.991.991,0,0,0,1097.644-758.855Z" transform="translate(-964.528 771.431)" fill="#fff"/>
    <path id="Path_49" data-name="Path 49" d="M743.875-741.007h-11.48c.212-7.966.289-15.921.147-23.912a43.717,43.717,0,0,0-10.285.508c.169-1.06.339-2.043.481-3.031q.2-1.387.345-2.784c.031-.3.1-.4.366-.395,5.061.039,10.121.079,15.182.087,4.488.007,8.977-.018,13.465-.04,1.126-.005,1.106-.021,1.272,1.309.188,1.509.416,3.011.626,4.516.012.088.013.178.027.388a44,44,0,0,0-10.3-.554Q743.5-752.979,743.875-741.007Z" transform="translate(-633.917 771.762)" fill="#fff"/>
    <path id="Path_50" data-name="Path 50" d="M538.954-746.387c-.249,1.681-.481,3.273-.723,4.863-.185,1.218-.19,1.222-1.244,1.216-5.307-.032-10.614-.077-15.92-.1-1.748-.006-3.5.055-5.244.084-.169,0-.338,0-.589,0,0-.234,0-.444,0-.656.087-4.008.2-8.015.256-12.024.071-5.389.095-10.779-.221-16.162-.013-.219,0-.439,0-.732h11.3c-.6,7.889-.174,15.825-.289,23.845A66.313,66.313,0,0,0,538.954-746.387Z" transform="translate(-446.132 771.113)" fill="#fff"/>
    <path id="Path_51" data-name="Path 51" d="M1758.376-768.195c-1.6,0-2.805-1.438-2.808-3.357s1.207-3.36,2.8-3.372,2.857,1.487,2.841,3.395S1759.981-768.193,1758.376-768.195Zm-.007-6.134a2.51,2.51,0,0,0-2.308,2.765,2.535,2.535,0,0,0,2.338,2.8,2.548,2.548,0,0,0,2.307-2.832A2.492,2.492,0,0,0,1758.369-774.328Z" transform="translate(-1571.213 775.588)" fill="#fff"/>
    <path id="Path_52" data-name="Path 52" d="M1775.807-759.354c.212.493.406.948.614,1.431l-.418.21a1.524,1.524,0,0,1-.309-.489,3.34,3.34,0,0,0-.371-.821.813.813,0,0,0-.531-.259c-.053-.007-.172.279-.2.445-.036.231.016.865-.025,1.094-.019.113-.523.09-.526-.015-.021-1.029-.021-2.441,0-3.469a.422.422,0,0,1,.277-.3,7.694,7.694,0,0,1,1.158,0,.877.877,0,0,1,.875.744,1.183,1.183,0,0,1-.366,1.259C1775.941-759.484,1775.894-759.437,1775.807-759.354Zm-.711-.575h.23a.449.449,0,0,0,.5-.5.455.455,0,0,0-.48-.525,1.512,1.512,0,0,0-.506.012.443.443,0,0,0-.246.293C1774.5-760.056,1774.6-759.928,1775.1-759.929Z" transform="translate(-1587.957 763.697)" fill="#fff"/>
  </g>
</svg>
