<svg xmlns="http://www.w3.org/2000/svg" width="178.374" height="62" viewBox="0 0 178.374 62">
  <g id="Page-1" transform="translate(-0.636 -0.455)">
    <g id="Nimax" transform="translate(0.636 0.455)">
      <g id="Group">
        <path id="Shape" d="M3.636,78.171h5.3V60.6h.332l10.61,17.572h6.963V53.636h-5.3V70.545h0L10.93,53.636H3.636Z" transform="translate(-3.636 -36.064)" fill="#fff"/>
        <path id="Shape-2" data-name="Shape" d="M184.545,78.171h5.3v-18.9h0l6.3,18.9h3.979l6.3-18.9h.332v18.9h5.3V53.636h-8.289l-5.636,15.914h0L192.5,53.636h-7.957Z" transform="translate(-118.567 -36.064)" fill="#fff"/>
        <path id="Shape-3" data-name="Shape" d="M299.091,78.171h5.968l1.989-5.3h9.615l1.989,5.3h5.968l-10.61-24.535H309.7Zm15.583-9.947h-5.968L311.69,60.6Z" transform="translate(-191.337 -36.064)" fill="#fff"/>
        <path id="Shape-4" data-name="Shape" d="M396.364,78.171,420.9,53.636h7.294l-24.2,24.535Z" transform="translate(-253.134 -36.064)" fill="#fff"/>
        <path id="Shape-5" data-name="Shape" d="M114.749,20.706l-4.973-3.647L104.8,20.706l1.989-5.968-4.973-3.647h6.3l1.658-5.636,1.989,5.636h6.3l-4.973,3.647Z" transform="translate(-66.011 -5.455)" fill="#fff"/>
        <path id="Shape-6" data-name="Shape" d="M7.947,152.93h2.321V141.989h4.31V140H3.636v1.989h4.31Z" transform="translate(-3.636 -90.93)" fill="#fff"/>
        <path id="Shape-7" data-name="Shape" d="M70.909,152.93H73.23v-5.636h6.631v5.636h2.321V140H79.861v4.973H73.23V140H70.909Z" transform="translate(-46.374 -90.93)" fill="#fff"/>
        <path id="Shape-8" data-name="Shape" d="M142.727,152.93h9.615V150.61h-7.294v-3.316h6.631V145.3h-6.631v-3.316h6.963V140h-9.283Z" transform="translate(-92 -90.93)" fill="#fff"/>
        <path id="Shape-9" data-name="Shape" d="M203.636,153.508h2.652l1.326-2.984h5.968l1.326,2.984h2.984l-5.968-12.6h-1.989Zm4.973-4.973,2.321-5.3,1.989,5.3Z" transform="translate(-130.695 -91.508)" fill="#fff"/>
        <path id="Shape-10" data-name="Shape" d="M274.31,152.93h2.321V141.989h4.31V140H270v1.989h4.31Z" transform="translate(-172.856 -90.93)" fill="#fff"/>
        <path id="Shape-11" data-name="Shape" d="M336.7,153.508h2.321v-5.3h1.658l3.316,5.3h2.984l-3.647-5.636c1.989-.332,3.316-1.658,3.316-3.316,0-2.984-2.652-3.647-5.3-3.647h-4.973v12.6Zm2.321-7.626v-3.316h1.989c1.326,0,2.652.332,2.652,1.658,0,1.658-1.658,1.658-2.984,1.658Z" transform="translate(-215.016 -91.508)" fill="#fff"/>
        <path id="Shape-12" data-name="Shape" d="M403.636,152.93h9.283V150.61h-6.963v-3.316h6.3V145.3h-6.3v-3.316h6.631V140h-8.952Z" transform="translate(-257.754 -90.93)" fill="#fff"/>
        <path id="Shape-13" data-name="Shape" d="M475.647,140.417a5.788,5.788,0,0,0-3.979-1.326c-2.652,0-4.973,1.326-4.973,3.979,0,4.642,6.631,2.984,6.631,5.636,0,1.326-1.326,1.658-2.321,1.658a3.015,3.015,0,0,1-2.652-1.326l-1.989,1.658c.995,1.326,2.984,1.658,4.642,1.658,2.652,0,4.973-1.326,4.973-3.979,0-4.642-6.631-2.984-6.631-5.636,0-1.326.995-1.658,2.321-1.658a2.581,2.581,0,0,1,2.321.995Z" transform="translate(-297.604 -90.353)" fill="#fff"/>
      </g>
      <path id="Shape-14" data-name="Shape" d="M113.636,77.508V53.636h5.636v24.2h-5.636Z" transform="translate(-73.519 -36.064)" fill="#fff"/>
      <path id="Shape-15" data-name="Shape" d="M274.909,57.394c-43.433-49.733-124-34.15-124-34.15C240.1,16.282,266.62,57.394,266.62,57.394Z" transform="translate(-97.198 -15.287)" fill="#fff"/>
    </g>
  </g>
</svg>
