<?xml version="1.0" encoding="utf-8"?>
<!-- Generator: Adobe Illustrator 25.1.0, SVG Export Plug-In . SVG Version: 6.00 Build 0)  -->
<svg version="1.1" id="Layer_1" xmlns="http://www.w3.org/2000/svg" xmlns:xlink="http://www.w3.org/1999/xlink" x="0px" y="0px"
	 viewBox="0 0 300 63.6" style="enable-background:new 0 0 300 63.6;" xml:space="preserve">
<style type="text/css">
	.st0{fill:#1D1D1B;}
</style>
<g>
	<path class="st0" d="M71.9,42.7l23.3,0c0,0-5,17.4-26.7,17.5c-15.9,0-27.2-14.6-27.2-28.6S54.9,4.1,69,4.1s21,8.8,21,8.8l2.7-2.3
		c0,0-8.7-9.9-23.8-9.8C54,0.9,37.8,14,37.8,32S54,63.6,68.4,63.6C83.2,63.6,98,53,98.6,39.5H71.9L71.9,42.7L71.9,42.7z"/>
	<rect x="26.4" y="0.7" class="st0" width="3.3" height="62.8"/>
	<polygon class="st0" points="108.4,0.7 105.1,0.7 105.1,60.2 105.1,63.5 105.1,63.5 122.3,63.5 122.3,60.2 108.4,60.2 	"/>
	<polygon class="st0" points="132.1,0.7 128.8,0.7 128.8,4.1 128.8,39.5 128.8,42.8 128.8,60.2 128.8,63.5 128.8,63.5 146,63.5 
		146,60.2 132.2,60.2 132.2,42.8 146,42.8 146,39.5 132.2,39.5 132.1,4.1 146,4.1 146,0.7 	"/>
	<path class="st0" d="M299.9,47.6c-0.8-8.4-3.8-12-6.4-16.1c-2.6-4-8.3-11.8-8.9-16.5c-2-16.1,12.3-11,12.5-11l0.8-3
		c-7.3-2.4-19.3-1.4-16.5,15.6c1,5.7,6.9,12.9,9.1,16.3c1.5,2.3,5.1,6.8,5.9,14.8c1.6,15.3-14.4,11.9-14.5,11.9l-0.7,3.4
		C281.3,63.1,301.7,67.1,299.9,47.6z"/>
	<polygon class="st0" points="224,58.8 197.5,0.7 193.9,0.7 222.5,63.6 225.5,63.6 254.1,0.7 250.5,0.7 	"/>
	<polygon class="st0" points="261.6,0.7 258.2,0.7 258.2,0.7 258.2,4.1 258.2,39.5 258.2,42.8 258.2,60.2 258.2,63.5 261.6,63.5 
		275.4,63.5 275.4,60.2 261.6,60.2 261.6,42.8 275.4,42.8 275.4,39.5 261.6,39.5 261.6,4.1 275.4,4.1 275.4,0.7 	"/>
	<polygon class="st0" points="0,0.8 0,0.8 0,4.1 0,39.5 0,42.8 0,63.6 3.4,63.6 3.4,42.8 17.1,42.8 17.1,39.5 3.4,39.5 3.4,4.1 
		17.2,4.1 17.2,0.8 	"/>
	<path class="st0" d="M180.7,0.7l-28.6,62.8h3.7l9.5-20.8h34l9.5,20.8h3.6L183.7,0.7L180.7,0.7L180.7,0.7z M166.7,39.5l15.5-34
		l15.5,34H166.7z"/>
</g>
</svg>
