<svg id="Group_343" data-name="Group 343" xmlns="http://www.w3.org/2000/svg" width="173.453" height="31.301" viewBox="0 0 173.453 31.301">
  <g id="Group_341" data-name="Group 341" transform="translate(0 21.469)">
    <path id="Path_289" data-name="Path 289" d="M633.315,528.095a17.023,17.023,0,0,1-4.169.523,8.857,8.857,0,0,1-5.071-1.259,4.194,4.194,0,0,1-1.885-3.537c.006-2.842,2.787-4.922,7.33-4.922a11.754,11.754,0,0,1,3.392.437l-.437,1a9.476,9.476,0,0,0-3-.408c-3.29,0-5.446,1.439-5.446,3.825,0,2.414,2.062,3.844,5.234,3.844a7.77,7.77,0,0,0,2.327-.257v-2.838H628.85v-.984h4.465Z" transform="translate(-622.19 -518.846)" fill="#fff"/>
    <path id="Path_290" data-name="Path 290" d="M715.912,519.248v5.647c0,2.125,1.342,3.027,3.171,3.027,2,0,3.3-.934,3.3-3.027v-5.647h1.76v5.559c0,2.929-2.191,4.124-5.131,4.124-2.768,0-4.858-1.11-4.858-4.07v-5.613Z" transform="translate(-688.996 -519.099)" fill="#fff"/>
    <path id="Path_291" data-name="Path 291" d="M803.956,519.248h1.761v8.489h5.8v1.039h-7.557Z" transform="translate(-754.237 -519.099)" fill="#fff"/>
    <path id="Path_292" data-name="Path 292" d="M881.281,519.248h1.76v8.489h5.8v1.039h-7.558Z" transform="translate(-810.411 -519.099)" fill="#fff"/>
    <path id="Path_293" data-name="Path 293" d="M959.4,525.781l-1.4,2.995h-1.816l4.612-9.528H962.9l4.631,9.528h-1.873l-1.452-2.995Zm4.453-.962-1.343-2.742c-.294-.624-.5-1.191-.7-1.738h-.047c-.194.557-.406,1.139-.672,1.722l-1.336,2.759Z" transform="translate(-864.826 -519.099)" fill="#fff"/>
    <path id="Path_294" data-name="Path 294" d="M1047,528.776v-9.528h1.926l4.343,4.816a26.607,26.607,0,0,1,2.419,3.1l.044-.015a30.265,30.265,0,0,1-.191-3.91v-3.993h1.649v9.528h-1.779l-4.31-4.83a30.392,30.392,0,0,1-2.523-3.19l-.06.015c.1,1.207.129,2.356.129,3.931v4.074Z" transform="translate(-930.801 -519.099)" fill="#fff"/>
    <path id="Path_295" data-name="Path 295" d="M1137.654,519.182a33.1,33.1,0,0,1,3.726-.2,10.082,10.082,0,0,1,5.493,1.2,3.835,3.835,0,0,1,1.92,3.409,4.36,4.36,0,0,1-1.951,3.707,10.885,10.885,0,0,1-6,1.374c-1.255,0-2.295-.034-3.186-.106Zm1.759,8.429c.444.051,1.093.058,1.761.058,3.753.006,5.775-1.463,5.775-4.039.021-2.25-1.79-3.671-5.484-3.671a14.824,14.824,0,0,0-2.052.125Z" transform="translate(-996.657 -518.903)" fill="#fff"/>
    <path id="Path_296" data-name="Path 296" d="M1226.756,526.882a8.124,8.124,0,0,0,3.129.617c1.791,0,2.844-.657,2.844-1.622,0-.884-.735-1.4-2.564-1.886-2.213-.551-3.586-1.369-3.586-2.7,0-1.483,1.755-2.584,4.4-2.584a8.424,8.424,0,0,1,2.991.461l-.489,1.009a6.9,6.9,0,0,0-2.561-.453c-1.863,0-2.566.776-2.566,1.425,0,.884.825,1.321,2.7,1.829,2.3.634,3.458,1.41,3.458,2.807,0,1.462-1.532,2.748-4.745,2.748a9.328,9.328,0,0,1-3.464-.622Z" transform="translate(-1061.052 -518.705)" fill="#fff"/>
  </g>
  <g id="Group_342" data-name="Group 342" transform="translate(78.781 0)">
    <path id="Path_298" data-name="Path 298" d="M919.59,445.17s-.8.067-.7,1.3.351,4.009-.008,4.143-4.3.635-5.972-2.723a5.477,5.477,0,0,1,1-6.064,5.053,5.053,0,0,1,5.413-.735s1.1.28.635-.463c0,0-.1-.472-3.007-.405a8.27,8.27,0,0,0-4.592,1.37,6.262,6.262,0,0,0-2.157,4.711c0,3.041,3.442,4.416,3.442,4.416s1.2.8,6.014.662c0,0,.9.167.9-1.1v-4.473S920.626,445.07,919.59,445.17Z" transform="translate(-910.201 -440.218)" fill="#fff"/>
    <path id="Path_299" data-name="Path 299" d="M933.036,454.755s.8-.067.7-1.3-.35-4.009.009-4.143,4.3-.635,5.972,2.723a5.478,5.478,0,0,1-1,6.065,5.053,5.053,0,0,1-5.413.735s-1.1-.28-.635.463c0,0,.1.472,3.007.406a8.268,8.268,0,0,0,4.592-1.37,6.262,6.262,0,0,0,2.157-4.711c0-3.041-3.441-4.416-3.441-4.416s-1.2-.8-6.014-.662c0,0-.9-.167-.9,1.1v4.473S932,454.855,933.036,454.755Z" transform="translate(-926.085 -446.253)" fill="#fff"/>
  </g>
</svg>
