<svg id="Group_349" data-name="Group 349" xmlns="http://www.w3.org/2000/svg" width="150" height="31.322" viewBox="0 0 150 31.322">
  <g id="Group_7" data-name="Group 7" transform="translate(0 0)">
    <path id="Path_145" data-name="Path 145" d="M738.323,479.643H593.337V483.1H738.323Zm-17.476-3.713a1.321,1.321,0,0,0,.1-.322q0-5.68-.017-11.361a6.289,6.289,0,0,0-.144-1.065c-.342-1.919-1.187-3.512-3.182-4.074-2.238-.631-4.4-.512-6.2,1.231-.247.24-.454.521-.793.913-.05-.771-.088-1.364-.125-1.939h-4.006v16.6h4.066V474.8c0-2.906.005-5.812,0-8.717a4.084,4.084,0,0,1,.958-2.8,3.561,3.561,0,0,1,3.678-.952c1.291.426,1.495,1.519,1.639,2.645a6.965,6.965,0,0,1,.014.881q0,4.506,0,9.011v1.07Zm-62.612-5.673c-.431,1.555-.646,1.991-1.287,2.386-1.8,1.108-4.8.454-4.955-2.234a52.824,52.824,0,0,1,.009-5.766,2.75,2.75,0,0,1,2.68-2.625,2.792,2.792,0,0,1,3.242,2.152c.062.218.141.431.214.652h3.985a5.816,5.816,0,0,0-4.088-5.564,9.575,9.575,0,0,0-2.585-.451,6.764,6.764,0,0,0-6.783,3.881,10.416,10.416,0,0,0-1,5.614,13.077,13.077,0,0,0,.753,3.71c2.139,5.459,9.123,5.184,11.84,2.609a6.231,6.231,0,0,0,2-4.366Zm38.774,2.107h-9.459V453.645h-4.191v22.267h13.65Zm-27.2-13.159V453.63h-4.088v5.633h-2.74v3.128h2.756v1.151c0,3.233-.005,6.466,0,9.7a2.423,2.423,0,0,0,2.538,2.716c1.662.066,3.329.026,4.994.024a7.029,7.029,0,0,0,.768-.1v-3.14c-1.09,0-2.059,0-3.029,0-1.1-.006-1.141-.049-1.142-1.18q-.005-4.115,0-8.23c0-.285.033-.57.057-.964h3.438v-3.165ZM625.2,475.933c0-1.366-.011-2.6,0-3.839.022-2.153-.017-4.311.111-6.458.124-2.086.816-2.718,2.9-2.97.666-.08,1.341-.084,2.075-.127v-3.49a4.389,4.389,0,0,0-2.869.411,20.127,20.127,0,0,0-2.266,1.841v-1.994h-4.024v16.626Zm73.721-16.679v16.659h3.958V459.254ZM617.55,475.875V459.249h-3.942v16.626Zm83.368-19.294a2.4,2.4,0,1,0-.056-4.791,2.4,2.4,0,1,0,.056,4.791Zm-85.373-.054a2.265,2.265,0,0,0,2.408-2.352,2.373,2.373,0,1,0-2.408,2.352Z" transform="translate(-593.298 -451.78)" fill="#1d1d1b"/>
    <path id="Path_146" data-name="Path 146" d="M738.323,594.043V597.5H593.337v-3.458Z" transform="translate(-593.298 -566.18)" fill="#1d1d1b"/>
    <path id="Path_147" data-name="Path 147" d="M1185.373,504.584h-4.016v-1.07q0-4.506,0-9.011a6.964,6.964,0,0,0-.014-.881c-.145-1.126-.348-2.219-1.639-2.645a3.561,3.561,0,0,0-3.678.952,4.085,4.085,0,0,0-.958,2.8c.007,2.906,0,5.812,0,8.717v1.12H1171v-16.6h4.006l.125,1.939c.338-.392.545-.674.792-.913,1.8-1.743,3.964-1.862,6.2-1.231,2,.563,2.84,2.155,3.182,4.074a6.278,6.278,0,0,1,.144,1.065q.023,5.68.017,11.361A1.321,1.321,0,0,1,1185.373,504.584Z" transform="translate(-1057.824 -480.434)" fill="#1d1d1b"/>
    <path id="Path_148" data-name="Path 148" d="M881.117,499.1h4.025a6.231,6.231,0,0,1-2,4.365c-2.717,2.575-9.7,2.85-11.84-2.609a13.077,13.077,0,0,1-.753-3.71,10.416,10.416,0,0,1,1-5.614,6.764,6.764,0,0,1,6.783-3.881,9.575,9.575,0,0,1,2.585.451,5.815,5.815,0,0,1,4.088,5.564h-3.985c-.073-.222-.153-.434-.214-.652a2.792,2.792,0,0,0-3.242-2.152,2.75,2.75,0,0,0-2.68,2.625,52.825,52.825,0,0,0-.009,5.766c.153,2.688,3.152,3.342,4.955,2.234C880.471,501.086,880.686,500.65,881.117,499.1Z" transform="translate(-816.181 -480.617)" fill="#1d1d1b"/>
    <path id="Path_149" data-name="Path 149" d="M1066.615,480.022v3.546h-13.65V461.3h4.191v18.721Z" transform="translate(-962.905 -459.436)" fill="#1d1d1b"/>
    <path id="Path_150" data-name="Path 150" d="M955.738,466.8h3.555v3.165h-3.439c-.024.394-.056.679-.057.964q-.006,4.115,0,8.23c0,1.131.045,1.174,1.142,1.18.97.005,1.94,0,3.029,0v3.14a7.032,7.032,0,0,1-.768.1c-1.665,0-3.331.042-4.994-.024a2.423,2.423,0,0,1-2.538-2.716c-.007-3.233,0-6.466,0-9.7v-1.151H948.91V466.86h2.74v-5.633h4.088Z" transform="translate(-879.23 -459.377)" fill="#1d1d1b"/>
    <path id="Path_151" data-name="Path 151" d="M739.338,505.519h-4.066V488.893H739.3v1.994a20.139,20.139,0,0,1,2.266-1.841,4.389,4.389,0,0,1,2.869-.411v3.49c-.735.043-1.41.047-2.076.127-2.088.252-2.78.884-2.9,2.97-.128,2.147-.089,4.3-.111,6.458C739.327,502.916,739.338,504.153,739.338,505.519Z" transform="translate(-707.434 -481.367)" fill="#1d1d1b"/>
    <path id="Path_152" data-name="Path 152" d="M1132.433,489.939h3.958V506.6h-3.958Z" transform="translate(-1026.808 -482.465)" fill="#1d1d1b"/>
    <path id="Path_153" data-name="Path 153" d="M700.78,506.54h-3.942V489.914h3.942Z" transform="translate(-676.528 -482.445)" fill="#1d1d1b"/>
    <path id="Path_154" data-name="Path 154" d="M1132.648,456.618a2.4,2.4,0,1,1,2.41-2.422A2.4,2.4,0,0,1,1132.648,456.618Z" transform="translate(-1025.029 -451.818)" fill="#1d1d1b"/>
    <path id="Path_155" data-name="Path 155" d="M697.13,456.527a2.373,2.373,0,1,1,2.408-2.352A2.265,2.265,0,0,1,697.13,456.527Z" transform="translate(-674.883 -451.78)" fill="#1d1d1b"/>
    <path id="Path_156" data-name="Path 156" d="M798.25,497.728H787.56a3.067,3.067,0,0,0,2.107,4.114c2.076.579,3.662-.337,4.264-2.567h4.056a6.081,6.081,0,0,1-2.33,4.408,7.679,7.679,0,0,1-12.4-5.071,11.887,11.887,0,0,1,.571-6.355c1.3-3.251,4.016-4.855,7.707-4.569a6.993,6.993,0,0,1,6.334,5.637A37.111,37.111,0,0,1,798.25,497.728Zm-10.838-3.25H793.8a2.834,2.834,0,0,0-1.167-3.027,3.613,3.613,0,0,0-3.872-.061A3,3,0,0,0,787.411,494.478Z" transform="translate(-745.87 -480.63)" fill="#1d1d1b"/>
    <path id="Path_157" data-name="Path 157" d="M593.14,483.412V461.155c.052-.044.1-.122.15-.122,3.13.029,6.277-.129,9.385.147,4.384.389,6.593,2.515,7.522,6.827a19.9,19.9,0,0,1-.108,8.929c-.915,3.8-3.23,5.8-7.27,6.334a22.065,22.065,0,0,1-2.734.137C597.8,483.424,595.521,483.412,593.14,483.412Zm4.295-3.549c1.8-.1,3.495-.076,5.159-.3a3.7,3.7,0,0,0,3.518-3.777c.069-2.378.062-4.761,0-7.139a3.552,3.552,0,0,0-2.758-3.6c-1.934-.608-3.913-.32-5.92-.356Z" transform="translate(-593.14 -459.205)" fill="#1d1d1b"/>
    <path id="Path_158" data-name="Path 158" d="M1272.045,497.716h-10.722c-.434,2.19.418,3.682,2.3,4.154,1.992.5,3.45-.383,4.159-2.557h4.022a6.161,6.161,0,0,1-1.836,3.945c-2.47,2.486-8.19,2.837-10.832-.25a8.313,8.313,0,0,1-1.439-2.3,11.3,11.3,0,0,1-.021-8.5c1.3-3.3,4.156-4.886,7.934-4.5a7.039,7.039,0,0,1,6.135,5.865A39.88,39.88,0,0,1,1272.045,497.716Zm-4.34-3.242a2.967,2.967,0,0,0-1.351-3.089,3.4,3.4,0,0,0-3.789.017,3.011,3.011,0,0,0-1.35,3.072Z" transform="translate(-1126.861 -480.618)" fill="#1d1d1b"/>
  </g>
  <g id="Group_8" data-name="Group 8" transform="translate(145.024 1.766)">
    <path id="Path_159" data-name="Path 159" d="M1337.843,465.046a2.493,2.493,0,1,1,.729-1.767A2.4,2.4,0,0,1,1337.843,465.046Zm-3.276-3.28a2.07,2.07,0,0,0-.624,1.516,2.1,2.1,0,0,0,.62,1.526,2.137,2.137,0,0,0,3.032,0,2.166,2.166,0,0,0,0-3.042,2.133,2.133,0,0,0-3.029,0Zm1.465.139a2.086,2.086,0,0,1,.746.1.679.679,0,0,1,.423.693.6.6,0,0,1-.266.54,1.035,1.035,0,0,1-.4.132.662.662,0,0,1,.469.268.748.748,0,0,1,.149.423v.2c0,.064,0,.131.007.2a.435.435,0,0,0,.024.142l.017.034h-.451l-.007-.027c0-.009,0-.019-.007-.031l-.01-.088v-.216a.667.667,0,0,0-.258-.625,1.158,1.158,0,0,0-.536-.088h-.38v1.075h-.482V461.9Zm.52.431a1.253,1.253,0,0,0-.583-.1h-.411v.99h.435a1.308,1.308,0,0,0,.459-.061.492.492,0,0,0,.1-.828Z" transform="translate(-1333.597 -460.796)" fill="#1d1d1b"/>
  </g>
</svg>
