<svg id="Nav-IRELAND" xmlns="http://www.w3.org/2000/svg" width="150" height="21.263" viewBox="0 0 150 21.263">
  <g id="BlackRock_Wordmark_Blk_RGB" transform="translate(0 0)">
    <path id="Shape" d="M19.09,20.858V0h4.751V20.858Zm92.352-7.793c0-5.041-3.911-8.169-8.488-8.169-4.606,0-8.488,3.158-8.488,8.169,0,5.041,3.911,8.2,8.488,8.2S111.443,18.077,111.443,13.065Zm-4.693,0a3.834,3.834,0,1,1-7.648,0,3.832,3.832,0,1,1,7.648,0Zm-89.571,1.8a5.013,5.013,0,0,0-3.389-4.954A4.665,4.665,0,0,0,16.57,5.562C16.57,2.52,14.368,0,9.444.029H0V20.887H9.849C14.8,20.858,17.178,18.4,17.178,14.861ZM11.53,6.17c0,1.419-.9,2.231-2.636,2.231H4.954V4.056h3.94C10.487,4.056,11.53,4.751,11.53,6.17Zm.435,8.372c0,1.362-.956,2.26-2.723,2.26H4.954V12.283H9.241C10.95,12.283,11.964,13.152,11.964,14.542ZM58.546,9.154c-1.3-2.723-3.737-4.229-7.416-4.229-4.345,0-8.227,2.723-8.227,8.14,0,5.272,3.418,8.2,8.169,8.2,3.331,0,6.141-1.333,7.474-4.2l-3.824-1.97a3.691,3.691,0,0,1-3.476,2.086c-2.2,0-3.621-1.564-3.621-4.114S49.247,8.98,51.217,8.98a3.549,3.549,0,0,1,3.418,2.2Zm70.017,0c-1.3-2.723-3.737-4.229-7.416-4.229-4.345,0-8.227,2.723-8.227,8.14,0,5.272,3.418,8.2,8.169,8.2,3.331,0,6.141-1.333,7.474-4.2l-3.824-1.97a3.691,3.691,0,0,1-3.476,2.086c-2.2,0-3.621-1.564-3.621-4.114s1.622-4.085,3.592-4.085a3.549,3.549,0,0,1,3.418,2.2Zm-39.832,11.7-3.969-7.01H81.721v7.01h-4.9V0H85.66c4.78,0,8.111,2.289,8.111,6.779a6.483,6.483,0,0,1-3.94,6.141l4.577,7.937ZM81.75,9.7H85.4c2.26,0,3.36-1.275,3.36-2.781,0-1.8-1.043-2.781-3.36-2.781H81.75ZM42.121,20.6V17.323a3.02,3.02,0,0,1-.811.116.811.811,0,0,1-.927-.869V11.153c0-4.056-2.723-6.2-7.213-6.2a10.618,10.618,0,0,0-6.981,2.462l2.636,2.955a5.858,5.858,0,0,1,3.795-1.506c2.086,0,3.071,1.043,3.071,2.752v.492a15.971,15.971,0,0,0-3.737-.464c-3.795,0-6.257,1.825-6.257,4.838,0,3.1,2.057,4.722,5.243,4.722a6.987,6.987,0,0,0,5.127-2.057,3.156,3.156,0,0,0,3.244,1.941A6.782,6.782,0,0,0,42.121,20.6Zm-6.4-4.9c0,1.419-1.362,2.346-2.926,2.346-1.477,0-2.2-.753-2.2-1.8,0-1.1.811-1.912,2.462-1.912a11.673,11.673,0,0,1,2.665.348Zm109.82,5.156-5.591-9.7,5.243-5.707h-5.272l-5.533,6.141V.029h-4.722V20.887h4.722V17.121l2.26-2.4,3.534,6.17h5.359Zm-69.959,0-5.591-9.7,5.243-5.707H69.9l-5.475,6.141V.029H59.7V20.887h4.722V17.121l2.26-2.4,3.534,6.17h5.359Zm72.856-2.9A1.438,1.438,0,0,1,150,19.5a1.565,1.565,0,0,1-3.129,0A1.438,1.438,0,0,1,148.436,17.961Zm0,2.868a1.211,1.211,0,0,0,1.3-1.333,1.225,1.225,0,0,0-1.3-1.333,1.211,1.211,0,0,0-1.3,1.333A1.185,1.185,0,0,0,148.436,20.829Zm-.608-2.115h.637c.377,0,.579.2.579.492a.482.482,0,0,1-.319.492l.29.55h-.29l-.261-.492h-.348v.492h-.29Zm.29.232v.55h.319c.2,0,.319-.058.319-.261,0-.174-.087-.261-.29-.261h-.348Z" transform="translate(0 0)" fill="#1d1d1b"/>
  </g>
</svg>
