<svg xmlns="http://www.w3.org/2000/svg" width="50" height="44.444"><path data-name="Icon metro-users" d="M33.329 33.447v-2.29c3.06-1.724 5.556-6.023 5.556-10.323 0-6.9 0-12.5-8.333-12.5s-8.333 5.6-8.333 12.5c0 4.3 2.5 8.6 5.556 10.323v2.29c-9.423.77-16.667 5.4-16.667 11H50c0-5.6-7.244-10.227-16.667-11zm-19.127 1.072a26.39 26.39 0 018.671-3.49 15.67 15.67 0 01-1.757-2.562 15.906 15.906 0 01-2.018-7.634c0-3.734 0-7.262 1.328-10.146a9.044 9.044 0 016.911-5.186c-.734-3.319-2.688-5.5-7.892-5.5-8.333 0-8.333 5.6-8.333 12.5 0 4.3 2.5 8.6 5.556 10.323v2.291c-9.423.77-16.667 5.4-16.667 11h12.11a17.792 17.792 0 012.092-1.592z" fill="#5fecc8"/></svg>