<svg xmlns="http://www.w3.org/2000/svg" width="205.365" height="142.624"><g data-name="Group 238"><g data-name="Group 221"><g data-name="Group 217" transform="rotate(-8 189.542 13.307)"><rect data-name="Rectangle 96" width="190.913" height="117.194" rx="7" transform="translate(0 .061)" fill="rgba(95,236,200,0.3)"/><path data-name="Rectangle 97" d="M7.111 0h33.992v117.228H7.111a7 7 0 01-7-7V7a7 7 0 017-7z" fill="#5fecc8"/><g data-name="Group 153" fill="#2c2525"><path data-name="Path 357" d="M23.989 88.118a4.069 4.069 0 014.085 4.233v5.917H13.565v-5.453c0-2.4 1.432-3.917 3.707-3.917a3.04 3.04 0 013.074 1.832 3.6 3.6 0 013.643-2.612zm-8.655 8.23h4.275v-3.58a1.9 1.9 0 00-2.148-1.958 1.92 1.92 0 00-2.127 2.021zm8.486-6.318a2.429 2.429 0 00-2.526 2.611v3.707h5.011v-3.6a2.455 2.455 0 00-2.485-2.714z"/><path data-name="Path 358" d="M26.305 76.241h1.769v8.76H13.565v-8.549h1.769v6.654h4.717v-5.812h1.79v5.812h4.464z"/><path data-name="Path 359" d="M15.334 63.985v4.422h12.74v1.916h-12.74v4.422h-1.769V63.984z"/><path data-name="Path 360" d="M15.334 52.382v4.422h12.74v1.916h-12.74v4.423h-1.769v-10.76z"/><path data-name="Path 361" d="M13.565 49.943v-1.916h14.509v1.916z"/><path data-name="Path 362" d="M13.565 33.536h14.509v1.853l-11.056 6.7h11.056v1.916H13.565v-1.9l11.014-6.654H13.565z"/><path data-name="Path 363" d="M20.851 30.503a7.335 7.335 0 01-7.454-7.328 7.2 7.2 0 011.9-4.886l1.242 1.327a5.408 5.408 0 00-1.369 3.558 5.681 5.681 0 0011.35 0c0-2.505-1.431-4.422-3.685-4.717a1.84 1.84 0 00-.358-.042v4.211h-1.664v-6.317c5.075 0 7.476 2.737 7.476 6.864a7.33 7.33 0 01-7.438 7.33z"/></g><g data-name="Group 154" fill="#f8f8f8"><path data-name="Path 364" d="M73.749 79.053a5.77 5.77 0 01-1.726-.326 3.665 3.665 0 01-1.466-.781 2.63 2.63 0 01-.586-.651 2.282 2.282 0 01-.2-1.107 15.174 15.174 0 01.456-3.061q.325-1.563.911-3.615t.782-2.638q.521-.259 2.345-6.383.977-3.518 2.215-7.23a27.411 27.411 0 011.01-2.638q.488-1.075.618-1.335-.456.261-2.084 1.238a34.9 34.9 0 00-3.322 2.279q-.717.457-2.41 1.759a21.866 21.866 0 01-2.671 1.888l-1.107.847q-.2.131-.684.521a3.9 3.9 0 01-.781.521 1.248 1.248 0 01-.489.13.863.863 0 01-.521-.2 7.143 7.143 0 01-1.629-2.149q-.717-1.368-.326-2.019.13-.064 2.541-1.823 2.278-1.627 3-2.085a2.224 2.224 0 00.716-.489 10.286 10.286 0 011.107-.814 32.78 32.78 0 013.061-2.28l3.452-2.54q2.214-1.368 4.2-2.345a7.812 7.812 0 012.247-.912 6.752 6.752 0 011.759 1.01q1.367.946 1.432 1.466a1.054 1.054 0 01.131.456 4.983 4.983 0 01-.521 1.628q-.586 1.239-2.117 5.732t-2.312 7.1q-.457 1.694-1.368 4.168-.2.587-.554 1.661t-.618 2.182a38.588 38.588 0 00-1.3 3.974q-.718 2.539-1.108 4.3-.456 1.237-.781 2.475a6.278 6.278 0 01-.717 1.954 1.3 1.3 0 01-.585.132z"/><path data-name="Path 365" d="M96.06 76.839a9.473 9.473 0 01-3.094-1.5 12.816 12.816 0 01-4.429-10.291 25.028 25.028 0 01.26-3.192 26.03 26.03 0 013.029-8.3 25.618 25.618 0 015.439-6.871 16.853 16.853 0 017.034-4.038 17.532 17.532 0 013.843-.261 9.079 9.079 0 012.866.554 13 13 0 012.8 1.3q1.172.75 1.172 1.4a3.646 3.646 0 01-.1.977c-.065.218-.25.26-.554.13h-.652l.652 1.954a8.08 8.08 0 01.456 1.433 6.988 6.988 0 01.2 1.563 28.591 28.591 0 01-.651 4.624 31.4 31.4 0 01-1.108 4.494 3.075 3.075 0 00-.26 1.368q-.261.457-1.042 2.28l-.652 1.368a1.292 1.292 0 00-.391.456.36.36 0 00.065.456 4.918 4.918 0 01-.651 1.531q-.652 1.205-.912 1.205a.911.911 0 00-.2.032c-.087.022-.13.1-.13.228a4.287 4.287 0 01-.912 1.4 27.538 27.538 0 01-2.019 2.247 17.867 17.867 0 01-3.55 2.638 8.687 8.687 0 01-3.485 1.531 11.772 11.772 0 01-3.024-.716zm5.374-6.448a11.367 11.367 0 004.038-5.081 10.358 10.358 0 001.075-1.889q.422-.977 1.4-3.843a4.672 4.672 0 00.684-1.661 8.5 8.5 0 00.228-1.856 17.117 17.117 0 01.325-4.038 14.907 14.907 0 00-.065-1.954 2.922 2.922 0 00-.521-.847 2.418 2.418 0 00-1.564-.586 4.488 4.488 0 00-1.27.228 4.184 4.184 0 00-1.205.553 2.045 2.045 0 01-.586.131 1.381 1.381 0 01-.684-.163.482.482 0 01-.293-.424q0-.781-.684-.1t-2.508 2.963a16.766 16.766 0 00-1.921 2.312 5.226 5.226 0 00-.879 1.531 2.247 2.247 0 01-.228.717q-.229.522-.358.847a20.573 20.573 0 00-1.237 2.508 19.143 19.143 0 00-.977 2.573v3.517a11.344 11.344 0 00.1 1.889 3.783 3.783 0 00.326.911 6.334 6.334 0 00.358.652 6.754 6.754 0 00.847 1.107 10.837 10.837 0 01.716.847 1.42 1.42 0 00.847.521 1.707 1.707 0 00.586-.163 6.031 6.031 0 01.977-.293 3.341 3.341 0 002.473-.91z"/><path data-name="Path 366" d="M112.242 84.395a3.793 3.793 0 01-.847-2.672 12.623 12.623 0 011.172-4.885q.13-.259.619-1.172a4.555 4.555 0 00.554-1.433q.455-1.106 3.94-7.718t4.983-9.347h.065q.26 0 .489-.358a3.009 3.009 0 00.358-.88 3.826 3.826 0 01.456-1.205 1.529 1.529 0 01.651-.683 7.32 7.32 0 01.293-.684 2.008 2.008 0 00.228-.684 1.047 1.047 0 01.228-.456 1.022 1.022 0 00.228-.521q1.368-1.759 6.807-11.432t5.569-10.518q.064-.977 1.237-.782a1.253 1.253 0 011.042-.2l.749.749a10.869 10.869 0 011.074 1.27 1.822 1.822 0 01.456 1.237 3.689 3.689 0 01-.2 1.172 4.667 4.667 0 01-.488 1.629q-.359.651-1.726 2.6l-1.759 2.475q-.913 1.3-2.963 4.852a20.666 20.666 0 00-1.987 3.811q-.132.2-.488.781a8.133 8.133 0 00-.619 1.238q-.718.913-2.28 3.321a25.15 25.15 0 00-1.628 2.671 3.544 3.544 0 00-.163.423.915.915 0 01-.423.489c-.088-.043-.185.032-.293.227a1.057 1.057 0 00-.163.424q.13.522-1.563 3.256l-1.563 3.127q-.457.976-2.671 5.406t-3.615 7.522a27.286 27.286 0 00-1.6 4.006 8.329 8.329 0 01-.847 2.507 2.636 2.636 0 01-1.107 1.27 2.7 2.7 0 01-2.205-.833z"/><path data-name="Path 367" d="M153.865 79.053a5.77 5.77 0 01-1.726-.326 3.668 3.668 0 01-1.466-.781 2.63 2.63 0 01-.586-.651 2.283 2.283 0 01-.2-1.107 15.174 15.174 0 01.456-3.061q.324-1.563.911-3.615t.782-2.638q.521-.259 2.345-6.383.977-3.518 2.214-7.23a27.428 27.428 0 011.01-2.638q.489-1.075.619-1.335-.457.261-2.085 1.238a34.971 34.971 0 00-3.322 2.279q-.717.457-2.41 1.759a21.823 21.823 0 01-2.671 1.888l-1.107.847q-.2.131-.684.521a3.918 3.918 0 01-.782.521 1.243 1.243 0 01-.488.13.864.864 0 01-.521-.2 7.151 7.151 0 01-1.628-2.149q-.718-1.368-.325-2.019.129-.064 2.54-1.823 2.279-1.627 3-2.085a2.229 2.229 0 00.717-.489 10.241 10.241 0 011.107-.814 32.775 32.775 0 013.061-2.28l3.452-2.54q2.213-1.368 4.2-2.345a7.818 7.818 0 012.247-.912 6.762 6.762 0 011.759 1.01q1.367.946 1.433 1.466a1.052 1.052 0 01.13.456 4.977 4.977 0 01-.521 1.628q-.587 1.239-2.117 5.732t-2.312 7.1q-.456 1.694-1.367 4.168-.2.587-.554 1.661t-.619 2.182a38.884 38.884 0 00-1.3 3.974q-.717 2.539-1.107 4.3-.457 1.237-.782 2.475a6.268 6.268 0 01-.716 1.954 1.306 1.306 0 01-.587.132z"/></g></g></g></g></svg>