<svg xmlns="http://www.w3.org/2000/svg" width="50" height="50"><g data-name="Group 231"><path data-name="Icon awesome-google" d="M37.833 25.148c0 7.33-5.02 12.546-12.432 12.546a12.847 12.847 0 010-25.694 12.354 12.354 0 018.615 3.362l-3.5 3.362c-4.574-4.414-13.08-1.1-13.08 6.123a8.047 8.047 0 007.962 8.112c5.087 0 6.993-3.647 7.294-5.538h-7.291v-4.418h12.23a11.262 11.262 0 01.202 2.145z" fill="#5fecc8"/><g data-name="Rectangle 152" fill="#5fecc8" stroke="#2c2525" stroke-width="3"><path d="M11.036 9.363l29.698 29.698-3.535 3.536L7.5 12.899z" stroke="none"/><path fill="none" d="M11.036 7.242l31.82 31.82-5.657 5.656-31.82-31.82z"/></g><g data-name="Ellipse 124" fill="none" stroke="#5fecc8" stroke-width="6"><circle cx="25" cy="25" r="25" stroke="none"/><circle cx="25" cy="25" r="22"/></g></g></svg>