<svg xmlns="http://www.w3.org/2000/svg" width="16.883" height="16.883" viewBox="0 0 16.883 16.883">
  <path id="arrow-circle-right" d="M8,16.292A8.292,8.292,0,1,0,16.292,8,8.29,8.29,0,0,0,8,16.292ZM16.292,9.07A7.222,7.222,0,1,1,9.07,16.292,7.221,7.221,0,0,1,16.292,9.07Zm.418,3.093,3.848,3.845a.4.4,0,0,1,0,.568l-3.848,3.845a.4.4,0,0,1-.568,0l-.231-.231a.4.4,0,0,1,.007-.572l2.862-2.758H12.413a.4.4,0,0,1-.4-.4v-.334a.4.4,0,0,1,.4-.4h6.362l-2.862-2.758a.4.4,0,0,1-.007-.572l.231-.231A.406.406,0,0,1,16.709,12.162Z" transform="translate(-7.85 -7.85)" fill="#7e8593" stroke="#7e8593" stroke-width="0.3"/>
</svg>
