<svg xmlns="http://www.w3.org/2000/svg" width="33.886" height="33.886" viewBox="0 0 33.886 33.886">
  <path id="exclamation-circle" d="M24.943,8A16.943,16.943,0,1,0,41.886,24.943,16.946,16.946,0,0,0,24.943,8Zm0,30.607A13.664,13.664,0,1,1,38.607,24.943,13.656,13.656,0,0,1,24.943,38.607ZM27.813,31.5a2.869,2.869,0,1,1-2.869-2.869A2.873,2.873,0,0,1,27.813,31.5ZM22.253,17.059l.465,9.291a.82.82,0,0,0,.819.779h2.813a.82.82,0,0,0,.819-.779l.465-9.291a.82.82,0,0,0-.819-.861H23.072A.82.82,0,0,0,22.253,17.059Z" transform="translate(-8 -8)" fill="#f98070"/>
</svg>
